<svg version="1.0" xmlns="http://www.w3.org/2000/svg" viewBox="0 0 1181.000000 1181.000000"
 preserveAspectRatio="xMidYMid meet"><g><path style="opacity:0.998" fill="currentColor" d="M 100.5,12.5 C 427.834,12.3333 755.167,12.5 1082.5,13C 1130.33,22.1667 1158.83,50.6667 1168,98.5C 1168.67,425.833 1168.67,753.167 1168,1080.5C 1158.83,1128.33 1130.33,1156.83 1082.5,1166C 755.167,1166.67 427.833,1166.67 100.5,1166C 52.6667,1156.83 24.1667,1128.33 15,1080.5C 14.3333,753.167 14.3333,425.833 15,98.5C 24.3464,50.6539 52.8464,21.9873 100.5,12.5 Z"/></g>
<g><path class="icon-back" style="opacity:1" fill="#fefefe" d="M 137.5,65.5 C 439.834,65.3333 742.167,65.5 1044.5,66C 1084.25,72.7465 1107.75,95.9131 1115,135.5C 1115.67,437.833 1115.67,740.167 1115,1042.5C 1108.17,1082.67 1084.67,1106.17 1044.5,1113C 742.167,1113.67 439.833,1113.67 137.5,1113C 96.9929,1105.49 73.8262,1081.33 68,1040.5C 67.3333,738.833 67.3333,437.167 68,135.5C 75.3462,96.3208 98.5129,72.9875 137.5,65.5 Z"/></g>
<g><path class="icon" style="opacity:1" fill="currentColor" d="M 338.5,326.5 C 332.167,325.167 325.833,325.167 319.5,326.5C 322.356,324.994 325.523,324.328 329,324.5C 332.477,324.328 335.644,324.994 338.5,326.5 Z"/></g>
<g><path class="icon" style="opacity:1" fill="currentColor" d="M 462.5,338.5 C 461.628,344.789 461.295,351.122 461.5,357.5C 460.348,352.015 460.182,346.349 461,340.5C 461.278,339.584 461.778,338.918 462.5,338.5 Z"/></g>
<g><path class="icon" style="opacity:1" fill="currentColor" d="M 543.5,375.5 C 542.92,377.749 541.587,379.415 539.5,380.5C 540.08,378.251 541.413,376.585 543.5,375.5 Z"/></g>
<g><path class="icon" style="opacity:1" fill="currentColor" d="M 615.5,493.5 C 617.38,493.229 618.713,493.896 619.5,495.5C 617.847,495.34 616.514,494.674 615.5,493.5 Z"/></g>
<g><path class="icon" style="opacity:1" fill="currentColor" d="M 737.5,501.5 C 735.485,502.924 733.152,503.59 730.5,503.5C 732.515,502.076 734.848,501.41 737.5,501.5 Z"/></g>
<g><path class="icon" style="opacity:1" fill="currentColor" d="M 398.5,528.5 C 398.59,531.152 397.924,533.485 396.5,535.5C 396.41,532.848 397.076,530.515 398.5,528.5 Z"/></g>
<g><path class="icon" style="opacity:1" fill="currentColor" d="M 406.5,574.5 C 408.5,575.833 410.167,577.5 411.5,579.5C 408.833,578.833 407.167,577.167 406.5,574.5 Z"/></g>
<g><path class="icon" style="opacity:1" fill="currentColor" d="M 782.5,573.5 C 781.5,576.5 779.5,578.5 776.5,579.5C 778.167,577.167 780.167,575.167 782.5,573.5 Z"/></g>
<g><path class="icon" style="opacity:1" fill="currentColor" d="M 802.5,700.5 C 802.756,702.792 802.423,704.959 801.5,707C 663.333,707.833 525.333,707.666 387.5,706.5C 525.167,706.667 662.834,706.5 800.5,706C 801.109,704.052 801.776,702.218 802.5,700.5 Z"/></g>
<g><path class="icon" style="opacity:1" fill="currentColor" d="M 543.5,375.5 C 541.413,376.585 540.08,378.251 539.5,380.5C 534.022,385.407 528.022,389.573 521.5,393C 541.098,425.68 560.098,458.847 578.5,492.5C 553.547,505.925 544.88,526.425 552.5,554C 568.109,583.572 591.109,591.239 621.5,577C 630.924,570.576 637.758,562.076 642,551.5C 648.085,527.114 640.585,508.447 619.5,495.5C 618.713,493.896 617.38,493.229 615.5,493.5C 614.791,492.596 613.791,492.263 612.5,492.5C 612.799,488.895 613.965,485.561 616,482.5C 633.633,452.733 651.133,422.899 668.5,393C 643.307,379.056 635.14,358.222 644,330.5C 657.799,306.899 677.632,299.732 703.5,309C 727.479,321.666 735.312,341.166 727,367.5C 720.789,380.71 710.622,389.21 696.5,393C 695.978,393.561 695.645,394.228 695.5,395C 710.734,429.017 725.4,463.35 739.5,498C 739.613,499.699 738.947,500.866 737.5,501.5C 734.848,501.41 732.515,502.076 730.5,503.5C 703.403,517.815 696.237,539.149 709,567.5C 721.339,587.065 738.839,593.898 761.5,588C 766.811,585.679 771.811,582.846 776.5,579.5C 779.5,578.5 781.5,576.5 782.5,573.5C 795.224,555.188 795.724,536.521 784,517.5C 779.018,513.352 774.184,509.019 769.5,504.5C 791.206,470.628 812.706,436.628 834,402.5C 832.976,399.424 830.976,396.758 828,394.5C 816.131,378.73 814.797,362.063 824,344.5C 834.164,330.234 847.997,324.067 865.5,326C 892.484,332.108 903.984,348.942 900,376.5C 893.214,397.903 878.548,408.903 856,409.5C 838.309,506.499 820.475,603.499 802.5,700.5C 801.776,702.218 801.109,704.052 800.5,706C 662.834,706.5 525.167,706.667 387.5,706.5C 368.962,607.279 350.629,507.946 332.5,408.5C 307.699,408.869 292.866,396.869 288,372.5C 286.388,348.688 296.888,333.354 319.5,326.5C 325.833,325.167 332.167,325.167 338.5,326.5C 363.652,334.78 373.985,352.113 369.5,378.5C 365.849,386.988 360.849,394.488 354.5,401C 375.936,435.884 397.602,470.551 419.5,505C 409.462,510.2 402.462,518.034 398.5,528.5C 397.076,530.515 396.41,532.848 396.5,535.5C 393.262,550.348 396.595,563.348 406.5,574.5C 407.167,577.167 408.833,578.833 411.5,579.5C 423.082,589.079 436.416,592.246 451.5,589C 480.278,577.747 490.445,557.247 482,527.5C 475.097,514.599 464.597,505.766 450.5,501C 449.978,500.439 449.645,499.772 449.5,499C 461.622,471.085 473.788,443.252 486,415.5C 489.188,407.866 492.021,400.2 494.5,392.5C 484.833,391.017 477,386.35 471,378.5C 466.166,372.172 462.999,365.172 461.5,357.5C 461.295,351.122 461.628,344.789 462.5,338.5C 463.565,333.036 465.732,328.036 469,323.5C 485.535,304.714 505.368,300.214 528.5,310C 552.769,327.385 557.769,349.218 543.5,375.5 Z"/></g>
<g><path class="icon-back" style="opacity:1" fill="#eff6f6" d="M 803.5,731.5 C 663.145,731.173 522.812,731.506 382.5,732.5C 383.263,731.732 384.263,731.232 385.5,731C 525.001,730.167 664.334,730.334 803.5,731.5 Z"/></g>
<g><path class="icon" style="opacity:1" fill="currentColor" d="M 803.5,731.5 C 825.56,739.845 830.393,754.178 818,774.5C 813.652,778.758 808.486,781.592 802.5,783C 733.333,783.167 664.167,783.333 595,783.5C 523.803,783.657 452.637,783.157 381.5,782C 366.868,774.594 361.868,762.927 366.5,747C 369.774,739.893 375.107,735.06 382.5,732.5C 522.812,731.506 663.145,731.173 803.5,731.5 Z"/></g>
<g><path class="icon" style="opacity:1" fill="currentColor" d="M 875.5,948.5 C 874.957,948.56 874.624,948.893 874.5,949.5C 877.98,950.806 881.313,950.806 884.5,949.5C 883.773,940.579 882.44,931.745 880.5,923C 883.255,916.125 888.255,913.792 895.5,916C 896.333,916.833 897.167,917.667 898,918.5C 911.498,907.391 924.498,908.057 937,920.5C 943.568,929.439 946.068,939.439 944.5,950.5C 950.49,950.901 954.99,948.568 958,943.5C 957.728,925.115 956.728,906.782 955,888.5C 959.491,883.741 964.991,882.241 971.5,884C 972.893,885.171 973.727,886.671 974,888.5C 975.533,906.471 975.866,924.471 975,942.5C 972.941,954.892 965.774,962.392 953.5,965C 941.346,964.462 929.179,963.628 917,962.5C 903.508,963.599 890.008,964.599 876.5,965.5C 870.719,965.648 865.053,964.981 859.5,963.5C 851.249,965.348 842.916,965.848 834.5,965C 832.22,964.767 830.22,963.934 828.5,962.5C 820.859,975.741 809.359,982.741 794,983.5C 792.013,982.846 790.68,981.513 790,979.5C 789.01,975.556 789.51,971.889 791.5,968.5C 792.025,967.808 792.692,967.308 793.5,967C 797.5,966.667 801.5,966.333 805.5,966C 807.623,965.185 809.623,964.185 811.5,963C 792.511,957.512 785.677,945.345 791,926.5C 800.201,914.567 811.368,912.401 824.5,920C 827.057,922.892 829.224,926.059 831,929.5C 832,935.5 833,941.5 834,947.5C 836.995,950.265 840.495,951.098 844.5,950C 838.135,940.793 836.969,930.959 841,920.5C 849.973,908.105 860.807,906.272 873.5,915C 881.973,925.641 882.64,936.808 875.5,948.5 Z"/></g>
<g><path class="icon" style="opacity:1" fill="currentColor" d="M 988.5,882.5 C 997.474,881.405 1001.31,885.405 1000,894.5C 1000.83,917.507 1000.67,940.507 999.5,963.5C 994.351,966.498 989.518,966.164 985,962.5C 983.498,939.143 981.664,915.809 979.5,892.5C 979.667,891.167 979.833,889.833 980,888.5C 982.671,886.098 985.505,884.098 988.5,882.5 Z"/></g>
<g><path class="icon" style="opacity:1" fill="currentColor" d="M 759.5,905.5 C 748.191,905.706 745.191,900.873 750.5,891C 756.089,888.222 760.589,889.388 764,894.5C 767.366,889.391 771.866,888.224 777.5,891C 781.393,895.258 781.393,899.591 777.5,904C 771.866,906.776 767.366,905.609 764,900.5C 762.634,902.362 761.134,904.028 759.5,905.5 Z"/></g>
<g><path class="icon" style="opacity:1" fill="currentColor" d="M 856.5,889.5 C 865.562,889.642 868.728,893.975 866,902.5C 861.907,907.117 857.573,907.451 853,903.5C 850.133,897.63 851.3,892.963 856.5,889.5 Z"/></g>
<g><path class="icon" style="opacity:1" fill="currentColor" d="M 323.5,895.5 C 335.782,894.485 346.782,897.651 356.5,905C 354.35,909.14 351.517,912.64 348,915.5C 341.179,910.92 333.679,909.086 325.5,910C 320.69,913.355 320.356,917.021 324.5,921C 332.883,923.846 341.217,926.846 349.5,930C 358.003,937.664 359.836,946.831 355,957.5C 351.525,962.626 346.691,965.792 340.5,967C 325.745,969.627 313.078,965.794 302.5,955.5C 305.122,951.543 308.122,947.876 311.5,944.5C 316.783,948.975 322.783,952.142 329.5,954C 333.875,954.653 337.708,953.487 341,950.5C 342.123,947.044 341.29,944.21 338.5,942C 329.894,939.765 321.56,936.765 313.5,933C 309.698,930.913 307.198,927.746 306,923.5C 303.086,908.599 308.919,899.266 323.5,895.5 Z"/></g>
<g><path class="icon" style="opacity:1" fill="currentColor" d="M 241.5,965.5 C 236.36,966.488 231.026,966.821 225.5,966.5C 223.643,961.952 221.643,957.452 219.5,953C 209.483,952.168 199.483,952.334 189.5,953.5C 187.629,958.074 185.629,962.574 183.5,967C 178.177,967.499 172.844,967.666 167.5,967.5C 176.872,944.417 186.539,921.417 196.5,898.5C 202.054,897.194 207.554,897.194 213,898.5C 222.512,920.855 232.012,943.188 241.5,965.5 Z"/></g>
<g><path class="icon" style="opacity:1" fill="currentColor" d="M 250.5,897.5 C 255.5,897.5 260.5,897.5 265.5,897.5C 265.5,916.167 265.5,934.833 265.5,953.5C 275.5,953.5 285.5,953.5 295.5,953.5C 295.5,957.833 295.5,962.167 295.5,966.5C 280.5,966.5 265.5,966.5 250.5,966.5C 250.5,943.5 250.5,920.5 250.5,897.5 Z"/></g>
<g><path class="icon" style="opacity:1" fill="currentColor" d="M 250.5,897.5 C 255.64,896.512 260.974,896.179 266.5,896.5C 266.5,915.167 266.5,933.833 266.5,952.5C 276.348,952.173 286.014,952.506 295.5,953.5C 285.5,953.5 275.5,953.5 265.5,953.5C 265.5,934.833 265.5,916.167 265.5,897.5C 260.5,897.5 255.5,897.5 250.5,897.5 Z"/></g>
<g><path class="icon" style="opacity:1" fill="currentColor" d="M 378.5,966.5 C 372.729,967.113 367.396,966.446 362.5,964.5C 372.116,942.271 381.449,919.937 390.5,897.5C 396.167,897.5 401.833,897.5 407.5,897.5C 416.872,920.583 426.539,943.583 436.5,966.5C 430.872,967.495 425.206,967.829 419.5,967.5C 417.993,962.484 415.993,957.65 413.5,953C 403.506,952.5 393.506,952.334 383.5,952.5C 381.84,957.156 380.174,961.823 378.5,966.5 Z"/></g>
<g><path class="icon" style="opacity:1" fill="currentColor" d="M 492.5,897.5 C 476.833,897.5 461.167,897.5 445.5,897.5C 445.5,920.5 445.5,943.5 445.5,966.5C 450.5,966.5 455.5,966.5 460.5,966.5C 455.36,967.488 450.026,967.821 444.5,967.5C 444.5,943.833 444.5,920.167 444.5,896.5C 460.675,896.17 476.675,896.504 492.5,897.5 Z"/></g>
<g><path class="icon" style="opacity:1" fill="currentColor" d="M 492.5,897.5 C 492.5,901.833 492.5,906.167 492.5,910.5C 481.833,910.5 471.167,910.5 460.5,910.5C 460.5,915.833 460.5,921.167 460.5,926.5C 470.833,926.5 481.167,926.5 491.5,926.5C 491.5,930.833 491.5,935.167 491.5,939.5C 481.167,939.5 470.833,939.5 460.5,939.5C 460.5,948.5 460.5,957.5 460.5,966.5C 455.5,966.5 450.5,966.5 445.5,966.5C 445.5,943.5 445.5,920.5 445.5,897.5C 461.167,897.5 476.833,897.5 492.5,897.5 Z"/></g>
<g><path class="icon" style="opacity:1" fill="currentColor" d="M 497.5,897.5 C 503.206,897.171 508.872,897.505 514.5,898.5C 519.099,911.129 523.599,923.795 528,936.5C 531.945,923.5 535.779,910.5 539.5,897.5C 545.425,897.192 551.259,897.525 557,898.5C 560.695,911.283 564.695,923.95 569,936.5C 573.531,923.908 577.864,911.241 582,898.5C 587.75,897.359 593.584,897.193 599.5,898C 591.403,920.79 583.403,943.623 575.5,966.5C 571.555,967.491 567.555,967.824 563.5,967.5C 559.027,951.247 553.86,935.247 548,919.5C 542.853,935.427 538.019,951.427 533.5,967.5C 529.445,967.824 525.445,967.491 521.5,966.5C 513.493,943.477 505.493,920.477 497.5,897.5 Z"/></g>
<g><path class="icon" style="opacity:1" fill="currentColor" d="M 612.5,966.5 C 606.729,967.113 601.396,966.446 596.5,964.5C 605.836,942.155 615.17,919.821 624.5,897.5C 630.167,897.5 635.833,897.5 641.5,897.5C 650.872,920.583 660.539,943.583 670.5,966.5C 664.872,967.495 659.206,967.829 653.5,967.5C 651.993,962.484 649.993,957.65 647.5,953C 637.483,952.168 627.483,952.334 617.5,953.5C 615.543,957.744 613.876,962.077 612.5,966.5 Z"/></g>
<g><path class="icon" style="opacity:1" fill="currentColor" d="M 759.5,905.5 C 762.32,905.248 764.986,905.748 767.5,907C 774.061,914.617 779.228,923.117 783,932.5C 787.386,945.185 784.219,955.352 773.5,963C 754.739,968.964 744.073,962.297 741.5,943C 741.509,934.151 744.675,926.651 751,920.5C 750.744,913.672 753.577,908.672 759.5,905.5 Z"/></g>
<g><path class="icon-back" style="opacity:1" fill="#f4f8f8" d="M 398.5,918.5 C 401.725,924.621 404.725,930.955 407.5,937.5C 401.833,938.833 396.167,938.833 390.5,937.5C 393.455,931.26 396.122,924.927 398.5,918.5 Z"/></g>
<g><path class="icon-back" style="opacity:1" fill="#f5f9f9" d="M 632.5,918.5 C 635.672,924.645 638.672,930.978 641.5,937.5C 635.833,938.833 630.167,938.833 624.5,937.5C 627.455,931.26 630.122,924.927 632.5,918.5 Z"/></g>
<g><path class="icon-back" style="opacity:1" fill="#f3f7f7" d="M 204.5,918.5 C 207.672,924.645 210.672,930.978 213.5,937.5C 207.872,938.495 202.206,938.829 196.5,938.5C 198.969,931.761 201.636,925.094 204.5,918.5 Z"/></g>
<g><path class="icon-back" style="opacity:1" fill="#fbfcfc" d="M 913.5,924.5 C 920.733,923.893 924.9,927.226 926,934.5C 926.499,938.821 926.666,943.154 926.5,947.5C 917.479,947.401 908.479,947.734 899.5,948.5C 899.062,937.359 903.729,929.359 913.5,924.5 Z"/></g>
<g><path class="icon-back" style="opacity:1" fill="#f6f9f9" d="M 856.5,927.5 C 859.044,927.104 861.211,927.771 863,929.5C 863.667,932.833 863.667,936.167 863,939.5C 862.363,941.303 861.197,942.636 859.5,943.5C 854.231,938.943 853.231,933.609 856.5,927.5 Z"/></g>
<g><path class="icon" style="opacity:1" fill="currentColor" d="M 676.5,930.5 C 688.5,930.5 700.5,930.5 712.5,930.5C 712.5,934.833 712.5,939.167 712.5,943.5C 700.5,943.5 688.5,943.5 676.5,943.5C 676.5,939.167 676.5,934.833 676.5,930.5 Z"/></g>
<g><path class="icon-back" style="opacity:1" fill="#f5f8f8" d="M 763.5,930.5 C 766.972,933.936 769.306,938.103 770.5,943C 770.164,947.573 767.664,949.739 763,949.5C 758.833,949.333 756.667,947.167 756.5,943C 757.678,938.139 760.012,933.972 763.5,930.5 Z"/></g>
<g><path class="icon-back" style="opacity:1" fill="#f6f9fa" d="M 807.5,931.5 C 813.302,930.006 817.136,932.006 819,937.5C 822.012,947.943 819.179,950.443 810.5,945C 808.667,943.167 806.833,941.333 805,939.5C 804.018,936.225 804.851,933.559 807.5,931.5 Z"/></g>
<g><path class="icon" style="opacity:1" fill="currentColor" d="M 875.5,948.5 C 878.287,949.477 881.287,949.81 884.5,949.5C 881.313,950.806 877.98,950.806 874.5,949.5C 874.624,948.893 874.957,948.56 875.5,948.5 Z"/></g>
<g><path class="icon" style="opacity:1" fill="currentColor" d="M 241.5,965.5 C 242.043,965.56 242.376,965.893 242.5,966.5C 236.68,967.816 231.013,967.816 225.5,966.5C 231.026,966.821 236.36,966.488 241.5,965.5 Z"/></g>
<g><path class="icon" style="opacity:1" fill="currentColor" d="M 295.5,953.5 C 296.486,957.97 296.819,962.637 296.5,967.5C 280.991,967.83 265.658,967.496 250.5,966.5C 265.5,966.5 280.5,966.5 295.5,966.5C 295.5,962.167 295.5,957.833 295.5,953.5 Z"/></g>
<g><path class="icon" style="opacity:1" fill="currentColor" d="M 362.5,964.5 C 367.396,966.446 372.729,967.113 378.5,966.5C 373.025,967.489 367.358,967.822 361.5,967.5C 361.263,966.209 361.596,965.209 362.5,964.5 Z"/></g>
<g><path class="icon" style="opacity:1" fill="currentColor" d="M 596.5,964.5 C 601.396,966.446 606.729,967.113 612.5,966.5C 607.025,967.489 601.358,967.822 595.5,967.5C 595.263,966.209 595.596,965.209 596.5,964.5 Z"/></g>
</svg>
