<svg version="1.0" xmlns="http://www.w3.org/2000/svg" viewBox="0 0 1181.000000 1181.000000"
 preserveAspectRatio="xMidYMid meet"><g><path style="opacity:0.998" fill="currentColor" d="M 100.5,12.5 C 427.834,12.3333 755.167,12.5 1082.5,13C 1130.33,22.1667 1158.83,50.6667 1168,98.5C 1168.67,425.833 1168.67,753.167 1168,1080.5C 1158.83,1128.33 1130.33,1156.83 1082.5,1166C 755.167,1166.67 427.833,1166.67 100.5,1166C 52.6667,1156.83 24.1667,1128.33 15,1080.5C 14.3333,753.167 14.3333,425.833 15,98.5C 24.3464,50.6539 52.8464,21.9873 100.5,12.5 Z"/></g>
<g><path class="icon-back" style="opacity:1" fill="#fefefe" d="M 137.5,65.5 C 439.834,65.3333 742.167,65.5 1044.5,66C 1084.25,72.7465 1107.75,95.9131 1115,135.5C 1115.67,437.833 1115.67,740.167 1115,1042.5C 1108.17,1082.67 1084.67,1106.17 1044.5,1113C 742.167,1113.67 439.833,1113.67 137.5,1113C 96.9929,1105.49 73.8262,1081.33 68,1040.5C 67.3333,738.833 67.3333,437.167 68,135.5C 75.3462,96.3208 98.5129,72.9875 137.5,65.5 Z"/></g>
<g><path class="icon" style="opacity:1" fill="currentColor" d="M 575.5,122.5 C 601.842,118.711 620.009,129.045 630,153.5C 633.739,161.788 635.905,170.455 636.5,179.5C 653.17,179.333 669.837,179.5 686.5,180C 697.457,181.797 702.79,188.297 702.5,199.5C 702.666,217.888 695.666,232.721 681.5,244C 675.606,247.52 669.273,249.854 662.5,251C 611.807,253.231 561.14,252.897 510.5,250C 489.582,243.147 475.749,229.314 469,208.5C 468.53,191.289 477.03,181.789 494.5,180C 508.496,179.5 522.496,179.333 536.5,179.5C 537.515,164.954 542.015,151.621 550,139.5C 556.454,130.695 564.954,125.028 575.5,122.5 Z"/></g>
<g><path class="icon" style="opacity:1" fill="#fcfdfd" d="M 579.5,150.5 C 599.874,150.375 610.041,160.375 610,180.5C 603.776,199.247 591.276,205.414 572.5,199C 559.402,189.442 556.235,177.275 563,162.5C 567.256,156.737 572.756,152.737 579.5,150.5 Z"/></g>
<g><path class="icon" style="opacity:1" fill="currentColor" d="M 796.5,627.5 C 794.393,626.532 792.059,626.198 789.5,626.5C 789.83,608.326 789.497,590.326 788.5,572.5C 788.667,483.833 788.5,395.166 788,306.5C 784.963,298.553 779.13,294.387 770.5,294C 647.167,293.333 523.833,293.333 400.5,294C 391.454,295.379 385.954,300.545 384,309.5C 383.333,458.833 383.333,608.167 384,757.5C 385.268,764.428 389.101,769.261 395.5,772C 480.835,772.167 566.169,772.667 651.5,773.5C 654.792,784 657.458,794.667 659.5,805.5C 601.002,806.499 542.336,806.832 483.5,806.5C 455.831,806.667 428.165,806.5 400.5,806C 371.749,803.248 356.582,787.414 355,758.5C 354.333,584.5 354.333,410.5 355,236.5C 358.116,209.384 373.283,194.217 400.5,191C 421.175,190.167 441.841,190.334 462.5,191.5C 465.394,239.226 490.728,261.726 538.5,259C 578.179,259.857 617.846,259.524 657.5,258C 678.173,255.989 692.673,245.489 701,226.5C 705.382,215.192 708.215,203.525 709.5,191.5C 729.836,191.333 750.169,191.5 770.5,192C 795.414,192.254 810.914,204.421 817,228.5C 817.5,362.166 817.667,495.833 817.5,629.5C 810.422,629.136 803.422,628.469 796.5,627.5 Z"/></g>
<g><path class="icon" style="opacity:1" fill="currentColor" d="M 515.5,371.5 C 527.943,370.429 532.443,375.762 529,387.5C 512.167,405.667 495.333,423.833 478.5,442C 473.211,446.901 467.544,447.568 461.5,444C 452.218,432.609 444.051,420.443 437,407.5C 436.665,397.521 441.498,393.687 451.5,396C 456.823,399.659 461.156,404.326 464.5,410C 469.098,413.256 473.764,413.256 478.5,410C 490,396.334 502.333,383.501 515.5,371.5 Z"/></g>
<g><path class="icon" style="opacity:1" fill="currentColor" d="M 745.5,418.5 C 745.5,422.5 745.5,426.5 745.5,430.5C 680.5,430.5 615.5,430.5 550.5,430.5C 550.5,423.5 550.5,416.5 550.5,409.5C 615.5,409.5 680.5,409.5 745.5,409.5C 745.5,412.5 745.5,415.5 745.5,418.5 Z"/></g>
<g><path class="icon" style="opacity:1" fill="currentColor" d="M 745.5,418.5 C 746.485,422.634 746.818,426.968 746.5,431.5C 680.998,431.832 615.665,431.499 550.5,430.5C 615.5,430.5 680.5,430.5 745.5,430.5C 745.5,426.5 745.5,422.5 745.5,418.5 Z"/></g>
<g><path class="icon" style="opacity:1" fill="currentColor" d="M 516.5,473.5 C 528.408,472.9 532.574,478.233 529,489.5C 512.081,508.809 494.581,527.642 476.5,546C 471.994,548.814 467.327,549.147 462.5,547C 451.688,535.199 443.021,522.033 436.5,507.5C 438.241,499.292 443.241,496.125 451.5,498C 457.211,502.044 461.878,507.044 465.5,513C 469.471,514.913 473.471,514.913 477.5,513C 490.088,499.247 503.088,486.08 516.5,473.5 Z"/></g>
<g><path class="icon" style="opacity:1" fill="currentColor" d="M 745.5,527.5 C 745.167,527.5 744.833,527.5 744.5,527.5C 679.833,527.5 615.167,527.5 550.5,527.5C 550.5,528.833 550.5,530.167 550.5,531.5C 549.549,530.081 549.216,528.415 549.5,526.5C 615.002,526.168 680.335,526.501 745.5,527.5 Z"/></g>
<g><path class="icon" style="opacity:1" fill="currentColor" d="M 744.5,527.5 C 744.5,534.5 744.5,541.5 744.5,548.5C 680.167,548.5 615.833,548.5 551.5,548.5C 551.468,542.811 551.134,537.145 550.5,531.5C 550.5,530.167 550.5,528.833 550.5,527.5C 615.167,527.5 679.833,527.5 744.5,527.5 Z"/></g>
<g><path class="icon" style="opacity:1" fill="currentColor" d="M 744.5,527.5 C 744.833,527.5 745.167,527.5 745.5,527.5C 745.5,534.833 745.5,542.167 745.5,549.5C 680.665,549.832 615.998,549.499 551.5,548.5C 615.833,548.5 680.167,548.5 744.5,548.5C 744.5,541.5 744.5,534.5 744.5,527.5 Z"/></g>
<g><path class="icon" style="opacity:1" fill="currentColor" d="M 788.5,572.5 C 789.497,590.326 789.83,608.326 789.5,626.5C 792.059,626.198 794.393,626.532 796.5,627.5C 793.833,627.5 791.167,627.5 788.5,627.5C 788.5,609.167 788.5,590.833 788.5,572.5 Z"/></g>
<g><path class="icon" style="opacity:1" fill="currentColor" d="M 516.5,605.5 C 529.26,606.06 533.094,612.06 528,623.5C 510.866,642.302 493.366,660.802 475.5,679C 471.623,681.582 467.623,681.915 463.5,680C 455.151,670.796 447.651,660.963 441,650.5C 438.935,647.04 437.435,643.374 436.5,639.5C 438.919,631.124 444.252,628.291 452.5,631C 457.612,635.536 462.279,640.536 466.5,646C 470.836,648.222 474.836,647.722 478.5,644.5C 490.517,630.817 503.184,617.817 516.5,605.5 Z"/></g>
<g><path class="icon" style="opacity:1" fill="currentColor" d="M 768.5,637.5 C 828.404,635.183 870.571,661.183 895,715.5C 910.799,765.467 900.299,808.967 863.5,846C 829.926,874.769 791.593,883.769 748.5,873C 699.582,855.411 671.082,820.911 663,769.5C 660.442,717.107 681.609,677.607 726.5,651C 739.9,644.143 753.9,639.643 768.5,637.5 Z"/></g>
<g><path class="icon" style="opacity:1" fill="currentColor" d="M 550.5,646.5 C 603.335,645.169 656.335,645.169 709.5,646.5C 709.376,647.107 709.043,647.44 708.5,647.5C 656.003,646.501 603.336,646.168 550.5,646.5 Z"/></g>
<g><path class="icon" style="opacity:1" fill="currentColor" d="M 550.5,646.5 C 603.336,646.168 656.003,646.501 708.5,647.5C 700.147,659.181 688.814,666.014 674.5,668C 633.501,668.5 592.501,668.667 551.5,668.5C 550.962,661.178 550.629,653.845 550.5,646.5 Z"/></g>
<g><path class="icon-back" style="opacity:1" fill="#fdfdfd" d="M 857.5,720.5 C 854.097,722.9 851.43,725.9 849.5,729.5C 846.833,731.5 844.5,733.833 842.5,736.5C 839.167,739.167 836.167,742.167 833.5,745.5C 826.131,752.867 819.131,760.534 812.5,768.5C 809.167,771.167 806.167,774.167 803.5,777.5C 801.5,779.833 799.5,782.167 797.5,784.5C 793.833,787.5 790.5,790.833 787.5,794.5C 779.672,803.162 771.338,811.328 762.5,819C 758.302,821.161 754.302,820.828 750.5,818C 736.474,800.116 723.307,781.616 711,762.5C 706.288,753.833 708.122,747 716.5,742C 721.111,740.993 725.445,741.66 729.5,744C 737.882,754.048 745.882,764.381 753.5,775C 758.987,777.185 764.32,776.851 769.5,774C 791.469,750.364 813.802,727.03 836.5,704C 840.769,701.063 845.436,699.063 850.5,698C 858.209,697.201 862.542,700.701 863.5,708.5C 862.552,713.064 860.552,717.064 857.5,720.5 Z"/></g>
<g><path class="icon" style="opacity:1" fill="currentColor" d="M 857.5,720.5 C 855.57,724.1 852.903,727.1 849.5,729.5C 851.43,725.9 854.097,722.9 857.5,720.5 Z"/></g>
<g><path class="icon" style="opacity:1" fill="currentColor" d="M 842.5,736.5 C 840.5,740.5 837.5,743.5 833.5,745.5C 836.167,742.167 839.167,739.167 842.5,736.5 Z"/></g>
<g><path class="icon" style="opacity:1" fill="currentColor" d="M 812.5,768.5 C 810.5,772.5 807.5,775.5 803.5,777.5C 806.167,774.167 809.167,771.167 812.5,768.5 Z"/></g>
<g><path class="icon" style="opacity:1" fill="currentColor" d="M 797.5,784.5 C 795.167,788.833 791.833,792.167 787.5,794.5C 790.5,790.833 793.833,787.5 797.5,784.5 Z"/></g>
<g><path class="icon" style="opacity:1" fill="currentColor" d="M 659.5,805.5 C 660.043,805.56 660.376,805.893 660.5,806.5C 601.335,807.831 542.335,807.831 483.5,806.5C 542.336,806.832 601.002,806.499 659.5,805.5 Z"/></g>
<g><path class="icon" style="opacity:1" fill="currentColor" d="M 808.5,948.5 C 812.182,948.335 815.848,948.501 819.5,949C 820,949.5 820.5,950 821,950.5C 822.03,954.773 822.697,959.106 823,963.5C 823.333,978.833 823.667,994.167 824,1009.5C 825.8,1013.24 828.8,1014.9 833,1014.5C 835.352,1014.7 837.352,1014.03 839,1012.5C 839.949,1002.86 841.782,993.365 844.5,984C 847.14,981.095 850.474,979.929 854.5,980.5C 867.997,981.501 877.497,988.167 883,1000.5C 883.806,1005.01 885.139,1009.35 887,1013.5C 896.377,1016.57 901.544,1013.23 902.5,1003.5C 901.229,997.999 899.729,992.666 898,987.5C 902.94,981.275 908.94,979.942 916,983.5C 916.862,985.087 917.529,986.754 918,988.5C 918.333,995.833 918.667,1003.17 919,1010.5C 921.481,1015.39 925.314,1016.72 930.5,1014.5C 924.525,1004.39 924.025,994.053 929,983.5C 938.406,972.876 948.906,971.709 960.5,980C 968.167,991.231 968.5,1002.73 961.5,1014.5C 976.165,1017 981.665,1011 978,996.5C 975.864,993.763 974.864,990.763 975,987.5C 978.88,982.641 984.046,980.474 990.5,981C 987.924,980.218 985.924,978.718 984.5,976.5C 980.251,982.054 975.418,982.72 970,978.5C 966.615,971.359 968.615,966.692 976,964.5C 979.549,965.022 982.382,966.689 984.5,969.5C 988.579,963.719 993.413,963.053 999,967.5C 1002.46,975.421 999.956,980.254 991.5,982C 993.438,984.47 994.604,987.304 995,990.5C 995.333,997.167 995.667,1003.83 996,1010.5C 996.465,1011.93 997.299,1013.1 998.5,1014C 1009.32,1015.35 1013.98,1010.52 1012.5,999.5C 1011.57,984.383 1010.07,969.383 1008,954.5C 1012.53,948.829 1018.36,946.996 1025.5,949C 1027,950.491 1027.84,952.324 1028,954.5C 1029.91,973.525 1029.91,992.525 1028,1011.5C 1022.4,1025.73 1011.9,1031.89 996.5,1030C 993.104,1028.55 989.937,1026.72 987,1024.5C 979.899,1029.25 972.066,1031.25 963.5,1030.5C 957.405,1030.62 951.405,1029.95 945.5,1028.5C 936.917,1030.37 928.25,1030.87 919.5,1030C 916.166,1028.67 913.166,1026.84 910.5,1024.5C 902.898,1029.53 894.564,1031.36 885.5,1030C 882.421,1028.75 879.754,1026.92 877.5,1024.5C 867.776,1032.14 857.776,1032.47 847.5,1025.5C 826.826,1035.75 813.326,1029.75 807,1007.5C 804.543,989.565 803.21,971.565 803,953.5C 804.73,951.598 806.563,949.931 808.5,948.5 Z"/></g>
<g><path class="icon" style="opacity:1" fill="currentColor" d="M 1042.5,947.5 C 1051.69,947.47 1055.52,952.137 1054,961.5C 1054.67,983.5 1054.67,1005.5 1054,1027.5C 1048.29,1031.81 1042.95,1031.48 1038,1026.5C 1037.3,1004.12 1035.8,981.783 1033.5,959.5C 1033.45,953.219 1036.45,949.219 1042.5,947.5 Z"/></g>
<g><path class="icon" style="opacity:1" fill="currentColor" d="M 933.5,954.5 C 938.22,953.894 941.886,955.56 944.5,959.5C 947.026,955.238 950.693,953.738 955.5,955C 960.069,957.541 961.569,961.375 960,966.5C 957.089,970.277 953.256,971.444 948.5,970C 947.057,968.933 945.724,967.766 944.5,966.5C 940.206,972.065 935.373,972.731 930,968.5C 927.133,962.63 928.3,957.963 933.5,954.5 Z"/></g>
<g><path class="icon" style="opacity:1" fill="currentColor" d="M 147.5,959.5 C 159.978,958.092 171.311,960.925 181.5,968C 183.019,969.351 184.352,970.851 185.5,972.5C 182.146,976.019 178.98,979.686 176,983.5C 166.921,973.773 156.421,971.939 144.5,978C 136.433,985.609 134.266,994.776 138,1005.5C 146.076,1017.27 156.576,1019.77 169.5,1013C 171.333,1011.17 173.167,1009.33 175,1007.5C 178,1010.5 181,1013.5 184,1016.5C 183.912,1019.64 182.412,1022.14 179.5,1024C 165.231,1033.11 150.564,1033.78 135.5,1026C 118.261,1011.52 115.094,994.358 126,974.5C 131.818,967.359 138.985,962.359 147.5,959.5 Z"/></g>
<g><path class="icon" style="opacity:1" fill="currentColor" d="M 610.5,977.5 C 606.167,977.5 601.833,977.5 597.5,977.5C 597.5,972.167 597.5,966.833 597.5,961.5C 592.833,961.5 588.167,961.5 583.5,961.5C 583.5,966.833 583.5,972.167 583.5,977.5C 581.167,977.5 578.833,977.5 576.5,977.5C 578.265,976.539 580.265,976.205 582.5,976.5C 582.5,971.167 582.5,965.833 582.5,960.5C 587.833,960.5 593.167,960.5 598.5,960.5C 598.5,965.833 598.5,971.167 598.5,976.5C 602.702,976.183 606.702,976.517 610.5,977.5 Z"/></g>
<g><path class="icon" style="opacity:1" fill="currentColor" d="M 610.5,977.5 C 610.5,980.833 610.5,984.167 610.5,987.5C 606.167,987.5 601.833,987.5 597.5,987.5C 597.174,996.017 597.507,1004.35 598.5,1012.5C 600.758,1019.29 604.758,1020.29 610.5,1015.5C 612.437,1018.38 614.104,1021.38 615.5,1024.5C 614.239,1026.99 612.239,1028.83 609.5,1030C 600.387,1033.35 592.554,1031.51 586,1024.5C 584.864,1022.26 584.03,1019.92 583.5,1017.5C 583.5,1007.5 583.5,997.5 583.5,987.5C 581.167,987.5 578.833,987.5 576.5,987.5C 576.5,984.167 576.5,980.833 576.5,977.5C 578.833,977.5 581.167,977.5 583.5,977.5C 583.5,972.167 583.5,966.833 583.5,961.5C 588.167,961.5 592.833,961.5 597.5,961.5C 597.5,966.833 597.5,972.167 597.5,977.5C 601.833,977.5 606.167,977.5 610.5,977.5 Z"/></g>
<g><path class="icon" style="opacity:1" fill="currentColor" d="M 751.5,964.5 C 756.55,964.274 760.383,966.274 763,970.5C 766.957,963.247 771.957,962.58 778,968.5C 780.112,975.618 777.612,979.951 770.5,981.5C 767.162,980.835 764.495,979.168 762.5,976.5C 757.29,983.1 752.123,983.1 747,976.5C 745.474,971.239 746.974,967.239 751.5,964.5 Z"/></g>
<g><path class="icon" style="opacity:1" fill="currentColor" d="M 210.5,976.5 C 239.495,974.985 250.995,988.318 245,1016.5C 234.135,1032.47 219.968,1035.97 202.5,1027C 190.715,1017.57 187.549,1005.73 193,991.5C 196.889,984.103 202.722,979.103 210.5,976.5 Z"/></g>
<g><path class="icon" style="opacity:1" fill="currentColor" d="M 307.5,1030.5 C 302.833,1030.5 298.167,1030.5 293.5,1030.5C 293.828,1019.65 293.494,1008.99 292.5,998.5C 291.982,990.821 287.982,987.988 280.5,990C 278.376,991.122 276.543,992.622 275,994.5C 273.562,1006.42 273.062,1018.42 273.5,1030.5C 268.5,1030.5 263.5,1030.5 258.5,1030.5C 258.5,1012.83 258.5,995.167 258.5,977.5C 263.5,977.5 268.5,977.5 273.5,977.5C 273.34,979.199 273.506,980.866 274,982.5C 281.478,975.486 289.645,974.653 298.5,980C 300.293,981.78 301.96,983.613 303.5,985.5C 312.72,975.781 323.386,973.948 335.5,980C 339.381,982.928 341.881,986.761 343,991.5C 343.5,1004.5 343.667,1017.5 343.5,1030.5C 338.5,1030.5 333.5,1030.5 328.5,1030.5C 328.667,1019.16 328.5,1007.83 328,996.5C 324.299,988.963 318.799,987.463 311.5,992C 309.898,993.935 308.731,996.101 308,998.5C 307.5,1009.16 307.333,1019.83 307.5,1030.5 Z"/></g>
<g><path class="icon" style="opacity:1" fill="currentColor" d="M 371.5,1030.5 C 366.833,1030.5 362.167,1030.5 357.5,1030.5C 357.5,1012.83 357.5,995.167 357.5,977.5C 362.167,977.5 366.833,977.5 371.5,977.5C 371.34,979.199 371.506,980.866 372,982.5C 382.877,973.685 392.711,974.685 401.5,985.5C 411.64,975.274 422.973,973.774 435.5,981C 438.164,983.669 439.998,986.836 441,990.5C 441.5,1003.83 441.667,1017.16 441.5,1030.5C 436.5,1030.5 431.5,1030.5 426.5,1030.5C 426.667,1018.83 426.5,1007.16 426,995.5C 423.185,989.831 418.685,987.998 412.5,990C 410.291,991.873 408.458,994.04 407,996.5C 406.5,1007.83 406.333,1019.16 406.5,1030.5C 401.5,1030.5 396.5,1030.5 391.5,1030.5C 391.667,1019.16 391.5,1007.83 391,996.5C 390.403,991.452 387.57,989.118 382.5,989.5C 376.719,989.777 373.219,992.777 372,998.5C 371.5,1009.16 371.333,1019.83 371.5,1030.5 Z"/></g>
<g><path class="icon" style="opacity:1" fill="currentColor" d="M 505.5,994.5 C 505.5,999.167 505.5,1003.83 505.5,1008.5C 492.656,1008.17 479.989,1008.5 467.5,1009.5C 470.148,1017 475.481,1020.16 483.5,1019C 487.161,1018.17 490.495,1016.67 493.5,1014.5C 496.5,1016.83 499.167,1019.5 501.5,1022.5C 496.122,1028.69 489.289,1031.69 481,1031.5C 467.015,1031.82 457.682,1025.49 453,1012.5C 450.523,984.662 463.023,973.162 490.5,978C 498.172,981.167 503.172,986.667 505.5,994.5 Z"/></g>
<g><path class="icon" style="opacity:1" fill="currentColor" d="M 531.5,1030.5 C 526.833,1030.5 522.167,1030.5 517.5,1030.5C 517.5,1012.83 517.5,995.167 517.5,977.5C 522.167,977.5 526.833,977.5 531.5,977.5C 531.215,979.288 531.548,980.955 532.5,982.5C 539.537,976.405 547.537,974.905 556.5,978C 561.8,981.1 565.3,985.6 567,991.5C 567.5,1004.5 567.667,1017.5 567.5,1030.5C 562.5,1030.5 557.5,1030.5 552.5,1030.5C 552.667,1018.83 552.5,1007.16 552,995.5C 550.719,990.879 547.719,988.546 543,988.5C 537.041,988.652 533.375,991.652 532,997.5C 531.5,1008.49 531.333,1019.49 531.5,1030.5 Z"/></g>
<g><path class="icon" style="opacity:1" fill="currentColor" d="M 637.5,976.5 C 647.243,974.874 655.91,977.04 663.5,983C 661.881,986.403 659.881,989.57 657.5,992.5C 651.79,987.664 645.457,986.497 638.5,989C 637.065,991.267 637.398,993.267 639.5,995C 645.091,997.197 650.758,999.197 656.5,1001C 664.976,1006.72 666.809,1014.22 662,1023.5C 654.668,1030.88 645.834,1033.38 635.5,1031C 629.609,1029.39 624.275,1026.72 619.5,1023C 621.671,1019.78 624.171,1016.95 627,1014.5C 631.794,1017.9 637.127,1019.9 643,1020.5C 650.186,1020.07 651.686,1017.23 647.5,1012C 642.167,1010 636.833,1008 631.5,1006C 623.024,1000.28 621.191,992.784 626,983.5C 629.263,980.037 633.097,977.704 637.5,976.5 Z"/></g>
<g><path class="icon" style="opacity:1" fill="currentColor" d="M 371.5,977.5 C 366.833,977.5 362.167,977.5 357.5,977.5C 357.5,995.167 357.5,1012.83 357.5,1030.5C 362.167,1030.5 366.833,1030.5 371.5,1030.5C 366.695,1031.49 361.695,1031.82 356.5,1031.5C 356.5,1013.17 356.5,994.833 356.5,976.5C 361.695,976.179 366.695,976.513 371.5,977.5 Z"/></g>
<g><path class="icon" style="opacity:1" fill="currentColor" d="M 531.5,977.5 C 526.833,977.5 522.167,977.5 517.5,977.5C 517.5,995.167 517.5,1012.83 517.5,1030.5C 522.167,1030.5 526.833,1030.5 531.5,1030.5C 526.695,1031.49 521.695,1031.82 516.5,1031.5C 516.5,1013.17 516.5,994.833 516.5,976.5C 521.695,976.179 526.695,976.513 531.5,977.5 Z"/></g>
<g><path class="icon" style="opacity:1" fill="currentColor" d="M 731.5,981.5 C 737.883,980.476 743.383,982.143 748,986.5C 748.5,987.5 749,988.5 749.5,989.5C 739.288,1004.63 743.455,1013.3 762,1015.5C 769.053,1015.08 775.053,1012.41 780,1007.5C 780.808,1005.58 781.308,1003.58 781.5,1001.5C 780.377,997.256 778.71,993.256 776.5,989.5C 780.222,981.592 786.222,979.425 794.5,983C 803.423,1007.49 795.423,1023.16 770.5,1030C 754.447,1032.65 741.28,1027.82 731,1015.5C 726.247,1004.07 726.413,992.741 731.5,981.5 Z"/></g>
<g><path class="icon" style="opacity:1" fill="currentColor" d="M 576.5,987.5 C 578.833,987.5 581.167,987.5 583.5,987.5C 583.5,997.5 583.5,1007.5 583.5,1017.5C 582.506,1008.01 582.173,998.348 582.5,988.5C 580.265,988.795 578.265,988.461 576.5,987.5 Z"/></g>
<g><path class="icon" style="opacity:1" fill="currentColor" d="M 610.5,987.5 C 606.702,988.483 602.702,988.817 598.5,988.5C 598.5,996.5 598.5,1004.5 598.5,1012.5C 597.507,1004.35 597.174,996.017 597.5,987.5C 601.833,987.5 606.167,987.5 610.5,987.5 Z"/></g>
<g><path class="icon-back" style="opacity:1" fill="#fafcfc" d="M 213.5,989.5 C 227.578,988.078 233.745,994.412 232,1008.5C 228.34,1017.75 221.84,1020.58 212.5,1017C 205.559,1011.61 203.726,1004.78 207,996.5C 208.694,993.642 210.861,991.309 213.5,989.5 Z"/></g>
<g><path class="icon-back" style="opacity:1" fill="#f7fafa" d="M 475.5,988.5 C 481.734,987.373 486.568,989.373 490,994.5C 490.49,995.793 490.657,997.127 490.5,998.5C 482.833,998.5 475.167,998.5 467.5,998.5C 467.608,996.217 468.441,994.217 470,992.5C 472.015,991.303 473.849,989.97 475.5,988.5 Z"/></g>
<g><path class="icon-back" style="opacity:1" fill="#f4f8f8" d="M 944.5,991.5 C 948.722,992.071 950.722,994.571 950.5,999C 950.369,1001.25 949.869,1003.42 949,1005.5C 947.089,1009.46 945.089,1009.46 943,1005.5C 940.712,1000.48 941.212,995.812 944.5,991.5 Z"/></g>
<g><path class="icon" style="opacity:1" fill="currentColor" d="M 675.5,994.5 C 687.5,994.5 699.5,994.5 711.5,994.5C 711.5,998.833 711.5,1003.17 711.5,1007.5C 699.5,1007.5 687.5,1007.5 675.5,1007.5C 675.5,1003.17 675.5,998.833 675.5,994.5 Z"/></g>
<g><path class="icon-back" style="opacity:1" fill="#f7fafa" d="M 857.5,996.5 C 864.819,998.964 868.319,1003.96 868,1011.5C 864.264,1015.01 860.264,1015.34 856,1012.5C 855.071,1006.98 855.571,1001.65 857.5,996.5 Z"/></g>
<g><path class="icon" style="opacity:1" fill="currentColor" d="M 292.5,998.5 C 293.494,1008.99 293.828,1019.65 293.5,1030.5C 298.167,1030.5 302.833,1030.5 307.5,1030.5C 302.695,1031.49 297.695,1031.82 292.5,1031.5C 292.5,1020.5 292.5,1009.5 292.5,998.5 Z"/></g>
<g><path class="icon" style="opacity:1" fill="currentColor" d="M 505.5,994.5 C 506.487,999.305 506.821,1004.31 506.5,1009.5C 493.5,1009.5 480.5,1009.5 467.5,1009.5C 479.989,1008.5 492.656,1008.17 505.5,1008.5C 505.5,1003.83 505.5,999.167 505.5,994.5 Z"/></g>
<g><path class="icon" style="opacity:1" fill="currentColor" d="M 895.5,1032.5 C 900.238,1031.74 904.238,1033.08 907.5,1036.5C 912.704,1031.2 917.87,1031.2 923,1036.5C 924.5,1045.67 920.667,1049.5 911.5,1048C 910.315,1046.65 908.981,1045.48 907.5,1044.5C 896.893,1051.89 891.726,1049.22 892,1036.5C 893.376,1035.29 894.542,1033.96 895.5,1032.5 Z"/></g>
</svg>
