<svg version="1.0" xmlns="http://www.w3.org/2000/svg" viewBox="0 0 1181.000000 1181.000000"
 preserveAspectRatio="xMidYMid meet"><g><path style="opacity:0.998" fill="currentColor" d="M 100.5,12.5 C 427.834,12.3333 755.167,12.5 1082.5,13C 1130.33,22.1667 1158.83,50.6667 1168,98.5C 1168.67,425.833 1168.67,753.167 1168,1080.5C 1158.83,1128.33 1130.33,1156.83 1082.5,1166C 755.167,1166.67 427.833,1166.67 100.5,1166C 52.6667,1156.83 24.1667,1128.33 15,1080.5C 14.3333,753.167 14.3333,425.833 15,98.5C 24.3464,50.6539 52.8464,21.9873 100.5,12.5 Z"/></g>
<g><path class="icon-back" style="opacity:1" fill="#fefefe" d="M 137.5,65.5 C 439.834,65.3333 742.167,65.5 1044.5,66C 1084.25,72.7465 1107.75,95.9131 1115,135.5C 1115.67,437.833 1115.67,740.167 1115,1042.5C 1108.17,1082.67 1084.67,1106.17 1044.5,1113C 742.167,1113.67 439.833,1113.67 137.5,1113C 96.9929,1105.49 73.8262,1081.33 68,1040.5C 67.3333,738.833 67.3333,437.167 68,135.5C 75.3462,96.3208 98.5129,72.9875 137.5,65.5 Z"/></g>
<g><path class="icon" style="opacity:1" fill="currentColor" d="M 741.5,197.5 C 772.491,195.574 795.658,207.907 811,234.5C 813.89,241.998 816.057,249.665 817.5,257.5C 816.833,257.833 816.167,258.167 815.5,258.5C 799.181,252.676 782.848,246.843 766.5,241C 763.007,239.996 759.841,240.496 757,242.5C 754.618,252.195 753.118,262.028 752.5,272C 752.544,275.57 753.044,279.07 754,282.5C 756.259,286.595 759.093,290.262 762.5,293.5C 773.134,300.477 783.468,307.811 793.5,315.5C 786.786,320.858 779.453,325.191 771.5,328.5C 743.16,314.246 714.993,299.579 687,284.5C 678.505,238.543 696.671,209.543 741.5,197.5 Z"/></g>
<g><path class="icon" style="opacity:1" fill="currentColor" d="M 382.5,643.5 C 383.043,643.44 383.376,643.107 383.5,642.5C 339.505,641.5 295.505,641.167 251.5,641.5C 247.686,638.848 246.519,635.181 248,630.5C 249.26,627.572 251.427,625.739 254.5,625C 305.5,624.667 356.5,624.333 407.5,624C 418.137,617.051 429.471,611.384 441.5,607C 407.167,606.667 372.833,606.333 338.5,606C 333.547,603.36 332.38,599.527 335,594.5C 336.873,592.291 339.04,590.458 341.5,589C 377.838,588.833 414.171,588.333 450.5,587.5C 451.253,585.247 452.586,583.413 454.5,582C 520.499,581.5 586.499,581.333 652.5,581.5C 652.662,583.527 652.495,585.527 652,587.5C 635.615,608.271 624.615,631.604 619,657.5C 617.233,674.484 624.067,686.318 639.5,693C 653.659,696.099 667.992,697.266 682.5,696.5C 693.538,655.303 705.205,614.303 717.5,573.5C 700.532,568.678 683.698,563.344 667,557.5C 666.5,557.833 666,558.167 665.5,558.5C 669.163,564.441 667.83,568.607 661.5,571C 590.167,571.667 518.833,571.667 447.5,571C 446.333,569.833 445.167,568.667 444,567.5C 443.616,560.774 442.783,554.107 441.5,547.5C 442.218,543.448 444.552,541.115 448.5,540.5C 497.171,540.833 545.838,540.5 594.5,539.5C 594.376,538.893 594.043,538.56 593.5,538.5C 582.819,531.31 577.485,521.144 577.5,508C 578.255,498.047 579.755,488.213 582,478.5C 599.1,425.967 623.433,376.967 655,331.5C 675.018,308.147 698.518,303.647 725.5,318C 732.061,322.954 736.228,329.454 738,337.5C 743.329,363.146 749.829,388.48 757.5,413.5C 761.696,415.133 766.029,416.299 770.5,417C 787.185,419.104 803.852,421.271 820.5,423.5C 818.964,416.552 821.63,412.385 828.5,411C 848.5,408 868.5,405 888.5,402C 892.5,401.333 896.5,401.333 900.5,402C 901,402.5 901.5,403 902,403.5C 899.302,426.162 896.302,448.828 893,471.5C 891.004,473.059 888.671,473.726 886,473.5C 876.385,472.27 866.885,470.77 857.5,469C 856.941,469.725 856.608,470.558 856.5,471.5C 870.987,519.13 884.987,566.797 898.5,614.5C 927.839,609.947 954.839,615.78 979.5,632C 983.882,636.382 988.215,640.715 992.5,645C 992.333,645.5 992.167,646 992,646.5C 925.534,683.317 858.701,719.484 791.5,755C 787.63,756.137 785.797,754.637 786,750.5C 785.446,744.812 785.613,739.145 786.5,733.5C 636.5,733.667 486.5,733.5 336.5,733C 335.584,732.626 334.75,732.126 334,731.5C 333.058,725.256 333.891,719.256 336.5,713.5C 315.174,712.667 293.841,712.167 272.5,712C 266.353,704.75 267.686,699.083 276.5,695C 299.174,694.833 321.841,694.333 344.5,693.5C 346.869,687.924 349.869,682.757 353.5,678C 293.167,677.667 232.833,677.333 172.5,677C 167.465,673.987 166.298,669.82 169,664.5C 170.543,662.622 172.376,661.122 174.5,660C 238.836,659.833 303.169,659.333 367.5,658.5C 372.188,653.146 377.188,648.146 382.5,643.5 Z"/></g>
<g><path class="icon" style="opacity:1" fill="currentColor" d="M 370.5,466.5 C 371.461,464.735 371.795,462.735 371.5,460.5C 358.833,460.5 346.167,460.5 333.5,460.5C 327.09,457.307 325.923,452.641 330,446.5C 331.255,445.789 332.421,444.956 333.5,444C 347.163,443.5 360.829,443.333 374.5,443.5C 379.598,412.841 384.765,382.174 390,351.5C 392.984,345.183 397.817,341.016 404.5,339C 460.167,338.333 515.833,338.333 571.5,339C 580.305,342.166 583.471,348.333 581,357.5C 572,410.5 563,463.5 554,516.5C 551.994,523.018 547.828,527.518 541.5,530C 443.833,530.667 346.167,530.667 248.5,530C 243.982,523.782 244.982,518.449 251.5,514C 288.832,513.5 326.165,513.333 363.5,513.5C 363.776,507.453 364.443,501.453 365.5,495.5C 342.164,495.667 318.831,495.5 295.5,495C 290.238,488.686 291.238,483.353 298.5,479C 321.831,478.5 345.164,478.333 368.5,478.5C 369.167,474.5 369.833,470.5 370.5,466.5 Z"/></g>
<g><path class="icon" style="opacity:1" fill="#f4f9f9" d="M 459.5,380.5 C 493.668,389.834 515.168,411.501 524,445.5C 492.517,458.662 461.017,471.829 429.5,485C 425.159,486.691 420.826,488.024 416.5,489C 416.043,488.586 415.709,488.086 415.5,487.5C 430.173,451.809 444.84,416.143 459.5,380.5 Z"/></g>
<g><path class="icon" style="opacity:1" fill="currentColor" d="M 462.5,385.5 C 490.054,395.387 509.054,414.054 519.5,441.5C 515.461,444.85 510.794,446.85 505.5,447.5C 505.102,442.807 503.602,438.474 501,434.5C 492.909,421.198 482.075,410.698 468.5,403C 464.979,401.326 461.313,400.16 457.5,399.5C 458.371,394.554 460.038,389.887 462.5,385.5 Z"/></g>
<g><path class="icon" style="opacity:1" fill="currentColor" d="M 454.5,403.5 C 474.573,409.396 489.406,421.729 499,440.5C 500.904,443.622 501.571,446.955 501,450.5C 493.425,442.162 486.425,442.495 480,451.5C 479.818,454.226 479.318,456.893 478.5,459.5C 474.246,461.464 469.912,463.131 465.5,464.5C 464.097,455.291 458.764,451.791 449.5,454C 441.581,459.09 440.581,465.257 446.5,472.5C 442.295,474.769 437.962,476.769 433.5,478.5C 433.418,475.667 433.252,472.667 433,469.5C 432.028,467.695 430.861,466.028 429.5,464.5C 432.305,457.418 435.305,450.418 438.5,443.5C 441.997,443.472 445.664,443.306 449.5,443C 456.876,438.733 458.376,432.899 454,425.5C 452.075,423.787 449.908,422.453 447.5,421.5C 449.846,415.479 452.18,409.479 454.5,403.5 Z"/></g>
<g><path class="icon-back" style="opacity:1" fill="#fdfefe" d="M 710.5,405.5 C 711.496,405.414 712.329,405.748 713,406.5C 717.057,416.948 721.391,427.282 726,437.5C 729.337,441.847 733.504,445.014 738.5,447C 767.576,448.76 796.576,451.26 825.5,454.5C 830.196,490.677 831.696,527.01 830,563.5C 828.054,590.616 821.721,616.616 811,641.5C 793.323,676.295 764.823,694.295 725.5,695.5C 741.981,655.398 758.481,615.064 775,574.5C 777.859,567.592 779.692,560.425 780.5,553C 780.291,539.471 774.291,529.471 762.5,523C 730.782,510.801 699.115,498.634 667.5,486.5C 678.381,457.741 692.715,430.741 710.5,405.5 Z"/></g>
<g><path class="icon" style="opacity:1" fill="#f5f9fa" d="M 468.5,421.5 C 480.759,421.242 485.259,426.909 482,438.5C 478.255,443.155 473.422,444.655 467.5,443C 461.891,439.723 460.058,434.89 462,428.5C 463.694,425.642 465.861,423.309 468.5,421.5 Z"/></g>
<g><path class="icon" style="opacity:1" fill="currentColor" d="M 445.5,426.5 C 451.095,427.56 452.929,430.893 451,436.5C 447.436,440.297 444.269,440.297 441.5,436.5C 442.644,433.064 443.977,429.73 445.5,426.5 Z"/></g>
<g><path class="icon" style="opacity:1" fill="currentColor" d="M 468.5,426.5 C 474.318,424.969 477.984,426.969 479.5,432.5C 476.562,440.518 472.062,441.518 466,435.5C 465.131,432.007 465.964,429.007 468.5,426.5 Z"/></g>
<g><path class="icon" style="opacity:1" fill="currentColor" d="M 487.5,448.5 C 491.164,448 494.164,449.167 496.5,452C 492.619,454.107 488.619,455.941 484.5,457.5C 483.386,456.277 483.219,454.944 484,453.5C 484.997,451.677 486.164,450.01 487.5,448.5 Z"/></g>
<g><path class="icon" style="opacity:1" fill="currentColor" d="M 451.5,457.5 C 458.949,457.078 461.616,460.412 459.5,467.5C 451.463,472.895 447.63,470.895 448,461.5C 449.376,460.295 450.542,458.962 451.5,457.5 Z"/></g>
<g><path class="icon" style="opacity:1" fill="currentColor" d="M 333.5,460.5 C 346.167,460.5 358.833,460.5 371.5,460.5C 371.795,462.735 371.461,464.735 370.5,466.5C 370.5,464.833 370.5,463.167 370.5,461.5C 357.989,461.829 345.655,461.495 333.5,460.5 Z"/></g>
<g><path class="icon" style="opacity:1" fill="currentColor" d="M 427.5,469.5 C 430.492,474.238 429.325,477.905 424,480.5C 424.548,476.712 425.715,473.046 427.5,469.5 Z"/></g>
<g><path class="icon" style="opacity:1" fill="currentColor" d="M 593.5,538.5 C 594.043,538.56 594.376,538.893 594.5,539.5C 545.838,540.5 497.171,540.833 448.5,540.5C 496.833,539.833 545.167,539.167 593.5,538.5 Z"/></g>
<g><path class="icon" style="opacity:1" fill="currentColor" d="M 251.5,641.5 C 295.505,641.167 339.505,641.5 383.5,642.5C 383.376,643.107 383.043,643.44 382.5,643.5C 338.833,642.833 295.167,642.167 251.5,641.5 Z"/></g>
<g><path class="icon" style="opacity:1" fill="currentColor" d="M 967.5,670.5 C 971.768,672.933 975.268,676.266 978,680.5C 991.017,703.444 993.017,727.444 984,752.5C 963.959,797.212 929.459,819.045 880.5,818C 843.119,810.951 822.952,788.451 820,750.5C 833.517,743.323 847.017,735.989 860.5,728.5C 860.833,729.167 861.167,729.833 861.5,730.5C 856.314,751.679 863.314,767.179 882.5,777C 913.333,782.831 935.167,771.331 948,742.5C 954.633,720.212 947.8,703.712 927.5,693C 941.058,685.726 954.391,678.226 967.5,670.5 Z"/></g>
<g><path class="icon" style="opacity:1" fill="currentColor" d="M 362.5,758.5 C 362.179,752.974 362.512,747.64 363.5,742.5C 376.017,742.434 388.684,742.434 401.5,742.5C 402.514,762.017 412.514,774.184 431.5,779C 459.03,780.234 478.363,768.234 489.5,743C 502.513,742.167 515.513,742.334 528.5,743.5C 512.682,789.474 480.516,814.807 432,819.5C 400.56,818.129 378.56,803.129 366,774.5C 364.198,769.292 363.031,763.959 362.5,758.5 Z"/></g>
<g><path class="icon" style="opacity:1" fill="currentColor" d="M 363.5,742.5 C 362.512,747.64 362.179,752.974 362.5,758.5C 361.184,752.987 361.184,747.32 362.5,741.5C 363.107,741.624 363.44,741.957 363.5,742.5 Z"/></g>
<g><path class="icon" style="opacity:1" fill="currentColor" d="M 991.5,883.5 C 996.181,882.456 999.348,884.123 1001,888.5C 1002.03,898.139 1002.7,907.806 1003,917.5C 1016.99,908.403 1029.66,910.07 1041,922.5C 1046.3,931.384 1048.64,941.05 1048,951.5C 1054.92,952.658 1057.25,956.658 1055,963.5C 1054.21,966.583 1052.38,968.749 1049.5,970C 1043.5,969.001 1037.5,967.668 1031.5,966C 1020.4,965.105 1009.4,965.772 998.5,968C 991.167,968.667 983.833,968.667 976.5,968C 972.053,966.61 968.053,964.444 964.5,961.5C 952.6,971.679 940.933,971.679 929.5,961.5C 919.084,968.101 907.75,970.267 895.5,968C 871.989,961.149 864.156,945.983 872,922.5C 874.559,919.651 877.726,918.817 881.5,920C 886.052,921.226 889.385,923.892 891.5,928C 881.713,939.736 884.047,948.069 898.5,953C 906.045,954.456 913.045,953.123 919.5,949C 923.203,945.604 924.369,941.437 923,936.5C 921.92,934.004 920.586,931.67 919,929.5C 919.1,924.704 921.6,921.538 926.5,920C 935.133,918.615 939.633,922.448 940,931.5C 940.665,936.524 940.498,941.524 939.5,946.5C 939.447,950.423 941.28,952.756 945,953.5C 954.611,952.13 958.444,946.63 956.5,937C 955.432,922.064 953.932,907.231 952,892.5C 956.485,886.826 962.319,884.993 969.5,887C 970,887.5 970.5,888 971,888.5C 971.886,893.47 972.552,898.47 973,903.5C 973.333,918.167 973.667,932.833 974,947.5C 974.833,949.667 976.333,951.167 978.5,952C 981.757,953.043 985.09,953.543 988.5,953.5C 987.568,933.442 985.901,913.442 983.5,893.5C 984.339,888.665 987.006,885.332 991.5,883.5 Z"/></g>
<g><path class="icon" style="opacity:1" fill="currentColor" d="M 787.5,886.5 C 791.182,886.335 794.848,886.501 798.5,887C 799,887.5 799.5,888 800,888.5C 802.415,906.757 803.082,925.09 802,943.5C 798.499,961.986 787.333,970.153 768.5,968C 765.565,966.285 762.732,964.452 760,962.5C 753.122,967.435 745.455,969.435 737,968.5C 730.578,968.612 724.245,967.946 718,966.5C 709.612,968.478 701.112,968.978 692.5,968C 690.919,967.293 689.419,966.46 688,965.5C 684.022,974.907 677.189,981.24 667.5,984.5C 661.304,981.442 658.804,976.442 660,969.5C 672.23,966.596 677.23,958.929 675,946.5C 673.676,939.694 671.843,933.028 669.5,926.5C 672.478,920.017 677.478,917.85 684.5,920C 687.134,922.537 688.634,925.703 689,929.5C 689.966,935.13 690.633,940.796 691,946.5C 692.927,953.177 697.094,955.177 703.5,952.5C 698.345,943.723 697.178,934.39 700,924.5C 710.822,909.631 722.822,908.631 736,921.5C 739.397,928.436 740.397,935.769 739,943.5C 737.545,946.912 735.712,950.079 733.5,953C 739.639,954.451 745.139,953.284 750,949.5C 751.047,946.961 751.547,944.295 751.5,941.5C 750.996,935.869 749.829,930.536 748,925.5C 752.086,919.882 757.586,918.049 764.5,920C 766.235,922.192 767.402,924.692 768,927.5C 768.333,934.833 768.667,942.167 769,949.5C 772.719,952.902 776.886,953.402 781.5,951C 784.95,947.601 786.283,943.434 785.5,938.5C 784.054,922.822 782.888,907.155 782,891.5C 783.704,889.627 785.537,887.96 787.5,886.5 Z"/></g>
<g><path class="icon" style="opacity:1" fill="currentColor" d="M 1068.5,885.5 C 1072.52,884.9 1076.02,885.9 1079,888.5C 1080.18,895.771 1080.85,903.104 1081,910.5C 1081.67,927.167 1081.67,943.833 1081,960.5C 1080.99,966.36 1077.99,969.027 1072,968.5C 1069.19,968.592 1066.85,967.592 1065,965.5C 1064.26,941.734 1062.42,918.067 1059.5,894.5C 1060.09,892.734 1060.92,891.067 1062,889.5C 1064.31,888.267 1066.48,886.933 1068.5,885.5 Z"/></g>
<g><path class="icon" style="opacity:1" fill="currentColor" d="M 715.5,892.5 C 723.564,892.067 727.397,895.733 727,903.5C 722.751,910.317 717.751,910.984 712,905.5C 709.639,900.22 710.806,895.887 715.5,892.5 Z"/></g>
<g><path class="icon" style="opacity:1" fill="currentColor" d="M 290.5,898.5 C 300.157,896.992 304.323,900.992 303,910.5C 300.103,915.155 295.937,916.655 290.5,915C 285.203,909.501 285.203,904.001 290.5,898.5 Z"/></g>
<g><path class="icon" style="opacity:1" fill="currentColor" d="M 272.5,899.5 C 272.5,924.167 272.5,948.833 272.5,973.5C 267.833,973.5 263.167,973.5 258.5,973.5C 258.5,948.833 258.5,924.167 258.5,899.5C 263.167,899.5 267.833,899.5 272.5,899.5 Z"/></g>
<g><path class="icon" style="opacity:1" fill="currentColor" d="M 272.5,899.5 C 273.498,924.328 273.831,949.328 273.5,974.5C 268.305,974.821 263.305,974.487 258.5,973.5C 263.167,973.5 267.833,973.5 272.5,973.5C 272.5,948.833 272.5,924.167 272.5,899.5 Z"/></g>
<g><path class="icon" style="opacity:1" fill="currentColor" d="M 152.5,904.5 C 142.167,904.5 131.833,904.5 121.5,904.5C 121.5,927.5 121.5,950.5 121.5,973.5C 130.5,973.5 139.5,973.5 148.5,973.5C 139.348,974.494 130.015,974.827 120.5,974.5C 120.5,950.833 120.5,927.167 120.5,903.5C 131.346,903.172 142.013,903.506 152.5,904.5 Z"/></g>
<g><path class="icon" style="opacity:1" fill="currentColor" d="M 152.5,904.5 C 176.768,907.997 187.268,921.997 184,946.5C 179.29,964.695 167.456,973.695 148.5,973.5C 139.5,973.5 130.5,973.5 121.5,973.5C 121.5,950.5 121.5,927.5 121.5,904.5C 131.833,904.5 142.167,904.5 152.5,904.5 Z"/></g>
<g><path class="icon" style="opacity:1" fill="currentColor" d="M 632.5,907.5 C 636.514,907.334 640.514,907.501 644.5,908C 649.201,908.034 651.534,910.367 651.5,915C 651.153,921.041 648.153,925.041 642.5,927C 654.43,931.363 659.93,939.863 659,952.5C 655.765,961.401 649.598,967.234 640.5,970C 648.017,973.477 649.351,978.477 644.5,985C 638.866,987.776 634.366,986.609 631,981.5C 628.103,986.155 623.937,987.655 618.5,986C 612.507,979.289 613.507,973.955 621.5,970C 608.568,967.394 599.568,960.06 594.5,948C 597.309,941.427 602.309,938.76 609.5,940C 614.512,951.348 623.179,956.348 635.5,955C 644.419,950.782 644.752,946.115 636.5,941C 631.102,939.781 626.602,941.281 623,945.5C 614.242,937.167 613.242,927.834 620,917.5C 623.489,913.162 627.656,909.829 632.5,907.5 Z"/></g>
<g><path class="icon" style="opacity:1" fill="currentColor" d="M 151.5,918.5 C 146.833,918.5 142.167,918.5 137.5,918.5C 137.5,932.167 137.5,945.833 137.5,959.5C 142.167,959.5 146.833,959.5 151.5,959.5C 146.695,960.487 141.695,960.821 136.5,960.5C 136.5,946.167 136.5,931.833 136.5,917.5C 141.695,917.179 146.695,917.513 151.5,918.5 Z"/></g>
<g><path class="icon-back" style="opacity:1" fill="#fdfefe" d="M 151.5,918.5 C 162.878,920.218 168.545,926.884 168.5,938.5C 169.05,950.61 163.384,957.61 151.5,959.5C 146.833,959.5 142.167,959.5 137.5,959.5C 137.5,945.833 137.5,932.167 137.5,918.5C 142.167,918.5 146.833,918.5 151.5,918.5 Z"/></g>
<g><path class="icon" style="opacity:1" fill="currentColor" d="M 212.5,919.5 C 237.37,916.737 249.037,927.737 247.5,952.5C 234.483,952.168 221.483,952.501 208.5,953.5C 212.027,960.597 217.694,963.43 225.5,962C 228.779,961.027 231.779,959.527 234.5,957.5C 237.5,959.833 240.167,962.5 242.5,965.5C 238.729,970.389 233.729,973.222 227.5,974C 210.392,976.702 199.225,969.869 194,953.5C 191.471,937.247 197.638,925.913 212.5,919.5 Z"/></g>
<g><path class="icon" style="opacity:1" fill="currentColor" d="M 325.5,920.5 C 320.305,920.179 315.305,920.513 310.5,921.5C 309.957,921.44 309.624,921.107 309.5,920.5C 314.986,919.185 320.32,919.185 325.5,920.5 Z"/></g>
<g><path class="icon" style="opacity:1" fill="currentColor" d="M 425.5,937.5 C 425.5,942.167 425.5,946.833 425.5,951.5C 412.656,951.171 399.989,951.505 387.5,952.5C 390.148,959.997 395.481,963.163 403.5,962C 407.161,961.171 410.495,959.671 413.5,957.5C 416.5,959.833 419.167,962.5 421.5,965.5C 416.122,971.686 409.289,974.686 401,974.5C 387.015,974.825 377.682,968.492 373,955.5C 370.523,927.662 383.023,916.162 410.5,921C 418.172,924.167 423.172,929.667 425.5,937.5 Z"/></g>
<g><path class="icon" style="opacity:1" fill="currentColor" d="M 467.5,919.5 C 468.015,924.48 467.348,929.146 465.5,933.5C 459.283,933.538 455.116,936.538 453,942.5C 451.601,952.768 451.101,963.102 451.5,973.5C 446.833,973.5 442.167,973.5 437.5,973.5C 437.5,955.833 437.5,938.167 437.5,920.5C 442.167,920.5 446.833,920.5 451.5,920.5C 451.201,922.604 451.534,924.604 452.5,926.5C 456.633,922.266 461.633,919.933 467.5,919.5 Z"/></g>
<g><path class="icon" style="opacity:1" fill="currentColor" d="M 467.5,919.5 C 468.486,923.97 468.819,928.637 468.5,933.5C 467.5,933.5 466.5,933.5 465.5,933.5C 467.348,929.146 468.015,924.48 467.5,919.5 Z"/></g>
<g><path class="icon" style="opacity:1" fill="currentColor" d="M 824.5,919.5 C 830.302,918.006 834.136,920.006 836,925.5C 838.438,933.348 839.438,941.348 839,949.5C 835.799,963.707 826.966,970.874 812.5,971C 807.538,967.457 805.704,962.624 807,956.5C 809.825,954.812 812.991,953.979 816.5,954C 818.587,953.208 820.421,952.041 822,950.5C 822.667,947.167 822.667,943.833 822,940.5C 819.809,935.284 818.476,929.951 818,924.5C 819.965,922.45 822.132,920.783 824.5,919.5 Z"/></g>
<g><path class="icon" style="opacity:1" fill="currentColor" d="M 287.5,920.5 C 292.5,920.5 297.5,920.5 302.5,920.5C 302.5,938.167 302.5,955.833 302.5,973.5C 297.5,973.5 292.5,973.5 287.5,973.5C 287.5,955.833 287.5,938.167 287.5,920.5 Z"/></g>
<g><path class="icon" style="opacity:1" fill="currentColor" d="M 310.5,921.5 C 315.305,920.513 320.305,920.179 325.5,920.5C 329.691,931.222 334.191,941.889 339,952.5C 343.742,941.689 347.909,930.689 351.5,919.5C 356.875,919.172 362.208,919.505 367.5,920.5C 360.765,937.873 353.931,955.206 347,972.5C 341.554,973.806 336.054,973.806 330.5,972.5C 323.825,955.471 317.159,938.471 310.5,921.5 Z"/></g>
<g><path class="icon" style="opacity:1" fill="currentColor" d="M 451.5,920.5 C 446.833,920.5 442.167,920.5 437.5,920.5C 437.5,938.167 437.5,955.833 437.5,973.5C 442.167,973.5 446.833,973.5 451.5,973.5C 446.695,974.487 441.695,974.821 436.5,974.5C 436.5,956.167 436.5,937.833 436.5,919.5C 441.695,919.179 446.695,919.513 451.5,920.5 Z"/></g>
<g><path class="icon" style="opacity:1" fill="currentColor" d="M 471.5,921.5 C 476.901,920.175 482.401,920.175 488,921.5C 491.883,931.656 496.049,941.656 500.5,951.5C 504.925,941.645 509.092,931.645 513,921.5C 518.416,920.361 523.916,920.194 529.5,921C 520.613,942.325 512.113,963.825 504,985.5C 494.562,997.575 484.062,998.575 472.5,988.5C 474.584,984.664 476.917,980.997 479.5,977.5C 485.223,983.484 489.556,982.651 492.5,975C 486.158,956.791 479.158,938.957 471.5,921.5 Z"/></g>
<g><path class="icon-back" style="opacity:1" fill="#fbfcfc" d="M 1016.5,925.5 C 1023.63,925.145 1027.79,928.478 1029,935.5C 1029.5,940.155 1029.67,944.821 1029.5,949.5C 1020.46,949.704 1011.46,950.371 1002.5,951.5C 1001.43,939.645 1006.09,930.978 1016.5,925.5 Z"/></g>
<g><path class="icon-back" style="opacity:1" fill="#f5f9f9" d="M 717.5,929.5 C 721.722,930.071 723.722,932.571 723.5,937C 723.522,940.956 722.022,944.123 719,946.5C 717.347,946.18 716.347,945.18 716,943.5C 713.653,938.448 714.153,933.781 717.5,929.5 Z"/></g>
<g><path class="icon-back" style="opacity:1" fill="#f8fafa" d="M 217.5,931.5 C 224.863,930.678 229.863,933.678 232.5,940.5C 224.5,941.833 216.5,941.833 208.5,940.5C 210.574,936.425 213.574,933.425 217.5,931.5 Z"/></g>
<g><path class="icon-back" style="opacity:1" fill="#f8fafa" d="M 396.5,931.5 C 404.537,930.491 409.204,933.825 410.5,941.5C 402.833,941.5 395.167,941.5 387.5,941.5C 388.421,936.248 391.421,932.915 396.5,931.5 Z"/></g>
<g><path class="icon" style="opacity:1" fill="currentColor" d="M 536.5,937.5 C 548.5,937.5 560.5,937.5 572.5,937.5C 572.5,941.833 572.5,946.167 572.5,950.5C 560.5,950.5 548.5,950.5 536.5,950.5C 536.5,946.167 536.5,941.833 536.5,937.5 Z"/></g>
<g><path class="icon" style="opacity:1" fill="currentColor" d="M 425.5,937.5 C 426.487,942.305 426.821,947.305 426.5,952.5C 413.5,952.5 400.5,952.5 387.5,952.5C 399.989,951.505 412.656,951.171 425.5,951.5C 425.5,946.833 425.5,942.167 425.5,937.5 Z"/></g>
<g><path class="icon" style="opacity:1" fill="currentColor" d="M 745.5,970.5 C 750.635,969.426 754.468,971.093 757,975.5C 762.43,968.855 767.764,968.855 773,975.5C 774,984.163 770.167,987.663 761.5,986C 760,984.5 758.5,983 757,981.5C 754.459,986.069 750.625,987.569 745.5,986C 738.876,980.885 738.876,975.718 745.5,970.5 Z"/></g>
<g><path class="icon" style="opacity:1" fill="currentColor" d="M 626.5,971.5 C 629.304,970.362 632.304,970.195 635.5,971C 633.667,972.167 632.167,973.667 631,975.5C 629.629,973.959 628.129,972.625 626.5,971.5 Z"/></g>
<g><path class="icon" style="opacity:1" fill="currentColor" d="M 902.5,970.5 C 911.672,971.165 914.506,975.831 911,984.5C 903.432,989.724 898.599,987.891 896.5,979C 896.911,975.002 898.911,972.168 902.5,970.5 Z"/></g>
</svg>
