<svg version="1.0" xmlns="http://www.w3.org/2000/svg" viewBox="0 0 1181.000000 1181.000000"
 preserveAspectRatio="xMidYMid meet"><g><path style="opacity:0.998" fill="currentColor" d="M 100.5,12.5 C 427.834,12.3333 755.167,12.5 1082.5,13C 1130.33,22.1667 1158.83,50.6667 1168,98.5C 1168.67,425.833 1168.67,753.167 1168,1080.5C 1158.83,1128.33 1130.33,1156.83 1082.5,1166C 755.167,1166.67 427.833,1166.67 100.5,1166C 52.6667,1156.83 24.1667,1128.33 15,1080.5C 14.3333,753.167 14.3333,425.833 15,98.5C 24.3464,50.6539 52.8464,21.9873 100.5,12.5 Z"/></g>
<g><path class="icon-back" style="opacity:1" fill="#fefefe" d="M 137.5,65.5 C 439.834,65.3333 742.167,65.5 1044.5,66C 1084.25,72.7465 1107.75,95.9131 1115,135.5C 1115.67,437.833 1115.67,740.167 1115,1042.5C 1108.17,1082.67 1084.67,1106.17 1044.5,1113C 742.167,1113.67 439.833,1113.67 137.5,1113C 96.9929,1105.49 73.8262,1081.33 68,1040.5C 67.3333,738.833 67.3333,437.167 68,135.5C 75.3462,96.3208 98.5129,72.9875 137.5,65.5 Z"/></g>
<g><path class="icon" style="opacity:1" fill="currentColor" d="M 424.5,515.5 C 435.37,515.124 445.704,517.291 455.5,522C 458.19,523.698 460.523,525.698 462.5,528C 460.014,533.145 456.68,537.645 452.5,541.5C 444.046,535.625 434.713,533.125 424.5,534C 417.859,537.495 416.859,542.161 421.5,548C 431.958,551.264 442.291,554.931 452.5,559C 463.703,566.261 467.536,576.428 464,589.5C 457.363,602.997 446.363,609.33 431,608.5C 416.379,607.934 403.879,602.601 393.5,592.5C 397.51,587.793 401.51,583.126 405.5,578.5C 411.382,583.611 418.049,587.444 425.5,590C 430.589,590.826 435.589,590.492 440.5,589C 445.313,584.959 445.646,580.625 441.5,576C 430.338,572.459 419.338,568.459 408.5,564C 403.856,561.359 400.689,557.525 399,552.5C 394.652,531.172 403.152,518.839 424.5,515.5 Z"/></g>
<g><path class="icon" style="opacity:1" fill="currentColor" d="M 855.5,518.5 C 862.677,517.181 870.01,517.181 877.5,518.5C 877.376,519.107 877.043,519.44 876.5,519.5C 869.687,518.509 862.687,518.175 855.5,518.5 Z"/></g>
<g><path class="icon" style="opacity:1" fill="currentColor" d="M 240.5,518.5 C 219.167,518.5 197.833,518.5 176.5,518.5C 176.5,548.167 176.5,577.833 176.5,607.5C 175.502,577.671 175.169,547.671 175.5,517.5C 197.34,517.169 219.006,517.503 240.5,518.5 Z"/></g>
<g><path class="icon" style="opacity:1" fill="currentColor" d="M 240.5,518.5 C 240.5,524.167 240.5,529.833 240.5,535.5C 225.833,535.5 211.167,535.5 196.5,535.5C 195.51,541.645 195.177,547.978 195.5,554.5C 208.833,554.5 222.167,554.5 235.5,554.5C 235.5,559.833 235.5,565.167 235.5,570.5C 222.167,570.5 208.833,570.5 195.5,570.5C 195.5,577.167 195.5,583.833 195.5,590.5C 210.833,590.5 226.167,590.5 241.5,590.5C 241.5,596.167 241.5,601.833 241.5,607.5C 219.833,607.5 198.167,607.5 176.5,607.5C 176.5,577.833 176.5,548.167 176.5,518.5C 197.833,518.5 219.167,518.5 240.5,518.5 Z"/></g>
<g><path class="icon" style="opacity:1" fill="currentColor" d="M 293.5,517.5 C 300.167,517.5 306.833,517.5 313.5,517.5C 313.5,541.5 313.5,565.5 313.5,589.5C 326.167,589.5 338.833,589.5 351.5,589.5C 351.5,595.5 351.5,601.5 351.5,607.5C 332.167,607.5 312.833,607.5 293.5,607.5C 293.5,577.5 293.5,547.5 293.5,517.5 Z"/></g>
<g><path class="icon" style="opacity:1" fill="currentColor" d="M 542.5,517.5 C 549.2,517.17 555.866,517.503 562.5,518.5C 575.361,547.751 588.028,577.084 600.5,606.5C 593.524,607.664 586.524,607.831 579.5,607C 576.705,601.242 574.038,595.408 571.5,589.5C 558.846,588.334 546.18,588.167 533.5,589C 530.934,594.858 528.267,600.692 525.5,606.5C 518.5,607.833 511.5,607.833 504.5,606.5C 517.455,576.928 530.121,547.261 542.5,517.5 Z"/></g>
<g><path class="icon" style="opacity:1" fill="currentColor" d="M 706.5,518.5 C 686.167,518.5 665.833,518.5 645.5,518.5C 645.5,548.167 645.5,577.833 645.5,607.5C 644.502,577.671 644.169,547.671 644.5,517.5C 665.34,517.169 686.007,517.503 706.5,518.5 Z"/></g>
<g><path class="icon" style="opacity:1" fill="currentColor" d="M 706.5,518.5 C 706.5,524.167 706.5,529.833 706.5,535.5C 692.833,535.5 679.167,535.5 665.5,535.5C 665.5,541.833 665.5,548.167 665.5,554.5C 678.5,554.5 691.5,554.5 704.5,554.5C 704.5,560.5 704.5,566.5 704.5,572.5C 691.5,572.5 678.5,572.5 665.5,572.5C 665.5,584.167 665.5,595.833 665.5,607.5C 658.833,607.5 652.167,607.5 645.5,607.5C 645.5,577.833 645.5,548.167 645.5,518.5C 665.833,518.5 686.167,518.5 706.5,518.5 Z"/></g>
<g><path class="icon" style="opacity:1" fill="currentColor" d="M 855.5,518.5 C 862.687,518.175 869.687,518.509 876.5,519.5C 866.299,548.771 856.299,578.104 846.5,607.5C 841.238,607.805 836.072,607.471 831,606.5C 824.995,586.319 818.495,566.319 811.5,546.5C 804.558,566.658 798.225,586.992 792.5,607.5C 787.238,607.805 782.072,607.471 777,606.5C 766.526,576.91 756.359,547.244 746.5,517.5C 753.755,517.187 760.921,517.52 768,518.5C 773.667,534.833 779.333,551.167 785,567.5C 790.787,551.367 796.12,535.034 801,518.5C 808.079,517.52 815.245,517.187 822.5,517.5C 827.568,534.538 832.735,551.538 838,568.5C 843.744,551.767 849.577,535.101 855.5,518.5 Z"/></g>
<g><path class="icon" style="opacity:1" fill="currentColor" d="M 948.5,517.5 C 955.422,517.188 962.256,517.521 969,518.5C 981.607,548.162 994.107,577.829 1006.5,607.5C 999.468,607.83 992.468,607.497 985.5,606.5C 982.962,600.592 980.295,594.758 977.5,589C 964.82,588.167 952.154,588.334 939.5,589.5C 936.962,595.408 934.295,601.242 931.5,607C 924.476,607.831 917.476,607.664 910.5,606.5C 923.455,576.928 936.121,547.261 948.5,517.5 Z"/></g>
<g><path class="icon-back" style="opacity:1" fill="#f9fbfb" d="M 958.5,545.5 C 962.531,553.229 966.198,561.229 969.5,569.5C 962.189,570.665 954.856,570.831 947.5,570C 951.035,561.763 954.702,553.597 958.5,545.5 Z"/></g>
<g><path class="icon-back" style="opacity:1" fill="#f8fbfb" d="M 551.5,545.5 C 552.376,545.369 553.043,545.702 553.5,546.5C 556.558,554.283 559.892,561.95 563.5,569.5C 556.167,570.833 548.833,570.833 541.5,569.5C 545.404,561.697 548.738,553.697 551.5,545.5 Z"/></g>
<g><path class="icon" style="opacity:1" fill="currentColor" d="M 196.5,535.5 C 196.5,541.5 196.5,547.5 196.5,553.5C 209.677,553.171 222.677,553.505 235.5,554.5C 222.167,554.5 208.833,554.5 195.5,554.5C 195.177,547.978 195.51,541.645 196.5,535.5 Z"/></g>
<g><path class="icon" style="opacity:1" fill="currentColor" d="M 235.5,554.5 C 236.489,559.975 236.822,565.642 236.5,571.5C 223.167,571.5 209.833,571.5 196.5,571.5C 196.5,577.5 196.5,583.5 196.5,589.5C 211.833,589.5 227.167,589.5 242.5,589.5C 242.823,595.69 242.49,601.69 241.5,607.5C 241.5,601.833 241.5,596.167 241.5,590.5C 226.167,590.5 210.833,590.5 195.5,590.5C 195.5,583.833 195.5,577.167 195.5,570.5C 208.833,570.5 222.167,570.5 235.5,570.5C 235.5,565.167 235.5,559.833 235.5,554.5 Z"/></g>
<g><path class="icon" style="opacity:1" fill="currentColor" d="M 441.5,669.5 C 458.821,667.934 473.155,673.601 484.5,686.5C 480.845,691.486 476.845,696.153 472.5,700.5C 465.902,692.203 457.235,688.203 446.5,688.5C 428.11,692.399 419.943,703.732 422,722.5C 429.281,742.271 442.781,748.105 462.5,740C 465.646,737.688 468.646,735.188 471.5,732.5C 475.985,736.485 480.318,740.651 484.5,745C 465.235,764.748 443.568,767.748 419.5,754C 399.041,735.972 395.208,714.805 408,690.5C 416.297,678.776 427.464,671.776 441.5,669.5 Z"/></g>
<g><path class="icon" style="opacity:1" fill="currentColor" d="M 526.5,671.5 C 533.2,671.17 539.866,671.503 546.5,672.5C 559.167,701.833 571.833,731.167 584.5,760.5C 577.524,761.664 570.524,761.831 563.5,761C 560.132,754.768 557.466,748.268 555.5,741.5C 542.816,741.168 530.149,741.501 517.5,742.5C 514.833,748.5 512.167,754.5 509.5,760.5C 502.189,761.665 494.856,761.831 487.5,761C 500.644,731.214 513.644,701.381 526.5,671.5 Z"/></g>
<g><path class="icon" style="opacity:1" fill="currentColor" d="M 595.5,671.5 C 609.504,671.333 623.504,671.5 637.5,672C 645.447,672.538 652.78,674.872 659.5,679C 665.643,685.008 668.31,692.341 667.5,701C 668.503,714.17 663.169,723.67 651.5,729.5C 658.249,740.415 665.582,750.915 673.5,761C 665.167,761.667 656.833,761.667 648.5,761C 642.043,751.92 635.71,742.754 629.5,733.5C 624.88,732.507 620.214,732.173 615.5,732.5C 615.5,742.167 615.5,751.833 615.5,761.5C 608.833,761.5 602.167,761.5 595.5,761.5C 595.5,731.5 595.5,701.5 595.5,671.5 Z"/></g>
<g><path class="icon" style="opacity:1" fill="currentColor" d="M 688.5,671.5 C 701.504,671.333 714.504,671.5 727.5,672C 758.629,675.735 772.462,693.235 769,724.5C 765.167,746.664 752,758.83 729.5,761C 715.837,761.5 702.171,761.667 688.5,761.5C 688.5,731.5 688.5,701.5 688.5,671.5 Z"/></g>
<g><path class="icon" style="opacity:1" fill="currentColor" d="M 634.5,689.5 C 628.167,689.5 621.833,689.5 615.5,689.5C 615.5,698.167 615.5,706.833 615.5,715.5C 614.507,706.682 614.173,697.682 614.5,688.5C 621.354,688.176 628.021,688.509 634.5,689.5 Z"/></g>
<g><path class="icon-back" style="opacity:1" fill="#fcfdfd" d="M 634.5,689.5 C 642.444,689.278 646.777,693.112 647.5,701C 647.769,709.394 643.769,714.061 635.5,715C 628.842,715.5 622.175,715.666 615.5,715.5C 615.5,706.833 615.5,698.167 615.5,689.5C 621.833,689.5 628.167,689.5 634.5,689.5 Z"/></g>
<g><path class="icon-back" style="opacity:1" fill="#fdfefe" d="M 708.5,689.5 C 715.175,689.334 721.842,689.5 728.5,690C 742.47,692.975 749.47,701.642 749.5,716C 749.941,730.883 742.941,739.883 728.5,743C 721.842,743.5 715.175,743.666 708.5,743.5C 708.5,725.5 708.5,707.5 708.5,689.5 Z"/></g>
<g><path class="icon-back" style="opacity:1" fill="#f6f9f9" d="M 535.5,699.5 C 536.497,699.47 537.164,699.97 537.5,701C 540.696,708.559 544.029,716.059 547.5,723.5C 540.167,724.833 532.833,724.833 525.5,723.5C 529.035,715.557 532.368,707.557 535.5,699.5 Z"/></g>
</svg>
