<svg version="1.0" xmlns="http://www.w3.org/2000/svg" viewBox="0 0 1181.000000 1181.000000"
 preserveAspectRatio="xMidYMid meet"><g><path style="opacity:0.998" fill="currentColor" d="M 100.5,12.5 C 427.834,12.3333 755.167,12.5 1082.5,13C 1130.33,22.1667 1158.83,50.6667 1168,98.5C 1168.67,425.833 1168.67,753.167 1168,1080.5C 1158.83,1128.33 1130.33,1156.83 1082.5,1166C 755.167,1166.67 427.833,1166.67 100.5,1166C 52.6667,1156.83 24.1667,1128.33 15,1080.5C 14.3333,753.167 14.3333,425.833 15,98.5C 24.3464,50.6539 52.8464,21.9873 100.5,12.5 Z"/></g>
<g><path class="icon-back" style="opacity:1" fill="#fefefe" d="M 137.5,65.5 C 439.834,65.3333 742.167,65.5 1044.5,66C 1084.25,72.7465 1107.75,95.9131 1115,135.5C 1115.67,437.833 1115.67,740.167 1115,1042.5C 1108.17,1082.67 1084.67,1106.17 1044.5,1113C 742.167,1113.67 439.833,1113.67 137.5,1113C 96.9929,1105.49 73.8262,1081.33 68,1040.5C 67.3333,738.833 67.3333,437.167 68,135.5C 75.3462,96.3208 98.5129,72.9875 137.5,65.5 Z"/></g>
<g><path class="icon" style="opacity:1" fill="currentColor" d="M 590.5,288.5 C 588.365,290.369 585.698,291.036 582.5,290.5C 578.5,290.5 574.5,290.5 570.5,290.5C 570.611,289.883 570.944,289.383 571.5,289C 577.825,288.5 584.158,288.334 590.5,288.5 Z"/></g>
<g><path class="icon" style="opacity:1" fill="currentColor" d="M 590.5,288.5 C 603.833,288.5 617.167,288.5 630.5,288.5C 630.5,289.5 630.5,290.5 630.5,291.5C 636.176,291.334 641.843,291.501 647.5,292C 653.4,293.705 659.4,294.872 665.5,295.5C 671.287,295.931 676.954,296.931 682.5,298.5C 682.953,299.458 683.619,300.292 684.5,301C 687.827,301.61 691.161,302.11 694.5,302.5C 697.792,303.496 701.125,304.496 704.5,305.5C 706.185,307.818 708.519,308.818 711.5,308.5C 715.998,309.995 720.332,311.662 724.5,313.5C 727.309,315.897 730.642,317.23 734.5,317.5C 735.048,320.084 736.715,321.084 739.5,320.5C 740.659,322.25 742.326,323.25 744.5,323.5C 745.514,324.674 746.847,325.34 748.5,325.5C 750.566,327.199 752.9,328.532 755.5,329.5C 758.947,332.301 762.614,334.634 766.5,336.5C 771.607,341.27 777.273,345.27 783.5,348.5C 785.239,351.243 787.573,353.243 790.5,354.5C 792.179,355.916 793.846,357.25 795.5,358.5C 798.895,362.898 802.895,366.564 807.5,369.5C 811.387,376.059 816.387,381.726 822.5,386.5C 824.665,392.671 828.665,397.337 834.5,400.5C 839.235,405.632 843.235,411.299 846.5,417.5C 848.163,421.488 849.83,425.488 851.5,429.5C 853.574,431.234 855.241,433.234 856.5,435.5C 863.151,447.872 869.484,460.539 875.5,473.5C 875.5,473.833 875.5,474.167 875.5,474.5C 876.75,477.006 877.416,479.673 877.5,482.5C 879.02,485.579 879.853,488.912 880,492.5C 880.934,493.858 881.768,495.192 882.5,496.5C 883.583,500.085 884.249,503.751 884.5,507.5C 885.598,511.911 886.598,516.245 887.5,520.5C 889.222,523.92 889.889,527.586 889.5,531.5C 892.095,554.409 893.095,577.409 892.5,600.5C 892.5,602.167 892.5,603.833 892.5,605.5C 890.117,610.792 889.117,616.459 889.5,622.5C 888.034,623.347 887.2,624.68 887,626.5C 886.502,629.817 886.335,633.15 886.5,636.5C 885.165,642.518 883.831,648.518 882.5,654.5C 882.5,655.167 882.5,655.833 882.5,656.5C 881.25,656.577 880.417,657.244 880,658.5C 879.586,662.351 878.752,666.017 877.5,669.5C 875.732,671.922 874.232,674.588 873,677.5C 872.51,678.793 872.343,680.127 872.5,681.5C 872.5,682.167 872.5,682.833 872.5,683.5C 868.15,691.224 864.15,699.224 860.5,707.5C 860.5,707.833 860.5,708.167 860.5,708.5C 857.333,715.395 853.166,721.728 848,727.5C 847.392,729.154 846.892,730.821 846.5,732.5C 835.276,747.071 823.609,761.404 811.5,775.5C 810.5,777.167 809.167,778.5 807.5,779.5C 798.824,786.836 790.158,794.169 781.5,801.5C 775.8,805.016 770.467,809.016 765.5,813.5C 761.584,816.909 757.251,819.575 752.5,821.5C 749.36,824.234 745.693,826.234 741.5,827.5C 736.435,828.388 732.101,830.388 728.5,833.5C 728.5,833.833 728.5,834.167 728.5,834.5C 725.353,834.737 722.353,835.57 719.5,837C 718.619,837.708 717.953,838.542 717.5,839.5C 716.127,839.343 714.793,839.51 713.5,840C 710.61,841.428 707.944,842.928 705.5,844.5C 701.368,845.531 697.368,846.864 693.5,848.5C 679.113,851.584 664.78,854.584 650.5,857.5C 644.19,858.19 637.857,858.524 631.5,858.5C 609.842,859.521 588.175,859.521 566.5,858.5C 566.389,857.883 566.056,857.383 565.5,857C 562.183,856.502 558.85,856.335 555.5,856.5C 554.833,856.5 554.167,856.5 553.5,856.5C 553.389,855.883 553.056,855.383 552.5,855C 547.471,854.211 542.471,853.377 537.5,852.5C 533.655,852.712 530.321,851.712 527.5,849.5C 525.343,848.593 523.01,847.927 520.5,847.5C 519.833,847.5 519.167,847.5 518.5,847.5C 514.447,845.31 510.114,843.643 505.5,842.5C 502.323,840.18 498.656,838.846 494.5,838.5C 492.157,837.656 489.824,836.656 487.5,835.5C 485.544,834.508 483.544,833.508 481.5,832.5C 481.167,832.5 480.833,832.5 480.5,832.5C 474.064,828.578 467.73,824.411 461.5,820C 459.846,819.392 458.179,818.892 456.5,818.5C 454.338,816.103 451.671,814.436 448.5,813.5C 443.473,810.655 438.806,807.321 434.5,803.5C 433.415,801.413 431.749,800.08 429.5,799.5C 427.596,799.262 426.262,798.262 425.5,796.5C 423.431,793.427 420.764,791.094 417.5,789.5C 414.769,785.766 411.436,782.766 407.5,780.5C 406.167,778.5 404.5,776.833 402.5,775.5C 400.5,771.5 397.5,768.5 393.5,766.5C 391.906,763.236 389.573,760.569 386.5,758.5C 385.581,755.911 383.914,753.911 381.5,752.5C 381.262,750.596 380.262,749.262 378.5,748.5C 377.92,746.251 376.587,744.585 374.5,743.5C 372.913,739.317 370.579,735.65 367.5,732.5C 365.714,728.46 363.381,724.793 360.5,721.5C 359.662,721.158 359.328,720.492 359.5,719.5C 359.06,715.748 357.393,712.748 354.5,710.5C 353.831,707.151 352.164,704.484 349.5,702.5C 349.5,702.167 349.5,701.833 349.5,701.5C 348.109,699.079 347.275,696.412 347,693.5C 346.098,691.569 344.931,689.903 343.5,688.5C 343.66,686.801 343.494,685.134 343,683.5C 340.755,678.011 338.255,672.678 335.5,667.5C 334.578,661.843 332.911,656.51 330.5,651.5C 330.5,651.167 330.5,650.833 330.5,650.5C 329.038,644.525 327.705,638.525 326.5,632.5C 325.163,623.996 324.33,615.329 324,606.5C 323.617,605.944 323.117,605.611 322.5,605.5C 321.503,585.007 321.169,564.34 321.5,543.5C 322.479,540.375 322.813,537.042 322.5,533.5C 325.704,520.553 328.704,507.553 331.5,494.5C 333.09,492.525 334.257,490.192 335,487.5C 335.495,485.527 335.662,483.527 335.5,481.5C 339.336,476.222 341.669,470.222 342.5,463.5C 342.5,463.167 342.5,462.833 342.5,462.5C 344.975,461.313 345.975,459.313 345.5,456.5C 346.11,455.609 346.443,454.609 346.5,453.5C 350.541,447.051 354.207,440.384 357.5,433.5C 358.167,431.833 358.833,430.167 359.5,428.5C 363.075,425.113 365.742,421.113 367.5,416.5C 369.047,415.232 370.047,413.565 370.5,411.5C 377.908,403.009 385.074,394.342 392,385.5C 401.369,376.298 410.536,366.965 419.5,357.5C 423.758,355.207 427.424,352.207 430.5,348.5C 436.743,346.544 441.743,342.877 445.5,337.5C 445.833,337.5 446.167,337.5 446.5,337.5C 450.056,335.443 453.723,333.61 457.5,332C 459.763,330.383 461.763,328.55 463.5,326.5C 466.336,324.778 469.336,323.444 472.5,322.5C 479.958,318.828 487.292,315.161 494.5,311.5C 495.93,310.463 497.597,309.796 499.5,309.5C 503.62,309.156 507.286,307.823 510.5,305.5C 513.697,304.548 516.697,303.215 519.5,301.5C 523.477,300.741 527.477,300.075 531.5,299.5C 548.38,295.788 565.38,292.788 582.5,290.5C 585.698,291.036 588.365,290.369 590.5,288.5 Z"/></g>
<g><path class="icon" style="opacity:1" fill="currentColor" d="M 630.5,288.5 C 633.167,288.5 635.833,288.5 638.5,288.5C 647.773,289.952 656.773,292.285 665.5,295.5C 659.4,294.872 653.4,293.705 647.5,292C 641.843,291.501 636.176,291.334 630.5,291.5C 630.5,290.5 630.5,289.5 630.5,288.5 Z"/></g>
<g><path class="icon" style="opacity:1" fill="currentColor" d="M 569.5,290.5 C 560.708,292.69 551.708,294.356 542.5,295.5C 544.277,294.4 546.277,293.566 548.5,293C 555.45,291.678 562.45,290.845 569.5,290.5 Z"/></g>
<g><path class="icon" style="opacity:1" fill="currentColor" d="M 638.5,288.5 C 644.154,289.055 649.82,289.555 655.5,290C 662.8,293.073 670.466,294.74 678.5,295C 682.003,296.526 685.336,298.026 688.5,299.5C 686.565,298.85 684.565,298.517 682.5,298.5C 676.954,296.931 671.287,295.931 665.5,295.5C 656.773,292.285 647.773,289.952 638.5,288.5 Z"/></g>
<g><path class="icon" style="opacity:1" fill="currentColor" d="M 569.5,290.5 C 569.833,290.5 570.167,290.5 570.5,290.5C 574.5,290.5 578.5,290.5 582.5,290.5C 565.38,292.788 548.38,295.788 531.5,299.5C 532.5,298.833 533.5,298.167 534.5,297.5C 536.838,295.96 539.505,295.294 542.5,295.5C 551.708,294.356 560.708,292.69 569.5,290.5 Z"/></g>
<g><path class="icon" style="opacity:1" fill="currentColor" d="M 534.5,297.5 C 533.5,298.167 532.5,298.833 531.5,299.5C 527.477,300.075 523.477,300.741 519.5,301.5C 519.611,300.883 519.944,300.383 520.5,300C 525.243,299.471 529.909,298.638 534.5,297.5 Z"/></g>
<g><path class="icon" style="opacity:1" fill="currentColor" d="M 682.5,298.5 C 684.565,298.517 686.565,298.85 688.5,299.5C 690.887,299.912 692.887,300.912 694.5,302.5C 691.161,302.11 687.827,301.61 684.5,301C 683.619,300.292 682.953,299.458 682.5,298.5 Z"/></g>
<g><path class="icon" style="opacity:1" fill="currentColor" d="M 694.5,302.5 C 698.416,302.025 701.749,303.025 704.5,305.5C 701.125,304.496 697.792,303.496 694.5,302.5 Z"/></g>
<g><path class="icon" style="opacity:1" fill="currentColor" d="M 519.5,301.5 C 516.697,303.215 513.697,304.548 510.5,305.5C 508.435,305.517 506.435,305.85 504.5,306.5C 508.914,303.473 513.914,301.806 519.5,301.5 Z"/></g>
<g><path class="icon" style="opacity:1" fill="currentColor" d="M 510.5,305.5 C 507.286,307.823 503.62,309.156 499.5,309.5C 500.913,308.065 502.58,307.065 504.5,306.5C 506.435,305.85 508.435,305.517 510.5,305.5 Z"/></g>
<g><path class="icon" style="opacity:1" fill="currentColor" d="M 704.5,305.5 C 707.238,305.706 709.572,306.706 711.5,308.5C 708.519,308.818 706.185,307.818 704.5,305.5 Z"/></g>
<g><path class="icon" style="opacity:1" fill="currentColor" d="M 724.5,313.5 C 728.397,313.726 731.73,315.059 734.5,317.5C 730.642,317.23 727.309,315.897 724.5,313.5 Z"/></g>
<g><path class="icon" style="opacity:1" fill="currentColor" d="M 734.5,317.5 C 736.288,318.36 737.955,319.36 739.5,320.5C 736.715,321.084 735.048,320.084 734.5,317.5 Z"/></g>
<g><path class="icon" style="opacity:1" fill="currentColor" d="M 494.5,311.5 C 487.292,315.161 479.958,318.828 472.5,322.5C 475.298,320.262 478.298,318.262 481.5,316.5C 481.611,315.883 481.944,315.383 482.5,315C 486.604,314.11 490.604,312.943 494.5,311.5 Z"/></g>
<g><path class="icon" style="opacity:1" fill="currentColor" d="M 739.5,320.5 C 741.848,320.592 743.514,321.592 744.5,323.5C 742.326,323.25 740.659,322.25 739.5,320.5 Z"/></g>
<g><path class="icon" style="opacity:1" fill="currentColor" d="M 481.5,316.5 C 478.298,318.262 475.298,320.262 472.5,322.5C 469.336,323.444 466.336,324.778 463.5,326.5C 461.833,327.167 460.167,327.833 458.5,328.5C 458.953,327.542 459.619,326.708 460.5,326C 465.286,324.413 469.619,322.079 473.5,319C 476.102,317.86 478.769,317.027 481.5,316.5 Z"/></g>
<g><path class="icon" style="opacity:1" fill="currentColor" d="M 748.5,325.5 C 751.546,325.725 753.879,327.058 755.5,329.5C 752.9,328.532 750.566,327.199 748.5,325.5 Z"/></g>
<g><path class="icon" style="opacity:1" fill="currentColor" d="M 463.5,326.5 C 461.763,328.55 459.763,330.383 457.5,332C 453.723,333.61 450.056,335.443 446.5,337.5C 449.929,333.738 453.929,330.738 458.5,328.5C 460.167,327.833 461.833,327.167 463.5,326.5 Z"/></g>
<g><path class="icon" style="opacity:1" fill="currentColor" d="M 766.5,336.5 C 770.845,338.007 774.845,340.173 778.5,343C 780.373,344.704 782.04,346.537 783.5,348.5C 777.273,345.27 771.607,341.27 766.5,336.5 Z"/></g>
<g><path class="icon" style="opacity:1" fill="currentColor" d="M 445.5,337.5 C 441.743,342.877 436.743,346.544 430.5,348.5C 431.897,346.621 433.563,344.954 435.5,343.5C 439.132,341.84 442.466,339.84 445.5,337.5 Z"/></g>
<g><path class="icon" style="opacity:1" fill="currentColor" d="M 783.5,348.5 C 786.427,349.757 788.761,351.757 790.5,354.5C 787.573,353.243 785.239,351.243 783.5,348.5 Z"/></g>
<g><path class="icon" style="opacity:1" fill="currentColor" d="M 430.5,348.5 C 427.424,352.207 423.758,355.207 419.5,357.5C 422.536,353.804 426.203,350.804 430.5,348.5 Z"/></g>
<g><path class="icon" style="opacity:1" fill="currentColor" d="M 795.5,358.5 C 800.105,361.436 804.105,365.102 807.5,369.5C 802.895,366.564 798.895,362.898 795.5,358.5 Z"/></g>
<g><path class="icon" style="opacity:1" fill="currentColor" d="M 419.5,357.5 C 410.536,366.965 401.369,376.298 392,385.5C 385.074,394.342 377.908,403.009 370.5,411.5C 383.934,391.056 400.267,373.056 419.5,357.5 Z"/></g>
<g><path class="icon" style="opacity:1" fill="currentColor" d="M 807.5,369.5 C 809.716,370.203 811.549,371.536 813,373.5C 815.994,377.989 819.161,382.322 822.5,386.5C 816.387,381.726 811.387,376.059 807.5,369.5 Z"/></g>
<g><path class="icon" style="opacity:1" fill="currentColor" d="M 822.5,386.5 C 827.445,390.413 831.445,395.08 834.5,400.5C 828.665,397.337 824.665,392.671 822.5,386.5 Z"/></g>
<g><path class="icon" style="opacity:1" fill="currentColor" d="M 367.5,416.5 C 365.742,421.113 363.075,425.113 359.5,428.5C 360.773,425.391 362.273,422.391 364,419.5C 365.039,418.29 366.206,417.29 367.5,416.5 Z"/></g>
<g><path class="icon" style="opacity:1" fill="currentColor" d="M 846.5,417.5 C 850.318,422.456 853.651,427.789 856.5,433.5C 856.5,434.167 856.5,434.833 856.5,435.5C 855.241,433.234 853.574,431.234 851.5,429.5C 849.83,425.488 848.163,421.488 846.5,417.5 Z"/></g>
<g><path class="icon-back" style="opacity:1" fill="#fdfefe" d="M 537.5,567.5 C 537.5,553.833 537.5,540.167 537.5,526.5C 546.902,525.822 556.402,525.155 566,524.5C 566.333,508.833 566.667,493.167 567,477.5C 573.427,442.752 594.427,426.752 630,429.5C 645.76,429.109 661.26,430.775 676.5,434.5C 676.833,435.167 677.167,435.833 677.5,436.5C 674.063,450.135 671.397,463.969 669.5,478C 659.917,476.609 650.251,475.943 640.5,476C 632.071,475.873 626.405,479.706 623.5,487.5C 622.334,499.82 622.167,512.153 623,524.5C 638.756,525.491 654.589,525.825 670.5,525.5C 670.529,539.572 669.529,553.572 667.5,567.5C 652.833,568.167 638.167,568.833 623.5,569.5C 622.831,619.734 622.164,669.901 621.5,720C 603.26,720.825 585.093,720.659 567,719.5C 566.667,669.5 566.333,619.5 566,569.5C 556.402,568.845 546.902,568.178 537.5,567.5 Z"/></g>
<g><path class="icon" style="opacity:1" fill="currentColor" d="M 357.5,433.5 C 354.207,440.384 350.541,447.051 346.5,453.5C 346.575,450.593 347.409,447.927 349,445.5C 351.104,442.29 352.937,438.957 354.5,435.5C 355.518,434.807 356.518,434.141 357.5,433.5 Z"/></g>
<g><path class="icon" style="opacity:1" fill="currentColor" d="M 856.5,433.5 C 857.458,433.953 858.292,434.619 859,435.5C 863.124,445.081 867.791,454.414 873,463.5C 873.661,466.946 874.495,470.279 875.5,473.5C 869.484,460.539 863.151,447.872 856.5,435.5C 856.5,434.833 856.5,434.167 856.5,433.5 Z"/></g>
<g><path class="icon" style="opacity:1" fill="currentColor" d="M 345.5,456.5 C 345.975,459.313 344.975,461.313 342.5,462.5C 342.755,460.033 343.755,458.033 345.5,456.5 Z"/></g>
<g><path class="icon" style="opacity:1" fill="currentColor" d="M 342.5,463.5 C 341.669,470.222 339.336,476.222 335.5,481.5C 336.287,474.789 338.621,468.789 342.5,463.5 Z"/></g>
<g><path class="icon" style="opacity:1" fill="currentColor" d="M 335.5,481.5 C 335.662,483.527 335.495,485.527 335,487.5C 334.257,490.192 333.09,492.525 331.5,494.5C 331.5,493.833 331.5,493.167 331.5,492.5C 332.082,488.468 333.416,484.801 335.5,481.5 Z"/></g>
<g><path class="icon" style="opacity:1" fill="currentColor" d="M 877.5,482.5 C 878.458,482.953 879.292,483.619 880,484.5C 880.332,488.695 881.165,492.695 882.5,496.5C 881.768,495.192 880.934,493.858 880,492.5C 879.853,488.912 879.02,485.579 877.5,482.5 Z"/></g>
<g><path class="icon" style="opacity:1" fill="currentColor" d="M 875.5,474.5 C 876.75,474.577 877.583,475.244 878,476.5C 880.076,480.95 881.743,485.616 883,490.5C 884.139,497.037 885.806,503.37 888,509.5C 889.271,517.815 890.438,526.148 891.5,534.5C 890.833,533.5 890.167,532.5 889.5,531.5C 889.889,527.586 889.222,523.92 887.5,520.5C 888.035,515.688 887.035,511.355 884.5,507.5C 884.249,503.751 883.583,500.085 882.5,496.5C 881.165,492.695 880.332,488.695 880,484.5C 879.292,483.619 878.458,482.953 877.5,482.5C 877.416,479.673 876.75,477.006 875.5,474.5 Z"/></g>
<g><path class="icon" style="opacity:1" fill="currentColor" d="M 331.5,492.5 C 331.5,493.167 331.5,493.833 331.5,494.5C 328.704,507.553 325.704,520.553 322.5,533.5C 322.335,530.15 322.502,526.817 323,523.5C 326.305,513.748 328.638,503.748 330,493.5C 330.383,492.944 330.883,492.611 331.5,492.5 Z"/></g>
<g><path class="icon" style="opacity:1" fill="currentColor" d="M 884.5,507.5 C 887.035,511.355 888.035,515.688 887.5,520.5C 886.598,516.245 885.598,511.911 884.5,507.5 Z"/></g>
<g><path class="icon" style="opacity:1" fill="currentColor" d="M 537.5,526.5 C 537.5,540.167 537.5,553.833 537.5,567.5C 536.883,567.389 536.383,567.056 536,566.5C 535.833,559.833 535.667,553.167 535.5,546.5C 535.503,539.465 536.17,532.798 537.5,526.5 Z"/></g>
<g><path class="icon" style="opacity:1" fill="currentColor" d="M 322.5,533.5 C 322.813,537.042 322.479,540.375 321.5,543.5C 320.504,558.991 320.17,574.658 320.5,590.5C 319.883,590.389 319.383,590.056 319,589.5C 318.265,572.465 318.765,555.465 320.5,538.5C 321.17,536.709 321.837,535.042 322.5,533.5 Z"/></g>
<g><path class="icon" style="opacity:1" fill="currentColor" d="M 889.5,531.5 C 890.167,532.5 890.833,533.5 891.5,534.5C 894.222,555.937 895.055,577.603 894,599.5C 893.617,600.056 893.117,600.389 892.5,600.5C 893.095,577.409 892.095,554.409 889.5,531.5 Z"/></g>
<g><path class="icon" style="opacity:1" fill="currentColor" d="M 321.5,543.5 C 321.169,564.34 321.503,585.007 322.5,605.5C 323.22,611.138 323.553,616.804 323.5,622.5C 320.908,612.132 319.908,601.465 320.5,590.5C 320.17,574.658 320.504,558.991 321.5,543.5 Z"/></g>
<g><path class="icon" style="opacity:1" fill="currentColor" d="M 322.5,605.5 C 323.117,605.611 323.617,605.944 324,606.5C 324.33,615.329 325.163,623.996 326.5,632.5C 325.681,629.695 325.181,626.695 325,623.5C 324.617,622.944 324.117,622.611 323.5,622.5C 323.553,616.804 323.22,611.138 322.5,605.5 Z"/></g>
<g><path class="icon" style="opacity:1" fill="currentColor" d="M 892.5,605.5 C 892.792,614.226 891.458,622.559 888.5,630.5C 888.833,627.833 889.167,625.167 889.5,622.5C 889.117,616.459 890.117,610.792 892.5,605.5 Z"/></g>
<g><path class="icon" style="opacity:1" fill="currentColor" d="M 889.5,622.5 C 889.167,625.167 888.833,627.833 888.5,630.5C 887.659,632.379 887.325,634.379 887.5,636.5C 887.167,636.5 886.833,636.5 886.5,636.5C 886.335,633.15 886.502,629.817 887,626.5C 887.2,624.68 888.034,623.347 889.5,622.5 Z"/></g>
<g><path class="icon" style="opacity:1" fill="currentColor" d="M 323.5,622.5 C 324.117,622.611 324.617,622.944 325,623.5C 325.181,626.695 325.681,629.695 326.5,632.5C 327.705,638.525 329.038,644.525 330.5,650.5C 328.256,646.765 326.423,642.765 325,638.5C 324.609,633.146 324.109,627.812 323.5,622.5 Z"/></g>
<g><path class="icon" style="opacity:1" fill="currentColor" d="M 886.5,636.5 C 886.833,636.5 887.167,636.5 887.5,636.5C 886.362,641.091 885.529,645.757 885,650.5C 884.392,652.066 883.558,653.4 882.5,654.5C 883.831,648.518 885.165,642.518 886.5,636.5 Z"/></g>
<g><path class="icon" style="opacity:1" fill="currentColor" d="M 330.5,651.5 C 332.911,656.51 334.578,661.843 335.5,667.5C 334.504,667.586 333.671,667.252 333,666.5C 332.567,661.332 331.733,656.332 330.5,651.5 Z"/></g>
<g><path class="icon" style="opacity:1" fill="currentColor" d="M 882.5,656.5 C 881.566,661.199 879.899,665.532 877.5,669.5C 878.752,666.017 879.586,662.351 880,658.5C 880.417,657.244 881.25,656.577 882.5,656.5 Z"/></g>
<g><path class="icon" style="opacity:1" fill="currentColor" d="M 335.5,667.5 C 338.255,672.678 340.755,678.011 343,683.5C 343.494,685.134 343.66,686.801 343.5,688.5C 339.948,681.909 337.281,674.909 335.5,667.5 Z"/></g>
<g><path class="icon" style="opacity:1" fill="currentColor" d="M 877.5,669.5 C 876.495,672.721 875.661,676.054 875,679.5C 874.292,680.381 873.458,681.047 872.5,681.5C 872.343,680.127 872.51,678.793 873,677.5C 874.232,674.588 875.732,671.922 877.5,669.5 Z"/></g>
<g><path class="icon" style="opacity:1" fill="currentColor" d="M 343.5,688.5 C 344.931,689.903 346.098,691.569 347,693.5C 347.275,696.412 348.109,699.079 349.5,701.5C 348.542,701.047 347.708,700.381 347,699.5C 346.082,695.751 344.915,692.084 343.5,688.5 Z"/></g>
<g><path class="icon" style="opacity:1" fill="currentColor" d="M 872.5,683.5 C 871.94,685.801 871.44,688.134 871,690.5C 867.95,696.541 864.45,702.208 860.5,707.5C 864.15,699.224 868.15,691.224 872.5,683.5 Z"/></g>
<g><path class="icon" style="opacity:1" fill="currentColor" d="M 349.5,702.5 C 352.164,704.484 353.831,707.151 354.5,710.5C 353.624,710.631 352.957,710.298 352.5,709.5C 351.68,707.026 350.68,704.693 349.5,702.5 Z"/></g>
<g><path class="icon" style="opacity:1" fill="currentColor" d="M 354.5,710.5 C 357.393,712.748 359.06,715.748 359.5,719.5C 358.168,717.868 356.835,716.201 355.5,714.5C 354.571,713.311 354.238,711.978 354.5,710.5 Z"/></g>
<g><path class="icon" style="opacity:1" fill="currentColor" d="M 360.5,721.5 C 363.381,724.793 365.714,728.46 367.5,732.5C 363.385,729.93 361.052,726.263 360.5,721.5 Z"/></g>
<g><path class="icon" style="opacity:1" fill="currentColor" d="M 860.5,708.5 C 857.502,717.519 852.835,725.519 846.5,732.5C 846.892,730.821 847.392,729.154 848,727.5C 853.166,721.728 857.333,715.395 860.5,708.5 Z"/></g>
<g><path class="icon" style="opacity:1" fill="currentColor" d="M 846.5,732.5 C 845.489,734.372 844.655,736.372 844,738.5C 839.279,742.953 835.279,747.953 832,753.5C 825.382,761.098 818.549,768.431 811.5,775.5C 823.609,761.404 835.276,747.071 846.5,732.5 Z"/></g>
<g><path class="icon" style="opacity:1" fill="currentColor" d="M 374.5,743.5 C 376.587,744.585 377.92,746.251 378.5,748.5C 376.413,747.415 375.08,745.749 374.5,743.5 Z"/></g>
<g><path class="icon" style="opacity:1" fill="currentColor" d="M 381.5,752.5 C 383.914,753.911 385.581,755.911 386.5,758.5C 384.086,757.089 382.419,755.089 381.5,752.5 Z"/></g>
<g><path class="icon" style="opacity:1" fill="currentColor" d="M 386.5,758.5 C 389.573,760.569 391.906,763.236 393.5,766.5C 390.427,764.431 388.094,761.764 386.5,758.5 Z"/></g>
<g><path class="icon" style="opacity:1" fill="currentColor" d="M 393.5,766.5 C 397.5,768.5 400.5,771.5 402.5,775.5C 399.167,772.833 396.167,769.833 393.5,766.5 Z"/></g>
<g><path class="icon" style="opacity:1" fill="currentColor" d="M 402.5,775.5 C 404.5,776.833 406.167,778.5 407.5,780.5C 404.833,779.833 403.167,778.167 402.5,775.5 Z"/></g>
<g><path class="icon" style="opacity:1" fill="currentColor" d="M 407.5,780.5 C 411.436,782.766 414.769,785.766 417.5,789.5C 413.564,787.234 410.231,784.234 407.5,780.5 Z"/></g>
<g><path class="icon" style="opacity:1" fill="currentColor" d="M 807.5,779.5 C 799.955,788.256 791.289,795.589 781.5,801.5C 790.158,794.169 798.824,786.836 807.5,779.5 Z"/></g>
<g><path class="icon" style="opacity:1" fill="currentColor" d="M 417.5,789.5 C 420.764,791.094 423.431,793.427 425.5,796.5C 422.236,794.906 419.569,792.573 417.5,789.5 Z"/></g>
<g><path class="icon" style="opacity:1" fill="currentColor" d="M 429.5,799.5 C 431.749,800.08 433.415,801.413 434.5,803.5C 432.251,802.92 430.585,801.587 429.5,799.5 Z"/></g>
<g><path class="icon" style="opacity:1" fill="currentColor" d="M 781.5,801.5 C 778.544,804.968 775.211,807.968 771.5,810.5C 769.5,811.5 767.5,812.5 765.5,813.5C 770.467,809.016 775.8,805.016 781.5,801.5 Z"/></g>
<g><path class="icon" style="opacity:1" fill="currentColor" d="M 771.5,810.5 C 768.003,813.417 764.336,816.25 760.5,819C 758.073,820.591 755.407,821.425 752.5,821.5C 757.251,819.575 761.584,816.909 765.5,813.5C 767.5,812.5 769.5,811.5 771.5,810.5 Z"/></g>
<g><path class="icon" style="opacity:1" fill="currentColor" d="M 448.5,813.5 C 451.671,814.436 454.338,816.103 456.5,818.5C 453.329,817.564 450.662,815.897 448.5,813.5 Z"/></g>
<g><path class="icon" style="opacity:1" fill="currentColor" d="M 456.5,818.5 C 458.179,818.892 459.846,819.392 461.5,820C 467.73,824.411 474.064,828.578 480.5,832.5C 471.692,829.129 463.692,824.462 456.5,818.5 Z"/></g>
<g><path class="icon" style="opacity:1" fill="currentColor" d="M 741.5,827.5 C 741.047,828.458 740.381,829.292 739.5,830C 735.741,830.937 732.075,832.104 728.5,833.5C 732.101,830.388 736.435,828.388 741.5,827.5 Z"/></g>
<g><path class="icon" style="opacity:1" fill="currentColor" d="M 481.5,832.5 C 483.544,833.508 485.544,834.508 487.5,835.5C 484.687,835.975 482.687,834.975 481.5,832.5 Z"/></g>
<g><path class="icon" style="opacity:1" fill="currentColor" d="M 728.5,834.5 C 725.668,837.755 722.001,839.422 717.5,839.5C 717.953,838.542 718.619,837.708 719.5,837C 722.353,835.57 725.353,834.737 728.5,834.5 Z"/></g>
<g><path class="icon" style="opacity:1" fill="currentColor" d="M 494.5,838.5 C 498.656,838.846 502.323,840.18 505.5,842.5C 501.049,842.99 497.383,841.656 494.5,838.5 Z"/></g>
<g><path class="icon" style="opacity:1" fill="currentColor" d="M 717.5,839.5 C 714.382,842.834 710.382,844.501 705.5,844.5C 707.944,842.928 710.61,841.428 713.5,840C 714.793,839.51 716.127,839.343 717.5,839.5 Z"/></g>
<g><path class="icon" style="opacity:1" fill="currentColor" d="M 505.5,842.5 C 510.114,843.643 514.447,845.31 518.5,847.5C 516.473,847.662 514.473,847.495 512.5,847C 511.051,845.883 509.384,845.216 507.5,845C 506.619,844.292 505.953,843.458 505.5,842.5 Z"/></g>
<g><path class="icon" style="opacity:1" fill="currentColor" d="M 520.5,847.5 C 523.01,847.927 525.343,848.593 527.5,849.5C 525.473,849.662 523.473,849.495 521.5,849C 520.944,848.617 520.611,848.117 520.5,847.5 Z"/></g>
<g><path class="icon" style="opacity:1" fill="currentColor" d="M 537.5,852.5 C 542.471,853.377 547.471,854.211 552.5,855C 553.056,855.383 553.389,855.883 553.5,856.5C 548.501,855.734 543.501,854.9 538.5,854C 537.944,853.617 537.611,853.117 537.5,852.5 Z"/></g>
<g><path class="icon" style="opacity:1" fill="currentColor" d="M 693.5,848.5 C 684.863,851.47 675.863,853.803 666.5,855.5C 666.291,856.086 665.957,856.586 665.5,857C 660.511,857.499 655.511,857.666 650.5,857.5C 664.78,854.584 679.113,851.584 693.5,848.5 Z"/></g>
<g><path class="icon" style="opacity:1" fill="currentColor" d="M 555.5,856.5 C 558.85,856.335 562.183,856.502 565.5,857C 566.056,857.383 566.389,857.883 566.5,858.5C 562.575,858.57 558.909,857.903 555.5,856.5 Z"/></g>
<g><path class="icon" style="opacity:1" fill="currentColor" d="M 650.5,857.5 C 644.256,859.075 637.923,860.409 631.5,861.5C 631.5,860.5 631.5,859.5 631.5,858.5C 637.857,858.524 644.19,858.19 650.5,857.5 Z"/></g>
<g><path class="icon" style="opacity:1" fill="currentColor" d="M 575.5,859.5 C 580.414,859.362 585.081,860.028 589.5,861.5C 585.154,861.666 580.821,861.499 576.5,861C 575.944,860.617 575.611,860.117 575.5,859.5 Z"/></g>
<g><path class="icon" style="opacity:1" fill="currentColor" d="M 566.5,858.5 C 588.175,859.521 609.842,859.521 631.5,858.5C 631.5,859.5 631.5,860.5 631.5,861.5C 617.5,861.5 603.5,861.5 589.5,861.5C 585.081,860.028 580.414,859.362 575.5,859.5C 572.287,859.81 569.287,859.477 566.5,858.5 Z"/></g>
<g><path class="icon" style="opacity:1" fill="currentColor" d="M 728.5,1014.5 C 738.319,1015.49 748.319,1015.83 758.5,1015.5C 758.5,992.833 758.5,970.167 758.5,947.5C 758.611,946.883 758.944,946.383 759.5,946C 765.084,945.194 770.584,945.361 776,946.5C 776.667,974.167 776.667,1001.83 776,1029.5C 758.24,1030.66 740.407,1030.83 722.5,1030C 706.36,1028.84 695.86,1020.67 691,1005.5C 690.154,996.447 690.487,987.447 692,978.5C 692.309,977.234 692.809,976.067 693.5,975C 699.494,973.888 705.494,973.221 711.5,973C 711.957,973.414 712.291,973.914 712.5,974.5C 707.858,984.631 707.358,994.965 711,1005.5C 715.079,1011.79 720.912,1014.79 728.5,1014.5 Z"/></g>
<g><path class="icon" style="opacity:1" fill="currentColor" d="M 758.5,947.5 C 758.5,970.167 758.5,992.833 758.5,1015.5C 748.319,1015.83 738.319,1015.49 728.5,1014.5C 738.167,1014.5 747.833,1014.5 757.5,1014.5C 757.169,991.994 757.503,969.66 758.5,947.5 Z"/></g>
<g><path class="icon" style="opacity:1" fill="currentColor" d="M 1010.5,951.5 C 1018.66,950.823 1022.16,954.49 1021,962.5C 1018.56,967.224 1014.73,968.724 1009.5,967C 1003.94,961.353 1004.27,956.186 1010.5,951.5 Z"/></g>
<g><path class="icon" style="opacity:1" fill="currentColor" d="M 733.5,954.5 C 738.762,954.195 743.928,954.529 749,955.5C 751.322,965.343 747.488,969.01 737.5,966.5C 737.137,968.911 738.137,970.411 740.5,971C 744.152,971.499 747.818,971.665 751.5,971.5C 751.5,975.167 751.5,978.833 751.5,982.5C 740.833,982.5 730.167,982.5 719.5,982.5C 719.5,978.833 719.5,975.167 719.5,971.5C 720.833,971.5 722.167,971.5 723.5,971.5C 723.184,968.022 723.684,964.688 725,961.5C 727.441,958.546 730.275,956.213 733.5,954.5 Z"/></g>
<g><path class="icon" style="opacity:1" fill="currentColor" d="M 163.5,988.5 C 162.504,1002.32 162.171,1016.32 162.5,1030.5C 157.833,1030.5 153.167,1030.5 148.5,1030.5C 148.5,1016.5 148.5,1002.5 148.5,988.5C 146.167,988.5 143.833,988.5 141.5,988.5C 141.5,984.833 141.5,981.167 141.5,977.5C 143.833,977.5 146.167,977.5 148.5,977.5C 146.823,964.024 152.657,956.69 166,955.5C 169.258,955.493 172.425,955.993 175.5,957C 177.846,958.013 179.513,959.679 180.5,962C 179.455,965.265 177.789,968.098 175.5,970.5C 167.005,965.081 163.005,967.415 163.5,977.5C 167.833,977.5 172.167,977.5 176.5,977.5C 176.5,981.167 176.5,984.833 176.5,988.5C 172.167,988.5 167.833,988.5 163.5,988.5 Z"/></g>
<g><path class="icon" style="opacity:1" fill="currentColor" d="M 378.5,956.5 C 378.169,965.192 378.502,973.859 379.5,982.5C 380.107,982.376 380.44,982.043 380.5,981.5C 398.443,971.539 411.276,976.206 419,995.5C 422.142,1012.39 415.976,1024.22 400.5,1031C 392.625,1032.98 385.959,1031.15 380.5,1025.5C 380.44,1024.96 380.107,1024.62 379.5,1024.5C 378.534,1026.4 378.201,1028.4 378.5,1030.5C 373.833,1030.5 369.167,1030.5 364.5,1030.5C 364.5,1005.83 364.5,981.167 364.5,956.5C 369.167,956.5 373.833,956.5 378.5,956.5 Z"/></g>
<g><path class="icon" style="opacity:1" fill="currentColor" d="M 378.5,956.5 C 379.167,964.833 379.833,973.167 380.5,981.5C 380.44,982.043 380.107,982.376 379.5,982.5C 378.502,973.859 378.169,965.192 378.5,956.5 Z"/></g>
<g><path class="icon" style="opacity:1" fill="currentColor" d="M 575.5,956.5 C 575.333,969.171 575.5,981.838 576,994.5C 576.717,993.956 577.217,993.289 577.5,992.5C 582.167,987.5 586.833,982.5 591.5,977.5C 597.69,977.177 603.69,977.51 609.5,978.5C 603.695,985.473 597.695,992.307 591.5,999C 597.757,1009.59 604.424,1019.93 611.5,1030C 605.5,1030.67 599.5,1030.67 593.5,1030C 589.329,1023.67 584.995,1017.5 580.5,1011.5C 579.167,1012.5 577.833,1013.5 576.5,1014.5C 575.505,1019.79 575.172,1025.13 575.5,1030.5C 570.5,1030.5 565.5,1030.5 560.5,1030.5C 560.5,1005.83 560.5,981.167 560.5,956.5C 565.5,956.5 570.5,956.5 575.5,956.5 Z"/></g>
<g><path class="icon" style="opacity:1" fill="currentColor" d="M 575.5,956.5 C 576.167,968.5 576.833,980.5 577.5,992.5C 577.217,993.289 576.717,993.956 576,994.5C 575.5,981.838 575.333,969.171 575.5,956.5 Z"/></g>
<g><path class="icon" style="opacity:1" fill="currentColor" d="M 1015.5,970.5 C 1029.85,969.378 1038.69,975.711 1042,989.5C 1045.84,1012.02 1036.67,1025.52 1014.5,1030C 1006.83,1030.67 999.167,1030.67 991.5,1030C 988.387,1028.55 985.554,1026.71 983,1024.5C 971.477,1032.2 960.144,1032.2 949,1024.5C 941.843,1029.13 934.01,1030.97 925.5,1030C 922.421,1028.75 919.754,1026.92 917.5,1024.5C 908.021,1032.03 898.354,1032.36 888.5,1025.5C 883.101,1029.19 877.101,1031.19 870.5,1031.5C 865.53,1030.6 861.363,1028.27 858,1024.5C 848.88,1032.01 839.213,1033.01 829,1027.5C 821.546,1040.59 810.212,1047.59 795,1048.5C 791.932,1047.71 790.266,1045.71 790,1042.5C 788.798,1038.21 789.965,1034.71 793.5,1032C 797.5,1031.67 801.5,1031.33 805.5,1031C 807.779,1030.53 809.779,1029.53 811.5,1028C 792.402,1021.97 785.902,1009.47 792,990.5C 800.612,979.785 811.112,977.618 823.5,984C 826.762,986.592 829.262,989.759 831,993.5C 832.81,1000.06 834.143,1006.72 835,1013.5C 840.934,1016.63 845.601,1015.3 849,1009.5C 850.588,1002.25 849.088,995.753 844.5,990C 848.21,983.313 853.877,980.646 861.5,982C 862.333,982.833 863.167,983.667 864,984.5C 866.503,993.045 867.17,1001.71 866,1010.5C 869.735,1016.84 874.069,1017.17 879,1011.5C 880.658,1003.46 879.158,996.128 874.5,989.5C 879.108,981.447 885.608,979.447 894,983.5C 895.629,987.681 896.462,992.015 896.5,996.5C 895.902,1000.84 895.735,1005.17 896,1009.5C 899.181,1015.25 903.181,1015.92 908,1011.5C 909.658,1003.46 908.158,996.128 903.5,989.5C 907.965,981.489 914.298,979.489 922.5,983.5C 923.897,985.982 924.731,988.648 925,991.5C 925.406,997.528 925.406,1003.53 925,1009.5C 927.913,1014.69 932.08,1015.86 937.5,1013C 940.844,1009.82 942.011,1005.98 941,1001.5C 940.18,997.2 938.68,993.2 936.5,989.5C 939.808,982.187 945.475,979.687 953.5,982C 955.774,984.344 956.941,987.178 957,990.5C 957.333,997.167 957.667,1003.83 958,1010.5C 961.353,1016.27 965.853,1017.1 971.5,1013C 975.889,1004.84 975.223,997.005 969.5,989.5C 973.176,982.665 978.842,980.165 986.5,982C 988.259,983.008 989.426,984.508 990,986.5C 991.619,993.653 991.786,1000.82 990.5,1008C 992.497,1014.49 996.831,1016.99 1003.5,1015.5C 1008.75,1015.7 1013.75,1014.87 1018.5,1013C 1000.58,1008.34 995.085,997.502 1002,980.5C 1005.56,975.763 1010.06,972.43 1015.5,970.5 Z"/></g>
<g><path class="icon" style="opacity:1" fill="currentColor" d="M 199.5,997.5 C 204.833,997.5 210.167,997.5 215.5,997.5C 215.768,995.901 215.434,994.568 214.5,993.5C 212.936,989.545 209.936,987.878 205.5,988.5C 200.153,988.671 195.32,990.338 191,993.5C 188.64,990.64 186.473,987.64 184.5,984.5C 188.653,980.423 193.653,977.923 199.5,977C 208.422,975.338 216.755,976.671 224.5,981C 226.956,983.408 228.789,986.241 230,989.5C 230.5,1003.16 230.667,1016.83 230.5,1030.5C 225.833,1030.5 221.167,1030.5 216.5,1030.5C 216.785,1028.71 216.452,1027.05 215.5,1025.5C 206.592,1032.9 197.259,1033.4 187.5,1027C 178.86,1017.13 179.527,1008.13 189.5,1000C 192.679,998.539 196.012,997.705 199.5,997.5 Z"/></g>
<g><path class="icon" style="opacity:1" fill="currentColor" d="M 262.5,976.5 C 273.782,974.658 283.449,977.658 291.5,985.5C 289.303,989.238 286.636,992.571 283.5,995.5C 274.964,987.527 266.464,987.527 258,995.5C 252.713,1010.37 257.88,1017.87 273.5,1018C 277.345,1016.58 280.678,1014.41 283.5,1011.5C 287.021,1014.19 290.021,1017.35 292.5,1021C 281.489,1032.16 268.822,1034.49 254.5,1028C 241.301,1018.37 237.801,1005.87 244,990.5C 248.538,983.502 254.704,978.835 262.5,976.5 Z"/></g>
<g><path class="icon" style="opacity:1" fill="currentColor" d="M 318.5,976.5 C 343.37,973.737 355.037,984.737 353.5,1009.5C 340.483,1009.17 327.483,1009.5 314.5,1010.5C 318.027,1017.6 323.694,1020.43 331.5,1019C 334.779,1018.03 337.779,1016.53 340.5,1014.5C 343.5,1016.83 346.167,1019.5 348.5,1022.5C 344.729,1027.39 339.729,1030.22 333.5,1031C 316.392,1033.7 305.225,1026.87 300,1010.5C 297.471,994.247 303.638,982.913 318.5,976.5 Z"/></g>
<g><path class="icon" style="opacity:1" fill="currentColor" d="M 447.5,976.5 C 463.615,973.684 475.448,979.351 483,993.5C 487.338,1008.83 482.838,1020.67 469.5,1029C 452.416,1035.29 439.25,1030.79 430,1015.5C 424.463,997.25 430.296,984.25 447.5,976.5 Z"/></g>
<g><path class="icon" style="opacity:1" fill="currentColor" d="M 512.5,976.5 C 541.495,974.985 552.995,988.318 547,1016.5C 536.135,1032.47 521.968,1035.97 504.5,1027C 492.715,1017.57 489.549,1005.73 495,991.5C 498.889,984.103 504.722,979.103 512.5,976.5 Z"/></g>
<g><path class="icon" style="opacity:1" fill="currentColor" d="M 591.5,977.5 C 597.987,976.346 604.654,976.179 611.5,977C 610.956,977.717 610.289,978.217 609.5,978.5C 603.69,977.51 597.69,977.177 591.5,977.5 Z"/></g>
<g><path class="icon" style="opacity:1" fill="currentColor" d="M 163.5,988.5 C 163.5,1002.83 163.5,1017.17 163.5,1031.5C 158.305,1031.82 153.305,1031.49 148.5,1030.5C 153.167,1030.5 157.833,1030.5 162.5,1030.5C 162.171,1016.32 162.504,1002.32 163.5,988.5 Z"/></g>
<g><path class="icon-back" style="opacity:1" fill="#f8fafa" d="M 323.5,988.5 C 330.863,987.678 335.863,990.678 338.5,997.5C 330.5,998.833 322.5,998.833 314.5,997.5C 316.574,993.425 319.574,990.425 323.5,988.5 Z"/></g>
<g><path class="icon-back" style="opacity:1" fill="#fafcfc" d="M 388.5,988.5 C 396.56,988.112 401.727,991.778 404,999.5C 405.719,1014.12 399.552,1019.96 385.5,1017C 379.83,1011.72 377.996,1005.22 380,997.5C 381.688,993.315 384.521,990.315 388.5,988.5 Z"/></g>
<g><path class="icon-back" style="opacity:1" fill="#fcfdfd" d="M 450.5,989.5 C 465.958,988.459 471.791,995.459 468,1010.5C 464.628,1017.43 459.128,1019.93 451.5,1018C 443.84,1013.24 441.34,1006.41 444,997.5C 445.305,994.039 447.471,991.372 450.5,989.5 Z"/></g>
<g><path class="icon-back" style="opacity:1" fill="#fafcfc" d="M 515.5,989.5 C 529.578,988.078 535.745,994.412 534,1008.5C 530.34,1017.75 523.84,1020.58 514.5,1017C 507.559,1011.61 505.726,1004.78 509,996.5C 510.694,993.642 512.861,991.309 515.5,989.5 Z"/></g>
<g><path class="icon-back" style="opacity:1" fill="#f2f6f7" d="M 1019.5,989.5 C 1025.91,989.586 1028.57,992.919 1027.5,999.5C 1023.82,999.409 1020.65,998.076 1018,995.5C 1017.25,993.16 1017.75,991.16 1019.5,989.5 Z"/></g>
<g><path class="icon" style="opacity:1" fill="currentColor" d="M 619.5,994.5 C 631.5,994.5 643.5,994.5 655.5,994.5C 655.5,998.833 655.5,1003.17 655.5,1007.5C 643.5,1007.5 631.5,1007.5 619.5,1007.5C 619.5,1003.17 619.5,998.833 619.5,994.5 Z"/></g>
<g><path class="icon" style="opacity:1" fill="currentColor" d="M 214.5,993.5 C 215.434,994.568 215.768,995.901 215.5,997.5C 210.167,997.5 204.833,997.5 199.5,997.5C 204.305,996.513 209.305,996.179 214.5,996.5C 214.5,995.5 214.5,994.5 214.5,993.5 Z"/></g>
<g><path class="icon-back" style="opacity:1" fill="#f7f9fa" d="M 808.5,996.5 C 816.443,995.776 820.11,999.443 819.5,1007.5C 819.167,1009.5 818.833,1011.5 818.5,1013.5C 813.684,1011.85 809.517,1009.18 806,1005.5C 803.578,1001.52 804.411,998.517 808.5,996.5 Z"/></g>
<g><path class="icon" style="opacity:1" fill="currentColor" d="M 201.5,1008.5 C 205.97,1007.51 210.637,1007.18 215.5,1007.5C 215.795,1009.74 215.461,1011.74 214.5,1013.5C 214.5,1011.83 214.5,1010.17 214.5,1008.5C 210.167,1008.5 205.833,1008.5 201.5,1008.5 Z"/></g>
<g><path class="icon-back" style="opacity:1" fill="#f9fbfb" d="M 201.5,1008.5 C 205.833,1008.5 210.167,1008.5 214.5,1008.5C 214.5,1010.17 214.5,1011.83 214.5,1013.5C 211.585,1018.32 207.252,1020.15 201.5,1019C 197.787,1017.31 196.621,1014.48 198,1010.5C 198.816,1009.18 199.983,1008.51 201.5,1008.5 Z"/></g>
<g><path class="icon" style="opacity:1" fill="currentColor" d="M 380.5,1025.5 C 379.539,1027.26 379.205,1029.26 379.5,1031.5C 374.305,1031.82 369.305,1031.49 364.5,1030.5C 369.167,1030.5 373.833,1030.5 378.5,1030.5C 378.201,1028.4 378.534,1026.4 379.5,1024.5C 380.107,1024.62 380.44,1024.96 380.5,1025.5 Z"/></g>
<g><path class="icon" style="opacity:1" fill="currentColor" d="M 968.5,1032.5 C 973.635,1031.43 977.468,1033.09 980,1037.5C 982.541,1032.93 986.375,1031.43 991.5,1033C 998.167,1038 998.167,1043 991.5,1048C 986.375,1049.57 982.541,1048.07 980,1043.5C 975.76,1049.3 970.76,1049.96 965,1045.5C 962.348,1040.04 963.514,1035.71 968.5,1032.5 Z"/></g>
<g><path class="icon" style="opacity:1" fill="currentColor" d="M 850.5,1033.5 C 859.11,1031.63 863.276,1034.96 863,1043.5C 858.814,1050.54 853.814,1051.21 848,1045.5C 845.696,1040.86 846.529,1036.86 850.5,1033.5 Z"/></g>
</svg>
