<svg version="1.0" xmlns="http://www.w3.org/2000/svg" viewBox="0 0 1181.000000 1181.000000"
 preserveAspectRatio="xMidYMid meet">
<g><path style="opacity:0.998" fill="currentColor" d="M 100.5,12.5 C 427.834,12.3333 755.167,12.5 1082.5,13C 1130.33,22.1667 1158.83,50.6667 1168,98.5C 1168.67,425.833 1168.67,753.167 1168,1080.5C 1158.83,1128.33 1130.33,1156.83 1082.5,1166C 755.167,1166.67 427.833,1166.67 100.5,1166C 52.6667,1156.83 24.1667,1128.33 15,1080.5C 14.3333,753.167 14.3333,425.833 15,98.5C 24.3464,50.6539 52.8464,21.9873 100.5,12.5 Z"/></g>
<g><path class="icon-back" style="opacity:1" fill="#fefefe" d="M 137.5,65.5 C 439.834,65.3333 742.167,65.5 1044.5,66C 1084.25,72.7465 1107.75,95.9131 1115,135.5C 1115.67,437.833 1115.67,740.167 1115,1042.5C 1108.17,1082.67 1084.67,1106.17 1044.5,1113C 742.167,1113.67 439.833,1113.67 137.5,1113C 96.9929,1105.49 73.8262,1081.33 68,1040.5C 67.3333,738.833 67.3333,437.167 68,135.5C 75.3462,96.3208 98.5129,72.9875 137.5,65.5 Z"/></g>
<g><path class="icon" style="opacity:1" fill="currentColor" d="M 726.5,258.5 C 728.426,260.293 730.759,261.293 733.5,261.5C 734.514,262.674 735.847,263.34 737.5,263.5C 739.336,265.588 741.669,266.921 744.5,267.5C 748.655,268.742 752.322,270.742 755.5,273.5C 756.659,275.25 758.326,276.25 760.5,276.5C 762.434,277.11 764.101,278.11 765.5,279.5C 765.973,280.906 766.973,281.573 768.5,281.5C 776.425,287.142 784.425,292.809 792.5,298.5C 793.585,300.587 795.251,301.92 797.5,302.5C 798.167,302.5 798.5,302.833 798.5,303.5C 799.585,305.587 801.251,306.92 803.5,307.5C 804.167,307.5 804.5,307.833 804.5,308.5C 806.239,311.243 808.573,313.243 811.5,314.5C 812.5,314.833 813.167,315.5 813.5,316.5C 819.167,322.833 825.167,328.833 831.5,334.5C 831.5,335.167 831.833,335.5 832.5,335.5C 834.43,339.1 837.097,342.1 840.5,344.5C 841.757,347.427 843.757,349.761 846.5,351.5C 847.08,353.749 848.413,355.415 850.5,356.5C 855.931,362.266 860.598,368.599 864.5,375.5C 864.427,377.027 865.094,378.027 866.5,378.5C 866.427,380.027 867.094,381.027 868.5,381.5C 913.7,452.304 930.533,529.637 919,613.5C 912.256,659.907 896.423,702.574 871.5,741.5C 870.094,741.973 869.427,742.973 869.5,744.5C 866.474,748.205 863.808,752.205 861.5,756.5C 860.094,756.973 859.427,757.973 859.5,759.5C 857.738,760.262 856.738,761.596 856.5,763.5C 856.262,765.404 855.262,766.738 853.5,767.5C 851.738,768.262 850.738,769.596 850.5,771.5C 848.413,772.585 847.08,774.251 846.5,776.5C 844.086,777.911 842.419,779.911 841.5,782.5C 841.5,783.167 841.167,783.5 840.5,783.5C 837.757,785.239 835.757,787.573 834.5,790.5C 833.833,791.833 832.833,792.833 831.5,793.5C 825.833,798.5 820.5,803.833 815.5,809.5C 814.5,811.167 813.167,812.5 811.5,813.5C 808.911,814.419 806.911,816.086 805.5,818.5C 805.167,819.5 804.5,820.167 803.5,820.5C 801.251,821.08 799.585,822.413 798.5,824.5C 796.251,825.08 794.585,826.413 793.5,828.5C 792.421,830.543 790.754,831.876 788.5,832.5C 786.973,832.427 785.973,833.094 785.5,834.5C 773.373,842.736 761.04,850.736 748.5,858.5C 745.008,859.41 742.008,861.076 739.5,863.5C 737.151,865.341 734.485,866.674 731.5,867.5C 728.088,868.042 725.088,869.375 722.5,871.5C 719.912,873.592 716.912,874.925 713.5,875.5C 711.447,875.402 709.78,876.069 708.5,877.5C 648.093,901.615 585.76,907.115 521.5,894C 509.705,891.608 498.038,888.775 486.5,885.5C 481.784,883.261 476.784,881.595 471.5,880.5C 456.41,874.24 441.41,867.573 426.5,860.5C 424.664,858.412 422.331,857.079 419.5,856.5C 413.842,852.335 407.842,848.668 401.5,845.5C 401.027,844.094 400.027,843.427 398.5,843.5C 389.205,836.512 379.872,829.512 370.5,822.5C 369.089,820.086 367.089,818.419 364.5,817.5C 364.167,816.5 363.5,815.833 362.5,815.5C 358.441,810.438 353.774,806.105 348.5,802.5C 348.5,801.833 348.167,801.5 347.5,801.5C 343.561,795.892 338.894,790.892 333.5,786.5C 333.5,785.833 333.167,785.5 332.5,785.5C 331.243,782.573 329.243,780.239 326.5,778.5C 326.262,776.596 325.262,775.262 323.5,774.5C 322.92,772.251 321.587,770.585 319.5,769.5C 318.92,767.251 317.587,765.585 315.5,764.5C 315.573,762.973 314.906,761.973 313.5,761.5C 312.567,758.63 310.9,756.296 308.5,754.5C 308.573,752.973 307.906,751.973 306.5,751.5C 306.573,749.973 305.906,748.973 304.5,748.5C 304.573,746.973 303.906,745.973 302.5,745.5C 302.573,743.973 301.906,742.973 300.5,742.5C 300.25,740.326 299.25,738.659 297.5,737.5C 296.921,734.669 295.588,732.336 293.5,730.5C 292.921,727.669 291.588,725.336 289.5,723.5C 289.34,721.847 288.674,720.514 287.5,719.5C 286.008,715.182 284.008,711.182 281.5,707.5C 281.672,706.508 281.338,705.842 280.5,705.5C 279.958,702.088 278.625,699.088 276.5,696.5C 275.266,691.117 273.266,686.117 270.5,681.5C 268.739,674.216 266.405,667.216 263.5,660.5C 262.833,658.167 262.167,655.833 261.5,653.5C 261.59,650.848 260.924,648.515 259.5,646.5C 253.53,619.4 249.863,592.067 248.5,564.5C 250.051,534.093 254.384,504.093 261.5,474.5C 262.924,472.485 263.59,470.152 263.5,467.5C 266.072,461.784 268.072,455.784 269.5,449.5C 271.267,447.208 272.267,444.542 272.5,441.5C 273.931,440.22 274.598,438.553 274.5,436.5C 276.293,434.574 277.293,432.241 277.5,429.5C 279.625,426.912 280.958,423.912 281.5,420.5C 284.008,416.818 286.008,412.818 287.5,408.5C 289.924,405.992 291.59,402.992 292.5,399.5C 295.335,395.836 297.668,391.836 299.5,387.5C 303.993,381.852 307.993,375.852 311.5,369.5C 313.9,367.704 315.567,365.37 316.5,362.5C 319.556,360.051 321.889,357.051 323.5,353.5C 325.914,352.089 327.581,350.089 328.5,347.5C 331.243,345.761 333.243,343.427 334.5,340.5C 335.167,340.5 335.5,340.167 335.5,339.5C 344.5,331.167 353.167,322.5 361.5,313.5C 362.167,313.5 362.5,313.167 362.5,312.5C 365.427,311.243 367.761,309.243 369.5,306.5C 372.089,305.581 374.089,303.914 375.5,301.5C 379.051,299.889 382.051,297.556 384.5,294.5C 387.37,293.567 389.704,291.9 391.5,289.5C 397.024,286.908 402.024,283.575 406.5,279.5C 409.511,278.331 412.178,276.664 414.5,274.5C 417.331,273.921 419.664,272.588 421.5,270.5C 426.32,268.926 430.653,266.593 434.5,263.5C 439.919,261.956 444.919,259.622 449.5,256.5C 452.241,256.293 454.574,255.293 456.5,253.5C 460.137,252.737 463.47,251.403 466.5,249.5C 469.542,249.267 472.208,248.267 474.5,246.5C 478.582,245.165 482.582,243.832 486.5,242.5C 489.152,242.59 491.485,241.924 493.5,240.5C 496.152,240.59 498.485,239.924 500.5,238.5C 506.397,237.658 512.064,236.324 517.5,234.5C 521.425,234.57 525.091,233.903 528.5,232.5C 547.64,230.23 566.807,228.23 586,226.5C 621,227.083 655.166,232.583 688.5,243C 701.455,247.681 714.122,252.848 726.5,258.5 Z"/></g>
<g><path class="icon" style="opacity:1" fill="currentColor" d="M 528.5,232.5 C 525.091,233.903 521.425,234.57 517.5,234.5C 520.909,233.097 524.575,232.43 528.5,232.5 Z"/></g>
<g><path class="icon" style="opacity:1" fill="currentColor" d="M 500.5,238.5 C 498.485,239.924 496.152,240.59 493.5,240.5C 495.515,239.076 497.848,238.41 500.5,238.5 Z"/></g>
<g><path class="icon" style="opacity:1" fill="currentColor" d="M 493.5,240.5 C 491.485,241.924 489.152,242.59 486.5,242.5C 488.515,241.076 490.848,240.41 493.5,240.5 Z"/></g>
<g><path class="icon" style="opacity:1" fill="currentColor" d="M 474.5,246.5 C 472.208,248.267 469.542,249.267 466.5,249.5C 468.792,247.733 471.458,246.733 474.5,246.5 Z"/></g>
<g><path class="icon" style="opacity:1" fill="currentColor" d="M 466.5,249.5 C 463.47,251.403 460.137,252.737 456.5,253.5C 459.37,251.206 462.703,249.872 466.5,249.5 Z"/></g>
<g><path class="icon" style="opacity:1" fill="currentColor" d="M 456.5,253.5 C 454.574,255.293 452.241,256.293 449.5,256.5C 451.426,254.707 453.759,253.707 456.5,253.5 Z"/></g>
<g><path class="icon" style="opacity:1" fill="currentColor" d="M 726.5,258.5 C 729.241,258.707 731.574,259.707 733.5,261.5C 730.759,261.293 728.426,260.293 726.5,258.5 Z"/></g>
<g><path class="icon" style="opacity:1" fill="currentColor" d="M 449.5,256.5 C 444.919,259.622 439.919,261.956 434.5,263.5C 439.081,260.378 444.081,258.044 449.5,256.5 Z"/></g>
<g><path class="icon" style="opacity:1" fill="currentColor" d="M 434.5,263.5 C 430.653,266.593 426.32,268.926 421.5,270.5C 425.347,267.407 429.68,265.074 434.5,263.5 Z"/></g>
<g><path class="icon" style="opacity:1" fill="currentColor" d="M 737.5,263.5 C 740.331,264.079 742.664,265.412 744.5,267.5C 741.669,266.921 739.336,265.588 737.5,263.5 Z"/></g>
<g><path class="icon" style="opacity:1" fill="currentColor" d="M 421.5,270.5 C 419.664,272.588 417.331,273.921 414.5,274.5C 416.336,272.412 418.669,271.079 421.5,270.5 Z"/></g>
<g><path class="icon" style="opacity:1" fill="currentColor" d="M 755.5,273.5 C 757.674,273.75 759.341,274.75 760.5,276.5C 758.326,276.25 756.659,275.25 755.5,273.5 Z"/></g>
<g><path class="icon" style="opacity:1" fill="currentColor" d="M 406.5,279.5 C 402.024,283.575 397.024,286.908 391.5,289.5C 395.951,285.39 400.951,282.056 406.5,279.5 Z"/></g>
<g><path class="icon" style="opacity:1" fill="currentColor" d="M 765.5,279.5 C 767.027,279.427 768.027,280.094 768.5,281.5C 766.973,281.573 765.973,280.906 765.5,279.5 Z"/></g>
<g><path class="icon" style="opacity:1" fill="currentColor" d="M 391.5,289.5 C 389.704,291.9 387.37,293.567 384.5,294.5C 386.296,292.1 388.63,290.433 391.5,289.5 Z"/></g>
<g><path class="icon" style="opacity:1" fill="currentColor" d="M 384.5,294.5 C 382.051,297.556 379.051,299.889 375.5,301.5C 377.949,298.444 380.949,296.111 384.5,294.5 Z"/></g>
<g><path class="icon" style="opacity:1" fill="currentColor" d="M 792.5,298.5 C 794.749,299.08 796.415,300.413 797.5,302.5C 795.251,301.92 793.585,300.587 792.5,298.5 Z"/></g>
<g><path class="icon" style="opacity:1" fill="currentColor" d="M 375.5,301.5 C 374.089,303.914 372.089,305.581 369.5,306.5C 370.911,304.086 372.911,302.419 375.5,301.5 Z"/></g>
<g><path class="icon" style="opacity:1" fill="currentColor" d="M 798.5,303.5 C 800.749,304.08 802.415,305.413 803.5,307.5C 801.251,306.92 799.585,305.587 798.5,303.5 Z"/></g>
<g><path class="icon" style="opacity:1" fill="currentColor" d="M 369.5,306.5 C 367.761,309.243 365.427,311.243 362.5,312.5C 364.239,309.757 366.573,307.757 369.5,306.5 Z"/></g>
<g><path class="icon" style="opacity:1" fill="currentColor" d="M 804.5,308.5 C 807.427,309.757 809.761,311.757 811.5,314.5C 808.573,313.243 806.239,311.243 804.5,308.5 Z"/></g>
<g><path class="icon" style="opacity:1" fill="currentColor" d="M 361.5,313.5 C 353.167,322.5 344.5,331.167 335.5,339.5C 342.907,330.588 350.907,322.088 359.5,314C 360.094,313.536 360.761,313.369 361.5,313.5 Z"/></g>
<g><path class="icon" style="opacity:1" fill="currentColor" d="M 813.5,316.5 C 820.5,321.5 826.5,327.5 831.5,334.5C 825.167,328.833 819.167,322.833 813.5,316.5 Z"/></g>
<g><path class="icon" style="opacity:1" fill="currentColor" d="M 832.5,335.5 C 835.903,337.9 838.57,340.9 840.5,344.5C 837.097,342.1 834.43,339.1 832.5,335.5 Z"/></g>
<g><path class="icon" style="opacity:1" fill="currentColor" d="M 334.5,340.5 C 333.243,343.427 331.243,345.761 328.5,347.5C 329.757,344.573 331.757,342.239 334.5,340.5 Z"/></g>
<g><path class="icon" style="opacity:1" fill="currentColor" d="M 840.5,344.5 C 843.243,346.239 845.243,348.573 846.5,351.5C 843.757,349.761 841.757,347.427 840.5,344.5 Z"/></g>
<g><path class="icon" style="opacity:1" fill="currentColor" d="M 328.5,347.5 C 327.581,350.089 325.914,352.089 323.5,353.5C 324.419,350.911 326.086,348.911 328.5,347.5 Z"/></g>
<g><path class="icon" style="opacity:1" fill="currentColor" d="M 846.5,351.5 C 848.587,352.585 849.92,354.251 850.5,356.5C 848.413,355.415 847.08,353.749 846.5,351.5 Z"/></g>
<g><path class="icon" style="opacity:1" fill="currentColor" d="M 323.5,353.5 C 321.889,357.051 319.556,360.051 316.5,362.5C 318.111,358.949 320.444,355.949 323.5,353.5 Z"/></g>
<g><path class="icon" style="opacity:1" fill="currentColor" d="M 316.5,362.5 C 315.567,365.37 313.9,367.704 311.5,369.5C 312.433,366.63 314.1,364.296 316.5,362.5 Z"/></g>
<g><path class="icon" style="opacity:1" fill="currentColor" d="M 311.5,369.5 C 307.993,375.852 303.993,381.852 299.5,387.5C 302.511,380.803 306.511,374.803 311.5,369.5 Z"/></g>
<g><path class="icon" style="opacity:1" fill="currentColor" d="M 864.5,375.5 C 865.906,375.973 866.573,376.973 866.5,378.5C 865.094,378.027 864.427,377.027 864.5,375.5 Z"/></g>
<g><path class="icon" style="opacity:1" fill="currentColor" d="M 866.5,378.5 C 867.906,378.973 868.573,379.973 868.5,381.5C 867.094,381.027 866.427,380.027 866.5,378.5 Z"/></g>
<g><path class="icon" style="opacity:1" fill="currentColor" d="M 292.5,399.5 C 291.59,402.992 289.924,405.992 287.5,408.5C 288.41,405.008 290.076,402.008 292.5,399.5 Z"/></g>
<g><path class="icon-back" style="opacity:1" fill="#fdfdfe" d="M 616.5,430.5 C 617.419,433.089 619.086,435.089 621.5,436.5C 623.588,438.336 624.921,440.669 625.5,443.5C 626.326,446.485 627.659,449.151 629.5,451.5C 636.941,466.231 639.441,481.898 637,498.5C 634.288,509.414 633.121,520.414 633.5,531.5C 634.5,534.5 636.5,536.5 639.5,537.5C 639.426,539.411 638.426,540.578 636.5,541C 630.726,542.524 625.059,544.191 619.5,546C 622.215,546.875 623.548,548.708 623.5,551.5C 617.753,551.406 612.086,550.74 606.5,549.5C 605.666,559.488 607.832,568.822 613,577.5C 615.383,580.273 618.217,582.439 621.5,584C 636.402,589.078 651.069,594.745 665.5,601C 668.331,602.666 670.664,604.832 672.5,607.5C 673.08,609.749 674.413,611.415 676.5,612.5C 679.389,615.256 681.556,618.589 683,622.5C 690.375,643.817 692.875,665.484 690.5,687.5C 688.992,689.181 687.992,691.181 687.5,693.5C 684.629,698.287 680.296,701.12 674.5,702C 664.542,703.165 654.542,703.832 644.5,704C 598.167,704.667 551.833,704.667 505.5,704C 497.124,703.787 488.79,703.121 480.5,702C 476.965,701.337 473.965,699.837 471.5,697.5C 470.167,695.5 468.5,693.833 466.5,692.5C 465.073,690.852 464.24,688.852 464,686.5C 463.619,663.072 467.619,640.406 476,618.5C 480.556,609.611 487.39,603.111 496.5,599C 511.462,594.181 526.128,588.681 540.5,582.5C 543.5,581.5 545.5,579.5 546.5,576.5C 548.539,575.089 549.539,573.089 549.5,570.5C 550.819,565.071 551.819,559.571 552.5,554C 552.492,552.293 552.158,550.793 551.5,549.5C 546.489,549.666 541.489,549.499 536.5,549C 537.056,548.617 537.389,548.117 537.5,547.5C 537.953,546.542 538.619,545.708 539.5,545C 532.831,543.666 526.164,542.333 519.5,541C 518.572,540.612 517.905,539.945 517.5,539C 518.944,536.551 520.778,534.385 523,532.5C 524.701,530.1 525.534,527.433 525.5,524.5C 515.349,492.75 519.349,463.083 537.5,435.5C 540.833,432.833 543.833,429.833 546.5,426.5C 548.819,426.008 550.819,425.008 552.5,423.5C 557.579,420.896 562.746,420.896 568,423.5C 570.365,420.131 573.532,417.964 577.5,417C 593.232,414.076 606.232,418.576 616.5,430.5 Z"/></g>
<g><path class="icon" style="opacity:1" fill="currentColor" d="M 281.5,420.5 C 280.958,423.912 279.625,426.912 277.5,429.5C 278.042,426.088 279.375,423.088 281.5,420.5 Z"/></g>
<g><path class="icon" style="opacity:1" fill="currentColor" d="M 552.5,423.5 C 550.819,425.008 548.819,426.008 546.5,426.5C 547.911,424.461 549.911,423.461 552.5,423.5 Z"/></g>
<g><path class="icon" style="opacity:1" fill="currentColor" d="M 277.5,429.5 C 277.293,432.241 276.293,434.574 274.5,436.5C 274.707,433.759 275.707,431.426 277.5,429.5 Z"/></g>
<g><path class="icon" style="opacity:1" fill="currentColor" d="M 546.5,426.5 C 543.833,429.833 540.833,432.833 537.5,435.5C 539.5,431.5 542.5,428.5 546.5,426.5 Z"/></g>
<g><path class="icon" style="opacity:1" fill="currentColor" d="M 616.5,430.5 C 618.914,431.911 620.581,433.911 621.5,436.5C 619.086,435.089 617.419,433.089 616.5,430.5 Z"/></g>
<g><path class="icon-back" style="opacity:1" fill="#fefefe" d="M 726.5,442.5 C 730.833,442.5 735.167,442.5 739.5,442.5C 743.683,443.627 748.017,444.627 752.5,445.5C 754.849,447.341 757.515,448.674 760.5,449.5C 762.833,452.5 765.5,455.167 768.5,457.5C 769.326,460.485 770.659,463.151 772.5,465.5C 772.721,468.067 773.388,470.401 774.5,472.5C 774.665,476.182 774.499,479.848 774,483.5C 773,484.167 772,484.833 771,485.5C 770.501,490.823 770.334,496.156 770.5,501.5C 770.5,503.167 770.5,504.833 770.5,506.5C 771.5,506.5 772.5,506.5 773.5,506.5C 774.618,511.804 774.618,517.138 773.5,522.5C 772.076,524.515 771.41,526.848 771.5,529.5C 770.549,531.118 769.216,532.451 767.5,533.5C 766.571,534.689 766.238,536.022 766.5,537.5C 765.232,539.905 764.565,542.572 764.5,545.5C 763.046,548.408 761.546,551.408 760,554.5C 759.19,558.358 759.357,562.024 760.5,565.5C 760.265,570.546 761.265,575.213 763.5,579.5C 764.477,582.989 766.477,585.823 769.5,588C 774.735,590.785 780.068,593.285 785.5,595.5C 787.426,597.293 789.759,598.293 792.5,598.5C 792.842,599.338 793.508,599.672 794.5,599.5C 796.426,601.293 798.759,602.293 801.5,602.5C 801.842,603.338 802.508,603.672 803.5,603.5C 807.849,606.341 812.516,608.674 817.5,610.5C 819.147,612.326 821.147,613.66 823.5,614.5C 832.119,622.165 836.619,631.832 837,643.5C 837.775,651.548 837.442,659.548 836,667.5C 834.911,671.186 832.745,674.019 829.5,676C 824.478,678.563 819.145,679.896 813.5,680C 781.502,680.5 749.502,680.667 717.5,680.5C 714.713,679.523 711.713,679.19 708.5,679.5C 708.802,676.941 708.468,674.607 707.5,672.5C 706.503,661.193 704.503,650.193 701.5,639.5C 701.59,636.848 700.924,634.515 699.5,632.5C 699.472,629.084 698.472,626.084 696.5,623.5C 693.544,612.37 687.544,603.204 678.5,596C 684.053,593.392 689.387,590.559 694.5,587.5C 697.167,586.833 698.833,585.167 699.5,582.5C 702.056,578.65 703.556,574.316 704,569.5C 704.667,564.167 704.667,558.833 704,553.5C 703.617,552.944 703.117,552.611 702.5,552.5C 702.008,550.181 701.008,548.181 699.5,546.5C 698.609,542.657 697.609,538.824 696.5,535C 696.164,533.97 695.497,533.47 694.5,533.5C 692.442,530.303 690.775,526.97 689.5,523.5C 689.58,520.219 688.913,517.219 687.5,514.5C 687.674,512.139 688.007,509.806 688.5,507.5C 690.042,506.699 691.708,506.366 693.5,506.5C 693.817,502.298 693.483,498.298 692.5,494.5C 691.787,481.982 692.787,469.649 695.5,457.5C 697.5,456.167 699.167,454.5 700.5,452.5C 703.166,452.067 705.832,451.567 708.5,451C 709.381,450.292 710.047,449.458 710.5,448.5C 715.705,445.886 721.039,443.886 726.5,442.5 Z"/></g>
<g><path class="icon" style="opacity:1" fill="currentColor" d="M 739.5,442.5 C 744.273,442.124 748.607,443.124 752.5,445.5C 748.017,444.627 743.683,443.627 739.5,442.5 Z"/></g>
<g><path class="icon" style="opacity:1" fill="currentColor" d="M 726.5,442.5 C 721.039,443.886 715.705,445.886 710.5,448.5C 714.939,444.351 720.272,442.351 726.5,442.5 Z"/></g>
<g><path class="icon" style="opacity:1" fill="currentColor" d="M 272.5,441.5 C 272.267,444.542 271.267,447.208 269.5,449.5C 269.733,446.458 270.733,443.792 272.5,441.5 Z"/></g>
<g><path class="icon" style="opacity:1" fill="currentColor" d="M 752.5,445.5 C 755.754,445.794 758.421,447.127 760.5,449.5C 757.515,448.674 754.849,447.341 752.5,445.5 Z"/></g>
<g><path class="icon" style="opacity:1" fill="currentColor" d="M 625.5,443.5 C 627.873,445.579 629.206,448.246 629.5,451.5C 627.659,449.151 626.326,446.485 625.5,443.5 Z"/></g>
<g><path class="icon" style="opacity:1" fill="currentColor" d="M 760.5,449.5 C 764.167,451.167 766.833,453.833 768.5,457.5C 765.5,455.167 762.833,452.5 760.5,449.5 Z"/></g>
<g><path class="icon" style="opacity:1" fill="currentColor" d="M 710.5,448.5 C 710.047,449.458 709.381,450.292 708.5,451C 705.832,451.567 703.166,452.067 700.5,452.5C 703.732,451.045 707.066,449.711 710.5,448.5 Z"/></g>
<g><path class="icon-back" style="opacity:1" fill="#fefefe" d="M 417.5,451.5 C 427.374,450.86 437.04,451.86 446.5,454.5C 449.331,456.417 452.331,458.083 455.5,459.5C 457.862,462.192 460.196,464.859 462.5,467.5C 462.992,469.819 463.992,471.819 465.5,473.5C 468.143,483.975 469.143,494.642 468.5,505.5C 467.527,507.948 467.194,510.615 467.5,513.5C 468.833,513.5 470.167,513.5 471.5,513.5C 472.222,520.191 471.722,526.858 470,533.5C 468.353,536.473 466.353,539.14 464,541.5C 463.142,546.265 461.976,550.931 460.5,555.5C 458.674,557.147 457.34,559.147 456.5,561.5C 455.542,561.953 454.708,562.619 454,563.5C 453.26,569.218 453.427,574.885 454.5,580.5C 454.171,583.228 454.837,585.562 456.5,587.5C 457.882,590.394 459.882,592.894 462.5,595C 465.833,597 469.167,599 472.5,601C 466.809,607.215 462.809,614.382 460.5,622.5C 458.528,625.084 457.528,628.084 457.5,631.5C 452.339,647.316 449.339,663.65 448.5,680.5C 412.817,680.865 377.151,680.365 341.5,679C 336.414,678.529 331.914,676.695 328,673.5C 326.664,670.991 325.83,668.324 325.5,665.5C 327.169,656.149 328.835,646.816 330.5,637.5C 332.008,635.819 333.008,633.819 333.5,631.5C 337.459,627.843 341.459,624.176 345.5,620.5C 348.331,619.921 350.664,618.588 352.5,616.5C 356.818,615.008 360.818,613.008 364.5,610.5C 371.315,607.927 377.649,604.594 383.5,600.5C 385.819,600.008 387.819,599.008 389.5,597.5C 392.198,597.155 394.198,595.822 395.5,593.5C 398.559,591.603 400.726,588.936 402,585.5C 403.131,579.888 403.631,574.221 403.5,568.5C 405.115,565.598 404.449,563.265 401.5,561.5C 400.66,559.147 399.326,557.147 397.5,555.5C 396.181,550.555 395.014,545.555 394,540.5C 390.001,537.699 387.501,534.033 386.5,529.5C 386.334,524.489 386.501,519.489 387,514.5C 388.302,513.915 389.469,513.249 390.5,512.5C 389.715,501.507 389.548,490.507 390,479.5C 391.729,472.362 395.229,466.362 400.5,461.5C 402.5,460.167 404.167,458.5 405.5,456.5C 409.576,454.814 413.576,453.147 417.5,451.5 Z"/></g>
<g><path class="icon" style="opacity:1" fill="currentColor" d="M 417.5,451.5 C 413.576,453.147 409.576,454.814 405.5,456.5C 408.768,453.293 412.768,451.627 417.5,451.5 Z"/></g>
<g><path class="icon" style="opacity:1" fill="currentColor" d="M 700.5,452.5 C 699.167,454.5 697.5,456.167 695.5,457.5C 696.167,454.833 697.833,453.167 700.5,452.5 Z"/></g>
<g><path class="icon" style="opacity:1" fill="currentColor" d="M 269.5,449.5 C 268.072,455.784 266.072,461.784 263.5,467.5C 264.527,461.085 266.527,455.085 269.5,449.5 Z"/></g>
<g><path class="icon" style="opacity:1" fill="currentColor" d="M 446.5,454.5 C 450.272,454.884 453.272,456.55 455.5,459.5C 452.331,458.083 449.331,456.417 446.5,454.5 Z"/></g>
<g><path class="icon" style="opacity:1" fill="currentColor" d="M 405.5,456.5 C 404.167,458.5 402.5,460.167 400.5,461.5C 401.167,458.833 402.833,457.167 405.5,456.5 Z"/></g>
<g><path class="icon" style="opacity:1" fill="currentColor" d="M 768.5,457.5 C 770.873,459.579 772.206,462.246 772.5,465.5C 770.659,463.151 769.326,460.485 768.5,457.5 Z"/></g>
<g><path class="icon" style="opacity:1" fill="currentColor" d="M 462.5,467.5 C 464.539,468.911 465.539,470.911 465.5,473.5C 463.992,471.819 462.992,469.819 462.5,467.5 Z"/></g>
<g><path class="icon" style="opacity:1" fill="currentColor" d="M 263.5,467.5 C 263.59,470.152 262.924,472.485 261.5,474.5C 261.41,471.848 262.076,469.515 263.5,467.5 Z"/></g>
<g><path class="icon" style="opacity:1" fill="currentColor" d="M 774.5,472.5 C 775.645,476.311 775.812,480.311 775,484.5C 774,485.167 773,485.833 772,486.5C 771.826,491.684 771.326,496.684 770.5,501.5C 770.334,496.156 770.501,490.823 771,485.5C 772,484.833 773,484.167 774,483.5C 774.499,479.848 774.665,476.182 774.5,472.5 Z"/></g>
<g><path class="icon" style="opacity:1" fill="currentColor" d="M 692.5,494.5 C 693.483,498.298 693.817,502.298 693.5,506.5C 691.708,506.366 690.042,506.699 688.5,507.5C 689.183,505.824 690.517,505.157 692.5,505.5C 692.5,501.833 692.5,498.167 692.5,494.5 Z"/></g>
<g><path class="icon" style="opacity:1" fill="currentColor" d="M 468.5,505.5 C 468.5,507.833 468.5,510.167 468.5,512.5C 469.791,512.263 470.791,512.596 471.5,513.5C 470.167,513.5 468.833,513.5 467.5,513.5C 467.194,510.615 467.527,507.948 468.5,505.5 Z"/></g>
<g><path class="icon" style="opacity:1" fill="currentColor" d="M 390.5,512.5 C 389.469,513.249 388.302,513.915 387,514.5C 386.501,519.489 386.334,524.489 386.5,529.5C 385.349,524.35 385.183,519.016 386,513.5C 387.356,512.62 388.856,512.286 390.5,512.5 Z"/></g>
<g><path class="icon" style="opacity:1" fill="currentColor" d="M 773.5,506.5 C 774.117,506.611 774.617,506.944 775,507.5C 775.901,512.775 775.401,517.775 773.5,522.5C 774.618,517.138 774.618,511.804 773.5,506.5 Z"/></g>
<g><path class="icon" style="opacity:1" fill="currentColor" d="M 687.5,514.5 C 688.913,517.219 689.58,520.219 689.5,523.5C 688.087,520.781 687.42,517.781 687.5,514.5 Z"/></g>
<g><path class="icon" style="opacity:1" fill="currentColor" d="M 773.5,522.5 C 773.59,525.152 772.924,527.485 771.5,529.5C 771.41,526.848 772.076,524.515 773.5,522.5 Z"/></g>
<g><path class="icon" style="opacity:1" fill="currentColor" d="M 689.5,523.5 C 690.775,526.97 692.442,530.303 694.5,533.5C 693.504,533.586 692.671,533.252 692,532.5C 690.451,529.688 689.618,526.688 689.5,523.5 Z"/></g>
<g><path class="icon" style="opacity:1" fill="currentColor" d="M 633.5,531.5 C 635.833,533.167 637.833,535.167 639.5,537.5C 636.5,536.5 634.5,534.5 633.5,531.5 Z"/></g>
<g><path class="icon" style="opacity:1" fill="currentColor" d="M 766.5,537.5 C 766.706,540.495 766.04,543.162 764.5,545.5C 764.565,542.572 765.232,539.905 766.5,537.5 Z"/></g>
<g><path class="icon" style="opacity:1" fill="currentColor" d="M 537.5,547.5 C 537.389,548.117 537.056,548.617 536.5,549C 541.489,549.499 546.489,549.666 551.5,549.5C 546.36,550.488 541.026,550.821 535.5,550.5C 535.285,548.821 535.952,547.821 537.5,547.5 Z"/></g>
<g><path class="icon" style="opacity:1" fill="currentColor" d="M 699.5,546.5 C 701.008,548.181 702.008,550.181 702.5,552.5C 700.461,551.089 699.461,549.089 699.5,546.5 Z"/></g>
<g><path class="icon" style="opacity:1" fill="currentColor" d="M 397.5,555.5 C 399.326,557.147 400.66,559.147 401.5,561.5C 399.178,560.198 397.845,558.198 397.5,555.5 Z"/></g>
<g><path class="icon" style="opacity:1" fill="currentColor" d="M 460.5,555.5 C 460.155,558.198 458.822,560.198 456.5,561.5C 457.34,559.147 458.674,557.147 460.5,555.5 Z"/></g>
<g><path class="icon" style="opacity:1" fill="currentColor" d="M 401.5,561.5 C 404.449,563.265 405.115,565.598 403.5,568.5C 403.6,565.892 402.933,563.558 401.5,561.5 Z"/></g>
<g><path class="icon" style="opacity:1" fill="currentColor" d="M 760.5,565.5 C 761.784,569.985 762.784,574.651 763.5,579.5C 761.265,575.213 760.265,570.546 760.5,565.5 Z"/></g>
<g><path class="icon" style="opacity:1" fill="currentColor" d="M 549.5,570.5 C 549.539,573.089 548.539,575.089 546.5,576.5C 546.992,574.181 547.992,572.181 549.5,570.5 Z"/></g>
<g><path class="icon" style="opacity:1" fill="currentColor" d="M 546.5,576.5 C 545.5,579.5 543.5,581.5 540.5,582.5C 542.167,580.167 544.167,578.167 546.5,576.5 Z"/></g>
<g><path class="icon" style="opacity:1" fill="currentColor" d="M 454.5,580.5 C 455.612,582.599 456.279,584.933 456.5,587.5C 454.837,585.562 454.171,583.228 454.5,580.5 Z"/></g>
<g><path class="icon" style="opacity:1" fill="currentColor" d="M 699.5,582.5 C 698.833,585.167 697.167,586.833 694.5,587.5C 695.833,585.5 697.5,583.833 699.5,582.5 Z"/></g>
<g><path class="icon" style="opacity:1" fill="currentColor" d="M 785.5,595.5 C 788.241,595.707 790.574,596.707 792.5,598.5C 789.759,598.293 787.426,597.293 785.5,595.5 Z"/></g>
<g><path class="icon" style="opacity:1" fill="currentColor" d="M 395.5,593.5 C 394.198,595.822 392.198,597.155 389.5,597.5C 391.147,595.674 393.147,594.34 395.5,593.5 Z"/></g>
<g><path class="icon" style="opacity:1" fill="currentColor" d="M 794.5,599.5 C 797.241,599.707 799.574,600.707 801.5,602.5C 798.759,602.293 796.426,601.293 794.5,599.5 Z"/></g>
<g><path class="icon" style="opacity:1" fill="currentColor" d="M 803.5,603.5 C 808.753,604.793 813.419,607.126 817.5,610.5C 812.516,608.674 807.849,606.341 803.5,603.5 Z"/></g>
<g><path class="icon" style="opacity:1" fill="currentColor" d="M 383.5,600.5 C 377.649,604.594 371.315,607.927 364.5,610.5C 370.351,606.406 376.685,603.073 383.5,600.5 Z"/></g>
<g><path class="icon" style="opacity:1" fill="currentColor" d="M 672.5,607.5 C 674.587,608.585 675.92,610.251 676.5,612.5C 674.413,611.415 673.08,609.749 672.5,607.5 Z"/></g>
<g><path class="icon" style="opacity:1" fill="currentColor" d="M 817.5,610.5 C 820.198,610.845 822.198,612.178 823.5,614.5C 821.147,613.66 819.147,612.326 817.5,610.5 Z"/></g>
<g><path class="icon" style="opacity:1" fill="currentColor" d="M 352.5,616.5 C 350.664,618.588 348.331,619.921 345.5,620.5C 347.336,618.412 349.669,617.079 352.5,616.5 Z"/></g>
<g><path class="icon" style="opacity:1" fill="currentColor" d="M 696.5,623.5 C 698.472,626.084 699.472,629.084 699.5,632.5C 697.928,629.785 696.928,626.785 696.5,623.5 Z"/></g>
<g><path class="icon" style="opacity:1" fill="currentColor" d="M 460.5,622.5 C 460.072,625.785 459.072,628.785 457.5,631.5C 457.528,628.084 458.528,625.084 460.5,622.5 Z"/></g>
<g><path class="icon" style="opacity:1" fill="currentColor" d="M 333.5,631.5 C 333.008,633.819 332.008,635.819 330.5,637.5C 330.461,634.911 331.461,632.911 333.5,631.5 Z"/></g>
<g><path class="icon" style="opacity:1" fill="currentColor" d="M 699.5,632.5 C 700.924,634.515 701.59,636.848 701.5,639.5C 700.076,637.485 699.41,635.152 699.5,632.5 Z"/></g>
<g><path class="icon" style="opacity:1" fill="currentColor" d="M 259.5,646.5 C 260.924,648.515 261.59,650.848 261.5,653.5C 260.076,651.485 259.41,649.152 259.5,646.5 Z"/></g>
<g><path class="icon" style="opacity:1" fill="currentColor" d="M 263.5,660.5 C 266.405,667.216 268.739,674.216 270.5,681.5C 267.194,674.915 264.86,667.915 263.5,660.5 Z"/></g>
<g><path class="icon" style="opacity:1" fill="currentColor" d="M 707.5,672.5 C 708.468,674.607 708.802,676.941 708.5,679.5C 711.713,679.19 714.713,679.523 717.5,680.5C 714.167,680.5 710.833,680.5 707.5,680.5C 707.5,677.833 707.5,675.167 707.5,672.5 Z"/></g>
<g><path class="icon" style="opacity:1" fill="currentColor" d="M 270.5,681.5 C 273.266,686.117 275.266,691.117 276.5,696.5C 273.704,691.895 271.704,686.895 270.5,681.5 Z"/></g>
<g><path class="icon" style="opacity:1" fill="currentColor" d="M 690.5,687.5 C 690.539,690.089 689.539,692.089 687.5,693.5C 687.992,691.181 688.992,689.181 690.5,687.5 Z"/></g>
<g><path class="icon" style="opacity:1" fill="currentColor" d="M 466.5,692.5 C 468.5,693.833 470.167,695.5 471.5,697.5C 468.833,696.833 467.167,695.167 466.5,692.5 Z"/></g>
<g><path class="icon" style="opacity:1" fill="currentColor" d="M 276.5,696.5 C 278.625,699.088 279.958,702.088 280.5,705.5C 278.375,702.912 277.042,699.912 276.5,696.5 Z"/></g>
<g><path class="icon" style="opacity:1" fill="currentColor" d="M 281.5,707.5 C 284.008,711.182 286.008,715.182 287.5,719.5C 284.46,716.086 282.46,712.086 281.5,707.5 Z"/></g>
<g><path class="icon" style="opacity:1" fill="currentColor" d="M 289.5,723.5 C 291.588,725.336 292.921,727.669 293.5,730.5C 291.412,728.664 290.079,726.331 289.5,723.5 Z"/></g>
<g><path class="icon" style="opacity:1" fill="currentColor" d="M 293.5,730.5 C 295.588,732.336 296.921,734.669 297.5,737.5C 295.412,735.664 294.079,733.331 293.5,730.5 Z"/></g>
<g><path class="icon" style="opacity:1" fill="currentColor" d="M 871.5,741.5 C 871.573,743.027 870.906,744.027 869.5,744.5C 869.427,742.973 870.094,741.973 871.5,741.5 Z"/></g>
<g><path class="icon" style="opacity:1" fill="currentColor" d="M 300.5,742.5 C 301.906,742.973 302.573,743.973 302.5,745.5C 301.094,745.027 300.427,744.027 300.5,742.5 Z"/></g>
<g><path class="icon" style="opacity:1" fill="currentColor" d="M 302.5,745.5 C 303.906,745.973 304.573,746.973 304.5,748.5C 303.094,748.027 302.427,747.027 302.5,745.5 Z"/></g>
<g><path class="icon" style="opacity:1" fill="currentColor" d="M 304.5,748.5 C 305.906,748.973 306.573,749.973 306.5,751.5C 305.094,751.027 304.427,750.027 304.5,748.5 Z"/></g>
<g><path class="icon" style="opacity:1" fill="currentColor" d="M 306.5,751.5 C 307.906,751.973 308.573,752.973 308.5,754.5C 307.094,754.027 306.427,753.027 306.5,751.5 Z"/></g>
<g><path class="icon" style="opacity:1" fill="currentColor" d="M 861.5,756.5 C 861.573,758.027 860.906,759.027 859.5,759.5C 859.427,757.973 860.094,756.973 861.5,756.5 Z"/></g>
<g><path class="icon" style="opacity:1" fill="currentColor" d="M 308.5,754.5 C 310.9,756.296 312.567,758.63 313.5,761.5C 311.1,759.704 309.433,757.37 308.5,754.5 Z"/></g>
<g><path class="icon" style="opacity:1" fill="currentColor" d="M 859.5,759.5 C 859.262,761.404 858.262,762.738 856.5,763.5C 856.738,761.596 857.738,760.262 859.5,759.5 Z"/></g>
<g><path class="icon" style="opacity:1" fill="currentColor" d="M 313.5,761.5 C 314.906,761.973 315.573,762.973 315.5,764.5C 314.094,764.027 313.427,763.027 313.5,761.5 Z"/></g>
<g><path class="icon" style="opacity:1" fill="currentColor" d="M 315.5,764.5 C 317.587,765.585 318.92,767.251 319.5,769.5C 317.413,768.415 316.08,766.749 315.5,764.5 Z"/></g>
<g><path class="icon" style="opacity:1" fill="currentColor" d="M 853.5,767.5 C 853.262,769.404 852.262,770.738 850.5,771.5C 850.738,769.596 851.738,768.262 853.5,767.5 Z"/></g>
<g><path class="icon" style="opacity:1" fill="currentColor" d="M 319.5,769.5 C 321.587,770.585 322.92,772.251 323.5,774.5C 321.413,773.415 320.08,771.749 319.5,769.5 Z"/></g>
<g><path class="icon" style="opacity:1" fill="currentColor" d="M 850.5,771.5 C 849.92,773.749 848.587,775.415 846.5,776.5C 847.08,774.251 848.413,772.585 850.5,771.5 Z"/></g>
<g><path class="icon" style="opacity:1" fill="currentColor" d="M 846.5,776.5 C 845.581,779.089 843.914,781.089 841.5,782.5C 842.419,779.911 844.086,777.911 846.5,776.5 Z"/></g>
<g><path class="icon" style="opacity:1" fill="currentColor" d="M 326.5,778.5 C 329.243,780.239 331.243,782.573 332.5,785.5C 329.757,783.761 327.757,781.427 326.5,778.5 Z"/></g>
<g><path class="icon" style="opacity:1" fill="currentColor" d="M 840.5,783.5 C 839.243,786.427 837.243,788.761 834.5,790.5C 835.757,787.573 837.757,785.239 840.5,783.5 Z"/></g>
<g><path class="icon" style="opacity:1" fill="currentColor" d="M 333.5,786.5 C 338.894,790.892 343.561,795.892 347.5,801.5C 342.106,797.108 337.439,792.108 333.5,786.5 Z"/></g>
<g><path class="icon" style="opacity:1" fill="currentColor" d="M 831.5,793.5 C 827.167,799.833 821.833,805.167 815.5,809.5C 820.5,803.833 825.833,798.5 831.5,793.5 Z"/></g>
<g><path class="icon" style="opacity:1" fill="currentColor" d="M 348.5,802.5 C 353.774,806.105 358.441,810.438 362.5,815.5C 357.226,811.895 352.559,807.562 348.5,802.5 Z"/></g>
<g><path class="icon" style="opacity:1" fill="currentColor" d="M 811.5,813.5 C 810.089,815.914 808.089,817.581 805.5,818.5C 806.911,816.086 808.911,814.419 811.5,813.5 Z"/></g>
<g><path class="icon" style="opacity:1" fill="currentColor" d="M 364.5,817.5 C 367.089,818.419 369.089,820.086 370.5,822.5C 367.911,821.581 365.911,819.914 364.5,817.5 Z"/></g>
<g><path class="icon" style="opacity:1" fill="currentColor" d="M 803.5,820.5 C 802.415,822.587 800.749,823.92 798.5,824.5C 799.585,822.413 801.251,821.08 803.5,820.5 Z"/></g>
<g><path class="icon" style="opacity:1" fill="currentColor" d="M 798.5,824.5 C 797.415,826.587 795.749,827.92 793.5,828.5C 794.585,826.413 796.251,825.08 798.5,824.5 Z"/></g>
<g><path class="icon" style="opacity:1" fill="currentColor" d="M 788.5,832.5 C 788.027,833.906 787.027,834.573 785.5,834.5C 785.973,833.094 786.973,832.427 788.5,832.5 Z"/></g>
<g><path class="icon" style="opacity:1" fill="currentColor" d="M 398.5,843.5 C 400.027,843.427 401.027,844.094 401.5,845.5C 399.973,845.573 398.973,844.906 398.5,843.5 Z"/></g>
<g><path class="icon" style="opacity:1" fill="currentColor" d="M 419.5,856.5 C 422.331,857.079 424.664,858.412 426.5,860.5C 423.669,859.921 421.336,858.588 419.5,856.5 Z"/></g>
<g><path class="icon" style="opacity:1" fill="currentColor" d="M 748.5,858.5 C 745.992,860.924 742.992,862.59 739.5,863.5C 742.008,861.076 745.008,859.41 748.5,858.5 Z"/></g>
<g><path class="icon" style="opacity:1" fill="currentColor" d="M 731.5,867.5 C 728.912,869.625 725.912,870.958 722.5,871.5C 725.088,869.375 728.088,868.042 731.5,867.5 Z"/></g>
<g><path class="icon" style="opacity:1" fill="currentColor" d="M 713.5,875.5 C 712.22,876.931 710.553,877.598 708.5,877.5C 709.78,876.069 711.447,875.402 713.5,875.5 Z"/></g>
<g><path class="icon" style="opacity:1" fill="currentColor" d="M 471.5,880.5 C 476.784,881.595 481.784,883.261 486.5,885.5C 481.085,884.806 476.085,883.14 471.5,880.5 Z"/></g>
<g><path class="icon" style="opacity:1" fill="currentColor" d="M 739.5,975.5 C 743.167,975.5 746.833,975.5 750.5,975.5C 750.825,993.077 750.492,1010.58 749.5,1028C 738.167,1028.67 726.833,1028.67 715.5,1028C 697.812,1023.37 691.978,1012.2 698,994.5C 702.009,992.444 706.176,992.111 710.5,993.5C 705.804,1002.15 706.804,1009.98 713.5,1017C 721.749,1018.41 730.083,1018.91 738.5,1018.5C 738.184,1004.09 738.518,989.755 739.5,975.5 Z"/></g>
<g><path class="icon" style="opacity:1" fill="currentColor" d="M 261.5,978.5 C 264.833,978.5 268.167,978.5 271.5,978.5C 271.334,984.176 271.501,989.843 272,995.5C 278.031,990.683 284.531,990.183 291.5,994C 298.29,1000.94 300.124,1009.11 297,1018.5C 290.78,1029.2 282.613,1031.2 272.5,1024.5C 271.614,1025.32 271.281,1026.32 271.5,1027.5C 268.167,1027.5 264.833,1027.5 261.5,1027.5C 261.5,1011.17 261.5,994.833 261.5,978.5 Z"/></g>
<g><path class="icon" style="opacity:1" fill="currentColor" d="M 393.5,978.5 C 396.5,978.5 399.5,978.5 402.5,978.5C 402.169,986.86 402.502,995.193 403.5,1003.5C 404.107,1003.38 404.44,1003.04 404.5,1002.5C 407.664,999.167 410.664,995.667 413.5,992C 417.871,991.172 422.205,991.339 426.5,992.5C 422.167,997.167 417.833,1001.83 413.5,1006.5C 417.844,1013.2 422.177,1019.86 426.5,1026.5C 423.038,1027.48 419.371,1027.81 415.5,1027.5C 412.355,1023.23 409.188,1018.9 406,1014.5C 404.955,1015.37 404.122,1016.37 403.5,1017.5C 402.521,1020.62 402.187,1023.96 402.5,1027.5C 399.5,1027.5 396.5,1027.5 393.5,1027.5C 393.5,1011.17 393.5,994.833 393.5,978.5 Z"/></g>
<g><path class="icon" style="opacity:1" fill="currentColor" d="M 393.5,978.5 C 396.625,977.521 399.958,977.187 403.5,977.5C 403.174,986.017 403.507,994.35 404.5,1002.5C 404.44,1003.04 404.107,1003.38 403.5,1003.5C 402.502,995.193 402.169,986.86 402.5,978.5C 399.5,978.5 396.5,978.5 393.5,978.5 Z"/></g>
<g><path class="icon" style="opacity:1" fill="currentColor" d="M 896.5,978.5 C 903.968,979.674 905.301,983.174 900.5,989C 894.839,989.667 892.672,987.167 894,981.5C 895.045,980.627 895.878,979.627 896.5,978.5 Z"/></g>
<g><path class="icon" style="opacity:1" fill="currentColor" d="M 465.5,980.5 C 470.511,980.334 475.511,980.501 480.5,981C 484.283,982.058 487.617,983.891 490.5,986.5C 488.914,989.341 487.08,992.007 485,994.5C 477.626,987.843 470.293,987.843 463,994.5C 457.299,1003.73 458.799,1011.57 467.5,1018C 472.287,1018.88 476.953,1018.55 481.5,1017C 482.464,1012.93 482.797,1008.77 482.5,1004.5C 485.833,1004.5 489.167,1004.5 492.5,1004.5C 492.666,1010.18 492.499,1015.84 492,1021.5C 484.688,1028.05 476.188,1030.21 466.5,1028C 453.099,1022.7 447.265,1012.87 449,998.5C 450.565,994.6 452.565,990.934 455,987.5C 458.308,984.771 461.808,982.438 465.5,980.5 Z"/></g>
<g><path class="icon" style="opacity:1" fill="currentColor" d="M 723.5,980.5 C 726.833,980.5 730.167,980.5 733.5,980.5C 733.663,982.857 733.497,985.19 733,987.5C 724.438,990.085 724.938,991.418 734.5,991.5C 734.5,993.833 734.5,996.167 734.5,998.5C 727.833,998.5 721.167,998.5 714.5,998.5C 714.5,996.167 714.5,993.833 714.5,991.5C 715.5,991.5 716.5,991.5 717.5,991.5C 716.933,986.407 718.933,982.741 723.5,980.5 Z"/></g>
<g><path class="icon" style="opacity:1" fill="currentColor" d="M 113.5,990.5 C 112.521,993.625 112.187,996.958 112.5,1000.5C 119.5,1000.5 126.5,1000.5 133.5,1000.5C 133.5,1003.5 133.5,1006.5 133.5,1009.5C 126.5,1009.5 119.5,1009.5 112.5,1009.5C 112.5,1015.5 112.5,1021.5 112.5,1027.5C 109.167,1027.5 105.833,1027.5 102.5,1027.5C 102.5,1012.17 102.5,996.833 102.5,981.5C 113.167,981.5 123.833,981.5 134.5,981.5C 134.5,984.5 134.5,987.5 134.5,990.5C 127.5,990.5 120.5,990.5 113.5,990.5 Z"/></g>
<g><path class="icon" style="opacity:1" fill="currentColor" d="M 149.5,991.5 C 155.732,990.939 161.732,991.772 167.5,994C 168.787,995.41 169.954,996.91 171,998.5C 171.5,1008.16 171.666,1017.83 171.5,1027.5C 168.5,1027.5 165.5,1027.5 162.5,1027.5C 162.649,1026.45 162.483,1025.45 162,1024.5C 155.303,1029.76 148.636,1029.76 142,1024.5C 137.962,1017.8 138.796,1011.96 144.5,1007C 150.088,1005.71 155.755,1005.21 161.5,1005.5C 162.035,1002.76 161.035,1000.93 158.5,1000C 153.852,999.117 149.519,999.95 145.5,1002.5C 143.127,1000.67 141.961,998.332 142,995.5C 144.514,993.996 147.014,992.662 149.5,991.5 Z"/></g>
<g><path class="icon" style="opacity:1" fill="currentColor" d="M 191.5,991.5 C 197.402,990.962 203.068,991.795 208.5,994C 210.327,994.899 211.66,996.233 212.5,998C 211.015,1000.16 209.515,1002.32 208,1004.5C 202.53,999.688 196.863,999.354 191,1003.5C 187.067,1009.84 188.234,1015 194.5,1019C 199.815,1020.34 204.148,1018.84 207.5,1014.5C 209.316,1016.82 211.316,1018.98 213.5,1021C 206.087,1028.92 197.42,1030.59 187.5,1026C 176.864,1016.92 175.864,1006.92 184.5,996C 186.898,994.476 189.231,992.976 191.5,991.5 Z"/></g>
<g><path class="icon" style="opacity:1" fill="currentColor" d="M 230.5,991.5 C 247.232,989.571 255.232,996.904 254.5,1013.5C 245.833,1013.5 237.167,1013.5 228.5,1013.5C 228.872,1017.04 230.872,1019.21 234.5,1020C 238.772,1020.74 242.439,1019.58 245.5,1016.5C 252.527,1022.01 251.527,1025.84 242.5,1028C 223.64,1029.8 215.806,1021.3 219,1002.5C 221.412,997.252 225.246,993.586 230.5,991.5 Z"/></g>
<g><path class="icon" style="opacity:1" fill="currentColor" d="M 316.5,991.5 C 334.057,989.485 342.557,997.151 342,1014.5C 336.621,1026.75 327.455,1030.91 314.5,1027C 305.681,1021.56 302.514,1013.73 305,1003.5C 306.08,1001 307.414,998.67 309,996.5C 311.479,994.686 313.979,993.019 316.5,991.5 Z"/></g>
<g><path class="icon" style="opacity:1" fill="currentColor" d="M 360.5,991.5 C 379.507,990.332 387.34,998.999 384,1017.5C 378.888,1026.76 371.055,1030.26 360.5,1028C 347.194,1021.53 344.027,1011.7 351,998.5C 353.825,995.524 356.992,993.191 360.5,991.5 Z"/></g>
<g><path class="icon" style="opacity:1" fill="currentColor" d="M 510.5,1027.5 C 507.5,1027.5 504.5,1027.5 501.5,1027.5C 501.5,1015.83 501.5,1004.17 501.5,992.5C 504.5,992.5 507.5,992.5 510.5,992.5C 510.263,993.791 510.596,994.791 511.5,995.5C 514.374,993.065 517.707,991.731 521.5,991.5C 521.5,994.5 521.5,997.5 521.5,1000.5C 517.452,1000.44 514.285,1002.11 512,1005.5C 510.609,1012.75 510.109,1020.08 510.5,1027.5 Z"/></g>
<g><path class="icon" style="opacity:1" fill="currentColor" d="M 538.5,991.5 C 549.817,989.316 557.984,993.316 563,1003.5C 564.865,1021.64 556.698,1029.8 538.5,1028C 528.183,1023.54 524.016,1015.7 526,1004.5C 528.379,998.29 532.546,993.957 538.5,991.5 Z"/></g>
<g><path class="icon" style="opacity:1" fill="currentColor" d="M 614.5,1040.5 C 614.5,1024.5 614.5,1008.5 614.5,992.5C 617.833,992.5 621.167,992.5 624.5,992.5C 624.351,993.552 624.517,994.552 625,995.5C 634.199,989.265 642.199,990.598 649,999.5C 653.421,1009.65 651.588,1018.48 643.5,1026C 636.927,1029.74 630.76,1029.24 625,1024.5C 624.501,1029.82 624.334,1035.16 624.5,1040.5C 621.167,1040.5 617.833,1040.5 614.5,1040.5 Z"/></g>
<g><path class="icon" style="opacity:1" fill="currentColor" d="M 897.5,991.5 C 906.844,989.251 913.011,992.585 916,1001.5C 917.683,1009.41 916.183,1016.58 911.5,1023C 903.181,1028 894.181,1029.66 884.5,1028C 882.695,1027.03 881.028,1025.86 879.5,1024.5C 872.369,1029.49 865.369,1029.49 858.5,1024.5C 851.936,1029.21 845.269,1029.54 838.5,1025.5C 832.362,1029.44 826.195,1029.44 820,1025.5C 813.329,1029.81 806.996,1029.48 801,1024.5C 795.384,1028.83 789.384,1029.49 783,1026.5C 777.639,1036.52 769.639,1040.19 759,1037.5C 757.877,1034.04 758.71,1031.21 761.5,1029C 773.697,1029.23 774.697,1027.23 764.5,1023C 757.811,1016.6 756.811,1009.44 761.5,1001.5C 766.945,997.229 772.945,996.396 779.5,999C 782.106,1000.94 783.939,1003.44 785,1006.5C 785.16,1010.29 785.826,1013.95 787,1017.5C 793.975,1019.53 796.975,1016.86 796,1009.5C 791.6,1001.23 794.1,997.395 803.5,998C 804,998.5 804.5,999 805,999.5C 806.139,1005.44 806.805,1011.44 807,1017.5C 812.425,1019.98 814.925,1018.31 814.5,1012.5C 814.663,1008.82 813.663,1005.49 811.5,1002.5C 814.791,997.373 818.958,996.373 824,999.5C 825.186,1005.08 825.852,1010.75 826,1016.5C 831.23,1019.95 833.397,1018.45 832.5,1012C 832.888,1008.36 831.888,1005.2 829.5,1002.5C 832.791,997.373 836.958,996.373 842,999.5C 843.124,1005.1 843.79,1010.77 844,1016.5C 847.692,1019.33 850.692,1018.66 853,1014.5C 852.923,1009.71 852.257,1005.04 851,1000.5C 853.653,997.806 856.82,996.973 860.5,998C 862.004,999.491 862.837,1001.32 863,1003.5C 863.333,1007.83 863.667,1012.17 864,1016.5C 868.019,1019.43 871.353,1018.76 874,1014.5C 874.335,1009.9 873.668,1005.56 872,1001.5C 874.611,997.588 878.111,996.588 882.5,998.5C 882.833,999.167 883.167,999.833 883.5,1000.5C 884.236,1005.8 884.736,1011.14 885,1016.5C 885.5,1017 886,1017.5 886.5,1018C 891.5,1018.67 896.5,1018.67 901.5,1018C 891.976,1015.46 888.143,1009.3 890,999.5C 891.69,995.979 894.19,993.312 897.5,991.5 Z"/></g>
<g><path class="icon" style="opacity:1" fill="currentColor" d="M 990.5,991.5 C 1006.64,990.827 1012.81,998.493 1009,1014.5C 1006.19,1026.63 998.528,1032.97 986,1033.5C 981.627,1030.27 981.46,1026.77 985.5,1023C 997.697,1023.23 998.697,1021.23 988.5,1017C 980.032,1007.72 980.698,999.224 990.5,991.5 Z"/></g>
<g><path class="icon" style="opacity:1" fill="currentColor" d="M 511.5,995.5 C 510.596,994.791 510.263,993.791 510.5,992.5C 507.5,992.5 504.5,992.5 501.5,992.5C 501.5,1004.17 501.5,1015.83 501.5,1027.5C 504.5,1027.5 507.5,1027.5 510.5,1027.5C 507.375,1028.48 504.042,1028.81 500.5,1028.5C 500.5,1016.17 500.5,1003.83 500.5,991.5C 504.167,991.5 507.833,991.5 511.5,991.5C 511.5,992.833 511.5,994.167 511.5,995.5 Z"/></g>
<g><path class="icon" style="opacity:1" fill="currentColor" d="M 581.5,1014.5 C 580.508,1007.35 580.175,1000.02 580.5,992.5C 577.5,992.5 574.5,992.5 571.5,992.5C 571.5,1000.83 571.5,1009.17 571.5,1017.5C 570.507,1009.02 570.174,1000.35 570.5,991.5C 574.167,991.5 577.833,991.5 581.5,991.5C 581.5,999.167 581.5,1006.83 581.5,1014.5 Z"/></g>
<g><path class="icon" style="opacity:1" fill="currentColor" d="M 604.5,991.5 C 604.5,1003.5 604.5,1015.5 604.5,1027.5C 601.167,1027.5 597.833,1027.5 594.5,1027.5C 594.649,1026.45 594.483,1025.45 594,1024.5C 586.391,1030.26 579.391,1029.59 573,1022.5C 571.991,1020.98 571.491,1019.31 571.5,1017.5C 571.5,1009.17 571.5,1000.83 571.5,992.5C 574.5,992.5 577.5,992.5 580.5,992.5C 580.175,1000.02 580.508,1007.35 581.5,1014.5C 582.793,1019.08 585.793,1020.58 590.5,1019C 591.667,1017.83 592.833,1016.67 594,1015.5C 594.5,1007.51 594.666,999.507 594.5,991.5C 597.833,991.5 601.167,991.5 604.5,991.5 Z"/></g>
<g><path class="icon" style="opacity:1" fill="currentColor" d="M 604.5,991.5 C 605.495,1003.66 605.829,1015.99 605.5,1028.5C 601.629,1028.81 597.962,1028.48 594.5,1027.5C 597.833,1027.5 601.167,1027.5 604.5,1027.5C 604.5,1015.5 604.5,1003.5 604.5,991.5 Z"/></g>
<g><path class="icon" style="opacity:1" fill="currentColor" d="M 624.5,992.5 C 621.167,992.5 617.833,992.5 614.5,992.5C 614.5,1008.5 614.5,1024.5 614.5,1040.5C 613.504,1024.34 613.17,1008.01 613.5,991.5C 617.371,991.185 621.038,991.518 624.5,992.5 Z"/></g>
<g><path class="icon" style="opacity:1" fill="currentColor" d="M 1042.5,994.5 C 1057.13,995.44 1066.46,1003.11 1070.5,1017.5C 1074.92,1019.7 1075.75,1023.03 1073,1027.5C 1072.2,1028.8 1071.03,1029.47 1069.5,1029.5C 1066.8,1028.77 1064.14,1027.93 1061.5,1027C 1053.26,1026.34 1045.09,1026.84 1037,1028.5C 1033.76,1028.69 1030.76,1028.03 1028,1026.5C 1025.09,1033.11 1020.26,1036.94 1013.5,1038C 1010.63,1035.29 1009.97,1032.12 1011.5,1028.5C 1014.66,1027.84 1017.16,1026.18 1019,1023.5C 1020.05,1016.11 1019.21,1008.94 1016.5,1002C 1018.92,997.73 1022.42,996.564 1027,998.5C 1028.92,1003.65 1029.92,1008.98 1030,1014.5C 1030.47,1015.93 1031.3,1017.1 1032.5,1018C 1041.49,1017.75 1050.49,1017.25 1059.5,1016.5C 1059.65,1011.98 1057.65,1008.81 1053.5,1007C 1049.17,1006.23 1045.01,1006.73 1041,1008.5C 1037.5,1007.55 1035.33,1005.22 1034.5,1001.5C 1035.04,1000.25 1035.71,999.085 1036.5,998C 1038.73,997.059 1040.73,995.892 1042.5,994.5 Z"/></g>
<g><path class="icon" style="opacity:1" fill="currentColor" d="M 938.5,997.5 C 943.348,996.76 947.015,998.427 949.5,1002.5C 943.617,1011.97 946.284,1017.31 957.5,1018.5C 962.078,1018.48 965.911,1016.81 969,1013.5C 969.179,1008.93 968.512,1004.6 967,1000.5C 970.047,997.52 973.547,996.853 977.5,998.5C 983.466,1013.45 978.8,1023.28 963.5,1028C 953.94,1029.92 945.774,1027.42 939,1020.5C 934.569,1012.88 934.402,1005.22 938.5,997.5 Z"/></g>
<g><path class="icon" style="opacity:1" fill="currentColor" d="M 113.5,990.5 C 113.5,993.5 113.5,996.5 113.5,999.5C 120.354,999.176 127.021,999.509 133.5,1000.5C 126.5,1000.5 119.5,1000.5 112.5,1000.5C 112.187,996.958 112.521,993.625 113.5,990.5 Z"/></g>
<g><path class="icon-back" style="opacity:1" fill="#eff5f5" d="M 233.5,999.5 C 239.406,998.435 242.739,1000.77 243.5,1006.5C 238.5,1006.5 233.5,1006.5 228.5,1006.5C 229.002,1003.33 230.669,1001 233.5,999.5 Z"/></g>
<g><path class="icon-back" style="opacity:1" fill="#f8fafa" d="M 277.5,999.5 C 282.534,999.439 286.034,1001.77 288,1006.5C 289.274,1015.56 285.441,1019.72 276.5,1019C 271.917,1015.65 270.417,1011.15 272,1005.5C 273.36,1002.98 275.193,1000.98 277.5,999.5 Z"/></g>
<g><path class="icon-back" style="opacity:1" fill="#fbfcfc" d="M 318.5,1000.5 C 329.159,999.327 333.326,1003.99 331,1014.5C 329.471,1017.93 326.804,1019.6 323,1019.5C 320.186,1019.59 317.853,1018.59 316,1016.5C 313.453,1010.56 314.287,1005.22 318.5,1000.5 Z"/></g>
<g><path class="icon-back" style="opacity:1" fill="#f9fbfb" d="M 364.5,999.5 C 373.056,1000.25 376.556,1004.92 375,1013.5C 372.549,1019.09 368.383,1020.92 362.5,1019C 355.363,1011.66 356.03,1005.16 364.5,999.5 Z"/></g>
<g><path class="icon-back" style="opacity:1" fill="#f9fbfb" d="M 540.5,1000.5 C 548.467,998.487 552.8,1001.49 553.5,1009.5C 553.197,1018 548.864,1021.16 540.5,1019C 533.885,1012.76 533.885,1006.59 540.5,1000.5 Z"/></g>
<g><path class="icon-back" style="opacity:1" fill="#f9fbfb" d="M 630.5,999.5 C 640.657,1001.46 643.49,1007.13 639,1016.5C 633.559,1020.93 628.892,1020.26 625,1014.5C 623.087,1007.97 624.92,1002.97 630.5,999.5 Z"/></g>
<g><path class="icon-back" style="opacity:1" fill="#f0f5f6" d="M 994.5,1000.5 C 1000.95,1001.25 1003.28,1004.91 1001.5,1011.5C 998.191,1010.76 995.357,1009.09 993,1006.5C 992.591,1004.3 993.091,1002.3 994.5,1000.5 Z"/></g>
<g><path class="icon" style="opacity:1" fill="currentColor" d="M 658.5,1003.5 C 666.5,1003.5 674.5,1003.5 682.5,1003.5C 682.5,1006.5 682.5,1009.5 682.5,1012.5C 674.5,1012.5 666.5,1012.5 658.5,1012.5C 658.5,1009.5 658.5,1006.5 658.5,1003.5 Z"/></g>
<g><path class="icon-back" style="opacity:1" fill="#e9f1f2" d="M 902.5,1002.5 C 906.009,1002.81 907.676,1004.81 907.5,1008.5C 902.756,1008.77 901.089,1006.77 902.5,1002.5 Z"/></g>
<g><path class="icon-back" style="opacity:1" fill="#eff5f5" d="M 770.5,1006.5 C 772.722,1006.18 774.556,1006.84 776,1008.5C 777.289,1011.35 777.789,1014.35 777.5,1017.5C 773.862,1017.26 771.029,1015.6 769,1012.5C 768.252,1010.16 768.752,1008.16 770.5,1006.5 Z"/></g>
<g><path class="icon-back" style="opacity:1" fill="#d6e4e5" d="M 133.5,1009.5 C 127.021,1010.49 120.354,1010.82 113.5,1010.5C 113.822,1016.36 113.489,1022.02 112.5,1027.5C 112.5,1021.5 112.5,1015.5 112.5,1009.5C 119.5,1009.5 126.5,1009.5 133.5,1009.5 Z"/></g>
<g><path class="icon-back" style="opacity:1" fill="#f1f6f7" d="M 151.5,1012.5 C 154.833,1012.5 158.167,1012.5 161.5,1012.5C 160.688,1020.16 156.855,1022.16 150,1018.5C 149.252,1016.16 149.752,1014.16 151.5,1012.5 Z"/></g>
<g><path class="icon" style="opacity:1" fill="currentColor" d="M 403.5,1017.5 C 403.5,1021.17 403.5,1024.83 403.5,1028.5C 399.958,1028.81 396.625,1028.48 393.5,1027.5C 396.5,1027.5 399.5,1027.5 402.5,1027.5C 402.187,1023.96 402.521,1020.62 403.5,1017.5 Z"/></g>
<g><path class="icon" style="opacity:1" fill="currentColor" d="M 426.5,1026.5 C 427.043,1026.56 427.376,1026.89 427.5,1027.5C 423.351,1028.81 419.351,1028.81 415.5,1027.5C 419.371,1027.81 423.038,1027.48 426.5,1026.5 Z"/></g>
<g><path class="icon" style="opacity:1" fill="currentColor" d="M 870.5,1029.5 C 873.421,1029.15 875.754,1030.15 877.5,1032.5C 880.42,1029.08 883.587,1028.74 887,1031.5C 887.852,1039.57 884.685,1041.57 877.5,1037.5C 870.315,1041.57 867.148,1039.57 868,1031.5C 868.995,1030.93 869.828,1030.27 870.5,1029.5 Z"/></g>
<g><path class="icon" style="opacity:1" fill="currentColor" d="M 955.5,1029.5 C 962.628,1029.71 964.294,1032.87 960.5,1039C 956.168,1040.34 953.501,1038.84 952.5,1034.5C 952.757,1032.31 953.757,1030.64 955.5,1029.5 Z"/></g>
<g><path class="icon" style="opacity:1" fill="currentColor" d="M 1052.5,1029.5 C 1060.02,1029.39 1062.02,1032.56 1058.5,1039C 1050.42,1039.8 1048.42,1036.64 1052.5,1029.5 Z"/></g>
<g><path class="icon" style="opacity:1" fill="currentColor" d="M 797.5,1029.5 C 804.968,1030.67 806.301,1034.17 801.5,1040C 796.178,1040.34 794.011,1037.84 795,1032.5C 796.045,1031.63 796.878,1030.63 797.5,1029.5 Z"/></g>
</svg>
