<svg version="1.0" xmlns="http://www.w3.org/2000/svg" viewBox="0 0 590 590"
 preserveAspectRatio="xMidYMid meet">
<g transform="translate(0.000000,591.000000) scale(0.100000,-0.100000)"
fill="#000000" stroke="none">
<path fill="currentcolor" d="M457 5885 c-110 -28 -137 -40 -224 -102 -59 -42 -128 -125 -167 -200
-9 -18 -27 -79 -41 -135 l-25 -103 0 -2395 0 -2395 25 -103 c14 -56 32 -117
41 -135 39 -75 108 -158 167 -200 84 -60 110 -72 204 -96 81 -21 88 -21 2523
-21 2435 0 2442 0 2523 21 93 24 120 36 202 95 57 40 133 131 168 200 9 17 25
67 36 111 21 81 21 88 21 2523 0 2435 0 2442 -21 2523 -24 94 -36 120 -96 204
-42 59 -125 128 -200 167 -18 9 -79 27 -135 41 l-103 25 -2400 -1 -2400 0 -98
-24z m4973 -281 c41 -12 67 -29 110 -72 100 -100 90 177 90 -2582 0 -2758 10
-2482 -89 -2581 -99 -99 177 -89 -2581 -89 -2758 0 -2482 -10 -2581 89 -99 99
-89 -177 -89 2581 0 2758 -10 2482 89 2581 97 97 -175 87 2572 88 2189 1 2431
-1 2479 -15z"/>
<path class="icon" d="M1440 4230 c-126 -27 -241 -121 -331 -273 -101 -169 -146 -312 -180
-562 -21 -158 5 -479 59 -730 60 -278 217 -577 380 -725 122 -110 245 -156
402 -148 144 7 209 50 278 186 28 54 37 113 24 151 -6 16 -43 74 -83 128 -40
54 -96 131 -126 170 -82 112 -87 114 -296 103 -87 -5 -89 -4 -112 23 -59 67
-114 349 -122 622 -5 160 -3 196 10 228 19 45 34 51 157 67 146 20 160 31 226
181 20 46 44 102 54 124 86 192 91 235 42 308 -32 45 -107 114 -151 137 -31
16 -172 22 -231 10z"/>
<path class="icon" d="M2434 3251 c-49 -22 -101 -81 -120 -136 -18 -51 -18 -159 0 -209 21
-60 63 -106 124 -133 46 -22 65 -25 122 -21 84 6 134 31 177 86 55 73 67 202
27 302 -19 48 -84 106 -133 120 -58 16 -151 12 -197 -9z m176 -76 c44 -23 69
-66 76 -132 11 -108 -27 -180 -108 -205 -59 -17 -123 12 -155 71 -45 87 -21
218 49 261 39 24 98 26 138 5z"/>
<path class="icon" d="M1780 3010 l0 -250 45 0 45 0 0 110 0 110 105 0 105 0 0 -110 0 -110
50 0 50 0 0 250 0 250 -50 0 -50 0 0 -100 0 -100 -105 0 -105 0 0 100 0 100
-45 0 -45 0 0 -250z"/>
<path class="icon" d="M2862 3224 l3 -36 70 -2 70 -1 3 -212 2 -213 50 0 50 0 2 213 3 212
73 0 72 0 0 38 0 37 -201 0 -200 0 3 -36z"/>
<path class="icon" d="M3370 3010 l0 -250 175 0 175 0 0 40 0 39 -126 3 -125 3 0 208 0 207
-49 0 -50 0 0 -250z"/>
<path class="icon" d="M3820 3010 l0 -250 50 0 50 0 0 250 0 250 -50 0 -50 0 0 -250z"/>
<path class="icon" d="M4050 3010 l0 -250 45 0 45 0 0 160 c0 88 3 160 8 160 4 -1 35 -47
70 -103 149 -243 127 -217 183 -217 l49 0 0 250 0 250 -45 0 -45 0 -2 -167 -3
-168 -79 130 c-130 215 -121 205 -177 205 l-49 0 0 -250z"/>
<path class="icon" d="M4590 3010 l0 -250 195 0 195 0 0 40 0 40 -145 0 -146 0 3 73 3 72
128 3 127 3 0 39 0 40 -130 0 -131 0 3 58 3 57 138 3 137 3 0 34 0 35 -190 0
-190 0 0 -250z"/>
<path class="icon" d="M3962 2599 c-16 -6 -22 -14 -18 -26 11 -37 36 -210 36 -253 0 -25 -7
-56 -16 -68 -16 -23 -57 -29 -83 -13 -16 10 -19 71 -7 108 7 18 4 23 -17 28
-39 10 -47 -1 -47 -64 0 -44 5 -65 20 -84 40 -51 133 -54 176 -6 17 19 19 37
18 178 -1 144 -11 212 -31 210 -5 0 -18 -4 -31 -10z"/>
<path class="icon" d="M3166 2591 c-4 -6 -1 -60 5 -120 11 -99 10 -112 -5 -135 -20 -31 -61
-35 -76 -7 -5 11 -10 43 -10 71 0 56 -14 70 -50 50 -15 -8 -19 -17 -14 -28 28
-66 6 -112 -54 -112 -34 0 -34 0 -18 25 9 13 16 42 16 63 0 100 -123 123 -158
30 -13 -34 -13 -41 6 -78 l19 -40 -27 0 c-35 0 -46 14 -55 67 -12 76 -90 108
-149 62 -55 -43 -25 -133 56 -161 29 -10 30 -12 13 -25 -11 -7 -34 -13 -52
-13 -34 0 -50 -17 -40 -44 4 -10 16 -12 49 -6 32 6 52 18 79 48 21 25 40 38
47 33 20 -12 254 -5 283 9 22 10 31 9 53 -5 23 -15 33 -16 66 -6 22 6 42 15
45 20 2 5 22 0 42 -10 39 -21 94 -19 121 3 9 8 22 6 46 -7 28 -15 38 -16 69
-6 69 23 78 46 75 195 -3 129 -3 131 -27 134 -39 6 -43 -8 -30 -125 12 -100
11 -113 -4 -137 -21 -31 -62 -35 -77 -7 -5 11 -10 42 -10 69 0 55 -16 70 -52
51 -13 -7 -17 -16 -12 -27 4 -9 9 -31 11 -48 8 -54 -47 -83 -93 -50 -17 13
-20 31 -24 143 l-5 128 -27 3 c-14 2 -29 -1 -32 -7z m-260 -188 c8 -29 -6 -58
-26 -58 -20 0 -34 29 -26 58 4 18 13 27 26 27 13 0 22 -9 26 -27z m-222 4 c23
-17 27 -80 5 -85 -22 -4 -69 36 -69 58 0 11 8 24 18 29 22 13 25 13 46 -2z"/>
<path class="icon" d="M3601 2591 c-12 -8 -12 -33 -1 -170 12 -159 13 -161 36 -161 l24 0 0
154 c0 85 -3 161 -6 170 -7 18 -31 21 -53 7z"/>
<path class="icon" d="M4075 2590 c-9 -14 1 -152 16 -226 10 -53 37 -87 76 -96 11 -3 63 -1
114 4 62 6 116 5 161 -2 78 -12 123 1 152 41 22 32 22 134 0 143 -24 9 -57
-12 -48 -32 25 -60 6 -112 -41 -112 -19 0 -23 7 -29 52 -14 101 -110 152 -181
97 -20 -17 -29 -19 -35 -10 -4 7 -16 11 -26 9 -21 -4 -24 -39 -12 -110 6 -35
5 -38 -17 -38 -12 0 -32 8 -44 18 -19 15 -21 29 -23 142 l-3 125 -27 3 c-14 2
-29 -2 -33 -8z m312 -158 c15 -10 33 -57 33 -87 0 -22 -4 -24 -71 -27 -78 -3
-86 2 -75 48 14 53 76 90 113 66z"/>
<path class="icon" d="M4794 2585 c-3 -8 -2 -56 3 -107 6 -51 8 -95 6 -97 -10 -13 -37 33
-42 71 -5 34 -11 44 -27 46 -11 2 -26 -3 -32 -11 -17 -20 12 -100 50 -137 l30
-30 -34 0 c-18 0 -40 4 -48 10 -19 12 -40 -6 -40 -35 0 -37 74 -42 153 -10 35
14 47 58 47 174 0 60 -3 116 -6 125 -8 20 -53 21 -60 1z"/>
<path class="icon" d="M4911 2591 c-12 -8 -12 -33 -1 -170 12 -159 13 -161 36 -161 l24 0 0
154 c0 85 -3 161 -6 170 -7 18 -31 21 -53 7z"/>
<path class="icon" d="M4676 2577 c-15 -11 -16 -17 -5 -40 8 -17 18 -26 27 -22 7 3 20 5 28
5 8 0 14 5 14 11 0 6 -10 9 -22 8 -27 -4 -51 9 -43 22 4 5 15 9 26 9 11 0 17
5 14 10 -8 13 -18 13 -39 -3z"/>
<path class="icon" d="M2852 2548 c2 -15 10 -23 23 -23 13 0 21 8 23 23 3 18 -1 22 -23 22
-22 0 -26 -4 -23 -22z"/>
<path class="icon" d="M2464 2515 c-4 -9 -2 -21 4 -27 15 -15 44 -1 40 19 -4 23 -36 29 -44
8z"/>
<path class="icon" d="M3304 2515 c-4 -9 -2 -21 4 -27 15 -15 44 -1 40 19 -4 23 -36 29 -44
8z"/>
<path class="icon" d="M3377 2517 c-8 -21 8 -39 29 -35 27 5 25 42 -2 46 -12 2 -24 -3 -27
-11z"/>
<path class="icon" d="M4514 2515 c-4 -9 -2 -21 4 -27 15 -15 44 -1 40 19 -4 23 -36 29 -44
8z"/>
<path class="icon" d="M4584 2515 c-8 -19 3 -35 26 -35 19 0 30 17 23 38 -6 17 -42 15 -49
-3z"/>
<path class="icon" d="M2072 2453 c-22 -9 -42 -60 -36 -92 16 -78 123 -117 217 -79 37 14
60 60 52 100 -6 23 -4 29 6 26 8 -3 17 -23 20 -45 6 -49 23 -71 66 -89 88 -37
159 40 139 150 -7 37 -22 44 -56 26 -16 -9 -17 -13 -4 -48 16 -49 9 -80 -21
-88 -49 -12 -90 40 -66 84 18 33 13 41 -29 52 -55 15 -106 3 -147 -33 -31 -27
-33 -32 -18 -46 12 -13 19 -13 35 -3 26 16 30 15 30 -7 0 -48 -110 -71 -150
-31 -24 24 -26 67 -4 91 25 28 4 47 -34 32z"/>
<path class="icon" d="M2110 2225 c-15 -18 -5 -35 20 -35 10 0 22 5 25 10 7 11 -12 40 -25
40 -4 0 -13 -7 -20 -15z"/>
<path class="icon" d="M2190 2225 c-15 -18 -5 -35 20 -35 10 0 22 5 25 10 7 11 -12 40 -25
40 -4 0 -13 -7 -20 -15z"/>
<path class="icon" d="M2990 2225 c-15 -18 -5 -35 20 -35 10 0 22 5 25 10 7 11 -12 40 -25
40 -4 0 -13 -7 -20 -15z"/>
<path class="icon" d="M3073 2233 c-21 -8 -15 -43 6 -43 11 0 23 5 27 11 8 14 -17 38 -33
32z"/>
</g>
</svg>
