<svg version="1.0" xmlns="http://www.w3.org/2000/svg" viewBox="0 0 1181.000000 1181.000000"
 preserveAspectRatio="xMidYMid meet"><g><path style="opacity:0.998" fill="currentColor" d="M 100.5,12.5 C 427.834,12.3333 755.167,12.5 1082.5,13C 1130.33,22.1667 1158.83,50.6667 1168,98.5C 1168.67,425.833 1168.67,753.167 1168,1080.5C 1158.83,1128.33 1130.33,1156.83 1082.5,1166C 755.167,1166.67 427.833,1166.67 100.5,1166C 52.6667,1156.83 24.1667,1128.33 15,1080.5C 14.3333,753.167 14.3333,425.833 15,98.5C 24.3464,50.6539 52.8464,21.9873 100.5,12.5 Z"/></g>
<g><path class="icon-back" style="opacity:1" fill="#fefefe" d="M 137.5,65.5 C 439.834,65.3333 742.167,65.5 1044.5,66C 1084.25,72.7465 1107.75,95.9131 1115,135.5C 1115.67,437.833 1115.67,740.167 1115,1042.5C 1108.17,1082.67 1084.67,1106.17 1044.5,1113C 742.167,1113.67 439.833,1113.67 137.5,1113C 96.9929,1105.49 73.8262,1081.33 68,1040.5C 67.3333,738.833 67.3333,437.167 68,135.5C 75.3462,96.3208 98.5129,72.9875 137.5,65.5 Z"/></g>
<g><path class="icon" style="opacity:1" fill="currentColor" d="M 896.5,508.5 C 896.596,514.373 897.263,520.04 898.5,525.5C 904.452,629.392 869.119,716.225 792.5,786C 746.906,825.628 694.24,850.461 634.5,860.5C 629.609,860.532 624.943,861.199 620.5,862.5C 596.781,865.318 573.115,864.985 549.5,861.5C 545.081,860.028 540.414,859.362 535.5,859.5C 447.589,841.978 378.423,796.311 328,722.5C 304.794,687.748 289.627,649.748 282.5,608.5C 282.435,605.572 281.768,602.905 280.5,600.5C 265.51,476.029 307.51,375.862 406.5,300C 448.261,270.126 494.594,251.293 545.5,243.5C 550.731,243.556 555.731,242.889 560.5,241.5C 678,235.842 771.833,279.842 842,373.5C 871.02,414.049 889.187,459.049 896.5,508.5 Z"/></g>
<g><path class="icon" style="opacity:1" fill="currentColor" d="M 560.5,241.5 C 555.731,242.889 550.731,243.556 545.5,243.5C 550.269,242.111 555.269,241.444 560.5,241.5 Z"/></g>
<g><path class="icon-back" style="opacity:1" fill="#fcfdfd" d="M 510.5,417.5 C 562.834,417.333 615.168,417.5 667.5,418C 711.802,427.3 735.969,454.466 740,499.5C 740.667,545.833 740.667,592.167 740,638.5C 736.166,682.668 712.666,709.835 669.5,720C 615.5,720.667 561.5,720.667 507.5,720C 468.733,711.234 445.567,687.401 438,648.5C 437.333,595.5 437.333,542.5 438,489.5C 446.125,449.208 470.292,425.208 510.5,417.5 Z"/></g>
<g><path class="icon" style="opacity:1" fill="currentColor" d="M 512.5,445.5 C 562.501,445.333 612.501,445.5 662.5,446C 689.866,451.032 706.366,467.199 712,494.5C 712.667,543.167 712.667,591.833 712,640.5C 708.692,667.611 693.859,684.777 667.5,692C 614.5,692.667 561.5,692.667 508.5,692C 483.166,684.498 468.666,667.664 465,641.5C 464.333,593.167 464.333,544.833 465,496.5C 469.745,468.929 485.578,451.929 512.5,445.5 Z"/></g>
<g><path class="icon-back" style="opacity:1" fill="#fbfdfd" d="M 665.5,468.5 C 685.708,469.268 692.875,479.268 687,498.5C 677.556,510.097 666.89,511.431 655,502.5C 645.068,486.751 648.568,475.417 665.5,468.5 Z"/></g>
<g><path class="icon-back" style="opacity:1" fill="#fcfdfd" d="M 576.5,491.5 C 611.143,488.573 637.976,501.573 657,530.5C 673.699,565.696 668.866,597.529 642.5,626C 615.274,649.204 585.274,653.537 552.5,639C 515.799,615.908 503.299,583.408 515,541.5C 526.788,513.857 547.288,497.191 576.5,491.5 Z"/></g>
<g><path class="icon" style="opacity:1" fill="currentColor" d="M 896.5,508.5 C 898.012,513.929 898.679,519.596 898.5,525.5C 897.263,520.04 896.596,514.373 896.5,508.5 Z"/></g>
<g><path class="icon" style="opacity:1" fill="currentColor" d="M 580.5,518.5 C 609.668,516.986 628.835,529.986 638,557.5C 642.134,586.746 630.634,606.913 603.5,618C 570.968,624.159 549.468,611.659 539,580.5C 534.85,555.966 543.35,537.133 564.5,524C 569.846,521.83 575.179,519.997 580.5,518.5 Z"/></g>
<g><path class="icon" style="opacity:1" fill="currentColor" d="M 280.5,600.5 C 281.768,602.905 282.435,605.572 282.5,608.5C 280.96,606.162 280.294,603.495 280.5,600.5 Z"/></g>
<g><path class="icon" style="opacity:1" fill="currentColor" d="M 535.5,859.5 C 540.414,859.362 545.081,860.028 549.5,861.5C 544.586,861.638 539.919,860.972 535.5,859.5 Z"/></g>
<g><path class="icon" style="opacity:1" fill="currentColor" d="M 634.5,860.5 C 630.081,861.972 625.414,862.638 620.5,862.5C 624.943,861.199 629.609,860.532 634.5,860.5 Z"/></g>
<g><path class="icon" style="opacity:1" fill="currentColor" d="M 762.5,941.5 C 766.516,940.9 770.016,941.9 773,944.5C 774.106,949.769 774.773,955.103 775,960.5C 775.667,980.5 775.667,1000.5 775,1020.5C 774.626,1021.42 774.126,1022.25 773.5,1023C 769.903,1024.28 766.236,1024.61 762.5,1024C 761,1023.17 759.833,1022 759,1020.5C 758.112,998.292 756.612,976.126 754.5,954C 754.667,951.833 754.833,949.667 755,947.5C 757.114,944.879 759.614,942.879 762.5,941.5 Z"/></g>
<g><path class="icon" style="opacity:1" fill="currentColor" d="M 1036.5,941.5 C 1040.52,940.9 1044.02,941.9 1047,944.5C 1047.96,949.123 1048.62,953.79 1049,958.5C 1049.67,979.5 1049.67,1000.5 1049,1021.5C 1045.24,1024.09 1041.07,1024.92 1036.5,1024C 1035,1023.17 1033.83,1022 1033,1020.5C 1031.9,998.144 1030.4,975.81 1028.5,953.5C 1028.35,947.647 1031.02,943.647 1036.5,941.5 Z"/></g>
<g><path class="icon" style="opacity:1" fill="currentColor" d="M 137.5,956.5 C 146.658,954.835 150.825,958.501 150,967.5C 148.839,971.833 146.005,973.833 141.5,973.5C 134.54,972.616 131.707,968.616 133,961.5C 134.059,959.341 135.559,957.674 137.5,956.5 Z"/></g>
<g><path class="icon" style="opacity:1" fill="currentColor" d="M 1006.5,958.5 C 1014.37,958.201 1017.87,961.868 1017,969.5C 1014.56,974.224 1010.73,975.724 1005.5,974C 1003.67,973.5 1002.5,972.333 1002,970.5C 1000.31,965.131 1001.81,961.131 1006.5,958.5 Z"/></g>
<g><path class="icon" style="opacity:1" fill="currentColor" d="M 897.5,975.5 C 894.603,974.442 892.436,972.442 891,969.5C 885.667,977.5 880.333,977.5 875,969.5C 874.087,963.57 876.587,959.903 882.5,958.5C 886.571,958.736 889.404,960.736 891,964.5C 896.248,956.59 901.581,956.59 907,964.5C 907.632,971.372 904.465,975.039 897.5,975.5 Z"/></g>
<g><path class="icon" style="opacity:1" fill="currentColor" d="M 281.5,961.5 C 281.5,967.167 281.5,972.833 281.5,978.5C 279.5,978.5 277.5,978.5 275.5,978.5C 276.919,977.549 278.585,977.216 280.5,977.5C 280.179,971.974 280.512,966.64 281.5,961.5 Z"/></g>
<g><path class="icon" style="opacity:1" fill="currentColor" d="M 281.5,961.5 C 286.5,961.5 291.5,961.5 296.5,961.5C 296.5,967.167 296.5,972.833 296.5,978.5C 300.833,978.5 305.167,978.5 309.5,978.5C 309.5,981.833 309.5,985.167 309.5,988.5C 305.167,988.5 300.833,988.5 296.5,988.5C 296.173,997.682 296.507,1006.68 297.5,1015.5C 297.884,1018.05 299.384,1019.38 302,1019.5C 304.923,1019.2 307.257,1017.87 309,1015.5C 311.223,1018.78 313.057,1022.28 314.5,1026C 307.105,1032.89 298.771,1034.22 289.5,1030C 284.273,1026.15 281.606,1020.98 281.5,1014.5C 281.5,1005.83 281.5,997.167 281.5,988.5C 279.5,988.5 277.5,988.5 275.5,988.5C 275.5,985.167 275.5,981.833 275.5,978.5C 277.5,978.5 279.5,978.5 281.5,978.5C 281.5,972.833 281.5,967.167 281.5,961.5 Z"/></g>
<g><path class="icon" style="opacity:1" fill="currentColor" d="M 296.5,961.5 C 297.488,966.64 297.821,971.974 297.5,977.5C 301.702,977.183 305.702,977.517 309.5,978.5C 305.167,978.5 300.833,978.5 296.5,978.5C 296.5,972.833 296.5,967.167 296.5,961.5 Z"/></g>
<g><path class="icon" style="opacity:1" fill="currentColor" d="M 897.5,975.5 C 900.251,978.572 901.751,982.239 902,986.5C 902.3,992.186 902.3,997.853 902,1003.5C 902.601,1007.27 904.768,1008.94 908.5,1008.5C 913.896,1008.09 916.229,1005.09 915.5,999.5C 915.38,993.686 913.713,988.353 910.5,983.5C 914.922,975.488 921.255,973.488 929.5,977.5C 930.432,979.795 931.265,982.129 932,984.5C 932.333,991.5 932.667,998.5 933,1005.5C 933.758,1007.91 935.425,1008.91 938,1008.5C 943.376,1007.94 945.543,1004.94 944.5,999.5C 944.437,993.644 942.77,988.311 939.5,983.5C 943.965,975.489 950.298,973.489 958.5,977.5C 961.519,985.946 962.352,994.612 961,1003.5C 963.85,1008.72 968.017,1009.89 973.5,1007C 974.701,1006.1 975.535,1004.93 976,1003.5C 977.352,996.329 976.186,989.662 972.5,983.5C 974.402,977.871 978.402,975.204 984.5,975.5C 990.001,975.164 992.834,977.831 993,983.5C 993.333,990.833 993.667,998.167 994,1005.5C 996.909,1008.39 1000.41,1009.23 1004.5,1008C 1005.7,1007.1 1006.53,1005.93 1007,1004.5C 1007.67,1000.83 1007.67,997.167 1007,993.5C 1005.03,989.599 1003.7,985.599 1003,981.5C 1008.68,975.086 1015.01,974.086 1022,978.5C 1025.53,991.169 1024.53,1003.5 1019,1015.5C 1012.16,1023.11 1003.66,1025.95 993.5,1024C 990.217,1022.44 987.383,1020.27 985,1017.5C 978.166,1023.07 970.333,1025.24 961.5,1024C 958.421,1022.75 955.754,1020.92 953.5,1018.5C 943.912,1026.05 934.079,1026.39 924,1019.5C 913.532,1026.5 903.365,1026.17 893.5,1018.5C 887.672,1022.57 881.172,1024.57 874,1024.5C 865.749,1022.85 857.416,1021.85 849,1021.5C 838.446,1022.01 827.946,1023.01 817.5,1024.5C 812.794,1024.86 808.46,1023.86 804.5,1021.5C 800.369,1030.8 793.535,1037.13 784,1040.5C 779.129,1038.29 776.295,1034.46 775.5,1029C 775.645,1027.77 775.978,1026.61 776.5,1025.5C 789.012,1021.83 793.845,1013.49 791,1000.5C 789.67,994.344 787.837,988.344 785.5,982.5C 787.539,977.312 791.372,974.978 797,975.5C 799.352,975.305 801.352,975.972 803,977.5C 805.5,986 807.167,994.666 808,1003.5C 808.785,1005.29 809.951,1006.79 811.5,1008C 825.876,1008.16 840.209,1007.33 854.5,1005.5C 850.151,988.49 840.485,984.49 825.5,993.5C 817.826,990.98 814.326,985.646 815,977.5C 831.796,967.074 846.796,969.407 860,984.5C 865.851,991.878 869.684,1000.21 871.5,1009.5C 883.121,1009.62 887.621,1003.95 885,992.5C 883.701,989.853 882.368,987.186 881,984.5C 881.568,980.248 884.068,977.414 888.5,976C 891.482,975.502 894.482,975.335 897.5,975.5 Z"/></g>
<g><path class="icon" style="opacity:1" fill="currentColor" d="M 720.5,976.5 C 736.693,975.861 746.527,983.528 750,999.5C 750.796,1007.73 749.129,1015.4 745,1022.5C 743.38,1024.73 741.214,1026.06 738.5,1026.5C 728.714,1024.52 719.881,1020.52 712,1014.5C 711.871,1020.58 714.205,1025.58 719,1029.5C 719.503,1035.62 716.669,1039.46 710.5,1041C 708.833,1041.67 707.167,1041.67 705.5,1041C 694.712,1028.03 693.879,1014.53 703,1000.5C 703.731,988.678 709.565,980.678 720.5,976.5 Z"/></g>
<g><path class="icon" style="opacity:1" fill="currentColor" d="M 163.5,978.5 C 168.305,977.513 173.305,977.179 178.5,977.5C 178.216,979.415 178.549,981.081 179.5,982.5C 179.44,983.043 179.107,983.376 178.5,983.5C 177.548,981.955 177.215,980.288 177.5,978.5C 172.833,978.5 168.167,978.5 163.5,978.5 Z"/></g>
<g><path class="icon" style="opacity:1" fill="currentColor" d="M 178.5,1000.5 C 177.506,1010.65 177.172,1020.99 177.5,1031.5C 172.833,1031.5 168.167,1031.5 163.5,1031.5C 163.5,1013.83 163.5,996.167 163.5,978.5C 168.167,978.5 172.833,978.5 177.5,978.5C 177.215,980.288 177.548,981.955 178.5,983.5C 179.107,983.376 179.44,983.043 179.5,982.5C 187.214,976.814 195.547,975.981 204.5,980C 208.928,983.092 211.761,987.259 213,992.5C 213.5,1005.5 213.667,1018.5 213.5,1031.5C 208.5,1031.5 203.5,1031.5 198.5,1031.5C 198.961,1018.73 198.461,1006.07 197,993.5C 191.033,987.939 185.366,988.273 180,994.5C 178.872,996.345 178.372,998.345 178.5,1000.5 Z"/></g>
<g><path class="icon" style="opacity:1" fill="currentColor" d="M 240.5,977.5 C 250.21,975.877 258.876,978.043 266.5,984C 264.875,987.42 262.875,990.587 260.5,993.5C 254.79,988.664 248.457,987.497 241.5,990C 240.065,992.267 240.398,994.267 242.5,996C 248.091,998.197 253.758,1000.2 259.5,1002C 267.976,1007.72 269.809,1015.22 265,1024.5C 257.668,1031.88 248.834,1034.38 238.5,1032C 232.609,1030.39 227.275,1027.72 222.5,1024C 224.671,1020.78 227.171,1017.95 230,1015.5C 234.794,1018.9 240.127,1020.9 246,1021.5C 253.186,1021.07 254.686,1018.23 250.5,1013C 245.167,1011 239.833,1009 234.5,1007C 226.024,1001.28 224.191,993.784 229,984.5C 232.263,981.037 236.097,978.704 240.5,977.5 Z"/></g>
<g><path class="icon" style="opacity:1" fill="currentColor" d="M 337.5,998.5 C 342.833,998.5 348.167,998.5 353.5,998.5C 353.768,996.901 353.434,995.568 352.5,994.5C 351.075,990.696 348.242,989.029 344,989.5C 338.476,989.63 333.476,991.297 329,994.5C 326.64,991.64 324.473,988.64 322.5,985.5C 326.638,981.431 331.638,978.931 337.5,978C 346.39,976.402 354.723,977.735 362.5,982C 364.956,984.408 366.789,987.241 368,990.5C 368.5,1004.16 368.667,1017.83 368.5,1031.5C 363.833,1031.5 359.167,1031.5 354.5,1031.5C 354.785,1029.71 354.452,1028.05 353.5,1026.5C 346.824,1032.58 339.157,1034.08 330.5,1031C 319.812,1025.12 316.978,1016.62 322,1005.5C 326.109,1000.86 331.275,998.53 337.5,998.5 Z"/></g>
<g><path class="icon" style="opacity:1" fill="currentColor" d="M 396.5,977.5 C 405.399,975.738 412.899,978.071 419,984.5C 419.497,982.19 419.663,979.857 419.5,977.5C 424.5,977.5 429.5,977.5 434.5,977.5C 434.667,995.503 434.5,1013.5 434,1031.5C 432.544,1039.92 428.044,1046.09 420.5,1050C 406.775,1055.82 394.109,1054.15 382.5,1045C 384.374,1041.42 386.374,1037.92 388.5,1034.5C 395.47,1039.2 403.136,1040.7 411.5,1039C 418.637,1036.22 421.804,1031.05 421,1023.5C 410.28,1032.26 399.113,1032.76 387.5,1025C 379.887,1016.59 377.387,1006.76 380,995.5C 383.298,987.373 388.798,981.373 396.5,977.5 Z"/></g>
<g><path class="icon" style="opacity:1" fill="currentColor" d="M 476.5,977.5 C 477.5,977.5 478.5,977.5 479.5,977.5C 480.015,982.48 479.348,987.146 477.5,991.5C 471.676,991.477 467.509,994.144 465,999.5C 463.597,1010.1 463.097,1020.77 463.5,1031.5C 458.833,1031.5 454.167,1031.5 449.5,1031.5C 449.5,1013.83 449.5,996.167 449.5,978.5C 454.167,978.5 458.833,978.5 463.5,978.5C 463.338,980.527 463.505,982.527 464,984.5C 467.699,981.236 471.866,978.903 476.5,977.5 Z"/></g>
<g><path class="icon" style="opacity:1" fill="currentColor" d="M 476.5,977.5 C 477.568,976.566 478.901,976.232 480.5,976.5C 480.5,981.5 480.5,986.5 480.5,991.5C 479.5,991.5 478.5,991.5 477.5,991.5C 479.348,987.146 480.015,982.48 479.5,977.5C 478.5,977.5 477.5,977.5 476.5,977.5 Z"/></g>
<g><path class="icon" style="opacity:1" fill="currentColor" d="M 534.5,994.5 C 534.5,1006.83 534.5,1019.17 534.5,1031.5C 530.167,1031.5 525.833,1031.5 521.5,1031.5C 521.784,1029.59 521.451,1027.92 520.5,1026.5C 512.2,1033.51 503.2,1034.35 493.5,1029C 486.738,1022.79 484.905,1015.29 488,1006.5C 491.774,1001.86 496.608,999.197 502.5,998.5C 508.5,998.5 514.5,998.5 520.5,998.5C 520.737,997.209 520.404,996.209 519.5,995.5C 518.307,990.642 515.141,988.642 510,989.5C 504.572,989.476 499.739,991.142 495.5,994.5C 493.289,991.244 490.955,988.078 488.5,985C 498.371,977.868 509.371,975.535 521.5,978C 530.048,980.293 534.381,985.793 534.5,994.5 Z"/></g>
<g><path class="icon" style="opacity:1" fill="currentColor" d="M 598.5,1001.5 C 597.506,1011.32 597.173,1021.32 597.5,1031.5C 592.833,1031.5 588.167,1031.5 583.5,1031.5C 583.894,1019.11 583.394,1006.78 582,994.5C 578.272,990.215 573.772,989.382 568.5,992C 566.383,993.731 564.883,995.898 564,998.5C 563.5,1009.49 563.333,1020.49 563.5,1031.5C 558.833,1031.5 554.167,1031.5 549.5,1031.5C 549.5,1013.83 549.5,996.167 549.5,978.5C 554.167,978.5 558.833,978.5 563.5,978.5C 563.34,980.199 563.506,981.866 564,983.5C 570.99,976.983 578.823,975.816 587.5,980C 589.684,982.016 591.684,984.183 593.5,986.5C 603.58,976.246 614.913,974.746 627.5,982C 629.712,984.921 631.545,988.088 633,991.5C 633.5,1004.83 633.667,1018.16 633.5,1031.5C 628.5,1031.5 623.5,1031.5 618.5,1031.5C 618.939,1019.09 618.439,1006.76 617,994.5C 611.033,988.939 605.366,989.273 600,995.5C 598.872,997.345 598.372,999.345 598.5,1001.5 Z"/></g>
<g><path class="icon" style="opacity:1" fill="currentColor" d="M 148.5,978.5 C 143.833,978.5 139.167,978.5 134.5,978.5C 134.5,996.167 134.5,1013.83 134.5,1031.5C 139.167,1031.5 143.833,1031.5 148.5,1031.5C 143.695,1032.49 138.695,1032.82 133.5,1032.5C 133.5,1014.17 133.5,995.833 133.5,977.5C 138.695,977.179 143.695,977.513 148.5,978.5 Z"/></g>
<g><path class="icon" style="opacity:1" fill="currentColor" d="M 148.5,978.5 C 148.5,996.167 148.5,1013.83 148.5,1031.5C 143.833,1031.5 139.167,1031.5 134.5,1031.5C 134.5,1013.83 134.5,996.167 134.5,978.5C 139.167,978.5 143.833,978.5 148.5,978.5 Z"/></g>
<g><path class="icon" style="opacity:1" fill="currentColor" d="M 463.5,978.5 C 458.833,978.5 454.167,978.5 449.5,978.5C 449.5,996.167 449.5,1013.83 449.5,1031.5C 454.167,1031.5 458.833,1031.5 463.5,1031.5C 458.695,1032.49 453.695,1032.82 448.5,1032.5C 448.5,1014.17 448.5,995.833 448.5,977.5C 453.695,977.179 458.695,977.513 463.5,978.5 Z"/></g>
<g><path class="icon" style="opacity:1" fill="currentColor" d="M 563.5,978.5 C 558.833,978.5 554.167,978.5 549.5,978.5C 549.5,996.167 549.5,1013.83 549.5,1031.5C 554.167,1031.5 558.833,1031.5 563.5,1031.5C 558.695,1032.49 553.695,1032.82 548.5,1032.5C 548.5,1014.17 548.5,995.833 548.5,977.5C 553.695,977.179 558.695,977.513 563.5,978.5 Z"/></g>
<g><path class="icon" style="opacity:1" fill="currentColor" d="M 275.5,988.5 C 277.5,988.5 279.5,988.5 281.5,988.5C 281.5,997.167 281.5,1005.83 281.5,1014.5C 280.507,1006.35 280.174,998.017 280.5,989.5C 278.585,989.784 276.919,989.451 275.5,988.5 Z"/></g>
<g><path class="icon" style="opacity:1" fill="currentColor" d="M 309.5,988.5 C 305.702,989.483 301.702,989.817 297.5,989.5C 297.5,998.167 297.5,1006.83 297.5,1015.5C 296.507,1006.68 296.173,997.682 296.5,988.5C 300.833,988.5 305.167,988.5 309.5,988.5 Z"/></g>
<g><path class="icon-back" style="opacity:1" fill="#fbfdfd" d="M 402.5,990.5 C 416.261,989.436 421.761,995.769 419,1009.5C 415.628,1016.43 410.128,1018.93 402.5,1017C 394.963,1012.97 392.463,1006.8 395,998.5C 397.028,995.308 399.528,992.641 402.5,990.5 Z"/></g>
<g><path class="icon-back" style="opacity:1" fill="#f7f9fa" d="M 723.5,992.5 C 729.231,992.721 732.731,995.721 734,1001.5C 734.497,1003.81 734.663,1006.14 734.5,1008.5C 728.998,1008.72 724.165,1007.06 720,1003.5C 718.662,998.96 719.829,995.293 723.5,992.5 Z"/></g>
<g><path class="icon" style="opacity:1" fill="currentColor" d="M 534.5,994.5 C 535.495,1006.99 535.829,1019.66 535.5,1032.5C 530.5,1032.5 525.5,1032.5 520.5,1032.5C 520.5,1030.5 520.5,1028.5 520.5,1026.5C 521.451,1027.92 521.784,1029.59 521.5,1031.5C 525.833,1031.5 530.167,1031.5 534.5,1031.5C 534.5,1019.17 534.5,1006.83 534.5,994.5 Z"/></g>
<g><path class="icon" style="opacity:1" fill="currentColor" d="M 646.5,995.5 C 658.5,995.5 670.5,995.5 682.5,995.5C 682.5,999.833 682.5,1004.17 682.5,1008.5C 670.5,1008.5 658.5,1008.5 646.5,1008.5C 646.5,1004.17 646.5,999.833 646.5,995.5 Z"/></g>
<g><path class="icon" style="opacity:1" fill="currentColor" d="M 352.5,994.5 C 353.434,995.568 353.768,996.901 353.5,998.5C 348.167,998.5 342.833,998.5 337.5,998.5C 342.305,997.513 347.305,997.179 352.5,997.5C 352.5,996.5 352.5,995.5 352.5,994.5 Z"/></g>
<g><path class="icon" style="opacity:1" fill="currentColor" d="M 519.5,995.5 C 520.404,996.209 520.737,997.209 520.5,998.5C 514.5,998.5 508.5,998.5 502.5,998.5C 508.406,998.146 514.073,997.146 519.5,995.5 Z"/></g>
<g><path class="icon" style="opacity:1" fill="currentColor" d="M 339.5,1009.5 C 343.97,1008.51 348.637,1008.18 353.5,1008.5C 353.784,1010.41 353.451,1012.08 352.5,1013.5C 352.5,1012.17 352.5,1010.83 352.5,1009.5C 348.167,1009.5 343.833,1009.5 339.5,1009.5 Z"/></g>
<g><path class="icon-back" style="opacity:1" fill="#fafcfc" d="M 339.5,1009.5 C 343.833,1009.5 348.167,1009.5 352.5,1009.5C 352.5,1010.83 352.5,1012.17 352.5,1013.5C 350.109,1019.36 345.776,1021.53 339.5,1020C 335.787,1018.31 334.621,1015.48 336,1011.5C 336.816,1010.18 337.983,1009.51 339.5,1009.5 Z"/></g>
<g><path class="icon-back" style="opacity:1" fill="#f6f9f9" d="M 506.5,1008.5 C 510.833,1008.5 515.167,1008.5 519.5,1008.5C 519.74,1017.42 515.406,1021.26 506.5,1020C 499.914,1016.17 499.914,1012.34 506.5,1008.5 Z"/></g>
<g><path class="icon" style="opacity:1" fill="currentColor" d="M 842.5,1026.5 C 851.161,1025.33 854.994,1029 854,1037.5C 849.76,1043.3 844.76,1043.96 839,1039.5C 836.348,1034.04 837.514,1029.71 842.5,1026.5 Z"/></g>
<g><path class="icon" style="opacity:1" fill="currentColor" d="M 178.5,1000.5 C 178.5,1011.17 178.5,1021.83 178.5,1032.5C 173.305,1032.82 168.305,1032.49 163.5,1031.5C 168.167,1031.5 172.833,1031.5 177.5,1031.5C 177.172,1020.99 177.506,1010.65 178.5,1000.5 Z"/></g>
<g><path class="icon" style="opacity:1" fill="currentColor" d="M 598.5,1001.5 C 598.5,1011.83 598.5,1022.17 598.5,1032.5C 593.305,1032.82 588.305,1032.49 583.5,1031.5C 588.167,1031.5 592.833,1031.5 597.5,1031.5C 597.173,1021.32 597.506,1011.32 598.5,1001.5 Z"/></g>
</svg>
