<svg version="1.0" xmlns="http://www.w3.org/2000/svg" viewBox="0 0 1181.000000 1181.000000"
 preserveAspectRatio="xMidYMid meet"><g><path style="opacity:0.998" fill="currentColor" d="M 100.5,12.5 C 427.834,12.3333 755.167,12.5 1082.5,13C 1130.33,22.1667 1158.83,50.6667 1168,98.5C 1168.67,425.833 1168.67,753.167 1168,1080.5C 1158.83,1128.33 1130.33,1156.83 1082.5,1166C 755.167,1166.67 427.833,1166.67 100.5,1166C 52.6667,1156.83 24.1667,1128.33 15,1080.5C 14.3333,753.167 14.3333,425.833 15,98.5C 24.3464,50.6539 52.8464,21.9873 100.5,12.5 Z"/></g>
<g><path class="icon-back" style="opacity:1" fill="#fefefe" d="M 137.5,65.5 C 439.834,65.3333 742.167,65.5 1044.5,66C 1084.25,72.7465 1107.75,95.9131 1115,135.5C 1115.67,437.833 1115.67,740.167 1115,1042.5C 1108.17,1082.67 1084.67,1106.17 1044.5,1113C 742.167,1113.67 439.833,1113.67 137.5,1113C 96.9929,1105.49 73.8262,1081.33 68,1040.5C 67.3333,738.833 67.3333,437.167 68,135.5C 75.3462,96.3208 98.5129,72.9875 137.5,65.5 Z"/></g>
<g><path class="icon" style="opacity:1" fill="currentColor" d="M 745.5,133.5 C 745.5,166.5 745.5,199.5 745.5,232.5C 661.833,232.5 578.167,232.5 494.5,232.5C 448.162,232.833 401.829,232.5 355.5,231.5C 485.297,197.942 615.297,165.275 745.5,133.5 Z"/></g>
<g><path class="icon" style="opacity:1" fill="currentColor" d="M 745.5,133.5 C 746.498,166.662 746.832,199.996 746.5,233.5C 662.332,233.833 578.332,233.499 494.5,232.5C 578.167,232.5 661.833,232.5 745.5,232.5C 745.5,199.5 745.5,166.5 745.5,133.5 Z"/></g>
<g><path class="icon" style="opacity:1" fill="currentColor" d="M 351.5,242.5 C 501.833,242.5 652.167,242.5 802.5,242.5C 802.5,449.833 802.5,657.167 802.5,864.5C 652.167,864.5 501.833,864.5 351.5,864.5C 351.5,657.167 351.5,449.833 351.5,242.5 Z"/></g>
<g><path class="icon-back" style="opacity:1" fill="#fcfdfd" d="M 513.5,466.5 C 513.833,451.485 513.499,436.485 512.5,421.5C 511.893,421.624 511.56,421.957 511.5,422.5C 505.438,437.178 499.271,451.845 493,466.5C 489.333,467.833 485.667,467.833 482,466.5C 475.784,451.342 469.284,436.342 462.5,421.5C 461.501,436.819 461.167,452.152 461.5,467.5C 457.833,467.5 454.167,467.5 450.5,467.5C 450.5,442.167 450.5,416.833 450.5,391.5C 454.555,391.176 458.555,391.509 462.5,392.5C 470.563,411.626 478.897,430.626 487.5,449.5C 496.091,430.648 504.424,411.648 512.5,392.5C 516.445,391.509 520.445,391.176 524.5,391.5C 524.5,416.833 524.5,442.167 524.5,467.5C 520.629,467.815 516.962,467.482 513.5,466.5 Z"/></g>
<g><path class="icon-back" style="opacity:1" fill="#fafcfc" d="M 535.5,391.5 C 548.5,391.5 561.5,391.5 574.5,391.5C 574.5,395.167 574.5,398.833 574.5,402.5C 565.167,402.5 555.833,402.5 546.5,402.5C 546.5,409.5 546.5,416.5 546.5,423.5C 552.833,423.5 559.167,423.5 565.5,423.5C 565.5,427.167 565.5,430.833 565.5,434.5C 559.167,434.5 552.833,434.5 546.5,434.5C 546.5,441.5 546.5,448.5 546.5,455.5C 555.833,455.5 565.167,455.5 574.5,455.5C 574.5,459.5 574.5,463.5 574.5,467.5C 561.5,467.5 548.5,467.5 535.5,467.5C 535.5,442.167 535.5,416.833 535.5,391.5 Z"/></g>
<g><path class="icon-back" style="opacity:1" fill="#fdfefe" d="M 624.5,442.5 C 624.56,443.043 624.893,443.376 625.5,443.5C 626.5,426.179 626.833,408.846 626.5,391.5C 629.833,391.5 633.167,391.5 636.5,391.5C 636.5,416.5 636.5,441.5 636.5,466.5C 632.833,466.5 629.167,466.5 625.5,466.5C 616.5,449.833 607.5,433.167 598.5,416.5C 598.44,415.957 598.107,415.624 597.5,415.5C 596.501,432.487 596.167,449.487 596.5,466.5C 593.038,467.482 589.371,467.815 585.5,467.5C 585.5,442.167 585.5,416.833 585.5,391.5C 589.555,391.176 593.555,391.509 597.5,392.5C 606.512,409.194 615.512,425.86 624.5,442.5 Z"/></g>
<g><path class="icon-back" style="opacity:1" fill="#fcfdfd" d="M 649.5,391.5 C 653.5,391.5 657.5,391.5 661.5,391.5C 661.333,410.503 661.5,429.503 662,448.5C 664.62,454.763 669.287,457.096 676,455.5C 682.775,457.113 687.442,454.779 690,448.5C 690.5,429.503 690.667,410.503 690.5,391.5C 694.5,391.5 698.5,391.5 702.5,391.5C 702.966,412.9 702.466,434.233 701,455.5C 698.768,460.731 694.935,464.231 689.5,466C 680.5,468 671.5,468 662.5,466C 657.08,464.212 653.247,460.712 651,455.5C 649.534,434.233 649.034,412.9 649.5,391.5 Z"/></g>
<g><path class="icon" style="opacity:1" fill="currentColor" d="M 626.5,391.5 C 626.833,408.846 626.5,426.179 625.5,443.5C 624.893,443.376 624.56,443.043 624.5,442.5C 625.167,425.5 625.833,408.5 626.5,391.5 Z"/></g>
<g><path class="icon" style="opacity:1" fill="currentColor" d="M 636.5,391.5 C 637.498,416.661 637.831,441.995 637.5,467.5C 633.298,467.817 629.298,467.483 625.5,466.5C 629.167,466.5 632.833,466.5 636.5,466.5C 636.5,441.5 636.5,416.5 636.5,391.5 Z"/></g>
<g><path class="icon" style="opacity:1" fill="currentColor" d="M 598.5,416.5 C 597.833,433.167 597.167,449.833 596.5,466.5C 596.167,449.487 596.501,432.487 597.5,415.5C 598.107,415.624 598.44,415.957 598.5,416.5 Z"/></g>
<g><path class="icon" style="opacity:1" fill="currentColor" d="M 511.5,422.5 C 511.56,421.957 511.893,421.624 512.5,421.5C 513.499,436.485 513.833,451.485 513.5,466.5C 512.833,451.833 512.167,437.167 511.5,422.5 Z"/></g>
<g><path class="icon-back" style="opacity:1" fill="#fafcfc" d="M 465.5,560.5 C 538.834,560.333 612.167,560.5 685.5,561C 688.766,563.536 690.1,566.869 689.5,571C 690.105,576.125 688.105,579.792 683.5,582C 611.167,582.667 538.833,582.667 466.5,582C 462.16,579.647 460.493,575.98 461.5,571C 460.739,566.523 462.073,563.023 465.5,560.5 Z"/></g>
<g><path class="icon-back" style="opacity:1" fill="#fafcfc" d="M 465.5,608.5 C 538.501,608.333 611.501,608.5 684.5,609C 685.931,609.465 687.097,610.299 688,611.5C 688.667,616.5 688.667,621.5 688,626.5C 686.786,628.049 685.286,629.215 683.5,630C 611.167,630.667 538.833,630.667 466.5,630C 462.16,627.647 460.493,623.98 461.5,619C 461.667,616.833 461.833,614.667 462,612.5C 463.376,611.295 464.542,609.962 465.5,608.5 Z"/></g>
<g><path class="icon-back" style="opacity:1" fill="#fbfcfc" d="M 465.5,656.5 C 538.501,656.333 611.501,656.5 684.5,657C 685.931,657.465 687.097,658.299 688,659.5C 688.667,664.5 688.667,669.5 688,674.5C 686.786,676.049 685.286,677.215 683.5,678C 611.167,678.667 538.833,678.667 466.5,678C 462.16,675.647 460.493,671.98 461.5,667C 461.667,664.833 461.833,662.667 462,660.5C 463.376,659.295 464.542,657.962 465.5,656.5 Z"/></g>
<g><path class="icon-back" style="opacity:1" fill="#fbfdfd" d="M 465.5,704.5 C 538.501,704.333 611.501,704.5 684.5,705C 686.333,705.5 687.5,706.667 688,708.5C 688.667,713.167 688.667,717.833 688,722.5C 686.786,724.049 685.286,725.215 683.5,726C 611.167,726.667 538.833,726.667 466.5,726C 462.16,723.647 460.493,719.98 461.5,715C 461.667,712.833 461.833,710.667 462,708.5C 463.376,707.295 464.542,705.962 465.5,704.5 Z"/></g>
<g><path class="icon" style="opacity:1" fill="currentColor" d="M 849.5,919.5 C 852.85,919.335 856.183,919.502 859.5,920C 860.667,920.5 861.5,921.333 862,922.5C 863.088,932.959 863.588,943.459 863.5,954C 863.614,963.89 863.114,973.723 862,983.5C 856.147,997.513 845.647,1003.35 830.5,1001C 827.682,999.662 825.015,998.162 822.5,996.5C 812.478,1003.11 802.478,1003.11 792.5,996.5C 783.652,1003.13 774.818,1003.13 766,996.5C 755.327,1003.48 744.994,1003.15 735,995.5C 725.969,1002 716.469,1003 706.5,998.5C 698.189,1013.75 685.689,1020.08 669,1017.5C 665.297,1004.86 670.131,999.693 683.5,1002C 685.623,1001.19 687.623,1000.19 689.5,999C 670.473,993.431 663.639,981.264 669,962.5C 675.011,953.158 683.511,949.658 694.5,952C 702,954.167 706.833,959 709,966.5C 710.085,971.437 710.752,976.437 711,981.5C 711.465,982.931 712.299,984.097 713.5,985C 724.477,986.353 728.977,981.52 727,970.5C 726.194,967.554 724.861,964.888 723,962.5C 722.247,958.507 723.747,955.674 727.5,954C 732.177,951.838 736.677,952.004 741,954.5C 741.822,956.788 742.489,959.122 743,961.5C 743.333,968.167 743.667,974.833 744,981.5C 744.465,982.931 745.299,984.097 746.5,985C 750.591,986.227 754.091,985.394 757,982.5C 758.534,974.356 757.034,966.856 752.5,960C 755.278,954.94 759.612,952.44 765.5,952.5C 767.808,952.365 769.808,953.031 771.5,954.5C 774.612,962.611 775.278,970.945 773.5,979.5C 774.345,984.844 777.345,986.677 782.5,985C 783.701,984.097 784.535,982.931 785,981.5C 785.642,972.29 787.309,963.29 790,954.5C 804.253,949.248 815.919,952.914 825,965.5C 827.742,970.133 829.409,975.133 830,980.5C 833.274,985.738 837.774,986.904 843.5,984C 846.868,979.787 848.201,974.953 847.5,969.5C 846.223,955.625 844.557,941.792 842.5,928C 843.227,923.779 845.56,920.945 849.5,919.5 Z"/></g>
<g><path class="icon" style="opacity:1" fill="currentColor" d="M 876.5,918.5 C 880.603,917.769 884.103,918.769 887,921.5C 889.455,946.438 890.122,971.438 889,996.5C 887.181,1000.02 884.181,1001.68 880,1001.5C 876.726,1001.7 874.393,1000.37 873,997.5C 871.722,975.494 870.222,953.494 868.5,931.5C 868.551,928.777 868.884,926.11 869.5,923.5C 871.724,921.566 874.058,919.899 876.5,918.5 Z"/></g>
<g><path class="icon" style="opacity:1" fill="currentColor" d="M 268.5,933.5 C 275.508,933.334 282.508,933.5 289.5,934C 295.462,946.09 301.295,958.257 307,970.5C 313.106,958.622 318.939,946.622 324.5,934.5C 331.803,933.503 339.137,933.169 346.5,933.5C 346.5,956.5 346.5,979.5 346.5,1002.5C 341.5,1002.5 336.5,1002.5 331.5,1002.5C 331.667,988.163 331.5,973.829 331,959.5C 330.283,960.044 329.783,960.711 329.5,961.5C 324.103,973.294 318.437,984.96 312.5,996.5C 308.955,997.791 305.455,997.791 302,996.5C 296.214,985.263 290.714,973.929 285.5,962.5C 285.217,961.711 284.717,961.044 284,960.5C 283.5,974.496 283.333,988.496 283.5,1002.5C 278.5,1002.5 273.5,1002.5 268.5,1002.5C 268.5,979.5 268.5,956.5 268.5,933.5 Z"/></g>
<g><path class="icon" style="opacity:1" fill="currentColor" d="M 413.5,933.5 C 413.5,937.833 413.5,942.167 413.5,946.5C 401.988,946.172 390.654,946.505 379.5,947.5C 379.5,952.167 379.5,956.833 379.5,961.5C 389.833,961.5 400.167,961.5 410.5,961.5C 410.5,965.833 410.5,970.167 410.5,974.5C 399.833,974.5 389.167,974.5 378.5,974.5C 378.179,979.695 378.513,984.695 379.5,989.5C 391.167,989.5 402.833,989.5 414.5,989.5C 414.5,993.833 414.5,998.167 414.5,1002.5C 397.5,1002.5 380.5,1002.5 363.5,1002.5C 363.5,979.5 363.5,956.5 363.5,933.5C 380.167,933.5 396.833,933.5 413.5,933.5 Z"/></g>
<g><path class="icon" style="opacity:1" fill="currentColor" d="M 443.5,933.5 C 438.833,933.5 434.167,933.5 429.5,933.5C 429.5,956.5 429.5,979.5 429.5,1002.5C 434.5,1002.5 439.5,1002.5 444.5,1002.5C 444.5,1002.83 444.5,1003.17 444.5,1003.5C 439.167,1003.5 433.833,1003.5 428.5,1003.5C 428.5,979.833 428.5,956.167 428.5,932.5C 433.695,932.179 438.695,932.513 443.5,933.5 Z"/></g>
<g><path class="icon" style="opacity:1" fill="currentColor" d="M 443.5,933.5 C 454.852,947.524 465.852,961.858 476.5,976.5C 476.56,977.043 476.893,977.376 477.5,977.5C 478.499,962.848 478.833,948.182 478.5,933.5C 483.5,933.5 488.5,933.5 493.5,933.5C 493.5,956.833 493.5,980.167 493.5,1003.5C 488.156,1003.67 482.823,1003.5 477.5,1003C 467.303,989.315 456.97,975.815 446.5,962.5C 446.217,961.711 445.717,961.044 445,960.5C 444.5,974.496 444.333,988.496 444.5,1002.5C 439.5,1002.5 434.5,1002.5 429.5,1002.5C 429.5,979.5 429.5,956.5 429.5,933.5C 434.167,933.5 438.833,933.5 443.5,933.5 Z"/></g>
<g><path class="icon" style="opacity:1" fill="currentColor" d="M 493.5,933.5 C 488.5,933.5 483.5,933.5 478.5,933.5C 478.833,948.182 478.499,962.848 477.5,977.5C 476.893,977.376 476.56,977.043 476.5,976.5C 477.496,962.01 477.829,947.343 477.5,932.5C 483.026,932.179 488.36,932.512 493.5,933.5 Z"/></g>
<g><path class="icon" style="opacity:1" fill="currentColor" d="M 553.5,975.5 C 554.496,961.677 554.829,947.677 554.5,933.5C 559.5,933.5 564.5,933.5 569.5,933.5C 569.667,948.837 569.5,964.17 569,979.5C 565.644,995.349 555.81,1003.35 539.5,1003.5C 522.822,1003.33 512.989,994.993 510,978.5C 509.5,963.504 509.333,948.504 509.5,933.5C 514.833,933.5 520.167,933.5 525.5,933.5C 525.333,948.504 525.5,963.504 526,978.5C 528.828,987.831 534.994,991.331 544.5,989C 550.105,986.304 553.105,981.804 553.5,975.5 Z"/></g>
<g><path class="icon" style="opacity:1" fill="currentColor" d="M 569.5,933.5 C 564.5,933.5 559.5,933.5 554.5,933.5C 554.829,947.677 554.496,961.677 553.5,975.5C 553.5,961.167 553.5,946.833 553.5,932.5C 559.026,932.179 564.36,932.512 569.5,933.5 Z"/></g>
<g><path class="icon" style="opacity:1" fill="currentColor" d="M 756.5,935.5 C 764.643,934.954 768.143,938.62 767,946.5C 764.565,951.224 760.731,952.724 755.5,951C 753.667,950.5 752.5,949.333 752,947.5C 750.309,942.131 751.809,938.131 756.5,935.5 Z"/></g>
<g><path class="icon" style="opacity:1" fill="currentColor" d="M 413.5,933.5 C 414.486,937.97 414.819,942.637 414.5,947.5C 402.833,947.5 391.167,947.5 379.5,947.5C 390.654,946.505 401.988,946.172 413.5,946.5C 413.5,942.167 413.5,937.833 413.5,933.5 Z"/></g>
<g><path class="icon" style="opacity:1" fill="currentColor" d="M 346.5,1002.5 C 341.36,1003.49 336.026,1003.82 330.5,1003.5C 330.829,989.323 330.496,975.323 329.5,961.5C 329.783,960.711 330.283,960.044 331,959.5C 331.5,973.829 331.667,988.163 331.5,1002.5C 336.5,1002.5 341.5,1002.5 346.5,1002.5 Z"/></g>
<g><path class="icon" style="opacity:1" fill="currentColor" d="M 268.5,933.5 C 268.5,956.5 268.5,979.5 268.5,1002.5C 273.5,1002.5 278.5,1002.5 283.5,1002.5C 283.333,988.496 283.5,974.496 284,960.5C 284.717,961.044 285.217,961.711 285.5,962.5C 284.504,975.99 284.171,989.656 284.5,1003.5C 278.833,1003.5 273.167,1003.5 267.5,1003.5C 267.169,979.994 267.502,956.661 268.5,933.5 Z"/></g>
<g><path class="icon" style="opacity:1" fill="currentColor" d="M 446.5,962.5 C 445.833,976.167 445.167,989.833 444.5,1003.5C 444.5,1003.17 444.5,1002.83 444.5,1002.5C 444.333,988.496 444.5,974.496 445,960.5C 445.717,961.044 446.217,961.711 446.5,962.5 Z"/></g>
<g><path class="icon" style="opacity:1" fill="currentColor" d="M 583.5,966.5 C 595.5,966.5 607.5,966.5 619.5,966.5C 619.5,970.833 619.5,975.167 619.5,979.5C 607.5,979.5 595.5,979.5 583.5,979.5C 583.5,975.167 583.5,970.833 583.5,966.5 Z"/></g>
<g><path class="icon-back" style="opacity:1" fill="#f7f9fa" d="M 685.5,967.5 C 694.175,966.34 698.175,970.173 697.5,979C 697.456,980.764 697.122,982.431 696.5,984C 690.927,983.117 686.427,980.284 683,975.5C 682.018,972.225 682.851,969.559 685.5,967.5 Z"/></g>
<g><path class="icon-back" style="opacity:1" fill="#f9fbfb" d="M 802.5,967.5 C 809.819,969.964 813.319,974.964 813,982.5C 808.955,986.489 804.955,986.489 801,982.5C 800.182,977.349 800.682,972.349 802.5,967.5 Z"/></g>
<g><path class="icon" style="opacity:1" fill="currentColor" d="M 410.5,974.5 C 400.347,975.494 390.014,975.828 379.5,975.5C 379.5,980.167 379.5,984.833 379.5,989.5C 378.513,984.695 378.179,979.695 378.5,974.5C 389.167,974.5 399.833,974.5 410.5,974.5 Z"/></g>
<g><path class="icon" style="opacity:1" fill="currentColor" d="M 414.5,989.5 C 415.486,993.97 415.819,998.637 415.5,1003.5C 397.992,1003.83 380.659,1003.5 363.5,1002.5C 380.5,1002.5 397.5,1002.5 414.5,1002.5C 414.5,998.167 414.5,993.833 414.5,989.5 Z"/></g>
<g><path class="icon" style="opacity:1" fill="currentColor" d="M 720.5,1003.5 C 725.238,1002.74 729.238,1004.08 732.5,1007.5C 737.629,1002.21 742.796,1002.21 748,1007.5C 749.5,1016.67 745.667,1020.5 736.5,1019C 734.981,1017.65 733.648,1016.15 732.5,1014.5C 727.65,1020.65 722.483,1020.98 717,1015.5C 715.593,1010.64 716.76,1006.64 720.5,1003.5 Z"/></g>
</svg>
