<svg version="1.1" id="Layer_1" xmlns="http://www.w3.org/2000/svg" xmlns:xlink="http://www.w3.org/1999/xlink" x="0px" y="0px"
	 width="100%" viewBox="0 0 591 591" enable-background="new 0 0 591 591" xml:space="preserve">
<path fill="currentColor" opacity="1.000000" stroke="none" 
	d="M592.000000,51.000000 
	C592.000000,214.691574 592.000000,378.383148 591.999512,542.933472 
	C591.387268,545.655457 590.594666,547.480469 590.192932,549.387817 
	C587.349426,562.886475 579.540710,572.842957 568.885742,581.285950 
	C561.127502,587.433594 552.044739,589.454529 543.000000,592.000000 
	C379.308411,592.000000 215.616852,592.000000 51.088749,591.948242 
	C47.241692,591.048645 44.195541,590.309387 41.226452,589.335266 
	C22.815983,583.295288 10.562494,571.082397 4.621450,552.605042 
	C3.381085,548.747375 2.205449,544.868896 0.999995,541.000000 
	C1.000000,378.641754 1.000000,216.283524 1.333003,53.300491 
	C3.941819,45.584026 5.153815,37.900364 8.705131,31.518450 
	C17.262697,16.140022 30.173931,5.935191 48.060658,2.948110 
	C50.092224,2.608838 52.022667,1.664027 54.000000,1.000000 
	C215.691574,1.000000 377.383148,1.000000 539.716919,1.332085 
	C543.414612,2.404829 546.450684,3.240869 549.528992,3.869603 
	C562.685242,6.556666 572.393799,14.193672 580.749329,24.397036 
	C587.212097,32.289066 589.478516,41.619579 592.000000,51.000000 
M334.500000,30.010395 
	C255.505417,30.010395 176.510818,30.008522 97.516235,30.012320 
	C85.017151,30.012920 72.515030,29.873737 60.019867,30.102404 
	C48.697704,30.309605 39.894825,35.336834 34.030533,45.113663 
	C29.998138,51.836388 29.980953,59.349693 29.982403,66.887383 
	C30.011589,218.710785 30.005369,370.534210 30.010340,522.357605 
	C30.010477,526.523804 29.877743,530.700134 30.114624,534.854248 
	C30.735495,545.742065 35.565025,554.217285 45.007549,559.897217 
	C51.268147,563.663147 58.217621,564.027405 65.261520,564.026428 
	C217.251541,564.006287 369.241547,564.000244 521.231567,563.984802 
	C525.730286,563.984314 530.371216,564.599121 534.692688,563.704529 
	C540.422180,562.518372 546.515991,561.102844 551.363220,558.053223 
	C561.882324,551.435120 564.085999,540.603210 564.079163,528.859375 
	C563.990662,376.702728 564.001831,224.546112 563.984314,72.389481 
	C563.983765,68.056618 564.099548,63.716442 563.894409,59.392323 
	C563.367065,48.274750 558.417725,39.661552 548.781189,33.968731 
	C542.203064,30.082642 534.869202,29.973427 527.487427,29.978817 
	C463.491608,30.025555 399.495819,30.008499 334.500000,30.010395 
z"/>
<path fill="#FFFFFF" opacity="1.000000" stroke="none" 
	d="
M592.000000,47.531342 
	C591.539673,46.723629 590.846008,45.480751 590.657288,44.165405 
	C589.518616,36.231167 585.667542,29.466341 580.682800,23.580467 
	C577.581604,19.918652 576.771606,16.274769 576.970398,11.884459 
	C577.120178,8.574668 577.000000,5.252654 577.000000,1.468040 
	C581.964417,1.000000 586.928894,1.000000 592.000000,1.000000 
	C592.000000,16.354086 592.000000,31.708385 592.000000,47.531342 
z"/>
<path fill="#FFFFFF" opacity="1.000000" stroke="none" 
	d="
M577.472656,592.000000 
	C577.000000,591.168640 577.099487,590.323242 576.984802,589.507996 
	C575.598022,579.649658 578.847473,571.711914 585.077942,563.861816 
	C588.726013,559.265442 589.302856,552.231567 591.630615,546.147095 
	C592.000000,561.220459 592.000000,576.440979 592.000000,592.000000 
	C587.320557,592.000000 582.632935,592.000000 577.472656,592.000000 
z"/>
<path class="icon-back" fill="#00A651" opacity="1.000000" stroke-width="5px"
    stroke="var(--icon-back-color)" stroke="none" 
	d="
M550.750977,35.149380 
	C559.929321,41.819016 564.028748,50.566338 564.026184,61.522308 
	C563.988770,218.345306 564.005798,375.168335 563.993774,531.991333 
	C563.992310,551.326477 551.402588,563.991028 532.163879,563.992737 
	C375.340881,564.006592 218.517868,564.007324 61.694874,563.991577 
	C42.729687,563.989685 30.007551,551.272095 30.006071,532.347412 
	C29.993814,375.524414 29.994968,218.701401 30.004459,61.878407 
	C30.005625,42.625626 42.667110,30.004997 61.973587,30.003937 
	C218.629929,29.995331 375.286285,30.010126 531.942627,29.961235 
	C538.631409,29.959148 544.818726,31.275612 550.750977,35.149380 
M472.003906,341.670776 
	C471.550293,343.520081 470.265106,345.666870 470.800140,347.162445 
	C472.363220,351.531647 474.652618,355.641022 476.793671,360.138489 
	C474.955719,359.652283 472.685791,358.710480 470.370880,358.582275 
	C469.200043,358.517456 467.327148,359.674164 466.901337,360.732880 
	C466.446228,361.864532 466.827057,364.264008 467.693878,364.848785 
	C474.852997,369.678406 486.834381,363.668915 487.240601,355.026825 
	C487.520386,349.075531 487.406189,343.089508 487.120392,337.135681 
	C487.002380,334.677673 487.974335,330.747040 483.193939,331.368561 
	C479.174103,331.891235 478.929230,334.589661 479.488098,338.010132 
	C480.278412,342.846954 480.633545,347.754852 481.174652,352.632385 
	C480.753784,352.759216 480.332916,352.886017 479.912048,353.012848 
	C479.187439,351.490356 477.771393,349.924072 477.864594,348.453430 
	C478.174438,343.565857 475.929718,341.402893 472.103394,340.652039 
	C473.109772,340.050781 474.116150,339.449493 476.205811,338.201019 
	C472.809052,337.768097 470.988831,337.536133 467.845490,337.135529 
	C470.583282,335.792847 471.866577,335.163483 473.149872,334.534119 
	C472.955383,333.960999 472.760895,333.387909 472.566406,332.814789 
	C470.943604,333.338501 468.447144,333.427155 467.915649,334.494354 
	C467.227112,335.876892 467.823547,338.144958 468.448334,339.814087 
	C468.695007,340.473114 470.507385,340.546051 472.003906,341.670776 
M157.003403,410.575806 
	C180.333374,418.735229 197.132660,412.623199 206.978668,392.232544 
	C209.621399,386.759552 210.614944,380.899231 206.871094,375.576691 
	C199.496307,365.092163 191.832336,354.809357 184.198883,344.509125 
	C180.664932,339.740631 175.811142,337.536041 169.854721,337.967102 
	C164.870178,338.327850 159.894135,338.807800 154.908737,339.154602 
	C149.017044,339.564362 145.669144,337.444763 143.903503,331.989349 
	C135.800766,306.954102 133.226089,281.260254 134.815384,255.069168 
	C135.127792,249.920563 137.762711,247.163284 142.794052,246.492813 
	C147.087280,245.920685 151.356979,245.026093 155.667145,244.758514 
	C163.445389,244.275650 168.196548,239.992767 171.154816,233.231750 
	C176.088135,221.956711 181.186554,210.744476 185.711411,199.306412 
	C186.917786,196.256927 187.526993,191.931915 186.283066,189.140488 
	C181.948242,179.413071 174.938156,170.965073 164.362335,168.843201 
	C147.097321,165.379242 131.594421,170.077942 119.901222,184.104630 
	C104.814568,202.201935 97.454369,223.562958 94.390373,246.549515 
	C91.550545,267.854248 93.376762,289.046082 96.507759,310.207794 
	C100.238853,335.425415 108.367233,358.908081 122.483994,380.269867 
	C131.110901,393.324310 141.431412,404.312500 157.003403,410.575806 
M309.758209,365.166962 
	C312.919769,364.870056 316.080536,364.564484 319.243225,364.280304 
	C320.557556,364.162231 322.173645,363.550598 323.143158,364.085876 
	C328.566772,367.080444 333.653595,366.443237 338.596405,363.208252 
	C346.873657,370.213989 357.063690,362.627747 356.756470,354.398804 
	C356.514709,347.922577 356.631653,341.425812 356.143616,334.971893 
	C356.043793,333.651581 353.987183,331.478394 352.787933,331.447815 
	C350.191101,331.381592 347.953400,332.704712 348.579132,336.165009 
	C349.082031,338.945740 349.513824,341.751984 349.745178,344.566010 
	C350.057220,348.361542 350.697601,352.266846 350.087524,355.940796 
	C349.804230,357.646790 346.904236,358.918335 345.190491,360.386841 
	C344.065216,358.717957 342.694000,357.155884 341.905426,355.340729 
	C341.419647,354.222504 342.117157,352.631592 341.757477,351.407410 
	C341.230469,349.613647 340.611359,347.488647 339.290588,346.422943 
	C338.517883,345.799408 335.625641,346.474152 334.925873,347.451752 
	C334.184082,348.488007 335.078186,350.587708 334.955170,352.199890 
	C334.775452,354.554962 335.063965,357.532410 333.759094,359.030609 
	C332.702972,360.243225 328.945251,360.596008 327.560364,359.635956 
	C325.973572,358.535919 325.116028,355.611023 324.939148,353.399139 
	C324.462708,347.440765 324.573120,341.437653 324.331177,335.457153 
	C324.241577,333.241638 323.907074,330.850403 320.718567,331.377350 
	C318.021149,331.823181 315.988831,332.900269 316.634338,336.346619 
	C317.245941,339.611816 317.688995,342.925201 317.935303,346.237579 
	C318.192383,349.695465 318.669006,353.293579 317.961853,356.597534 
	C317.630676,358.144653 314.741272,359.144165 313.011292,360.391876 
	C311.935059,358.829712 310.413971,357.400024 309.899078,355.670715 
	C309.302277,353.666595 309.751068,351.376984 309.457916,349.250977 
	C308.925629,345.390167 306.203461,345.175598 303.653290,346.750244 
	C302.738831,347.314911 303.030396,349.893097 302.842712,351.560303 
	C302.560059,354.071716 303.074860,357.070618 301.848846,358.945740 
	C300.950653,360.319397 297.801758,360.221436 294.842926,360.990814 
	C298.596863,353.056549 298.401215,348.251526 294.677551,345.129639 
	C291.550110,342.507599 287.904297,341.983521 284.473938,344.161102 
	C277.892822,348.338684 279.798187,354.237061 282.226776,360.198700 
	C276.643433,361.315430 276.254425,358.025177 275.895416,354.265320 
	C275.393555,349.009644 272.114929,345.771240 267.397552,345.360992 
	C263.014130,344.979797 258.998749,347.540894 257.651154,351.577423 
	C256.234680,355.820221 258.159760,360.371399 262.598480,362.955292 
	C264.276276,363.932037 266.102966,364.653015 268.945465,366.006653 
	C265.965240,366.839539 263.978729,367.802185 261.966644,367.858978 
	C259.139252,367.938782 257.086456,368.736511 257.803589,371.729156 
	C258.025421,372.654877 261.117828,373.912476 262.195557,373.435516 
	C266.678833,371.451385 270.894806,368.863159 276.476227,365.801300 
	C283.233063,365.801300 291.941772,365.872314 300.646973,365.729126 
	C302.047028,365.706116 303.397430,364.443787 304.832703,364.272308 
	C306.201874,364.108765 307.651886,364.621826 309.758209,365.166962 
M416.709747,266.454895 
	C413.272461,265.949158 409.835205,265.443451 406.222961,264.911957 
	C406.222961,282.665009 406.222961,299.367493 406.222961,316.151306 
	C409.366669,316.151306 412.123016,316.151306 415.677979,316.151306 
	C415.677979,305.662384 415.677979,295.431030 415.677979,285.199646 
	C421.905975,293.608276 427.156647,302.067352 432.418274,310.519684 
	C436.602448,317.241089 437.949585,317.745422 446.036591,315.722198 
	C446.036591,298.992889 446.036591,282.283844 446.036591,265.636200 
	C442.855743,265.636200 440.106323,265.636200 436.919739,265.636200 
	C436.919739,276.520477 436.919739,287.061737 436.919739,297.602997 
	C436.598572,297.706543 436.277374,297.810120 435.956207,297.913666 
	C429.682678,287.645142 423.409149,277.376587 416.709747,266.454895 
M274.655212,309.115387 
	C281.482483,299.779083 281.600189,289.494904 278.156067,279.115723 
	C275.331635,270.604004 268.709625,266.009094 259.932800,264.772675 
	C250.887558,263.498444 242.568954,265.026794 236.406967,272.507263 
	C229.263855,281.178772 228.284698,296.215576 234.036026,305.938843 
	C242.191467,319.726532 261.872864,321.549347 274.655212,309.115387 
M476.538696,293.559875 
	C482.990906,293.559875 489.443146,293.559875 496.094177,293.559875 
	C496.094177,290.434601 496.094177,287.882141 496.094177,284.792633 
	C487.511505,284.792633 479.257324,284.792633 470.957458,284.792633 
	C470.957458,280.980103 470.957458,277.709381 470.957458,273.840027 
	C480.091553,273.840027 488.976715,273.840027 497.894897,273.840027 
	C497.894897,270.660065 497.894897,268.090424 497.894897,265.685974 
	C485.135803,265.685974 472.737946,265.685974 460.347656,265.685974 
	C460.347656,282.715637 460.347656,299.324799 460.347656,316.192566 
	C473.343933,316.192566 486.085022,316.192566 499.004333,316.192566 
	C499.004333,313.372498 499.004333,310.824951 499.004333,307.846863 
	C489.533813,307.846863 480.422882,307.846863 471.007019,307.846863 
	C471.007019,303.021881 471.007019,298.629883 471.007019,293.902740 
	C472.654236,293.777893 474.098999,293.668365 476.538696,293.559875 
M188.422134,276.546204 
	C188.422134,272.933044 188.422134,269.319885 188.422134,265.627441 
	C184.704666,265.627441 181.641968,265.627441 178.566345,265.627441 
	C178.566345,282.676453 178.566345,299.376495 178.566345,316.081146 
	C182.010727,316.081146 185.066437,316.081146 188.610687,316.081146 
	C188.610687,308.619873 188.610687,301.540192 188.610687,294.419617 
	C195.483047,294.419617 201.847900,294.419617 208.718414,294.419617 
	C208.718414,301.919373 208.718414,309.005127 208.718414,316.089600 
	C212.454895,316.089600 215.663956,316.089600 218.755341,316.089600 
	C218.755341,298.982452 218.755341,282.269073 218.755341,265.594696 
	C215.237030,265.594696 212.153900,265.594696 208.426987,265.594696 
	C208.426987,272.263611 208.426987,278.640961 208.426987,284.977448 
	C201.396423,284.977448 195.028397,284.977448 188.421738,284.977448 
	C188.421738,282.182098 188.421738,279.857147 188.422134,276.546204 
M415.623444,342.638428 
	C415.488739,340.312836 415.434235,337.978973 415.195648,335.664093 
	C414.978790,333.560028 415.090912,330.950806 411.786316,331.354767 
	C408.782227,331.721954 406.872742,333.069855 407.335907,336.628326 
	C408.023468,341.910889 408.446503,347.227386 409.019806,352.525360 
	C410.237549,363.777771 414.227081,366.626984 425.587372,365.758545 
	C433.003876,365.191620 440.553009,365.198547 447.955505,365.886658 
	C458.651184,366.880890 465.003052,360.150452 462.578766,349.640106 
	C461.943146,346.884399 460.656036,345.407776 457.710846,346.275299 
	C454.874847,347.110657 454.393066,348.498871 455.627930,351.478180 
	C458.092255,357.423767 455.962280,360.171173 449.283630,360.240875 
	C449.159698,358.465851 449.133606,356.655273 448.891876,354.873962 
	C447.711426,346.175995 439.600311,341.146667 432.158173,344.509583 
	C430.048462,345.462860 428.552979,347.042603 425.537567,345.697998 
	C423.300568,344.700470 420.781738,346.611481 421.472565,350.124420 
	C422.127563,353.455322 422.595032,356.823120 423.167633,360.312927 
	C416.793518,360.129089 415.766907,359.223511 415.643768,354.096619 
	C415.559753,350.599091 415.624817,347.098053 415.623444,342.638428 
M327.722473,267.790070 
	C326.960846,266.953125 326.207733,265.395813 325.436310,265.386658 
	C312.681427,265.235657 299.924225,265.279236 287.016602,265.279236 
	C287.016602,268.420532 287.016602,270.985779 287.016602,274.082458 
	C292.082062,274.082458 296.821381,274.082458 301.952148,274.082458 
	C301.952148,288.364899 301.952148,302.120178 301.952148,316.160645 
	C305.583221,316.160645 308.796417,316.160645 312.621826,316.160645 
	C312.621826,301.975128 312.621826,288.114227 312.621826,273.680237 
	C317.945709,273.680237 322.672516,273.680237 327.724976,273.680237 
	C327.724976,271.610809 327.724976,270.135742 327.722473,267.790070 
M347.904236,284.500580 
	C347.904236,278.239227 347.904236,271.977875 347.904236,265.645325 
	C344.012787,265.645325 340.798096,265.645325 337.605286,265.645325 
	C337.605286,282.725800 337.605286,299.425690 337.605286,316.459106 
	C348.621094,316.459106 359.251984,316.463531 369.882874,316.451599 
	C370.842468,316.450531 371.801941,316.343994 372.977844,316.273468 
	C372.977844,313.429779 372.977844,310.864197 372.977844,307.821442 
	C364.582062,307.821442 356.490204,307.821442 347.904205,307.821442 
	C347.904205,300.067902 347.904205,292.784058 347.904236,284.500580 
M249.085327,356.492798 
	C248.689911,360.362701 246.219513,361.421692 243.104645,360.062073 
	C237.146744,357.461426 240.424698,352.931732 241.355225,349.069366 
	C235.307251,344.107941 224.906174,345.293640 220.413605,351.436066 
	C219.807892,352.264221 219.129013,354.034698 219.468826,354.369598 
	C220.440826,355.327606 221.881836,356.160736 223.211838,356.290527 
	C224.227859,356.389679 225.355743,355.342377 226.835648,354.604828 
	C226.513443,358.604095 224.314392,359.942688 221.257889,360.324982 
	C217.583923,360.784424 213.104309,361.536804 211.569870,357.511322 
	C210.473511,354.635132 211.810104,350.831573 212.110474,346.774841 
	C209.719528,345.404968 206.889847,346.202423 204.943329,349.860779 
	C202.968018,353.573273 204.013062,358.970703 207.696625,362.099365 
	C213.020462,366.621185 219.210266,366.999207 225.552383,364.814484 
	C231.245377,362.853333 232.458176,358.191559 232.059143,352.780334 
	C232.053528,352.704163 232.488083,352.595520 231.907455,352.832458 
	C233.950623,356.613739 235.220123,360.968994 238.056137,363.693756 
	C241.444260,366.948883 246.461395,367.190765 250.608307,364.442413 
	C256.029175,360.849701 255.501801,355.093658 255.034851,349.543701 
	C254.786346,346.589935 253.202423,345.397888 250.310822,346.150818 
	C247.420227,346.903503 246.611465,348.493500 248.056030,351.310028 
	C248.712799,352.590576 248.750168,354.188812 249.085327,356.492798 
M393.175812,275.533752 
	C393.175812,272.268982 393.175812,269.004242 393.175812,265.611633 
	C389.417847,265.611633 386.353485,265.611633 383.153107,265.611633 
	C383.153107,282.623352 383.153107,299.313416 383.153107,316.146851 
	C386.574066,316.146851 389.666168,316.146851 392.652252,316.146851 
	C392.882141,315.560730 393.107635,315.253235 393.108490,314.945129 
	C393.143524,302.138580 393.158447,289.332031 393.175812,275.533752 
M389.393402,373.502380 
	C399.118683,375.023254 404.617065,370.742493 404.532257,360.884674 
	C404.459381,352.418823 403.562897,343.956696 402.922424,335.501129 
	C402.725922,332.907196 402.205597,330.285553 398.486267,331.145660 
	C395.060608,331.937866 394.669861,334.134430 395.386261,337.220825 
	C396.363525,341.431183 397.252258,345.698883 397.674469,349.991577 
	C398.144073,354.765717 398.308044,359.606781 398.101807,364.397095 
	C397.970917,367.437653 395.797974,369.077728 392.613342,368.951813 
	C389.297150,368.820709 387.844818,366.739075 387.751373,363.749084 
	C387.695984,361.975891 387.874481,359.991455 388.636780,358.440674 
	C390.063660,355.537720 388.664642,354.485046 386.285583,353.714569 
	C383.688293,352.873413 382.260651,353.807190 381.517395,356.461395 
	C379.587280,363.353973 382.286072,369.861511 389.393402,373.502380 
M498.599670,340.814423 
	C498.483429,339.493408 498.458618,338.156372 498.230652,336.854919 
	C497.837402,334.609741 498.688446,331.348846 494.621277,331.757965 
	C491.088165,332.113373 490.014893,334.149750 490.359528,337.625946 
	C491.177063,345.873047 491.581085,354.162354 492.476257,362.399414 
	C492.636200,363.871552 494.176422,366.142242 495.385223,366.362000 
	C498.243408,366.881592 498.691528,364.555939 498.665619,362.130890 
	C498.592987,355.336151 498.635986,348.540131 498.599670,340.814423 
M367.612335,363.680176 
	C367.471527,354.557404 367.375153,345.433533 367.158600,336.312561 
	C367.104523,334.036530 367.204742,331.298615 363.567108,331.761200 
	C360.401520,332.163727 359.010101,333.804749 359.334229,337.193970 
	C360.140167,345.620758 360.642914,354.076324 361.417999,362.506500 
	C361.537659,363.808075 362.473175,366.106171 362.996826,366.096344 
	C364.514496,366.067932 366.014557,365.099030 367.612335,363.680176 
M453.325012,338.967194 
	C452.924316,340.366547 452.216125,341.785217 452.301971,343.154083 
	C452.329254,343.589783 454.551147,344.324738 455.613342,344.119232 
	C456.449554,343.957428 457.046936,342.561401 457.750427,341.713593 
	C456.485748,340.742615 455.221069,339.771667 453.325012,338.967194 
M331.336090,343.366425 
	C332.915802,343.326874 334.532135,343.448486 336.042633,343.104767 
	C336.327148,343.040039 336.643860,340.689453 336.140045,340.159454 
	C335.394775,339.375427 333.343353,338.618134 332.889526,339.021423 
	C331.904297,339.896912 331.578430,341.514404 331.336090,343.366425 
M306.287354,371.343567 
	C307.226624,373.913116 309.033844,374.854309 311.124207,372.996216 
	C311.825714,372.372620 311.809052,369.625916 311.093781,368.970673 
	C308.961121,367.017181 307.234619,368.160217 306.287354,371.343567 
M247.418777,343.794678 
	C248.949463,343.378693 250.539337,343.086639 251.947327,342.413849 
	C252.159912,342.312286 251.854996,339.933289 251.200653,339.502838 
	C250.306213,338.914490 248.101395,338.696503 247.782532,339.184692 
	C247.068573,340.277771 247.172867,341.905334 247.418777,343.794678 
M286.035034,338.775787 
	C288.023254,340.657867 290.072144,340.729034 291.094360,338.093048 
	C291.442505,337.195160 290.129333,334.656067 289.231812,334.462921 
	C286.741394,333.927002 285.110809,335.189026 286.035034,338.775787 
M216.355499,369.195831 
	C214.280670,367.237793 212.274033,367.537689 211.347778,370.069458 
	C211.027817,370.943970 212.442902,373.405182 213.396957,373.611908 
	C216.053055,374.187500 217.331100,372.616028 216.355499,369.195831 
M219.023926,370.586487 
	C219.259491,373.351654 220.830002,374.629395 223.277527,373.358704 
	C224.133163,372.914459 224.837479,370.238098 224.310226,369.436249 
	C222.751419,367.065460 220.774948,367.615417 219.023926,370.586487 
M300.226715,368.671295 
	C300.107361,370.097656 299.640869,371.633453 300.039093,372.896637 
	C300.198944,373.403687 302.413635,373.726776 303.404083,373.357819 
	C304.163422,373.074982 305.058319,370.878021 304.881683,370.728668 
	C303.696686,369.726990 302.240906,369.045654 300.226715,368.671295 
M343.989014,341.555756 
	C343.496796,338.635162 341.517700,338.061066 339.399597,339.369812 
	C338.653564,339.830780 338.328369,342.661072 338.961517,343.345856 
	C340.784180,345.317230 342.727539,344.776184 343.989014,341.555756 
M460.962097,344.215820 
	C462.288177,343.416504 463.689789,342.704987 464.847260,341.709564 
	C464.996277,341.581451 464.051514,339.428345 463.306946,339.196167 
	C462.269196,338.872559 460.033508,339.249329 459.914948,339.725800 
	C459.596527,341.004974 460.130676,342.496399 460.962097,344.215820 
z"/>
<path class="icon" fill="#C61D1A" opacity="1.000000" stroke="none" 
	d="
M156.647461,410.420776 
	C141.431412,404.312500 131.110901,393.324310 122.483994,380.269867 
	C108.367233,358.908081 100.238853,335.425415 96.507759,310.207794 
	C93.376762,289.046082 91.550545,267.854248 94.390373,246.549515 
	C97.454369,223.562958 104.814568,202.201935 119.901222,184.104630 
	C131.594421,170.077942 147.097321,165.379242 164.362335,168.843201 
	C174.938156,170.965073 181.948242,179.413071 186.283066,189.140488 
	C187.526993,191.931915 186.917786,196.256927 185.711411,199.306412 
	C181.186554,210.744476 176.088135,221.956711 171.154816,233.231750 
	C168.196548,239.992767 163.445389,244.275650 155.667145,244.758514 
	C151.356979,245.026093 147.087280,245.920685 142.794052,246.492813 
	C137.762711,247.163284 135.127792,249.920563 134.815384,255.069168 
	C133.226089,281.260254 135.800766,306.954102 143.903503,331.989349 
	C145.669144,337.444763 149.017044,339.564362 154.908737,339.154602 
	C159.894135,338.807800 164.870178,338.327850 169.854721,337.967102 
	C175.811142,337.536041 180.664932,339.740631 184.198883,344.509125 
	C191.832336,354.809357 199.496307,365.092163 206.871094,375.576691 
	C210.614944,380.899231 209.621399,386.759552 206.978668,392.232544 
	C197.132660,412.623199 180.333374,418.735229 156.647461,410.420776 
z"/>
<path class="icon" fill="#BF271E" opacity="1.000000" stroke="none" 
	d="
M309.412292,365.002197 
	C307.651886,364.621826 306.201874,364.108765 304.832703,364.272308 
	C303.397430,364.443787 302.047028,365.706116 300.646973,365.729126 
	C291.941772,365.872314 283.233063,365.801300 276.476227,365.801300 
	C270.894806,368.863159 266.678833,371.451385 262.195557,373.435516 
	C261.117828,373.912476 258.025421,372.654877 257.803589,371.729156 
	C257.086456,368.736511 259.139252,367.938782 261.966644,367.858978 
	C263.978729,367.802185 265.965240,366.839539 268.945465,366.006653 
	C266.102966,364.653015 264.276276,363.932037 262.598480,362.955292 
	C258.159760,360.371399 256.234680,355.820221 257.651154,351.577423 
	C258.998749,347.540894 263.014130,344.979797 267.397552,345.360992 
	C272.114929,345.771240 275.393555,349.009644 275.895416,354.265320 
	C276.254425,358.025177 276.643433,361.315430 282.226776,360.198700 
	C279.798187,354.237061 277.892822,348.338684 284.473938,344.161102 
	C287.904297,341.983521 291.550110,342.507599 294.677551,345.129639 
	C298.401215,348.251526 298.596863,353.056549 294.842926,360.990814 
	C297.801758,360.221436 300.950653,360.319397 301.848846,358.945740 
	C303.074860,357.070618 302.560059,354.071716 302.842712,351.560303 
	C303.030396,349.893097 302.738831,347.314911 303.653290,346.750244 
	C306.203461,345.175598 308.925629,345.390167 309.457916,349.250977 
	C309.751068,351.376984 309.302277,353.666595 309.899078,355.670715 
	C310.413971,357.400024 311.935059,358.829712 313.011292,360.391876 
	C314.741272,359.144165 317.630676,358.144653 317.961853,356.597534 
	C318.669006,353.293579 318.192383,349.695465 317.935303,346.237579 
	C317.688995,342.925201 317.245941,339.611816 316.634338,336.346619 
	C315.988831,332.900269 318.021149,331.823181 320.718567,331.377350 
	C323.907074,330.850403 324.241577,333.241638 324.331177,335.457153 
	C324.573120,341.437653 324.462708,347.440765 324.939148,353.399139 
	C325.116028,355.611023 325.973572,358.535919 327.560364,359.635956 
	C328.945251,360.596008 332.702972,360.243225 333.759094,359.030609 
	C335.063965,357.532410 334.775452,354.554962 334.955170,352.199890 
	C335.078186,350.587708 334.184082,348.488007 334.925873,347.451752 
	C335.625641,346.474152 338.517883,345.799408 339.290588,346.422943 
	C340.611359,347.488647 341.230469,349.613647 341.757477,351.407410 
	C342.117157,352.631592 341.419647,354.222504 341.905426,355.340729 
	C342.694000,357.155884 344.065216,358.717957 345.190491,360.386841 
	C346.904236,358.918335 349.804230,357.646790 350.087524,355.940796 
	C350.697601,352.266846 350.057220,348.361542 349.745178,344.566010 
	C349.513824,341.751984 349.082031,338.945740 348.579132,336.165009 
	C347.953400,332.704712 350.191101,331.381592 352.787933,331.447815 
	C353.987183,331.478394 356.043793,333.651581 356.143616,334.971893 
	C356.631653,341.425812 356.514709,347.922577 356.756470,354.398804 
	C357.063690,362.627747 346.873657,370.213989 338.596405,363.208252 
	C333.653595,366.443237 328.566772,367.080444 323.143158,364.085876 
	C322.173645,363.550598 320.557556,364.162231 319.243225,364.280304 
	C316.080536,364.564484 312.919769,364.870056 309.412292,365.002197 
M264.124817,356.315796 
	C266.211517,357.542816 268.298187,358.769836 270.384888,359.996887 
	C270.853943,359.580444 271.322998,359.164032 271.792053,358.747589 
	C270.867249,356.333984 270.190155,353.768188 268.860596,351.603180 
	C268.481506,350.985931 265.775818,350.999451 264.921204,351.691772 
	C264.027557,352.415649 264.078278,354.305359 264.124817,356.315796 
M286.813660,355.522095 
	C288.152802,358.260010 289.904663,358.810791 291.053986,355.666748 
	C291.641541,354.059357 291.019806,351.927734 290.610504,350.108154 
	C290.529572,349.748291 288.192535,349.443939 288.130463,349.601166 
	C287.464111,351.289886 287.045685,353.076477 286.813660,355.522095 
z"/>
<path class="icon" fill="#C41F1B" opacity="1.000000" stroke="none" 
	d="
M416.922668,266.781494 
	C423.409149,277.376587 429.682678,287.645142 435.956207,297.913666 
	C436.277374,297.810120 436.598572,297.706543 436.919739,297.602997 
	C436.919739,287.061737 436.919739,276.520477 436.919739,265.636200 
	C440.106323,265.636200 442.855743,265.636200 446.036591,265.636200 
	C446.036591,282.283844 446.036591,298.992889 446.036591,315.722198 
	C437.949585,317.745422 436.602448,317.241089 432.418274,310.519684 
	C427.156647,302.067352 421.905975,293.608276 415.677979,285.199646 
	C415.677979,295.431030 415.677979,305.662384 415.677979,316.151306 
	C412.123016,316.151306 409.366669,316.151306 406.222961,316.151306 
	C406.222961,299.367493 406.222961,282.665009 406.222961,264.911957 
	C409.835205,265.443451 413.272461,265.949158 416.922668,266.781494 
z"/>
<path class="icon" fill="#C1211C" opacity="1.000000" stroke="none" 
	d="
M274.420288,309.386353 
	C261.872864,321.549347 242.191467,319.726532 234.036026,305.938843 
	C228.284698,296.215576 229.263855,281.178772 236.406967,272.507263 
	C242.568954,265.026794 250.887558,263.498444 259.932800,264.772675 
	C268.709625,266.009094 275.331635,270.604004 278.156067,279.115723 
	C281.600189,289.494904 281.482483,299.779083 274.420288,309.386353 
M251.283096,307.828766 
	C261.830505,309.466919 268.045746,305.071533 269.193970,294.594177 
	C269.600281,290.886658 269.097473,286.991943 268.455719,283.278412 
	C267.580231,278.212280 264.094452,275.139801 259.265656,273.882568 
	C254.126938,272.544647 249.328949,273.502930 245.505737,277.436554 
	C238.977509,284.153290 239.340408,304.032715 251.283096,307.828766 
z"/>
<path class="icon" fill="#BF221D" opacity="1.000000" stroke="none" 
	d="
M476.041229,293.559357 
	C474.098999,293.668365 472.654236,293.777893 471.007019,293.902740 
	C471.007019,298.629883 471.007019,303.021881 471.007019,307.846863 
	C480.422882,307.846863 489.533813,307.846863 499.004333,307.846863 
	C499.004333,310.824951 499.004333,313.372498 499.004333,316.192566 
	C486.085022,316.192566 473.343933,316.192566 460.347656,316.192566 
	C460.347656,299.324799 460.347656,282.715637 460.347656,265.685974 
	C472.737946,265.685974 485.135803,265.685974 497.894897,265.685974 
	C497.894897,268.090424 497.894897,270.660065 497.894897,273.840027 
	C488.976715,273.840027 480.091553,273.840027 470.957458,273.840027 
	C470.957458,277.709381 470.957458,280.980103 470.957458,284.792633 
	C479.257324,284.792633 487.511505,284.792633 496.094177,284.792633 
	C496.094177,287.882141 496.094177,290.434601 496.094177,293.559875 
	C489.443146,293.559875 482.990906,293.559875 476.041229,293.559357 
z"/>
<path class="icon" fill="#C2201C" opacity="1.000000" stroke="none" 
	d="
M188.421936,277.039215 
	C188.421738,279.857147 188.421738,282.182098 188.421738,284.977448 
	C195.028397,284.977448 201.396423,284.977448 208.426987,284.977448 
	C208.426987,278.640961 208.426987,272.263611 208.426987,265.594696 
	C212.153900,265.594696 215.237030,265.594696 218.755341,265.594696 
	C218.755341,282.269073 218.755341,298.982452 218.755341,316.089600 
	C215.663956,316.089600 212.454895,316.089600 208.718414,316.089600 
	C208.718414,309.005127 208.718414,301.919373 208.718414,294.419617 
	C201.847900,294.419617 195.483047,294.419617 188.610687,294.419617 
	C188.610687,301.540192 188.610687,308.619873 188.610687,316.081146 
	C185.066437,316.081146 182.010727,316.081146 178.566345,316.081146 
	C178.566345,299.376495 178.566345,282.676453 178.566345,265.627441 
	C181.641968,265.627441 184.704666,265.627441 188.422134,265.627441 
	C188.422134,269.319885 188.422134,272.933044 188.421936,277.039215 
z"/>
<path class="icon" fill="#BE281E" opacity="1.000000" stroke="none" 
	d="
M415.623352,343.118500 
	C415.624817,347.098053 415.559753,350.599091 415.643768,354.096619 
	C415.766907,359.223511 416.793518,360.129089 423.167633,360.312927 
	C422.595032,356.823120 422.127563,353.455322 421.472565,350.124420 
	C420.781738,346.611481 423.300568,344.700470 425.537567,345.697998 
	C428.552979,347.042603 430.048462,345.462860 432.158173,344.509583 
	C439.600311,341.146667 447.711426,346.175995 448.891876,354.873962 
	C449.133606,356.655273 449.159698,358.465851 449.283630,360.240875 
	C455.962280,360.171173 458.092255,357.423767 455.627930,351.478180 
	C454.393066,348.498871 454.874847,347.110657 457.710846,346.275299 
	C460.656036,345.407776 461.943146,346.884399 462.578766,349.640106 
	C465.003052,360.150452 458.651184,366.880890 447.955505,365.886658 
	C440.553009,365.198547 433.003876,365.191620 425.587372,365.758545 
	C414.227081,366.626984 410.237549,363.777771 409.019806,352.525360 
	C408.446503,347.227386 408.023468,341.910889 407.335907,336.628326 
	C406.872742,333.069855 408.782227,331.721954 411.786316,331.354767 
	C415.090912,330.950806 414.978790,333.560028 415.195648,335.664093 
	C415.434235,337.978973 415.488739,340.312836 415.623352,343.118500 
M441.366333,351.613220 
	C439.823914,348.091980 437.168091,347.665192 433.973877,349.064423 
	C430.050262,350.783203 428.323822,354.840485 429.312561,359.582367 
	C433.438843,359.582367 437.529785,359.582367 442.194000,359.582367 
	C441.994995,356.892059 441.827972,354.634369 441.366333,351.613220 
z"/>
<path class="icon" fill="#C0221C" opacity="1.000000" stroke="none" 
	d="
M327.723724,268.225403 
	C327.724976,270.135742 327.724976,271.610809 327.724976,273.680237 
	C322.672516,273.680237 317.945709,273.680237 312.621826,273.680237 
	C312.621826,288.114227 312.621826,301.975128 312.621826,316.160645 
	C308.796417,316.160645 305.583221,316.160645 301.952148,316.160645 
	C301.952148,302.120178 301.952148,288.364899 301.952148,274.082458 
	C296.821381,274.082458 292.082062,274.082458 287.016602,274.082458 
	C287.016602,270.985779 287.016602,268.420532 287.016602,265.279236 
	C299.924225,265.279236 312.681427,265.235657 325.436310,265.386658 
	C326.207733,265.395813 326.960846,266.953125 327.723724,268.225403 
z"/>
<path class="icon" fill="#BF221D" opacity="1.000000" stroke="none" 
	d="
M347.904236,285.000427 
	C347.904205,292.784058 347.904205,300.067902 347.904205,307.821442 
	C356.490204,307.821442 364.582062,307.821442 372.977844,307.821442 
	C372.977844,310.864197 372.977844,313.429779 372.977844,316.273468 
	C371.801941,316.343994 370.842468,316.450531 369.882874,316.451599 
	C359.251984,316.463531 348.621094,316.459106 337.605286,316.459106 
	C337.605286,299.425690 337.605286,282.725800 337.605286,265.645325 
	C340.798096,265.645325 344.012787,265.645325 347.904236,265.645325 
	C347.904236,271.977875 347.904236,278.239227 347.904236,285.000427 
z"/>
<path class="icon" fill="#BF271E" opacity="1.000000" stroke="none" 
	d="
M249.076904,356.067871 
	C248.750168,354.188812 248.712799,352.590576 248.056030,351.310028 
	C246.611465,348.493500 247.420227,346.903503 250.310822,346.150818 
	C253.202423,345.397888 254.786346,346.589935 255.034851,349.543701 
	C255.501801,355.093658 256.029175,360.849701 250.608307,364.442413 
	C246.461395,367.190765 241.444260,366.948883 238.056137,363.693756 
	C235.220123,360.968994 233.950623,356.613739 231.907455,352.832458 
	C232.488083,352.595520 232.053528,352.704163 232.059143,352.780334 
	C232.458176,358.191559 231.245377,362.853333 225.552383,364.814484 
	C219.210266,366.999207 213.020462,366.621185 207.696625,362.099365 
	C204.013062,358.970703 202.968018,353.573273 204.943329,349.860779 
	C206.889847,346.202423 209.719528,345.404968 212.110474,346.774841 
	C211.810104,350.831573 210.473511,354.635132 211.569870,357.511322 
	C213.104309,361.536804 217.583923,360.784424 221.257889,360.324982 
	C224.314392,359.942688 226.513443,358.604095 226.835648,354.604828 
	C225.355743,355.342377 224.227859,356.389679 223.211838,356.290527 
	C221.881836,356.160736 220.440826,355.327606 219.468826,354.369598 
	C219.129013,354.034698 219.807892,352.264221 220.413605,351.436066 
	C224.906174,345.293640 235.307251,344.107941 241.355225,349.069366 
	C240.424698,352.931732 237.146744,357.461426 243.104645,360.062073 
	C246.219513,361.421692 248.689911,360.362701 249.076904,356.067871 
z"/>
<path class="icon" fill="#C41E1B" opacity="1.000000" stroke="none" 
	d="
M393.175842,276.029602 
	C393.158447,289.332031 393.143524,302.138580 393.108490,314.945129 
	C393.107635,315.253235 392.882141,315.560730 392.652252,316.146851 
	C389.666168,316.146851 386.574066,316.146851 383.153107,316.146851 
	C383.153107,299.313416 383.153107,282.623352 383.153107,265.611633 
	C386.353485,265.611633 389.417847,265.611633 393.175812,265.611633 
	C393.175812,269.004242 393.175812,272.268982 393.175842,276.029602 
z"/>
<path class="icon" fill="#BD291F" opacity="1.000000" stroke="none" 
	d="
M389.020935,373.357849 
	C382.286072,369.861511 379.587280,363.353973 381.517395,356.461395 
	C382.260651,353.807190 383.688293,352.873413 386.285583,353.714569 
	C388.664642,354.485046 390.063660,355.537720 388.636780,358.440674 
	C387.874481,359.991455 387.695984,361.975891 387.751373,363.749084 
	C387.844818,366.739075 389.297150,368.820709 392.613342,368.951813 
	C395.797974,369.077728 397.970917,367.437653 398.101807,364.397095 
	C398.308044,359.606781 398.144073,354.765717 397.674469,349.991577 
	C397.252258,345.698883 396.363525,341.431183 395.386261,337.220825 
	C394.669861,334.134430 395.060608,331.937866 398.486267,331.145660 
	C402.205597,330.285553 402.725922,332.907196 402.922424,335.501129 
	C403.562897,343.956696 404.459381,352.418823 404.532257,360.884674 
	C404.617065,370.742493 399.118683,375.023254 389.020935,373.357849 
z"/>
<path class="icon" fill="#BF261E" opacity="1.000000" stroke="none" 
	d="
M471.341675,341.081451 
	C475.929718,341.402893 478.174438,343.565857 477.864594,348.453430 
	C477.771393,349.924072 479.187439,351.490356 479.912048,353.012848 
	C480.332916,352.886017 480.753784,352.759216 481.174652,352.632385 
	C480.633545,347.754852 480.278412,342.846954 479.488098,338.010132 
	C478.929230,334.589661 479.174103,331.891235 483.193939,331.368561 
	C487.974335,330.747040 487.002380,334.677673 487.120392,337.135681 
	C487.406189,343.089508 487.520386,349.075531 487.240601,355.026825 
	C486.834381,363.668915 474.852997,369.678406 467.693878,364.848785 
	C466.827057,364.264008 466.446228,361.864532 466.901337,360.732880 
	C467.327148,359.674164 469.200043,358.517456 470.370880,358.582275 
	C472.685791,358.710480 474.955719,359.652283 476.793671,360.138489 
	C474.652618,355.641022 472.363220,351.531647 470.800140,347.162445 
	C470.265106,345.666870 471.550293,343.520081 471.772278,341.302368 
	C471.540649,340.933929 471.341675,341.081451 471.341675,341.081451 
z"/>
<path class="icon" fill="#BB2B20" opacity="1.000000" stroke="none" 
	d="
M498.616516,341.279541 
	C498.635986,348.540131 498.592987,355.336151 498.665619,362.130890 
	C498.691528,364.555939 498.243408,366.881592 495.385223,366.362000 
	C494.176422,366.142242 492.636200,363.871552 492.476257,362.399414 
	C491.581085,354.162354 491.177063,345.873047 490.359528,337.625946 
	C490.014893,334.149750 491.088165,332.113373 494.621277,331.757965 
	C498.688446,331.348846 497.837402,334.609741 498.230652,336.854919 
	C498.458618,338.156372 498.483429,339.493408 498.616516,341.279541 
z"/>
<path class="icon" fill="#BB2B20" opacity="1.000000" stroke="none" 
	d="
M367.566956,364.089661 
	C366.014557,365.099030 364.514496,366.067932 362.996826,366.096344 
	C362.473175,366.106171 361.537659,363.808075 361.417999,362.506500 
	C360.642914,354.076324 360.140167,345.620758 359.334229,337.193970 
	C359.010101,333.804749 360.401520,332.163727 363.567108,331.761200 
	C367.204742,331.298615 367.104523,334.036530 367.158600,336.312561 
	C367.375153,345.433533 367.471527,354.557404 367.566956,364.089661 
z"/>
<path class="icon" fill="#B13724" opacity="1.000000" stroke="none" 
	d="
M471.722534,340.866760 
	C471.341675,341.081451 471.540649,340.933929 471.573730,340.909912 
	C470.507385,340.546051 468.695007,340.473114 468.448334,339.814087 
	C467.823547,338.144958 467.227112,335.876892 467.915649,334.494354 
	C468.447144,333.427155 470.943604,333.338501 472.566406,332.814789 
	C472.760895,333.387909 472.955383,333.960999 473.149872,334.534119 
	C471.866577,335.163483 470.583282,335.792847 467.845490,337.135529 
	C470.988831,337.536133 472.809052,337.768097 476.205811,338.201019 
	C474.116150,339.449493 473.109772,340.050781 471.722534,340.866760 
z"/>
<path class="icon" fill="#BB2B20" opacity="1.000000" stroke="none" 
	d="
M453.640686,338.883942 
	C455.221069,339.771667 456.485748,340.742615 457.750427,341.713562 
	C457.046936,342.561401 456.449554,343.957428 455.613342,344.119232 
	C454.551147,344.324738 452.329254,343.589783 452.301971,343.154083 
	C452.216125,341.785217 452.924316,340.366547 453.640686,338.883942 
z"/>
<path class="icon" fill="#BB2B20" opacity="1.000000" stroke="none" 
	d="
M331.159546,343.097473 
	C331.578430,341.514404 331.904297,339.896912 332.889526,339.021423 
	C333.343353,338.618134 335.394775,339.375427 336.140045,340.159454 
	C336.643860,340.689453 336.327148,343.040039 336.042633,343.104767 
	C334.532135,343.448486 332.915802,343.326874 331.159546,343.097473 
z"/>
<path class="icon" fill="#BB2B20" opacity="1.000000" stroke="none" 
	d="
M306.275482,370.986816 
	C307.234619,368.160217 308.961121,367.017181 311.093781,368.970673 
	C311.809052,369.625916 311.825714,372.372620 311.124207,372.996216 
	C309.033844,374.854309 307.226624,373.913116 306.275482,370.986816 
z"/>
<path class="icon" fill="#BD291F" opacity="1.000000" stroke="none" 
	d="
M247.181351,343.554932 
	C247.172867,341.905334 247.068573,340.277771 247.782532,339.184692 
	C248.101395,338.696503 250.306213,338.914490 251.200653,339.502838 
	C251.854996,339.933289 252.159912,342.312286 251.947327,342.413849 
	C250.539337,343.086639 248.949463,343.378693 247.181351,343.554932 
z"/>
<path class="icon" fill="#BB2B20" opacity="1.000000" stroke="none" 
	d="
M285.883179,338.451660 
	C285.110809,335.189026 286.741394,333.927002 289.231812,334.462921 
	C290.129333,334.656067 291.442505,337.195160 291.094360,338.093048 
	C290.072144,340.729034 288.023254,340.657867 285.883179,338.451660 
z"/>
<path class="icon" fill="#B13724" opacity="1.000000" stroke="none" 
	d="
M216.567459,369.515503 
	C217.331100,372.616028 216.053055,374.187500 213.396957,373.611908 
	C212.442902,373.405182 211.027817,370.943970 211.347778,370.069458 
	C212.274033,367.537689 214.280670,367.237793 216.567459,369.515503 
z"/>
<path class="icon" fill="#B13724" opacity="1.000000" stroke="none" 
	d="
M219.123322,370.207916 
	C220.774948,367.615417 222.751419,367.065460 224.310226,369.436249 
	C224.837479,370.238098 224.133163,372.914459 223.277527,373.358704 
	C220.830002,374.629395 219.259491,373.351654 219.123322,370.207916 
z"/>
<path class="icon" fill="#B13724" opacity="1.000000" stroke="none" 
	d="
M300.549805,368.465881 
	C302.240906,369.045654 303.696686,369.726990 304.881683,370.728668 
	C305.058319,370.878021 304.163422,373.074982 303.404083,373.357819 
	C302.413635,373.726776 300.198944,373.403687 300.039093,372.896637 
	C299.640869,371.633453 300.107361,370.097656 300.549805,368.465881 
z"/>
<path class="icon" fill="#BF271E" opacity="1.000000" stroke="none" 
	d="
M343.955322,341.906860 
	C342.727539,344.776184 340.784180,345.317230 338.961517,343.345856 
	C338.328369,342.661072 338.653564,339.830780 339.399597,339.369812 
	C341.517700,338.061066 343.496796,338.635162 343.955322,341.906860 
z"/>
<path class="icon" fill="#BF271E" opacity="1.000000" stroke="none" 
	d="
M460.644165,344.059692 
	C460.130676,342.496399 459.596527,341.004974 459.914948,339.725800 
	C460.033508,339.249329 462.269196,338.872559 463.306946,339.196167 
	C464.051514,339.428345 464.996277,341.581451 464.847260,341.709564 
	C463.689789,342.704987 462.288177,343.416504 460.644165,344.059692 
z"/>
<path class="icon-back" fill="#0AA350" opacity="1.000000" stroke="none" 
	d="
M263.920532,356.000610 
	C264.078278,354.305359 264.027557,352.415649 264.921204,351.691772 
	C265.775818,350.999451 268.481506,350.985931 268.860596,351.603180 
	C270.190155,353.768188 270.867249,356.333984 271.792053,358.747589 
	C271.322998,359.164032 270.853943,359.580444 270.384888,359.996887 
	C268.298187,358.769836 266.211517,357.542816 263.920532,356.000610 
z"/>
<path class="icon-back" fill="#1E9B4C" opacity="1.000000" stroke="none" 
	d="
M286.686493,355.179169 
	C287.045685,353.076477 287.464111,351.289886 288.130463,349.601166 
	C288.192535,349.443939 290.529572,349.748291 290.610504,350.108154 
	C291.019806,351.927734 291.641541,354.059357 291.053986,355.666748 
	C289.904663,358.810791 288.152802,358.260010 286.686493,355.179169 
z"/>
<path class="icon-back" fill="#04A350" opacity="1.000000" stroke="none" 
	d="
M250.891632,307.700500 
	C239.340408,304.032715 238.977509,284.153290 245.505737,277.436554 
	C249.328949,273.502930 254.126938,272.544647 259.265656,273.882568 
	C264.094452,275.139801 267.580231,278.212280 268.455719,283.278412 
	C269.097473,286.991943 269.600281,290.886658 269.193970,294.594177 
	C268.045746,305.071533 261.830505,309.466919 250.891632,307.700500 
z"/>
<path class="icon-back" fill="#0AA350" opacity="1.000000" stroke="none" 
	d="
M441.513641,351.994934 
	C441.827972,354.634369 441.994995,356.892059 442.194000,359.582367 
	C437.529785,359.582367 433.438843,359.582367 429.312561,359.582367 
	C428.323822,354.840485 430.050262,350.783203 433.973877,349.064423 
	C437.168091,347.665192 439.823914,348.091980 441.513641,351.994934 
z"/>
</svg>