<svg version="1.0" xmlns="http://www.w3.org/2000/svg" viewBox="0 0 1181.000000 1181.000000"
 preserveAspectRatio="xMidYMid meet"><g><path style="opacity:0.998" fill="currentColor" d="M 100.5,12.5 C 427.834,12.3333 755.167,12.5 1082.5,13C 1130.33,22.1667 1158.83,50.6667 1168,98.5C 1168.67,425.833 1168.67,753.167 1168,1080.5C 1158.83,1128.33 1130.33,1156.83 1082.5,1166C 755.167,1166.67 427.833,1166.67 100.5,1166C 52.6667,1156.83 24.1667,1128.33 15,1080.5C 14.3333,753.167 14.3333,425.833 15,98.5C 24.3464,50.6539 52.8464,21.9873 100.5,12.5 Z"/></g>
<g><path class="icon-back" style="opacity:1" fill="#fefefe" d="M 137.5,65.5 C 439.834,65.3333 742.167,65.5 1044.5,66C 1084.25,72.7465 1107.75,95.9131 1115,135.5C 1115.67,437.833 1115.67,740.167 1115,1042.5C 1108.17,1082.67 1084.67,1106.17 1044.5,1113C 742.167,1113.67 439.833,1113.67 137.5,1113C 96.9929,1105.49 73.8262,1081.33 68,1040.5C 67.3333,738.833 67.3333,437.167 68,135.5C 75.3462,96.3208 98.5129,72.9875 137.5,65.5 Z"/></g>
<g><path class="icon" style="opacity:1" fill="currentColor" d="M 588.5,171.5 C 593.412,171.063 598.078,171.896 602.5,174C 622.456,198.958 642.789,223.625 663.5,248C 671.408,252.491 679.742,253.491 688.5,251C 715.395,240.697 742.395,230.363 769.5,220C 780.682,219.175 787.182,224.342 789,235.5C 792.999,261.497 796.999,287.497 801,313.5C 803.5,328 812,336.5 826.5,339C 852.494,342.999 878.494,346.999 904.5,351C 916.386,352.215 921.553,358.715 920,370.5C 909.662,397.202 899.329,423.868 889,450.5C 885.946,461.569 888.112,471.402 895.5,480C 919.29,498.788 942.79,517.955 966,537.5C 970.177,545.582 969.011,552.749 962.5,559C 940.5,576.667 918.5,594.333 896.5,612C 887.909,620.935 885.409,631.435 889,643.5C 899.87,669.747 910.203,696.413 920,723.5C 921.425,731.816 918.258,737.65 910.5,741C 881.241,746.192 851.907,750.859 822.5,755C 810.888,758.698 803.721,766.531 801,778.5C 796.832,805.339 792.665,832.173 788.5,859C 786.749,870.551 780.082,875.217 768.5,873C 740.328,862.195 711.995,851.528 683.5,841C 675.362,840.2 668.028,842.2 661.5,847C 642.621,869.544 624.121,892.377 606,915.5C 598.419,923.853 590.253,924.519 581.5,917.5C 565.19,896.689 548.69,876.022 532,855.5C 525.637,846.74 517.137,841.74 506.5,840.5C 502.769,841.021 499.102,841.854 495.5,843C 469.615,853.304 443.615,863.304 417.5,873C 405.412,875.577 398.579,870.744 397,858.5C 393.334,834.169 389.667,809.836 386,785.5C 385.34,770.187 377.84,760.02 363.5,755C 334.093,750.859 304.759,746.192 275.5,741C 267.149,737.13 263.982,730.63 266,721.5C 276.463,695.412 286.796,669.079 297,642.5C 300.054,631.431 297.888,621.598 290.5,613C 266.71,594.212 243.21,575.045 220,555.5C 215.586,546.795 217.086,539.295 224.5,533C 246.539,515.323 268.539,497.656 290.5,480C 297.757,471.725 299.923,462.225 297,451.5C 286.837,424.583 276.504,397.583 266,370.5C 264.447,358.715 269.614,352.215 281.5,351C 307.506,346.999 333.506,342.999 359.5,339C 370.538,337.404 378.371,331.571 383,321.5C 387.925,292.877 392.591,264.21 397,235.5C 398.649,223.429 405.483,218.263 417.5,220C 444.214,230.339 470.881,240.673 497.5,251C 510.617,254.513 521.451,251.013 530,240.5C 546.907,219.682 563.574,198.682 580,177.5C 582.322,174.605 585.155,172.605 588.5,171.5 Z"/></g>
<g><path class="icon-back" style="opacity:1" fill="#fcfdfd" d="M 502.5,389.5 C 525.114,387.404 544.281,394.404 560,410.5C 571.342,426.395 576.842,444.228 576.5,464C 576.881,488.892 568.214,509.892 550.5,527C 519.372,548.398 488.872,547.564 459,524.5C 445.363,508.432 438.53,489.766 438.5,468.5C 438.313,446.221 445.147,426.554 459,409.5C 471.252,397.789 485.752,391.122 502.5,389.5 Z"/></g>
<g><path class="icon" style="opacity:1" fill="currentColor" d="M 674.5,394.5 C 684.008,393.177 693.675,393.177 703.5,394.5C 703.376,395.107 703.043,395.44 702.5,395.5C 693.348,394.506 684.015,394.173 674.5,394.5 Z"/></g>
<g><path class="icon-back" style="opacity:1" fill="#fcfdfd" d="M 674.5,394.5 C 684.015,394.173 693.348,394.506 702.5,395.5C 641.016,491.791 579.516,588.124 518,684.5C 516.519,687.11 515.352,689.777 514.5,692.5C 504.81,692.832 495.144,692.498 485.5,691.5C 548.732,592.717 611.732,493.717 674.5,394.5 Z"/></g>
<g><path class="icon" style="opacity:1" fill="currentColor" d="M 501.5,411.5 C 530.254,410.748 546.087,424.748 549,453.5C 551.008,469.083 549.008,484.083 543,498.5C 532.805,516.009 517.638,522.842 497.5,519C 479.31,512.783 469.143,499.949 467,480.5C 463.954,462.654 466.454,445.654 474.5,429.5C 481.464,420.162 490.464,414.162 501.5,411.5 Z"/></g>
<g><path class="icon-back" style="opacity:1" fill="#fdfefe" d="M 682.5,541.5 C 717.982,540.142 740.482,556.475 750,590.5C 754.926,613.52 752.926,635.854 744,657.5C 730.763,681.709 710.263,694.043 682.5,694.5C 646.217,692.77 624.383,674.104 617,638.5C 613.557,615.691 616.89,594.024 627,573.5C 640.184,553.333 658.684,542.666 682.5,541.5 Z"/></g>
<g><path class="icon" style="opacity:1" fill="currentColor" d="M 674.5,564.5 C 699.547,560.76 716.047,570.76 724,594.5C 728.775,615.726 726.442,636.059 717,655.5C 700.835,673.998 682.002,677.164 660.5,665C 650.305,655.777 644.471,644.277 643,630.5C 640.993,614.938 642.993,599.938 649,585.5C 654.7,575.071 663.2,568.071 674.5,564.5 Z"/></g>
<g><path class="icon" style="opacity:1" fill="currentColor" d="M 888.5,917.5 C 892.182,917.335 895.848,917.501 899.5,918C 900,918.5 900.5,919 901,919.5C 903.384,937.415 904.051,955.415 903,973.5C 900.489,990.513 890.655,999.18 873.5,999.5C 865.304,999.428 857.471,997.761 850,994.5C 837.937,999.231 825.437,1000.73 812.5,999C 810.919,998.293 809.419,997.46 808,996.5C 803.877,1005.79 797.043,1012.12 787.5,1015.5C 781.294,1012.42 778.794,1007.42 780,1000.5C 786.753,999.406 791.42,995.739 794,989.5C 795.553,978.404 794.053,967.737 789.5,957.5C 792.439,951.038 797.439,948.871 804.5,951C 807.61,954.9 809.444,959.4 810,964.5C 810.333,968.833 810.667,973.167 811,977.5C 811.792,979.587 812.959,981.421 814.5,983C 820.167,983.667 825.833,983.667 831.5,983C 831.833,982.667 832.167,982.333 832.5,982C 825.982,976.126 821.648,968.959 819.5,960.5C 822.543,950.628 829.21,944.795 839.5,943C 851.529,941.121 861.696,944.621 870,953.5C 875.306,964.286 873.806,974.119 865.5,983C 871.281,983.903 876.947,983.57 882.5,982C 884.049,980.786 885.215,979.286 886,977.5C 886.212,960.21 884.712,943.044 881.5,926C 882.573,922.096 884.907,919.263 888.5,917.5 Z"/></g>
<g><path class="icon" style="opacity:1" fill="currentColor" d="M 916.5,916.5 C 920.192,915.971 923.358,916.971 926,919.5C 927.19,923.381 927.857,927.381 928,931.5C 928.667,952.833 928.667,974.167 928,995.5C 926.054,998.44 923.22,999.773 919.5,999.5C 916.209,999.721 913.709,998.387 912,995.5C 911.092,973.294 909.592,951.127 907.5,929C 907.207,922.46 910.207,918.294 916.5,916.5 Z"/></g>
<g><path class="icon" style="opacity:1" fill="currentColor" d="M 685.5,922.5 C 694.365,922.847 697.532,927.181 695,935.5C 689.186,941.205 684.186,940.538 680,933.5C 679.176,928.482 681.009,924.815 685.5,922.5 Z"/></g>
<g><path class="icon" style="opacity:1" fill="currentColor" d="M 356.5,971.5 C 355.504,985.323 355.171,999.323 355.5,1013.5C 350.833,1013.5 346.167,1013.5 341.5,1013.5C 341.829,999.323 341.496,985.323 340.5,971.5C 338.5,971.5 336.5,971.5 334.5,971.5C 334.5,967.833 334.5,964.167 334.5,960.5C 336.5,960.5 338.5,960.5 340.5,960.5C 341.411,942.208 350.744,935.375 368.5,940C 370.846,941.013 372.513,942.679 373.5,945C 372.455,948.265 370.789,951.098 368.5,953.5C 359.747,947.734 355.747,950.067 356.5,960.5C 360.833,960.5 365.167,960.5 369.5,960.5C 369.5,964.167 369.5,967.833 369.5,971.5C 365.167,971.5 360.833,971.5 356.5,971.5 Z"/></g>
<g><path class="icon" style="opacity:1" fill="currentColor" d="M 393.5,938.5 C 401.622,937.07 408.622,939.07 414.5,944.5C 412.413,947.673 410.579,951.006 409,954.5C 400.688,947.798 396.521,949.798 396.5,960.5C 400.833,960.5 405.167,960.5 409.5,960.5C 409.5,964.167 409.5,967.833 409.5,971.5C 405.167,971.5 400.833,971.5 396.5,971.5C 396.5,985.5 396.5,999.5 396.5,1013.5C 391.5,1013.5 386.5,1013.5 381.5,1013.5C 381.5,999.5 381.5,985.5 381.5,971.5C 379.167,971.5 376.833,971.5 374.5,971.5C 374.5,967.833 374.5,964.167 374.5,960.5C 376.833,960.5 379.167,960.5 381.5,960.5C 380.053,950 384.053,942.666 393.5,938.5 Z"/></g>
<g><path class="icon" style="opacity:1" fill="currentColor" d="M 751.5,939.5 C 772.051,939.557 781.217,949.891 779,970.5C 776.176,993.492 763.342,1006.16 740.5,1008.5C 735.024,1003.97 734.191,998.641 738,992.5C 738.75,991.874 739.584,991.374 740.5,991C 744.167,990.667 747.833,990.333 751.5,990C 753.779,989.527 755.779,988.527 757.5,987C 739.201,981.717 732.368,969.883 737,951.5C 740.517,945.808 745.351,941.808 751.5,939.5 Z"/></g>
<g><path class="icon" style="opacity:1" fill="currentColor" d="M 281.5,942.5 C 303.351,939.499 318.184,948.166 326,968.5C 329.916,990.179 321.75,1005.01 301.5,1013C 286.285,1016.96 273.118,1013.46 262,1002.5C 251.997,988.452 250.997,973.785 259,958.5C 264.739,950.58 272.239,945.247 281.5,942.5 Z"/></g>
<g><path class="icon" style="opacity:1" fill="currentColor" d="M 692.5,942.5 C 710.544,942.384 721.711,951.051 726,968.5C 726.171,973.533 726.671,978.533 727.5,983.5C 732.233,987.592 732.733,992.258 729,997.5C 727.499,999.584 725.499,1000.92 723,1001.5C 708.627,996.076 693.96,995.076 679,998.5C 674.319,1012.18 664.819,1018.01 650.5,1016C 639.239,1013.07 632.406,1005.91 630,994.5C 629.333,988.167 629.333,981.833 630,975.5C 630.95,967.916 635.117,965.416 642.5,968C 646.72,968.928 649.387,971.428 650.5,975.5C 648.124,980.086 646.458,984.919 645.5,990C 646.893,999.373 652.227,1002.71 661.5,1000C 665.926,996.212 667.592,991.378 666.5,985.5C 665.373,974.456 664.207,963.456 663,952.5C 667.664,946.14 673.164,945.14 679.5,949.5C 683.66,946.632 687.994,944.299 692.5,942.5 Z"/></g>
<g><path class="icon-back" style="opacity:1" fill="#f9fbfb" d="M 754.5,955.5 C 759.772,954.549 763.272,956.549 765,961.5C 765.499,965.152 765.665,968.818 765.5,972.5C 758.323,971.488 753.323,967.655 750.5,961C 751.65,959.019 752.984,957.186 754.5,955.5 Z"/></g>
<g><path class="icon-back" style="opacity:1" fill="#fcfdfd" d="M 283.5,956.5 C 295.969,954.482 304.802,959.149 310,970.5C 313.295,991.53 304.461,1001.36 283.5,1000C 269.1,991.138 265.933,979.304 274,964.5C 276.772,961.217 279.939,958.55 283.5,956.5 Z"/></g>
<g><path class="icon-back" style="opacity:1" fill="#f9fbfb" d="M 694.5,956.5 C 702.065,956.219 706.565,959.886 708,967.5C 708.499,971.821 708.666,976.154 708.5,980.5C 699.54,981.415 690.54,981.748 681.5,981.5C 680.316,970.2 684.649,961.866 694.5,956.5 Z"/></g>
<g><path class="icon" style="opacity:1" fill="currentColor" d="M 434.5,959.5 C 459.37,956.737 471.037,967.737 469.5,992.5C 456.483,992.168 443.483,992.501 430.5,993.5C 434.006,1000.59 439.672,1003.42 447.5,1002C 450.974,1000.58 454.307,999.248 457.5,998C 460.167,1000.67 462.833,1003.33 465.5,1006C 452.888,1016.19 439.554,1017.19 425.5,1009C 414.487,997.542 412.654,984.708 420,970.5C 423.915,965.477 428.749,961.81 434.5,959.5 Z"/></g>
<g><path class="icon" style="opacity:1" fill="currentColor" d="M 505.5,959.5 C 507.5,959.5 509.5,959.5 511.5,959.5C 511.5,964.167 511.5,968.833 511.5,973.5C 503.339,972.165 498.172,975.499 496,983.5C 495.5,993.494 495.334,1003.49 495.5,1013.5C 490.5,1013.5 485.5,1013.5 480.5,1013.5C 480.5,995.833 480.5,978.167 480.5,960.5C 485.5,960.5 490.5,960.5 495.5,960.5C 495.338,962.527 495.505,964.527 496,966.5C 499.068,963.917 502.235,961.584 505.5,959.5 Z"/></g>
<g><path class="icon" style="opacity:1" fill="currentColor" d="M 534.5,959.5 C 544.21,957.877 552.876,960.043 560.5,966C 558.875,969.42 556.875,972.587 554.5,975.5C 548.79,970.664 542.457,969.497 535.5,972C 534.065,974.267 534.398,976.267 536.5,978C 542.091,980.197 547.758,982.197 553.5,984C 561.976,989.716 563.809,997.216 559,1006.5C 551.668,1013.88 542.834,1016.38 532.5,1014C 526.609,1012.39 521.275,1009.72 516.5,1006C 518.671,1002.78 521.171,999.952 524,997.5C 528.794,1000.9 534.127,1002.9 540,1003.5C 547.186,1003.07 548.686,1000.23 544.5,995C 539.167,993 533.833,991 528.5,989C 520.024,983.284 518.191,975.784 523,966.5C 526.263,963.037 530.097,960.704 534.5,959.5 Z"/></g>
<g><path class="icon-back" style="opacity:1" fill="#f7f9fa" d="M 841.5,958.5 C 851.71,957.918 855.543,962.585 853,972.5C 852.363,974.303 851.197,975.636 849.5,976.5C 844.141,972.638 839.808,967.805 836.5,962C 838.233,960.811 839.9,959.644 841.5,958.5 Z"/></g>
<g><path class="icon-back" style="opacity:1" fill="#fafbfc" d="M 439.5,971.5 C 446.863,970.678 451.863,973.678 454.5,980.5C 446.862,981.497 439.196,981.831 431.5,981.5C 432.284,976.711 434.95,973.377 439.5,971.5 Z"/></g>
<g><path class="icon" style="opacity:1" fill="currentColor" d="M 572.5,977.5 C 584.5,977.5 596.5,977.5 608.5,977.5C 608.5,981.833 608.5,986.167 608.5,990.5C 596.5,990.5 584.5,990.5 572.5,990.5C 572.5,986.167 572.5,981.833 572.5,977.5 Z"/></g>
<g><path class="icon" style="opacity:1" fill="currentColor" d="M 340.5,971.5 C 341.496,985.323 341.829,999.323 341.5,1013.5C 346.167,1013.5 350.833,1013.5 355.5,1013.5C 355.171,999.323 355.504,985.323 356.5,971.5C 356.5,985.833 356.5,1000.17 356.5,1014.5C 351.167,1014.5 345.833,1014.5 340.5,1014.5C 340.5,1000.17 340.5,985.833 340.5,971.5 Z"/></g>
</svg>
