<svg version="1.0" xmlns="http://www.w3.org/2000/svg" viewBox="0 0 1181.000000 1181.000000"
 preserveAspectRatio="xMidYMid meet">
<svg xmlns="http://www.w3.org/2000/svg" version="1.1" width="1181px" height="1181px" style="shape-rendering:geometricPrecision; text-rendering:geometricPrecision; image-rendering:optimizeQuality; fill-rule:evenodd; clip-rule:evenodd" xmlns:xlink="http://www.w3.org/1999/xlink">
<g><path style="opacity:0.998" fill="currentColor" d="M 100.5,12.5 C 427.834,12.3333 755.167,12.5 1082.5,13C 1130.33,22.1667 1158.83,50.6667 1168,98.5C 1168.67,425.833 1168.67,753.167 1168,1080.5C 1158.83,1128.33 1130.33,1156.83 1082.5,1166C 755.167,1166.67 427.833,1166.67 100.5,1166C 52.6667,1156.83 24.1667,1128.33 15,1080.5C 14.3333,753.167 14.3333,425.833 15,98.5C 24.3464,50.6539 52.8464,21.9873 100.5,12.5 Z"/></g>
<g><path class="icon-back" style="opacity:1" d="M 137.5,65.5 C 439.834,65.3333 742.167,65.5 1044.5,66C 1084.22,72.7241 1107.72,95.8908 1115,135.5C 1115.67,437.5 1115.67,739.5 1115,1041.5C 1108.51,1082.66 1084.68,1106.49 1043.5,1113C 741.5,1113.67 439.5,1113.67 137.5,1113C 97.4206,1105.59 74.254,1081.75 68,1041.5C 67.3333,739.167 67.3333,436.833 68,134.5C 75.8026,95.8636 98.9692,72.8636 137.5,65.5 Z"/></g>
<g><path class="icon" style="opacity:1" d="M 512.5,359.5 C 519.489,357.77 524.323,360.103 527,366.5C 527.912,378.225 527.579,389.892 526,401.5C 523.648,406.058 520.481,409.891 516.5,413C 507.966,417.452 498.966,419.785 489.5,420C 486.619,418.749 484.786,416.583 484,413.5C 483.065,401.762 483.398,390.095 485,378.5C 486.776,375.059 488.943,371.892 491.5,369C 498.322,365.252 505.322,362.085 512.5,359.5 Z"/></g>
<g><path class="icon-back" style="opacity:1" d="M 509.5,383.5 C 510.479,386.625 510.813,389.958 510.5,393.5C 507.579,394.696 504.579,395.696 501.5,396.5C 500.521,393.375 500.187,390.042 500.5,386.5C 503.285,384.905 506.285,383.905 509.5,383.5 Z"/></g>
<g><path class="icon-back" style="opacity:1" d="M 509.5,383.5 C 509.56,382.957 509.893,382.624 510.5,382.5C 511.808,386.315 511.808,389.981 510.5,393.5C 510.813,389.958 510.479,386.625 509.5,383.5 Z"/></g>
<g><path class="icon-back" style="opacity:1" d="M 500.5,386.5 C 500.187,390.042 500.521,393.375 501.5,396.5C 501.44,397.043 501.107,397.376 500.5,397.5C 499.192,393.685 499.192,390.019 500.5,386.5 Z"/></g>
<g><path class="icon" style="opacity:1" d="M 713.5,388.5 C 714.833,388.5 716.167,388.5 717.5,388.5C 717.813,395.755 717.48,402.921 716.5,410C 694.167,418.5 671.833,427 649.5,435.5C 648.502,427.528 648.169,419.528 648.5,411.5C 670.456,404.405 692.123,396.738 713.5,388.5 Z"/></g>
<g><path class="icon" style="opacity:1" d="M 715.5,428.5 C 715.56,427.957 715.893,427.624 716.5,427.5C 717.823,437.993 717.823,448.326 716.5,458.5C 716.827,448.319 716.494,438.319 715.5,428.5 Z"/></g>
<g><path class="icon" style="opacity:1" d="M 715.5,428.5 C 716.494,438.319 716.827,448.319 716.5,458.5C 715.615,465.429 712.282,470.929 706.5,475C 689.976,481.836 673.142,487.669 656,492.5C 651.679,492.517 648.679,490.517 647,486.5C 646.181,475.923 646.348,465.423 647.5,455C 652.434,453.023 657.268,450.857 662,448.5C 662.169,455.524 662.669,462.524 663.5,469.5C 666.806,468.455 669.973,467.122 673,465.5C 673.169,458.476 673.669,451.476 674.5,444.5C 679.167,442.5 683.833,440.5 688.5,438.5C 689.497,445.468 689.83,452.468 689.5,459.5C 693.099,458.301 696.765,457.301 700.5,456.5C 700.5,448.833 700.5,441.167 700.5,433.5C 705.562,432.035 710.562,430.368 715.5,428.5 Z"/></g>
<g><path class="icon" style="opacity:1" d="M 934.5,703.5 C 765.833,703.5 597.167,703.5 428.5,703.5C 428.5,717.5 428.5,731.5 428.5,745.5C 425.158,768.351 412.491,783.517 390.5,791C 367.738,797.19 345.071,803.69 322.5,810.5C 321.5,779.841 321.167,749.174 321.5,718.5C 341.833,718.5 362.167,718.5 382.5,718.5C 382.5,713.5 382.5,708.5 382.5,703.5C 362.167,703.5 341.833,703.5 321.5,703.5C 321.333,659.165 321.5,614.832 322,570.5C 325.954,552.545 336.788,541.045 354.5,536C 379.164,535.5 403.831,535.333 428.5,535.5C 428.5,566.167 428.5,596.833 428.5,627.5C 433.695,627.821 438.695,627.487 443.5,626.5C 444.332,607.338 444.832,588.004 445,568.5C 450.673,548.984 463.507,537.984 483.5,535.5C 505.833,535.5 528.167,535.5 550.5,535.5C 550.169,566.005 550.502,596.338 551.5,626.5C 556.305,627.487 561.305,627.821 566.5,627.5C 566.333,596.832 566.5,566.165 567,535.5C 581.866,529.6 597.032,524.6 612.5,520.5C 612.5,530.167 612.5,539.833 612.5,549.5C 683.861,541.663 755.195,533.497 826.5,525C 841.782,522.76 854.616,527.26 865,538.5C 868.137,543.108 870.47,548.108 872,553.5C 872.168,578.003 872.668,602.337 873.5,626.5C 878.305,627.487 883.305,627.821 888.5,627.5C 888.5,566.167 888.5,504.833 888.5,443.5C 903.496,437.724 918.829,432.724 934.5,428.5C 934.5,520.167 934.5,611.833 934.5,703.5 Z"/></g>
<g><path class="icon" style="opacity:1" d="M 992.5,428.5 C 993.5,428.5 994.5,428.5 995.5,428.5C 995.5,520.167 995.5,611.833 995.5,703.5C 980.167,703.5 964.833,703.5 949.5,703.5C 949.5,616.5 949.5,529.5 949.5,442.5C 964.177,438.607 978.51,433.94 992.5,428.5 Z"/></g>
<g><path class="icon-back" style="opacity:1" d="M 888.5,443.5 C 888.5,504.833 888.5,566.167 888.5,627.5C 883.305,627.821 878.305,627.487 873.5,626.5C 878.167,626.5 882.833,626.5 887.5,626.5C 887.168,565.331 887.501,504.331 888.5,443.5 Z"/></g>
<g><path class="icon" style="opacity:1" d="M 215.5,447.5 C 224.798,456.298 233.965,465.298 243,474.5C 252.141,465.27 261.475,456.27 271,447.5C 282,458.5 293,469.5 304,480.5C 304.667,481.5 304.667,482.5 304,483.5C 292.986,494.681 281.819,505.681 270.5,516.5C 261.5,507.833 252.5,499.167 243.5,490.5C 234.5,499.167 225.5,507.833 216.5,516.5C 204.681,505.181 193.014,493.681 181.5,482C 193.035,470.632 204.369,459.132 215.5,447.5 Z"/></g>
<g><path class="icon" style="opacity:1" d="M 504.5,447.5 C 516.76,458.092 528.427,469.425 539.5,481.5C 528.866,493.802 517.532,505.468 505.5,516.5C 493.681,505.181 482.014,493.681 470.5,482C 482.035,470.632 493.369,459.132 504.5,447.5 Z"/></g>
<g><path class="icon" style="opacity:1" d="M 219.5,535.5 C 237.88,535.067 256.214,535.567 274.5,537C 291.761,543.265 302.261,555.432 306,573.5C 306.5,616.832 306.667,660.165 306.5,703.5C 265.5,703.5 224.5,703.5 183.5,703.5C 183.333,659.499 183.5,615.499 184,571.5C 188.694,552.307 200.527,540.307 219.5,535.5 Z"/></g>
<g><path class="icon-back" style="opacity:1" d="M 428.5,535.5 C 429.498,565.662 429.831,595.995 429.5,626.5C 434.167,626.5 438.833,626.5 443.5,626.5C 438.695,627.487 433.695,627.821 428.5,627.5C 428.5,596.833 428.5,566.167 428.5,535.5 Z"/></g>
<g><path class="icon-back" style="opacity:1" d="M 483.5,535.5 C 505.994,534.503 528.661,534.169 551.5,534.5C 551.5,565.167 551.5,595.833 551.5,626.5C 550.502,596.338 550.169,566.005 550.5,535.5C 528.167,535.5 505.833,535.5 483.5,535.5 Z"/></g>
<g><path class="icon-back" style="opacity:1" d="M 229.5,611.5 C 239.833,611.5 250.167,611.5 260.5,611.5C 260.5,616.833 260.5,622.167 260.5,627.5C 250.167,627.5 239.833,627.5 229.5,627.5C 229.5,622.167 229.5,616.833 229.5,611.5 Z"/></g>
<g><path class="icon-back" style="opacity:1" d="M 826.5,626.5 C 755.335,627.499 684.002,627.833 612.5,627.5C 612.5,622.167 612.5,616.833 612.5,611.5C 684.167,611.5 755.833,611.5 827.5,611.5C 827.821,616.695 827.487,621.695 826.5,626.5 Z"/></g>
<g><path class="icon-back" style="opacity:1" d="M 230.5,612.5 C 240.167,612.5 249.833,612.5 259.5,612.5C 259.5,617.167 259.5,621.833 259.5,626.5C 249.833,626.5 240.167,626.5 230.5,626.5C 230.5,621.833 230.5,617.167 230.5,612.5 Z"/></g>
<g><path class="icon-back" style="opacity:1" d="M 367.5,611.5 C 372.5,611.5 377.5,611.5 382.5,611.5C 382.5,616.833 382.5,622.167 382.5,627.5C 377.5,627.5 372.5,627.5 367.5,627.5C 367.5,622.167 367.5,616.833 367.5,611.5 Z"/></g>
<g><path class="icon-back" style="opacity:1" d="M 490.5,626.5 C 489.513,621.695 489.179,616.695 489.5,611.5C 494.833,611.5 500.167,611.5 505.5,611.5C 505.5,616.833 505.5,622.167 505.5,627.5C 500.305,627.821 495.305,627.487 490.5,626.5 Z"/></g>
<g><path class="icon-back" style="opacity:1" d="M 490.5,626.5 C 490.5,621.833 490.5,617.167 490.5,612.5C 495.167,612.5 499.833,612.5 504.5,612.5C 504.5,617.167 504.5,621.833 504.5,626.5C 499.833,626.5 495.167,626.5 490.5,626.5 Z"/></g>
<g><path class="icon-back" style="opacity:1" d="M 826.5,626.5 C 755.5,626.5 684.5,626.5 613.5,626.5C 613.5,621.833 613.5,617.167 613.5,612.5C 684.5,612.5 755.5,612.5 826.5,612.5C 826.5,617.167 826.5,621.833 826.5,626.5 Z"/></g>
<g><path class="icon-back" style="opacity:1" d="M 934.5,703.5 C 766.334,704.5 598.001,704.833 429.5,704.5C 429.829,718.344 429.496,732.01 428.5,745.5C 428.5,731.5 428.5,717.5 428.5,703.5C 597.167,703.5 765.833,703.5 934.5,703.5 Z"/></g>
</svg>
