<svg version="1.0" xmlns="http://www.w3.org/2000/svg" viewBox="0 0 1181.000000 1181.000000"
 preserveAspectRatio="xMidYMid meet"><g><path style="opacity:0.998" fill="currentColor" d="M 100.5,12.5 C 427.834,12.3333 755.167,12.5 1082.5,13C 1130.33,22.1667 1158.83,50.6667 1168,98.5C 1168.67,425.833 1168.67,753.167 1168,1080.5C 1158.83,1128.33 1130.33,1156.83 1082.5,1166C 755.167,1166.67 427.833,1166.67 100.5,1166C 52.6667,1156.83 24.1667,1128.33 15,1080.5C 14.3333,753.167 14.3333,425.833 15,98.5C 24.3464,50.6539 52.8464,21.9873 100.5,12.5 Z"/></g>
<g><path class="icon-back" style="opacity:1" fill="#fefefe" d="M 137.5,65.5 C 439.834,65.3333 742.167,65.5 1044.5,66C 1084.25,72.7465 1107.75,95.9131 1115,135.5C 1115.67,437.833 1115.67,740.167 1115,1042.5C 1108.17,1082.67 1084.67,1106.17 1044.5,1113C 742.167,1113.67 439.833,1113.67 137.5,1113C 96.9929,1105.49 73.8262,1081.33 68,1040.5C 67.3333,738.833 67.3333,437.167 68,135.5C 75.3462,96.3208 98.5129,72.9875 137.5,65.5 Z"/></g>
<g><path class="icon" style="opacity:1" fill="currentColor" d="M 712.5,609.5 C 704.625,614.247 700.625,621.247 700.5,630.5C 703.821,649.819 707.155,669.153 710.5,688.5C 708.864,689.749 707.697,691.416 707,693.5C 705.871,695.141 704.371,696.141 702.5,696.5C 701.21,695.942 700.377,694.942 700,693.5C 697.029,674.769 693.862,656.103 690.5,637.5C 691.209,636.596 692.209,636.263 693.5,636.5C 693.5,499.167 693.5,361.833 693.5,224.5C 619.167,224.5 544.833,224.5 470.5,224.5C 470.5,361.833 470.5,499.167 470.5,636.5C 506.167,636.5 541.833,636.5 577.5,636.5C 578.774,638.993 579.44,641.659 579.5,644.5C 562.043,652.084 557.543,664.417 566,681.5C 571.643,689.073 579.143,692.406 588.5,691.5C 588.416,695.331 589.083,698.998 590.5,702.5C 550.165,702.667 509.832,702.5 469.5,702C 457.418,698.349 451.251,690.182 451,677.5C 450.5,627.168 450.333,576.834 450.5,526.5C 451.798,509.027 451.798,491.693 450.5,474.5C 450.5,467.5 450.5,460.5 450.5,453.5C 451.664,422.003 451.831,390.336 451,358.5C 449.667,357.167 448.333,355.833 447,354.5C 446.333,339.167 446.333,323.833 447,308.5C 451.092,306.573 451.425,304.24 448,301.5C 447.333,285.5 447.333,269.5 448,253.5C 449,252.833 450,252.167 451,251.5C 451.094,227.141 451.761,202.807 453,178.5C 457.591,169.568 464.758,164.068 474.5,162C 546.167,161.333 617.833,161.333 689.5,162C 701.015,163.848 708.515,170.348 712,181.5C 712.5,324.166 712.667,466.833 712.5,609.5 Z"/></g>
<g><path class="icon-back" style="opacity:1" fill="#eff6f6" d="M 546.5,187.5 C 551.98,187.496 554.48,190.162 554,195.5C 550.333,199.5 546.667,199.5 543,195.5C 542.279,191.946 543.446,189.28 546.5,187.5 Z"/></g>
<g><path class="icon-back" style="opacity:1" fill="#f8fbfb" d="M 564.5,190.5 C 580.503,190.333 596.503,190.5 612.5,191C 613.86,192.938 613.527,194.604 611.5,196C 596.167,196.667 580.833,196.667 565.5,196C 564.594,194.301 564.261,192.467 564.5,190.5 Z"/></g>
<g><path class="icon-back" style="opacity:1" fill="#fefefe" d="M 690.5,637.5 C 688.949,630.362 686.115,623.696 682,617.5C 669.567,606.523 657.567,606.856 646,618.5C 641.551,624.062 639.384,630.396 639.5,637.5C 636.064,636.218 632.731,636.218 629.5,637.5C 628.21,636.942 627.377,635.942 627,634.5C 621.762,605.32 616.428,576.32 611,547.5C 600.782,530.995 587.616,528.161 571.5,539C 564.197,546.448 561.697,555.282 564,565.5C 567.46,578.71 570.46,592.043 573,605.5C 574.826,615.796 576.326,626.13 577.5,636.5C 541.833,636.5 506.167,636.5 470.5,636.5C 470.5,499.167 470.5,361.833 470.5,224.5C 544.833,224.5 619.167,224.5 693.5,224.5C 693.5,361.833 693.5,499.167 693.5,636.5C 692.209,636.263 691.209,636.596 690.5,637.5 Z"/></g>
<g><path style="opacity:1" fill="#22a1f2" d="M 619.5,252.5 C 633.504,252.333 647.504,252.5 661.5,253C 667,254.5 670.5,258 672,263.5C 672.667,275.5 672.667,287.5 672,299.5C 671.167,308.333 666.333,313.167 657.5,314C 645.5,314.667 633.5,314.667 621.5,314C 613.749,312.354 609.916,307.521 610,299.5C 609.333,287.5 609.333,275.5 610,263.5C 611.599,258.406 614.766,254.739 619.5,252.5 Z"/></g>
<g><path style="opacity:1" fill="#f6fbfe" d="M 645.5,269.5 C 648.673,269.401 651.673,270.068 654.5,271.5C 658.22,269.825 658.886,270.325 656.5,273C 658.992,274.249 658.825,275.416 656,276.5C 653.995,292.178 645.162,299.344 629.5,298C 627.668,297.252 626.001,296.252 624.5,295C 627.702,294.802 630.702,293.969 633.5,292.5C 631.807,291.772 630.307,290.772 629,289.5C 628.544,288.256 629.044,287.423 630.5,287C 628.154,285.987 626.487,284.321 625.5,282C 625.905,281.055 626.572,280.388 627.5,280C 625.476,277.36 625.143,274.527 626.5,271.5C 630.633,275.734 635.633,278.067 641.5,278.5C 641.34,276.801 641.506,275.134 642,273.5C 643.376,272.295 644.542,270.962 645.5,269.5 Z"/></g>
<g><path style="opacity:1" fill="#237ef9" d="M 501.5,252.5 C 515.218,252.094 528.885,252.594 542.5,254C 546.667,255.5 549.5,258.333 551,262.5C 551.667,276.167 551.667,289.833 551,303.5C 549.625,310.867 545.125,314.701 537.5,315C 525.833,315.667 514.167,315.667 502.5,315C 496.232,313.956 492.066,310.456 490,304.5C 489.333,290.833 489.333,277.167 490,263.5C 491.754,257.577 495.588,253.911 501.5,252.5 Z"/></g>
<g><path style="opacity:1" fill="#f5f9fe" d="M 519.5,265.5 C 523.167,265.5 526.833,265.5 530.5,265.5C 530.5,267.5 530.5,269.5 530.5,271.5C 524.095,270.406 521.762,273.073 523.5,279.5C 525.5,279.5 527.5,279.5 529.5,279.5C 529.5,281.833 529.5,284.167 529.5,286.5C 527.5,286.5 525.5,286.5 523.5,286.5C 523.5,292.167 523.5,297.833 523.5,303.5C 520.833,303.5 518.167,303.5 515.5,303.5C 515.5,297.833 515.5,292.167 515.5,286.5C 513.5,286.5 511.5,286.5 509.5,286.5C 509.5,284.167 509.5,281.833 509.5,279.5C 511.5,279.5 513.5,279.5 515.5,279.5C 514.604,274.085 515.937,269.418 519.5,265.5 Z"/></g>
<g><path style="opacity:1" fill="#050505" d="M 619.5,342.5 C 633.171,342.333 646.837,342.5 660.5,343C 667.497,344.328 671.331,348.495 672,355.5C 672.881,368.875 672.548,382.209 671,395.5C 668.327,401.163 663.827,403.997 657.5,404C 645.5,404.667 633.5,404.667 621.5,404C 614.093,402.59 610.26,398.09 610,390.5C 609.333,378.167 609.333,365.833 610,353.5C 611.599,348.406 614.766,344.739 619.5,342.5 Z"/></g>
<g><path style="opacity:1" fill="#8147d1" d="M 502.5,343.5 C 513.993,342.341 525.659,342.174 537.5,343C 541.984,343.571 545.818,345.404 549,348.5C 550.009,350.025 550.509,351.692 550.5,353.5C 550.631,354.239 550.464,354.906 550,355.5C 546.664,352.831 542.831,351.331 538.5,351C 531.139,350.317 523.805,350.483 516.5,351.5C 516.5,352.5 516.5,353.5 516.5,354.5C 506.81,354.721 497.81,357.721 489.5,363.5C 489.187,359.958 489.521,356.625 490.5,353.5C 490.34,355.199 490.506,356.866 491,358.5C 504.292,349.07 519.125,344.236 535.5,344C 524.505,343.5 513.505,343.333 502.5,343.5 Z"/></g>
<g><path style="opacity:1" fill="#4b47e5" d="M 502.5,343.5 C 513.505,343.333 524.505,343.5 535.5,344C 519.125,344.236 504.292,349.07 491,358.5C 490.506,356.866 490.34,355.199 490.5,353.5C 492.052,347.372 496.052,344.038 502.5,343.5 Z"/></g>
<g><path style="opacity:1" fill="#973abd" d="M 550.5,353.5 C 551.482,356.962 551.815,360.629 551.5,364.5C 550.766,363.122 550.099,361.622 549.5,360C 543.075,355.643 535.908,353.81 528,354.5C 522.589,354.379 517.423,355.046 512.5,356.5C 507.599,357.105 504.599,359.772 503.5,364.5C 502.833,364.5 502.5,364.833 502.5,365.5C 501.85,365.196 501.183,364.863 500.5,364.5C 496.935,366.781 493.268,368.781 489.5,370.5C 489.5,368.167 489.5,365.833 489.5,363.5C 497.81,357.721 506.81,354.721 516.5,354.5C 516.5,353.5 516.5,352.5 516.5,351.5C 523.805,350.483 531.139,350.317 538.5,351C 542.831,351.331 546.664,352.831 550,355.5C 550.464,354.906 550.631,354.239 550.5,353.5 Z"/></g>
<g><path style="opacity:1" fill="#aa37a9" d="M 551.5,364.5 C 551.5,366.5 551.5,368.5 551.5,370.5C 548.816,365.015 544.316,361.348 538,359.5C 537.235,359.57 536.735,359.903 536.5,360.5C 534.692,359.093 532.692,357.926 530.5,357C 524.509,356.501 518.509,356.334 512.5,356.5C 517.423,355.046 522.589,354.379 528,354.5C 535.908,353.81 543.075,355.643 549.5,360C 550.099,361.622 550.766,363.122 551.5,364.5 Z"/></g>
<g><path style="opacity:1" fill="#fcedf0" d="M 512.5,356.5 C 518.509,356.334 524.509,356.501 530.5,357C 532.692,357.926 534.692,359.093 536.5,360.5C 536.66,362.153 537.326,363.486 538.5,364.5C 538.5,366.167 538.5,367.833 538.5,369.5C 538.5,372.167 538.5,374.833 538.5,377.5C 538.599,380.237 538.265,382.904 537.5,385.5C 535.573,389.092 532.573,391.092 528.5,391.5C 526.5,391.5 524.5,391.5 522.5,391.5C 518.167,391.5 513.833,391.5 509.5,391.5C 509.5,390.833 509.167,390.5 508.5,390.5C 506.833,389.5 505.5,388.167 504.5,386.5C 503.89,385.609 503.557,384.609 503.5,383.5C 503.5,377.167 503.5,370.833 503.5,364.5C 504.599,359.772 507.599,357.105 512.5,356.5 Z"/></g>
<g><path style="opacity:1" fill="#f9f8f9" d="M 646.5,356.5 C 647.339,357.641 648.006,358.974 648.5,360.5C 650.92,362.299 653.254,363.966 655.5,365.5C 654.566,366.568 654.232,367.901 654.5,369.5C 653.5,369.5 652.5,369.5 651.5,369.5C 650.193,368.847 648.86,368.18 647.5,367.5C 646.915,373.579 646.082,379.579 645,385.5C 641.57,389.917 637.07,391.584 631.5,390.5C 629.251,389.92 627.585,388.587 626.5,386.5C 624.289,377.574 627.622,372.24 636.5,370.5C 636.5,371.833 636.5,373.167 636.5,374.5C 630.977,374.562 629.144,377.229 631,382.5C 631.383,383.056 631.883,383.389 632.5,383.5C 632.5,384.167 632.833,384.5 633.5,384.5C 636.51,387.276 639.344,386.942 642,383.5C 642.5,374.84 642.666,366.173 642.5,357.5C 644.099,357.768 645.432,357.434 646.5,356.5 Z"/></g>
<g><path style="opacity:1" fill="#5ef7f7" d="M 646.5,356.5 C 645.432,357.434 644.099,357.768 642.5,357.5C 642.666,366.173 642.5,374.84 642,383.5C 639.344,386.942 636.51,387.276 633.5,384.5C 636.325,384.919 638.491,383.919 640,381.5C 640.5,372.84 640.666,364.173 640.5,355.5C 642.735,355.205 644.735,355.539 646.5,356.5 Z"/></g>
<g><path style="opacity:1" fill="#c74396" d="M 534.5,367.5 C 533.5,367.167 532.833,366.5 532.5,365.5C 531.83,362.497 530.163,361.83 527.5,363.5C 520.801,364.173 514.134,364.173 507.5,363.5C 508.29,362.206 509.29,361.039 510.5,360C 517.167,359.333 523.833,359.333 530.5,360C 533.397,361.715 534.731,364.215 534.5,367.5 Z"/></g>
<g><path style="opacity:1" fill="#f9e5ef" d="M 532.5,365.5 C 529.837,367.17 528.17,366.503 527.5,363.5C 530.163,361.83 531.83,362.497 532.5,365.5 Z"/></g>
<g><path style="opacity:1" fill="#d03b7d" d="M 507.5,363.5 C 514.134,364.173 520.801,364.173 527.5,363.5C 528.17,366.503 529.837,367.17 532.5,365.5C 532.833,366.5 533.5,367.167 534.5,367.5C 534.5,369.167 534.5,370.833 534.5,372.5C 533.259,374.931 532.092,374.931 531,372.5C 530.768,373.737 530.268,374.737 529.5,375.5C 529.235,367.018 524.901,363.851 516.5,366C 514.638,367.366 512.972,368.866 511.5,370.5C 509.958,371.301 508.292,371.634 506.5,371.5C 506.194,368.615 506.527,365.948 507.5,363.5 Z"/></g>
<g><path style="opacity:1" fill="#c03796" d="M 551.5,370.5 C 551.666,378.174 551.5,385.841 551,393.5C 550.76,395.852 549.927,397.852 548.5,399.5C 547.287,398.503 547.454,397.503 549,396.5C 551.567,387.839 550.901,379.505 547,371.5C 544.584,368.577 541.75,366.243 538.5,364.5C 537.326,363.486 536.66,362.153 536.5,360.5C 536.735,359.903 537.235,359.57 538,359.5C 544.316,361.348 548.816,365.015 551.5,370.5 Z"/></g>
<g><path style="opacity:1" fill="#fdf1f2" d="M 529.5,375.5 C 529.443,376.609 529.11,377.609 528.5,378.5C 525.401,382.24 521.401,383.407 516.5,382C 514.65,381.31 513.316,380.144 512.5,378.5C 511.612,375.946 511.279,373.279 511.5,370.5C 512.972,368.866 514.638,367.366 516.5,366C 524.901,363.851 529.235,367.018 529.5,375.5 Z"/></g>
<g><path style="opacity:1" fill="#cd3986" d="M 538.5,364.5 C 541.75,366.243 544.584,368.577 547,371.5C 550.901,379.505 551.567,387.839 549,396.5C 547.454,397.503 547.287,398.503 548.5,399.5C 547.198,401.822 545.198,403.155 542.5,403.5C 543.017,399.778 543.85,396.112 545,392.5C 546.547,383.657 544.381,375.99 538.5,369.5C 538.5,367.833 538.5,366.167 538.5,364.5 Z"/></g>
<g><path style="opacity:1" fill="#ff90a9" d="M 655.5,365.5 C 655.5,367.167 655.5,368.833 655.5,370.5C 654.167,370.5 652.833,370.5 651.5,370.5C 651.5,370.167 651.5,369.833 651.5,369.5C 652.5,369.5 653.5,369.5 654.5,369.5C 654.232,367.901 654.566,366.568 655.5,365.5 Z"/></g>
<g><path style="opacity:1" fill="#b41433" d="M 655.5,365.5 C 657.308,366.918 657.975,368.918 657.5,371.5C 655.265,371.795 653.265,371.461 651.5,370.5C 652.833,370.5 654.167,370.5 655.5,370.5C 655.5,368.833 655.5,367.167 655.5,365.5 Z"/></g>
<g><path style="opacity:1" fill="#bf3796" d="M 502.5,365.5 C 503.549,369.831 501.882,371.997 497.5,372C 495.209,374.47 492.543,376.304 489.5,377.5C 489.5,375.167 489.5,372.833 489.5,370.5C 493.268,368.781 496.935,366.781 500.5,364.5C 501.183,364.863 501.85,365.196 502.5,365.5 Z"/></g>
<g><path style="opacity:1" fill="#e74750" d="M 517.5,368.5 C 523.83,367.666 526.663,370.333 526,376.5C 522.333,380.5 518.667,380.5 515,376.5C 514.388,373.389 515.221,370.723 517.5,368.5 Z"/></g>
<g><path style="opacity:1" fill="#de2f4c" d="M 636.5,369.5 C 638.344,371.279 639.01,373.612 638.5,376.5C 633.677,376.327 631.677,378.661 632.5,383.5C 631.883,383.389 631.383,383.056 631,382.5C 629.144,377.229 630.977,374.562 636.5,374.5C 636.5,373.167 636.5,371.833 636.5,370.5C 636.5,370.167 636.5,369.833 636.5,369.5 Z"/></g>
<g><path style="opacity:1" fill="#d95182" d="M 503.5,364.5 C 503.5,370.833 503.5,377.167 503.5,383.5C 502.596,382.791 502.263,381.791 502.5,380.5C 502.664,377.813 502.497,375.146 502,372.5C 498.515,376.491 494.348,379.491 489.5,381.5C 489.5,380.167 489.5,378.833 489.5,377.5C 492.543,376.304 495.209,374.47 497.5,372C 501.882,371.997 503.549,369.831 502.5,365.5C 502.5,364.833 502.833,364.5 503.5,364.5 Z"/></g>
<g><path style="opacity:1" fill="#e7424a" d="M 511.5,370.5 C 511.279,373.279 511.612,375.946 512.5,378.5C 510.579,379.363 508.579,380.029 506.5,380.5C 506.5,377.5 506.5,374.5 506.5,371.5C 508.292,371.634 509.958,371.301 511.5,370.5 Z"/></g>
<g><path style="opacity:1" fill="#d73f72" d="M 538.5,369.5 C 544.381,375.99 546.547,383.657 545,392.5C 543.85,396.112 543.017,399.778 542.5,403.5C 541.432,404.434 540.099,404.768 538.5,404.5C 541.093,397.394 541.926,390.061 541,382.5C 540.015,380.825 539.181,379.158 538.5,377.5C 538.5,374.833 538.5,372.167 538.5,369.5 Z"/></g>
<g><path style="opacity:1" fill="#e54756" d="M 502.5,380.5 C 494.829,382.162 490.829,386.828 490.5,394.5C 489.515,390.366 489.182,386.032 489.5,381.5C 494.348,379.491 498.515,376.491 502,372.5C 502.497,375.146 502.664,377.813 502.5,380.5 Z"/></g>
<g><path style="opacity:1" fill="#34e2e1" d="M 636.5,369.5 C 636.5,369.833 636.5,370.167 636.5,370.5C 627.622,372.24 624.289,377.574 626.5,386.5C 621.766,379.436 623.099,373.603 630.5,369C 632.712,368.211 634.712,368.378 636.5,369.5 Z"/></g>
<g><path style="opacity:1" fill="#e74149" d="M 534.5,372.5 C 534.817,376.702 534.483,380.702 533.5,384.5C 533.19,383.262 532.69,383.262 532,384.5C 531.4,382.09 530.234,380.09 528.5,378.5C 529.11,377.609 529.443,376.609 529.5,375.5C 530.268,374.737 530.768,373.737 531,372.5C 532.092,374.931 533.259,374.931 534.5,372.5 Z"/></g>
<g><path style="opacity:1" fill="#f06935" d="M 512.5,378.5 C 513.316,380.144 514.65,381.31 516.5,382C 521.401,383.407 525.401,382.24 528.5,378.5C 530.234,380.09 531.4,382.09 532,384.5C 532.69,383.262 533.19,383.262 533.5,384.5C 533.063,386.074 532.063,387.241 530.5,388C 523.833,388.667 517.167,388.667 510.5,388C 507.603,386.285 506.269,383.785 506.5,380.5C 508.579,380.029 510.579,379.363 512.5,378.5 Z"/></g>
<g><path style="opacity:1" fill="#e83452" d="M 651.5,369.5 C 651.5,369.833 651.5,370.167 651.5,370.5C 650.504,370.586 649.671,370.252 649,369.5C 648.667,374.5 648.333,379.5 648,384.5C 644.296,392.123 638.796,394.123 631.5,390.5C 637.07,391.584 641.57,389.917 645,385.5C 646.082,379.579 646.915,373.579 647.5,367.5C 648.86,368.18 650.193,368.847 651.5,369.5 Z"/></g>
<g><path style="opacity:1" fill="#ef6135" d="M 502.5,380.5 C 502.263,381.791 502.596,382.791 503.5,383.5C 503.557,384.609 503.89,385.609 504.5,386.5C 499.806,389.179 495.139,391.845 490.5,394.5C 490.829,386.828 494.829,382.162 502.5,380.5 Z"/></g>
<g><path style="opacity:1" fill="#f18e39" d="M 509.5,391.5 C 513.833,391.5 518.167,391.5 522.5,391.5C 519.742,392.967 520.075,393.633 523.5,393.5C 523.54,396.881 523.207,400.214 522.5,403.5C 521.209,403.263 520.209,403.596 519.5,404.5C 518.167,404.5 516.833,404.5 515.5,404.5C 520.051,402.075 520.718,398.575 517.5,394C 514.478,393.902 511.811,393.068 509.5,391.5 Z"/></g>
<g><path style="opacity:1" fill="#ef762b" d="M 522.5,391.5 C 524.5,391.5 526.5,391.5 528.5,391.5C 527.57,395.4 527.237,399.4 527.5,403.5C 526.209,403.263 525.209,403.596 524.5,404.5C 522.833,404.5 521.167,404.5 519.5,404.5C 520.209,403.596 521.209,403.263 522.5,403.5C 523.207,400.214 523.54,396.881 523.5,393.5C 520.075,393.633 519.742,392.967 522.5,391.5 Z"/></g>
<g><path style="opacity:1" fill="#ee543b" d="M 537.5,385.5 C 538.043,385.56 538.376,385.893 538.5,386.5C 536.599,387.935 536.266,389.602 537.5,391.5C 536.29,395.794 535.29,400.128 534.5,404.5C 531.167,404.5 527.833,404.5 524.5,404.5C 525.209,403.596 526.209,403.263 527.5,403.5C 527.237,399.4 527.57,395.4 528.5,391.5C 532.573,391.092 535.573,389.092 537.5,385.5 Z"/></g>
<g><path style="opacity:1" fill="#f18836" d="M 504.5,386.5 C 505.5,388.167 506.833,389.5 508.5,390.5C 502.93,392.25 497.597,395.25 492.5,399.5C 491.559,397.95 490.893,396.284 490.5,394.5C 495.139,391.845 499.806,389.179 504.5,386.5 Z"/></g>
<g><path style="opacity:1" fill="#e0425d" d="M 538.5,377.5 C 539.181,379.158 540.015,380.825 541,382.5C 541.926,390.061 541.093,397.394 538.5,404.5C 537.833,404.5 537.167,404.5 536.5,404.5C 535.833,404.5 535.167,404.5 534.5,404.5C 535.29,400.128 536.29,395.794 537.5,391.5C 536.266,389.602 536.599,387.935 538.5,386.5C 538.376,385.893 538.043,385.56 537.5,385.5C 538.265,382.904 538.599,380.237 538.5,377.5 Z"/></g>
<g><path style="opacity:1" fill="#f6b96b" d="M 515.5,404.5 C 516.833,404.5 518.167,404.5 519.5,404.5C 521.167,404.5 522.833,404.5 524.5,404.5C 527.833,404.5 531.167,404.5 534.5,404.5C 535.167,404.5 535.833,404.5 536.5,404.5C 525.007,405.659 513.341,405.826 501.5,405C 498.826,404.33 496.493,403.163 494.5,401.5C 499.062,398.752 503.895,396.752 509,395.5C 513.099,397.132 514.266,399.965 512.5,404C 513.448,404.483 514.448,404.649 515.5,404.5 Z"/></g>
<g><path style="opacity:1" fill="#f3a44f" d="M 508.5,390.5 C 509.167,390.5 509.5,390.833 509.5,391.5C 511.811,393.068 514.478,393.902 517.5,394C 520.718,398.575 520.051,402.075 515.5,404.5C 514.448,404.649 513.448,404.483 512.5,404C 514.266,399.965 513.099,397.132 509,395.5C 503.895,396.752 499.062,398.752 494.5,401.5C 493.5,401.167 492.833,400.5 492.5,399.5C 497.597,395.25 502.93,392.25 508.5,390.5 Z"/></g>
<g><path style="opacity:1" fill="#27d565" d="M 558.5,424.5 C 571.837,424.333 585.171,424.5 598.5,425C 604.553,426.053 608.387,429.553 610,435.5C 610.667,448.833 610.667,462.167 610,475.5C 608.082,482.22 603.582,485.72 596.5,486C 584.167,486.667 571.833,486.667 559.5,486C 552.819,483.982 548.986,479.482 548,472.5C 547.333,461.167 547.333,449.833 548,438.5C 548.878,431.696 552.378,427.029 558.5,424.5 Z"/></g>
<g><path style="opacity:1" fill="#ebfbf1" d="M 573.5,438.5 C 592.591,437.742 599.424,446.408 594,464.5C 587.571,472.145 579.738,474.145 570.5,470.5C 568.05,470.761 565.717,471.428 563.5,472.5C 562.89,469.699 563.224,466.865 564.5,464C 560.322,452.873 563.322,444.373 573.5,438.5 Z"/></g>
<g><path style="opacity:1" fill="#d7ae96" d="M 450.5,453.5 C 450.5,460.5 450.5,467.5 450.5,474.5C 441.857,503.411 433.69,532.411 426,561.5C 434.693,550.083 442.859,538.416 450.5,526.5C 450.333,576.834 450.5,627.168 451,677.5C 451.251,690.182 457.418,698.349 469.5,702C 509.832,702.5 550.165,702.667 590.5,702.5C 589.083,698.998 588.416,695.331 588.5,691.5C 586.648,675.576 583.648,659.91 579.5,644.5C 579.44,641.659 578.774,638.993 577.5,636.5C 576.326,626.13 574.826,615.796 573,605.5C 570.46,592.043 567.46,578.71 564,565.5C 561.697,555.282 564.197,546.448 571.5,539C 587.616,528.161 600.782,530.995 611,547.5C 616.428,576.32 621.762,605.32 627,634.5C 627.377,635.942 628.21,636.942 629.5,637.5C 632.019,653.62 634.853,669.62 638,685.5C 639.458,691.314 640.958,696.981 642.5,702.5C 643.115,707.526 643.949,712.526 645,717.5C 648.296,718.515 651.129,717.682 653.5,715C 652.215,710.767 651.215,706.601 650.5,702.5C 646.71,680.969 643.043,659.303 639.5,637.5C 639.384,630.396 641.551,624.062 646,618.5C 657.567,606.856 669.567,606.523 682,617.5C 686.115,623.696 688.949,630.362 690.5,637.5C 693.862,656.103 697.029,674.769 700,693.5C 700.377,694.942 701.21,695.942 702.5,696.5C 702.804,699.522 703.304,702.522 704,705.5C 706.466,706.788 708.966,706.788 711.5,705.5C 711.833,704.5 712.167,703.5 712.5,702.5C 710.887,697.992 710.221,693.326 710.5,688.5C 707.155,669.153 703.821,649.819 700.5,630.5C 700.625,621.247 704.625,614.247 712.5,609.5C 726.421,602.295 737.921,605.295 747,618.5C 748.607,622.813 749.94,627.146 751,631.5C 754.871,653.077 758.704,674.743 762.5,696.5C 765.579,696.74 768.579,696.407 771.5,695.5C 771.833,693.833 772.167,692.167 772.5,690.5C 768.984,669.089 765.151,647.756 761,626.5C 760.837,610.155 769.004,601.155 785.5,599.5C 797.753,600.695 805.92,607.029 810,618.5C 819.103,669.705 828.769,720.705 839,771.5C 840.081,776.47 840.414,781.47 840,786.5C 798.162,836.62 746.162,872.286 684,893.5C 682.124,892.381 681.291,890.714 681.5,888.5C 662.934,891.18 644.434,894.18 626,897.5C 608.994,895.983 596.328,887.65 588,872.5C 564.132,831.427 540.799,790.094 518,748.5C 516.333,747.167 514.667,747.167 513,748.5C 485.451,790.556 457.284,832.222 428.5,873.5C 392.937,855.787 361.437,832.453 334,803.5C 333.333,801.833 333.333,800.167 334,798.5C 361.597,756.96 389.431,715.627 417.5,674.5C 404.555,663.73 390.888,653.897 376.5,645C 363.546,634.139 358.046,620.306 360,603.5C 373.665,556.842 387.332,510.175 401,463.5C 407.54,440.474 421.373,434.307 442.5,445C 445.004,448.064 447.671,450.897 450.5,453.5 Z"/></g>
<g><path style="opacity:1" fill="#28d463" d="M 574.5,441.5 C 590.014,440.51 595.847,447.51 592,462.5C 588.8,466.934 584.466,469.267 579,469.5C 574.792,467.951 570.625,467.284 566.5,467.5C 567.022,466.393 567.355,465.226 567.5,464C 563.056,454.169 565.389,446.669 574.5,441.5 Z"/></g>
<g><path style="opacity:1" fill="#f3fcf7" d="M 572.5,447.5 C 576.262,448.262 577.262,450.429 575.5,454C 577.457,458.667 580.457,459.833 584.5,457.5C 589.817,459.88 589.65,461.88 584,463.5C 575.097,461.475 571.263,456.142 572.5,447.5 Z"/></g>
<g><path class="icon-back" style="opacity:1" fill="#f7f8f8" d="M 450.5,474.5 C 451.798,491.693 451.798,509.027 450.5,526.5C 442.859,538.416 434.693,550.083 426,561.5C 433.69,532.411 441.857,503.411 450.5,474.5 Z"/></g>
<g><path class="icon" style="opacity:1" fill="currentColor" d="M 639.5,637.5 C 643.043,659.303 646.71,680.969 650.5,702.5C 647.833,702.5 645.167,702.5 642.5,702.5C 640.958,696.981 639.458,691.314 638,685.5C 634.853,669.62 632.019,653.62 629.5,637.5C 632.731,636.218 636.064,636.218 639.5,637.5 Z"/></g>
<g><path class="icon-back" style="opacity:1" fill="#fcfcfc" d="M 579.5,644.5 C 583.648,659.91 586.648,675.576 588.5,691.5C 579.143,692.406 571.643,689.073 566,681.5C 557.543,664.417 562.043,652.084 579.5,644.5 Z"/></g>
<g><path class="icon-back" style="opacity:1" fill="#faf9f8" d="M 710.5,688.5 C 710.221,693.326 710.887,697.992 712.5,702.5C 712.167,703.5 711.833,704.5 711.5,705.5C 708.966,706.788 706.466,706.788 704,705.5C 703.304,702.522 702.804,699.522 702.5,696.5C 704.371,696.141 705.871,695.141 707,693.5C 707.697,691.416 708.864,689.749 710.5,688.5 Z"/></g>
<g><path class="icon-back" style="opacity:1" fill="#fdfcfb" d="M 642.5,702.5 C 645.167,702.5 647.833,702.5 650.5,702.5C 651.215,706.601 652.215,710.767 653.5,715C 651.129,717.682 648.296,718.515 645,717.5C 643.949,712.526 643.115,707.526 642.5,702.5 Z"/></g>
<g><path class="icon-back" style="opacity:1" fill="#fdfcfb" d="M 592.5,729.5 C 594.284,730.574 595.451,732.24 596,734.5C 600.026,757.174 604.192,779.841 608.5,802.5C 607.178,802.67 606.011,802.337 605,801.5C 595.685,785.033 586.519,768.533 577.5,752C 582.876,744.746 587.876,737.246 592.5,729.5 Z"/></g>
<g><path class="icon" style="opacity:1" fill="currentColor" d="M 802.5,919.5 C 806.182,919.335 809.848,919.501 813.5,920C 814,920.5 814.5,921 815,921.5C 815.853,925.469 816.519,929.469 817,933.5C 817.333,948.833 817.667,964.167 818,979.5C 819.543,984.278 822.876,986.278 828,985.5C 830.793,985.695 833.293,985.029 835.5,983.5C 837.394,975.461 836.394,967.794 832.5,960.5C 834.515,954.729 838.682,952.063 845,952.5C 847.352,952.305 849.352,952.972 851,954.5C 855.357,968.474 854.024,981.807 847,994.5C 837.85,1001.44 827.683,1003.27 816.5,1000C 811,997.167 806.833,993 804,987.5C 802.031,981.987 800.697,976.321 800,970.5C 798.214,955.198 797.214,939.865 797,924.5C 798.73,922.598 800.563,920.931 802.5,919.5 Z"/></g>
<g><path class="icon" style="opacity:1" fill="currentColor" d="M 1052.5,952.5 C 1054.41,953.975 1055.58,955.975 1056,958.5C 1061.4,992.103 1047.57,1005.6 1014.5,999C 1007.17,994.184 1003,987.351 1002,978.5C 999.567,962.407 997.734,946.241 996.5,930C 996.925,922.598 1000.93,919.098 1008.5,919.5C 1011.68,919.046 1014.18,920.046 1016,922.5C 1017.22,941.137 1017.89,959.803 1018,978.5C 1019.67,983.843 1023.34,986.176 1029,985.5C 1039.22,984.914 1042.89,979.581 1040,969.5C 1039.19,966.554 1037.86,963.888 1036,961.5C 1036.15,957.984 1037.98,955.484 1041.5,954C 1045.06,952.763 1048.73,952.263 1052.5,952.5 Z"/></g>
<g><path class="icon" style="opacity:1" fill="currentColor" d="M 217.5,931.5 C 239.218,929.259 253.718,938.259 261,958.5C 264.467,974.77 259.634,987.937 246.5,998C 232.497,1005.29 218.497,1005.29 204.5,998C 186.888,983.567 183.721,966.401 195,946.5C 201.095,939.212 208.595,934.212 217.5,931.5 Z"/></g>
<g><path class="icon" style="opacity:1" fill="currentColor" d="M 411.5,931.5 C 442.509,930.01 457.342,944.676 456,975.5C 449.138,996.684 434.638,1005.85 412.5,1003C 390.143,997.156 380.643,982.656 384,959.5C 387.981,945.02 397.147,935.687 411.5,931.5 Z"/></g>
<g><path class="icon" style="opacity:1" fill="currentColor" d="M 687.5,931.5 C 700.105,930.317 711.438,933.484 721.5,941C 718.301,944.566 715.467,948.4 713,952.5C 705.084,945.182 696.418,943.849 687,948.5C 686.231,951.099 686.398,953.599 687.5,956C 695.625,959.452 703.959,962.452 712.5,965C 723.206,972.813 725.373,982.646 719,994.5C 715.579,998.458 711.412,1001.29 706.5,1003C 691.237,1006.3 678.237,1002.46 667.5,991.5C 670.152,987.518 673.152,983.851 676.5,980.5C 680.7,984.1 685.367,986.933 690.5,989C 694.5,989.667 698.5,989.667 702.5,989C 707.371,985.822 707.704,982.155 703.5,978C 696.272,975.359 688.939,973.026 681.5,971C 671.158,964.988 667.658,956.155 671,944.5C 672.467,941.734 674.3,939.234 676.5,937C 680.259,935.121 683.925,933.287 687.5,931.5 Z"/></g>
<g><path class="icon" style="opacity:1" fill="currentColor" d="M 476.5,933.5 C 470.729,932.887 465.396,933.554 460.5,935.5C 459.596,934.791 459.263,933.791 459.5,932.5C 465.358,932.178 471.025,932.511 476.5,933.5 Z"/></g>
<g><path class="icon" style="opacity:1" fill="currentColor" d="M 179.5,946.5 C 168.5,946.5 157.5,946.5 146.5,946.5C 146.5,951.833 146.5,957.167 146.5,962.5C 156.833,962.5 167.167,962.5 177.5,962.5C 177.5,966.833 177.5,971.167 177.5,975.5C 167.5,975.5 157.5,975.5 147.5,975.5C 146.507,984.318 146.173,993.318 146.5,1002.5C 141.5,1002.5 136.5,1002.5 131.5,1002.5C 131.5,979.5 131.5,956.5 131.5,933.5C 147.5,933.5 163.5,933.5 179.5,933.5C 179.5,937.833 179.5,942.167 179.5,946.5 Z"/></g>
<g><path class="icon" style="opacity:1" fill="currentColor" d="M 290.5,933.5 C 290.5,952.167 290.5,970.833 290.5,989.5C 300.5,989.5 310.5,989.5 320.5,989.5C 320.5,993.833 320.5,998.167 320.5,1002.5C 305.5,1002.5 290.5,1002.5 275.5,1002.5C 275.5,979.5 275.5,956.5 275.5,933.5C 280.5,933.5 285.5,933.5 290.5,933.5 Z"/></g>
<g><path class="icon" style="opacity:1" fill="currentColor" d="M 290.5,933.5 C 291.497,951.659 291.83,969.992 291.5,988.5C 301.348,988.173 311.014,988.506 320.5,989.5C 310.5,989.5 300.5,989.5 290.5,989.5C 290.5,970.833 290.5,952.167 290.5,933.5 Z"/></g>
<g><path class="icon" style="opacity:1" fill="currentColor" d="M 332.5,933.5 C 332.5,956.5 332.5,979.5 332.5,1002.5C 347.5,1002.5 362.5,1002.5 377.5,1002.5C 362.342,1003.5 347.009,1003.83 331.5,1003.5C 331.169,979.994 331.502,956.661 332.5,933.5 Z"/></g>
<g><path class="icon" style="opacity:1" fill="currentColor" d="M 332.5,933.5 C 337.5,933.5 342.5,933.5 347.5,933.5C 347.5,952.167 347.5,970.833 347.5,989.5C 357.5,989.5 367.5,989.5 377.5,989.5C 377.5,993.833 377.5,998.167 377.5,1002.5C 362.5,1002.5 347.5,1002.5 332.5,1002.5C 332.5,979.5 332.5,956.5 332.5,933.5 Z"/></g>
<g><path class="icon" style="opacity:1" fill="currentColor" d="M 347.5,933.5 C 348.497,951.659 348.83,969.992 348.5,988.5C 358.348,988.173 368.014,988.506 377.5,989.5C 367.5,989.5 357.5,989.5 347.5,989.5C 347.5,970.833 347.5,952.167 347.5,933.5 Z"/></g>
<g><path class="icon" style="opacity:1" fill="currentColor" d="M 476.5,933.5 C 481.068,946.031 485.568,958.697 490,971.5C 494.586,959.408 498.586,947.074 502,934.5C 507.741,933.525 513.575,933.192 519.5,933.5C 522.888,946.331 526.888,958.998 531.5,971.5C 536.236,958.957 540.57,946.29 544.5,933.5C 550.167,933.5 555.833,933.5 561.5,933.5C 553.777,956.502 545.944,979.502 538,1002.5C 533.934,1003.46 529.767,1003.8 525.5,1003.5C 521.29,987.33 516.457,971.33 511,955.5C 505.6,971.033 500.6,986.699 496,1002.5C 491.934,1003.46 487.767,1003.8 483.5,1003.5C 476.236,980.709 468.57,958.042 460.5,935.5C 465.396,933.554 470.729,932.887 476.5,933.5 Z"/></g>
<g><path class="icon" style="opacity:1" fill="currentColor" d="M 611.5,933.5 C 606.5,933.5 601.5,933.5 596.5,933.5C 596.5,948.5 596.5,963.5 596.5,978.5C 595.504,963.342 595.17,948.009 595.5,932.5C 601.026,932.179 606.36,932.512 611.5,933.5 Z"/></g>
<g><path class="icon" style="opacity:1" fill="currentColor" d="M 611.5,933.5 C 611.333,948.17 611.5,962.837 612,977.5C 615.681,989.589 623.181,992.755 634.5,987C 636.617,985.269 638.117,983.102 639,980.5C 640.42,964.883 640.92,949.216 640.5,933.5C 645.5,933.5 650.5,933.5 655.5,933.5C 655.667,948.837 655.5,964.17 655,979.5C 653.409,992.425 646.242,1000.26 633.5,1003C 619.522,1005.9 608.355,1001.73 600,990.5C 597.944,986.732 596.778,982.732 596.5,978.5C 596.5,963.5 596.5,948.5 596.5,933.5C 601.5,933.5 606.5,933.5 611.5,933.5 Z"/></g>
<g><path class="icon" style="opacity:1" fill="currentColor" d="M 835.5,935.5 C 846.141,935.636 849.141,940.469 844.5,950C 834.921,953.736 830.421,950.569 831,940.5C 832.025,938.313 833.525,936.646 835.5,935.5 Z"/></g>
<g><path class="icon" style="opacity:1" fill="currentColor" d="M 1052.5,952.5 C 1049.6,951.442 1047.44,949.442 1046,946.5C 1043.57,951.202 1039.74,953.035 1034.5,952C 1027.06,944.786 1028.06,939.286 1037.5,935.5C 1041.57,935.736 1044.4,937.736 1046,941.5C 1051.25,933.59 1056.58,933.59 1062,941.5C 1062.65,948.358 1059.48,952.024 1052.5,952.5 Z"/></g>
<g><path class="icon" style="opacity:1" fill="currentColor" d="M 927.5,944.5 C 940.718,942.512 951.552,946.512 960,956.5C 963.737,966.652 962.237,975.985 955.5,984.5C 970.949,989.877 977.449,984.544 975,968.5C 969.563,962.436 970.397,957.603 977.5,954C 983.262,951.046 987.762,952.212 991,957.5C 994.027,969.753 992.693,981.42 987,992.5C 983.395,996.721 978.895,999.554 973.5,1001C 961.707,1002.68 950.374,1001.18 939.5,996.5C 927.928,1001.17 915.928,1002.67 903.5,1001C 901.22,1000.77 899.22,999.934 897.5,998.5C 889.486,1012.35 877.486,1019.18 861.5,1019C 857.968,1014.38 857.635,1009.55 860.5,1004.5C 861.025,1003.81 861.692,1003.31 862.5,1003C 866.5,1002.67 870.5,1002.33 874.5,1002C 876.623,1001.19 878.623,1000.19 880.5,999C 862.464,994.071 855.298,982.571 859,964.5C 867.687,950.587 879.187,947.753 893.5,956C 899.779,963.253 902.612,971.753 902,981.5C 902.465,982.931 903.299,984.097 904.5,985C 910.5,985.667 916.5,985.667 922.5,985C 915.927,978.688 911.261,971.188 908.5,962.5C 911.658,953.098 917.991,947.098 927.5,944.5 Z"/></g>
<g><path class="icon-back" style="opacity:1" fill="#fbfcfc" d="M 219.5,945.5 C 237.753,944.586 246.586,953.253 246,971.5C 241.109,988.363 230.609,993.53 214.5,987C 203.211,976.724 201.711,965.224 210,952.5C 213.068,949.917 216.235,947.584 219.5,945.5 Z"/></g>
<g><path class="icon-back" style="opacity:1" fill="#fdfdfd" d="M 413.5,945.5 C 434.632,945.464 443.132,955.797 439,976.5C 433.01,988.738 423.51,992.572 410.5,988C 398.922,978.976 396.422,967.809 403,954.5C 406.103,950.886 409.603,947.886 413.5,945.5 Z"/></g>
<g><path class="icon" style="opacity:1" fill="currentColor" d="M 179.5,946.5 C 169.013,947.494 158.346,947.828 147.5,947.5C 147.5,952.167 147.5,956.833 147.5,961.5C 157.681,961.173 167.681,961.506 177.5,962.5C 167.167,962.5 156.833,962.5 146.5,962.5C 146.5,957.167 146.5,951.833 146.5,946.5C 157.5,946.5 168.5,946.5 179.5,946.5 Z"/></g>
<g><path class="icon-back" style="opacity:1" fill="#f9fbfb" d="M 928.5,961.5 C 931.85,961.335 935.183,961.502 938.5,962C 944.828,966.82 945.161,972.153 939.5,978C 933.578,975.07 929.245,970.403 926.5,964C 927.056,962.989 927.722,962.156 928.5,961.5 Z"/></g>
<g><path class="icon" style="opacity:1" fill="currentColor" d="M 733.5,966.5 C 745.5,966.5 757.5,966.5 769.5,966.5C 769.5,970.833 769.5,975.167 769.5,979.5C 757.5,979.5 745.5,979.5 733.5,979.5C 733.5,975.167 733.5,970.833 733.5,966.5 Z"/></g>
<g><path class="icon-back" style="opacity:1" fill="#f7f9fa" d="M 876.5,967.5 C 885.175,966.34 889.175,970.173 888.5,979C 888.456,980.764 888.122,982.431 887.5,984C 881.927,983.117 877.427,980.284 874,975.5C 873.018,972.225 873.851,969.559 876.5,967.5 Z"/></g>
<g><path class="icon" style="opacity:1" fill="currentColor" d="M 147.5,975.5 C 147.5,984.833 147.5,994.167 147.5,1003.5C 141.974,1003.82 136.64,1003.49 131.5,1002.5C 136.5,1002.5 141.5,1002.5 146.5,1002.5C 146.173,993.318 146.507,984.318 147.5,975.5 Z"/></g>
<g><path class="icon" style="opacity:1" fill="currentColor" d="M 320.5,989.5 C 321.486,993.97 321.819,998.637 321.5,1003.5C 305.991,1003.83 290.658,1003.5 275.5,1002.5C 290.5,1002.5 305.5,1002.5 320.5,1002.5C 320.5,998.167 320.5,993.833 320.5,989.5 Z"/></g>
<g><path class="icon" style="opacity:1" fill="currentColor" d="M 970.5,1004.5 C 980.48,1002.98 984.314,1006.98 982,1016.5C 977.292,1021.68 972.625,1021.68 968,1016.5C 965.696,1011.86 966.529,1007.86 970.5,1004.5 Z"/></g>
</svg>
