<svg version="1.0" xmlns="http://www.w3.org/2000/svg" viewBox="0 0 1181.000000 1181.000000"
 preserveAspectRatio="xMidYMid meet"><g><path style="opacity:0.998" fill="currentColor" d="M 100.5,12.5 C 427.834,12.3333 755.167,12.5 1082.5,13C 1130.33,22.1667 1158.83,50.6667 1168,98.5C 1168.67,425.833 1168.67,753.167 1168,1080.5C 1158.83,1128.33 1130.33,1156.83 1082.5,1166C 755.167,1166.67 427.833,1166.67 100.5,1166C 52.6667,1156.83 24.1667,1128.33 15,1080.5C 14.3333,753.167 14.3333,425.833 15,98.5C 24.3464,50.6539 52.8464,21.9873 100.5,12.5 Z"/></g>
<g><path class="icon-back" style="opacity:1" fill="#fefefe" d="M 137.5,65.5 C 439.834,65.3333 742.167,65.5 1044.5,66C 1084.25,72.7465 1107.75,95.9131 1115,135.5C 1115.67,437.833 1115.67,740.167 1115,1042.5C 1108.17,1082.67 1084.67,1106.17 1044.5,1113C 742.167,1113.67 439.833,1113.67 137.5,1113C 96.9929,1105.49 73.8262,1081.33 68,1040.5C 67.3333,738.833 67.3333,437.167 68,135.5C 75.3462,96.3208 98.5129,72.9875 137.5,65.5 Z"/></g>
<g><path class="icon" style="opacity:1" fill="currentColor" d="M 564.5,230.5 C 670.078,226.73 759.578,262.396 833,337.5C 918.294,434.87 943.128,546.036 907.5,671C 869.669,780.165 796.002,853.165 686.5,890C 562.682,924.51 452.682,899.51 356.5,815C 281.865,742.472 246.365,653.972 250,549.5C 258.866,438.226 308.699,350.726 399.5,287C 449.671,253.907 504.671,235.074 564.5,230.5 Z"/></g>
<g><path class="icon-back" style="opacity:1" fill="#fefefe" d="M 731.5,433.5 C 749.667,434.088 756.5,443.422 752,461.5C 733.617,546.414 715.617,631.414 698,716.5C 697.315,725.368 693.815,732.868 687.5,739C 680.161,742.573 673.161,741.907 666.5,737C 638.603,716.099 610.436,695.599 582,675.5C 566.906,688.591 552.406,702.424 538.5,717C 534.48,720.51 529.814,722.01 524.5,721.5C 526.203,692.801 528.37,664.134 531,635.5C 583.632,588.536 635.965,541.203 688,493.5C 688.667,492.167 688.667,490.833 688,489.5C 685.936,488.409 683.769,488.242 681.5,489C 615.233,530.381 549.066,571.881 483,613.5C 453.022,604.396 423.189,594.896 393.5,585C 385.801,580.838 384.635,575.338 390,568.5C 396.859,563.487 404.359,559.653 412.5,557C 519.144,516.333 625.477,475.167 731.5,433.5 Z"/></g>
<g><path class="icon" style="opacity:1" fill="currentColor" d="M 778.5,947.5 C 785.845,946.201 789.679,949.201 790,956.5C 791.628,979.332 791.794,1002.17 790.5,1025C 790.167,1026.17 789.833,1027.33 789.5,1028.5C 784.351,1031.5 779.518,1031.16 775,1027.5C 774.26,1004.25 772.426,981.079 769.5,958C 769.542,956.033 770.042,954.199 771,952.5C 773.426,950.548 775.926,948.881 778.5,947.5 Z"/></g>
<g><path class="icon" style="opacity:1" fill="currentColor" d="M 886.5,1013.5 C 887.152,1014.73 888.319,1015.39 890,1015.5C 891.385,1015.49 892.551,1015.15 893.5,1014.5C 900.432,1011.93 902.932,1006.93 901,999.5C 899.755,996.013 898.255,992.679 896.5,989.5C 899.808,982.187 905.475,979.687 913.5,982C 915.774,984.344 916.941,987.178 917,990.5C 917.333,997.167 917.667,1003.83 918,1010.5C 920.163,1015.58 923.663,1016.75 928.5,1014C 933.913,1010.73 935.913,1005.9 934.5,999.5C 932.998,984.165 931.832,968.831 931,953.5C 935.491,948.741 940.991,947.241 947.5,949C 948,949.5 948.5,950 949,950.5C 949.853,954.469 950.519,958.469 951,962.5C 951.333,977.833 951.667,993.167 952,1008.5C 952.398,1011.23 953.898,1013.07 956.5,1014C 971.175,1016.99 976.675,1011.16 973,996.5C 967.643,990.095 968.81,985.262 976.5,982C 979.5,981.667 982.5,981.333 985.5,981C 982.898,980.117 980.731,978.617 979,976.5C 975.83,981.332 971.664,982.499 966.5,980C 963.197,976.205 962.697,972.038 965,967.5C 970.418,963.28 975.251,963.946 979.5,969.5C 984.625,962.887 989.792,962.887 995,969.5C 996.302,976.381 993.468,980.548 986.5,982C 989.87,986.926 991.204,992.426 990.5,998.5C 990.605,1022.64 978.605,1033.14 954.5,1030C 950.053,1028.61 946.053,1026.44 942.5,1023.5C 931.498,1032.28 920.331,1032.61 909,1024.5C 903.401,1028.2 897.234,1030.2 890.5,1030.5C 881.237,1028.85 871.904,1027.85 862.5,1027.5C 852.106,1027.92 841.773,1028.92 831.5,1030.5C 827.256,1030.93 823.422,1029.93 820,1027.5C 816.5,1036.33 810.333,1042.5 801.5,1046C 797.454,1046.32 794.621,1044.49 793,1040.5C 791.682,1037.59 791.348,1034.59 792,1031.5C 801.675,1029.33 806.842,1023.33 807.5,1013.5C 806.118,1004.32 804.285,995.322 802,986.5C 806.735,981.179 812.235,980.179 818.5,983.5C 821.113,991.62 822.613,999.954 823,1008.5C 823.792,1010.59 824.959,1012.42 826.5,1014C 841.189,1014.13 855.856,1013.47 870.5,1012C 866.251,994.585 856.418,990.418 841,999.5C 834.673,997.541 831.173,993.208 830.5,986.5C 830.39,984.626 831.056,983.126 832.5,982C 848.506,974.053 862.673,976.553 875,989.5C 880.711,996.588 884.544,1004.59 886.5,1013.5 Z"/></g>
<g><path class="icon" style="opacity:1" fill="currentColor" d="M 318.5,968.5 C 318.5,993.167 318.5,1017.83 318.5,1042.5C 313.833,1042.5 309.167,1042.5 304.5,1042.5C 304.5,1017.83 304.5,993.167 304.5,968.5C 309.167,968.5 313.833,968.5 318.5,968.5 Z"/></g>
<g><path class="icon" style="opacity:1" fill="currentColor" d="M 232.5,973.5 C 214.167,973.5 195.833,973.5 177.5,973.5C 177.5,977.833 177.5,982.167 177.5,986.5C 176.514,982.03 176.181,977.363 176.5,972.5C 195.341,972.17 214.007,972.503 232.5,973.5 Z"/></g>
<g><path class="icon" style="opacity:1" fill="currentColor" d="M 232.5,973.5 C 232.5,977.833 232.5,982.167 232.5,986.5C 225.833,986.5 219.167,986.5 212.5,986.5C 212.5,1005.17 212.5,1023.83 212.5,1042.5C 207.5,1042.5 202.5,1042.5 197.5,1042.5C 197.83,1023.66 197.497,1004.99 196.5,986.5C 190.167,986.5 183.833,986.5 177.5,986.5C 177.5,982.167 177.5,977.833 177.5,973.5C 195.833,973.5 214.167,973.5 232.5,973.5 Z"/></g>
<g><path class="icon" style="opacity:1" fill="currentColor" d="M 736.5,982.5 C 751.067,981.895 760.567,988.562 765,1002.5C 766.375,1010.86 765.375,1018.86 762,1026.5C 760.269,1029.23 757.936,1031.23 755,1032.5C 745.276,1030.87 736.442,1027.21 728.5,1021.5C 727.488,1023.84 727.655,1026.17 729,1028.5C 738.138,1037.61 736.304,1043.94 723.5,1047.5C 719.861,1046.02 717.361,1043.36 716,1039.5C 710.448,1027.78 711.448,1016.78 719,1006.5C 719.677,994.667 725.51,986.667 736.5,982.5 Z"/></g>
<g><path class="icon" style="opacity:1" fill="currentColor" d="M 258.5,988.5 C 283.006,986.209 294.673,997.209 293.5,1021.5C 280.483,1021.17 267.483,1021.5 254.5,1022.5C 258.006,1029.59 263.672,1032.42 271.5,1031C 274.754,1029.97 277.754,1028.47 280.5,1026.5C 283.701,1028.87 286.367,1031.7 288.5,1035C 280.352,1042.71 270.686,1045.38 259.5,1043C 242.844,1036.96 236.344,1025.12 240,1007.5C 243.017,997.984 249.184,991.651 258.5,988.5 Z"/></g>
<g><path class="icon" style="opacity:1" fill="currentColor" d="M 349.5,988.5 C 374.006,986.209 385.673,997.209 384.5,1021.5C 371.483,1021.17 358.483,1021.5 345.5,1022.5C 349.006,1029.59 354.672,1032.42 362.5,1031C 365.754,1029.97 368.754,1028.47 371.5,1026.5C 374.701,1028.87 377.367,1031.7 379.5,1035C 371.352,1042.71 361.686,1045.38 350.5,1043C 333.844,1036.96 327.344,1025.12 331,1007.5C 334.017,997.984 340.184,991.651 349.5,988.5 Z"/></g>
<g><path class="icon" style="opacity:1" fill="currentColor" d="M 409.5,988.5 C 418.399,986.738 425.899,989.071 432,995.5C 432.497,993.19 432.663,990.857 432.5,988.5C 437.5,988.5 442.5,988.5 447.5,988.5C 447.667,1006.5 447.5,1024.5 447,1042.5C 445.544,1050.92 441.044,1057.09 433.5,1061C 419.775,1066.82 407.109,1065.15 395.5,1056C 397.374,1052.42 399.374,1048.92 401.5,1045.5C 408.47,1050.2 416.136,1051.7 424.5,1050C 431.637,1047.22 434.804,1042.05 434,1034.5C 426.335,1041.45 417.502,1043.28 407.5,1040C 399.836,1037 395.003,1031.5 393,1023.5C 389.932,1007.64 395.432,995.974 409.5,988.5 Z"/></g>
<g><path class="icon" style="opacity:1" fill="currentColor" d="M 489.5,988.5 C 490.5,988.5 491.5,988.5 492.5,988.5C 493.015,993.48 492.348,998.146 490.5,1002.5C 484.283,1002.54 480.116,1005.54 478,1011.5C 476.574,1021.75 476.074,1032.09 476.5,1042.5C 471.833,1042.5 467.167,1042.5 462.5,1042.5C 462.5,1024.83 462.5,1007.17 462.5,989.5C 467.167,989.5 471.833,989.5 476.5,989.5C 476.338,991.527 476.505,993.527 477,995.5C 480.699,992.236 484.866,989.903 489.5,988.5 Z"/></g>
<g><path class="icon" style="opacity:1" fill="currentColor" d="M 489.5,988.5 C 490.568,987.566 491.901,987.232 493.5,987.5C 493.5,992.5 493.5,997.5 493.5,1002.5C 492.5,1002.5 491.5,1002.5 490.5,1002.5C 492.348,998.146 493.015,993.48 492.5,988.5C 491.5,988.5 490.5,988.5 489.5,988.5 Z"/></g>
<g><path class="icon" style="opacity:1" fill="currentColor" d="M 547.5,1005.5 C 547.5,1017.83 547.5,1030.17 547.5,1042.5C 543.167,1042.5 538.833,1042.5 534.5,1042.5C 534.784,1040.59 534.451,1038.92 533.5,1037.5C 525.2,1044.51 516.2,1045.35 506.5,1040C 499.266,1033.31 497.766,1025.48 502,1016.5C 505.623,1012.44 510.123,1010.11 515.5,1009.5C 521.5,1009.5 527.5,1009.5 533.5,1009.5C 533.737,1008.21 533.404,1007.21 532.5,1006.5C 531.307,1001.64 528.141,999.642 523,1000.5C 517.572,1000.48 512.739,1002.14 508.5,1005.5C 506.289,1002.24 503.955,999.078 501.5,996C 511.371,988.868 522.371,986.535 534.5,989C 543.048,991.293 547.381,996.793 547.5,1005.5 Z"/></g>
<g><path class="icon" style="opacity:1" fill="currentColor" d="M 611.5,1012.5 C 610.506,1022.32 610.173,1032.32 610.5,1042.5C 605.833,1042.5 601.167,1042.5 596.5,1042.5C 596.894,1030.11 596.394,1017.78 595,1005.5C 591.272,1001.22 586.772,1000.38 581.5,1003C 579.383,1004.73 577.883,1006.9 577,1009.5C 576.5,1020.49 576.333,1031.49 576.5,1042.5C 571.833,1042.5 567.167,1042.5 562.5,1042.5C 562.5,1024.83 562.5,1007.17 562.5,989.5C 567.167,989.5 571.833,989.5 576.5,989.5C 576.34,991.199 576.506,992.866 577,994.5C 583.99,987.983 591.823,986.816 600.5,991C 602.684,993.016 604.684,995.183 606.5,997.5C 616.58,987.246 627.913,985.746 640.5,993C 642.712,995.921 644.545,999.088 646,1002.5C 646.5,1015.83 646.667,1029.16 646.5,1042.5C 641.5,1042.5 636.5,1042.5 631.5,1042.5C 631.939,1030.09 631.439,1017.76 630,1005.5C 624.033,999.939 618.366,1000.27 613,1006.5C 611.872,1008.35 611.372,1010.35 611.5,1012.5 Z"/></g>
<g><path class="icon" style="opacity:1" fill="currentColor" d="M 476.5,989.5 C 471.833,989.5 467.167,989.5 462.5,989.5C 462.5,1007.17 462.5,1024.83 462.5,1042.5C 467.167,1042.5 471.833,1042.5 476.5,1042.5C 471.695,1043.49 466.695,1043.82 461.5,1043.5C 461.5,1025.17 461.5,1006.83 461.5,988.5C 466.695,988.179 471.695,988.513 476.5,989.5 Z"/></g>
<g><path class="icon" style="opacity:1" fill="currentColor" d="M 576.5,989.5 C 571.833,989.5 567.167,989.5 562.5,989.5C 562.5,1007.17 562.5,1024.83 562.5,1042.5C 567.167,1042.5 571.833,1042.5 576.5,1042.5C 571.695,1043.49 566.695,1043.82 561.5,1043.5C 561.5,1025.17 561.5,1006.83 561.5,988.5C 566.695,988.179 571.695,988.513 576.5,989.5 Z"/></g>
<g><path class="icon-back" style="opacity:1" fill="#f5f8f9" d="M 739.5,998.5 C 742.505,998.253 745.005,999.253 747,1001.5C 749.115,1005.57 750.281,1009.9 750.5,1014.5C 744.439,1014.76 739.272,1012.76 735,1008.5C 734.077,1004.02 735.577,1000.68 739.5,998.5 Z"/></g>
<g><path class="icon-back" style="opacity:1" fill="#f9fbfb" d="M 263.5,1000.5 C 269.343,999.675 273.843,1001.67 277,1006.5C 277.49,1007.79 277.657,1009.13 277.5,1010.5C 269.804,1010.83 262.138,1010.5 254.5,1009.5C 256.549,1005.45 259.549,1002.45 263.5,1000.5 Z"/></g>
<g><path class="icon-back" style="opacity:1" fill="#f9fbfb" d="M 354.5,1000.5 C 360.343,999.675 364.843,1001.67 368,1006.5C 368.49,1007.79 368.657,1009.13 368.5,1010.5C 360.804,1010.83 353.138,1010.5 345.5,1009.5C 347.549,1005.45 350.549,1002.45 354.5,1000.5 Z"/></g>
<g><path class="icon-back" style="opacity:1" fill="#fbfdfd" d="M 415.5,1001.5 C 429.261,1000.44 434.761,1006.77 432,1020.5C 428.628,1027.43 423.128,1029.93 415.5,1028C 407.963,1023.97 405.463,1017.8 408,1009.5C 410.028,1006.31 412.528,1003.64 415.5,1001.5 Z"/></g>
<g><path class="icon" style="opacity:1" fill="currentColor" d="M 547.5,1005.5 C 548.495,1017.99 548.829,1030.66 548.5,1043.5C 543.5,1043.5 538.5,1043.5 533.5,1043.5C 533.5,1041.5 533.5,1039.5 533.5,1037.5C 534.451,1038.92 534.784,1040.59 534.5,1042.5C 538.833,1042.5 543.167,1042.5 547.5,1042.5C 547.5,1030.17 547.5,1017.83 547.5,1005.5 Z"/></g>
<g><path class="icon" style="opacity:1" fill="currentColor" d="M 659.5,1006.5 C 671.5,1006.5 683.5,1006.5 695.5,1006.5C 695.5,1010.83 695.5,1015.17 695.5,1019.5C 683.5,1019.5 671.5,1019.5 659.5,1019.5C 659.5,1015.17 659.5,1010.83 659.5,1006.5 Z"/></g>
<g><path class="icon" style="opacity:1" fill="currentColor" d="M 532.5,1006.5 C 533.404,1007.21 533.737,1008.21 533.5,1009.5C 527.5,1009.5 521.5,1009.5 515.5,1009.5C 521.406,1009.15 527.073,1008.15 532.5,1006.5 Z"/></g>
<g><path class="icon" style="opacity:1" fill="currentColor" d="M 886.5,1013.5 C 888.717,1014.37 891.05,1014.7 893.5,1014.5C 892.551,1015.15 891.385,1015.49 890,1015.5C 888.319,1015.39 887.152,1014.73 886.5,1013.5 Z"/></g>
<g><path class="icon-back" style="opacity:1" fill="#f6f9f9" d="M 519.5,1019.5 C 523.833,1019.5 528.167,1019.5 532.5,1019.5C 532.74,1028.42 528.406,1032.26 519.5,1031C 512.914,1027.17 512.914,1023.34 519.5,1019.5 Z"/></g>
<g><path class="icon" style="opacity:1" fill="currentColor" d="M 857.5,1032.5 C 866.657,1031.49 870.49,1035.49 869,1044.5C 864.625,1049.38 859.958,1049.71 855,1045.5C 852.606,1040.53 853.44,1036.19 857.5,1032.5 Z"/></g>
<g><path class="icon" style="opacity:1" fill="currentColor" d="M 894.5,1032.5 C 899.691,1031.47 903.691,1033.13 906.5,1037.5C 911.191,1031.19 916.358,1030.86 922,1036.5C 923.447,1045.72 919.614,1049.55 910.5,1048C 908.981,1046.65 907.648,1045.15 906.5,1043.5C 901.65,1049.65 896.483,1049.98 891,1044.5C 889.593,1039.64 890.76,1035.64 894.5,1032.5 Z"/></g>
<g><path class="icon" style="opacity:1" fill="currentColor" d="M 196.5,986.5 C 197.497,1004.99 197.83,1023.66 197.5,1042.5C 202.5,1042.5 207.5,1042.5 212.5,1042.5C 207.36,1043.49 202.026,1043.82 196.5,1043.5C 196.5,1024.5 196.5,1005.5 196.5,986.5 Z"/></g>
<g><path class="icon" style="opacity:1" fill="currentColor" d="M 318.5,968.5 C 319.498,993.328 319.831,1018.33 319.5,1043.5C 314.305,1043.82 309.305,1043.49 304.5,1042.5C 309.167,1042.5 313.833,1042.5 318.5,1042.5C 318.5,1017.83 318.5,993.167 318.5,968.5 Z"/></g>
<g><path class="icon" style="opacity:1" fill="currentColor" d="M 611.5,1012.5 C 611.5,1022.83 611.5,1033.17 611.5,1043.5C 606.305,1043.82 601.305,1043.49 596.5,1042.5C 601.167,1042.5 605.833,1042.5 610.5,1042.5C 610.173,1032.32 610.506,1022.32 611.5,1012.5 Z"/></g>
</svg>
