<svg version="1.0" xmlns="http://www.w3.org/2000/svg" viewBox="0 0 1181.000000 1181.000000"
 preserveAspectRatio="xMidYMid meet"><g><path style="opacity:0.998" fill="currentColor" d="M 100.5,12.5 C 427.834,12.3333 755.167,12.5 1082.5,13C 1130.33,22.1667 1158.83,50.6667 1168,98.5C 1168.67,425.833 1168.67,753.167 1168,1080.5C 1158.83,1128.33 1130.33,1156.83 1082.5,1166C 755.167,1166.67 427.833,1166.67 100.5,1166C 52.6667,1156.83 24.1667,1128.33 15,1080.5C 14.3333,753.167 14.3333,425.833 15,98.5C 24.3464,50.6539 52.8464,21.9873 100.5,12.5 Z"/></g>
<g><path class="icon-back" style="opacity:1" fill="#fefefe" d="M 137.5,65.5 C 439.834,65.3333 742.167,65.5 1044.5,66C 1084.25,72.7465 1107.75,95.9131 1115,135.5C 1115.67,437.833 1115.67,740.167 1115,1042.5C 1108.17,1082.67 1084.67,1106.17 1044.5,1113C 742.167,1113.67 439.833,1113.67 137.5,1113C 96.9929,1105.49 73.8262,1081.33 68,1040.5C 67.3333,738.833 67.3333,437.167 68,135.5C 75.3462,96.3208 98.5129,72.9875 137.5,65.5 Z"/></g>
<g><path class="icon" style="opacity:1" fill="currentColor" d="M 564.5,254.5 C 579.5,254.5 594.5,254.5 609.5,254.5C 611.371,255.797 613.371,256.797 615.5,257.5C 595.479,254.874 575.479,254.874 555.5,257.5C 558.408,256.184 561.408,255.184 564.5,254.5 Z"/></g>
<g><path class="icon" style="opacity:1" fill="currentColor" d="M 609.5,254.5 C 614.619,253.897 619.285,254.564 623.5,256.5C 623.5,256.833 623.5,257.167 623.5,257.5C 620.833,257.5 618.167,257.5 615.5,257.5C 613.371,256.797 611.371,255.797 609.5,254.5 Z"/></g>
<g><path class="icon" style="opacity:1" fill="currentColor" d="M 623.5,257.5 C 623.5,257.167 623.5,256.833 623.5,256.5C 630.776,256.492 637.776,257.492 644.5,259.5C 640.158,259.261 635.824,258.927 631.5,258.5C 629.052,257.527 626.385,257.194 623.5,257.5 Z"/></g>
<g><path class="icon" style="opacity:1" fill="currentColor" d="M 564.5,254.5 C 561.408,255.184 558.408,256.184 555.5,257.5C 550.473,257.503 545.473,257.836 540.5,258.5C 548.188,256.033 556.188,254.7 564.5,254.5 Z"/></g>
<g><path class="icon" style="opacity:1" fill="currentColor" d="M 615.5,257.5 C 618.167,257.5 620.833,257.5 623.5,257.5C 626.385,257.194 629.052,257.527 631.5,258.5C 632.152,259.725 633.319,260.392 635,260.5C 644.448,262.254 653.948,263.588 663.5,264.5C 665.806,264.993 668.139,265.326 670.5,265.5C 670.833,265.5 671.167,265.5 671.5,265.5C 673.102,267.074 675.102,267.741 677.5,267.5C 684.007,269.666 690.673,271.666 697.5,273.5C 700.388,274.98 703.388,276.313 706.5,277.5C 712.951,281.322 719.951,283.988 727.5,285.5C 727.833,286.167 728.167,286.833 728.5,287.5C 728.804,288.15 729.137,288.817 729.5,289.5C 732.444,290.704 735.444,291.704 738.5,292.5C 738.833,292.5 739.167,292.5 739.5,292.5C 739.5,293.5 739.5,294.5 739.5,295.5C 743.671,297.412 748.005,299.079 752.5,300.5C 756.02,301.422 759.02,303.089 761.5,305.5C 763.975,308.241 766.975,310.241 770.5,311.5C 772.223,313.218 774.223,314.551 776.5,315.5C 777.585,317.587 779.251,318.92 781.5,319.5C 781.973,320.906 782.973,321.573 784.5,321.5C 785.585,323.587 787.251,324.92 789.5,325.5C 790.585,327.587 792.251,328.92 794.5,329.5C 796.569,332.573 799.236,334.906 802.5,336.5C 807.833,342.5 813.5,348.167 819.5,353.5C 822.579,356.905 825.579,360.238 828.5,363.5C 831.358,370.025 835.691,375.359 841.5,379.5C 842.845,381.697 844.011,384.03 845,386.5C 845.671,387.252 846.504,387.586 847.5,387.5C 847.343,388.873 847.51,390.207 848,391.5C 851.635,395.396 855.135,399.396 858.5,403.5C 860.69,404.975 862.023,406.975 862.5,409.5C 862.195,413.227 863.695,415.894 867,417.5C 867.374,419.491 868.207,421.158 869.5,422.5C 869.025,425.313 870.025,427.313 872.5,428.5C 872.967,433.351 874.967,437.351 878.5,440.5C 879.338,440.842 879.672,441.508 879.5,442.5C 879.755,444.967 880.755,446.967 882.5,448.5C 882.5,448.833 882.5,449.167 882.5,449.5C 883.038,451.117 883.371,452.784 883.5,454.5C 887.984,467.43 892.317,480.43 896.5,493.5C 898.166,499.492 899.833,505.492 901.5,511.5C 901.5,514.167 901.5,516.833 901.5,519.5C 903.204,536.965 904.537,554.465 905.5,572C 904.395,589.874 903.062,607.707 901.5,625.5C 900.942,630.516 900.275,635.516 899.5,640.5C 899.5,640.833 899.5,641.167 899.5,641.5C 897.69,644.145 896.69,647.145 896.5,650.5C 893.803,653.899 892.47,657.899 892.5,662.5C 891.459,668.661 889.793,674.661 887.5,680.5C 882.314,692.754 876.981,705.088 871.5,717.5C 871.5,718.167 871.5,718.833 871.5,719.5C 867.315,723.708 864.315,728.708 862.5,734.5C 861.833,735.167 861.167,735.833 860.5,736.5C 857.551,738.373 855.551,741.039 854.5,744.5C 844.321,758.851 833.654,772.851 822.5,786.5C 822.167,787.5 821.5,788.167 820.5,788.5C 819.761,788.369 819.094,788.536 818.5,789C 813.917,794.408 809.25,799.574 804.5,804.5C 803.833,804.5 803.5,804.833 803.5,805.5C 792.825,813.836 782.158,822.169 771.5,830.5C 768.489,831.669 765.822,833.336 763.5,835.5C 761.147,836.34 759.147,837.674 757.5,839.5C 756.5,840.167 755.5,840.833 754.5,841.5C 750.345,842.742 746.678,844.742 743.5,847.5C 742.306,848.272 741.306,849.272 740.5,850.5C 739.167,850.833 737.833,851.167 736.5,851.5C 732.905,851.976 729.572,853.142 726.5,855C 725.748,855.671 725.414,856.504 725.5,857.5C 724.508,857.328 723.842,857.662 723.5,858.5C 720.687,858.025 718.687,859.025 717.5,861.5C 711.173,863.219 704.839,865.052 698.5,867C 696.007,868.419 693.674,869.919 691.5,871.5C 690.5,871.5 689.5,871.5 688.5,871.5C 681.349,873.037 674.349,875.037 667.5,877.5C 667.082,878.222 666.416,878.722 665.5,879C 656.021,880.743 646.688,882.576 637.5,884.5C 631.839,884.907 626.172,885.24 620.5,885.5C 609.668,886.95 598.668,887.617 587.5,887.5C 578.316,887.718 569.316,887.051 560.5,885.5C 556.4,885.763 552.4,885.43 548.5,884.5C 541.086,882.405 533.42,881.072 525.5,880.5C 511.195,876.341 496.861,872.341 482.5,868.5C 480.572,866.526 478.239,865.026 475.5,864C 470.176,861.432 464.509,859.932 458.5,859.5C 455.765,856.799 452.431,855.132 448.5,854.5C 446.388,852.229 443.721,850.896 440.5,850.5C 436.7,848.766 433.034,846.766 429.5,844.5C 428.656,842.241 426.989,841.241 424.5,841.5C 419.903,836.86 414.57,833.193 408.5,830.5C 405.802,830.155 403.802,828.822 402.5,826.5C 401.415,824.413 399.749,823.08 397.5,822.5C 395.596,822.262 394.262,821.262 393.5,819.5C 392.415,817.413 390.749,816.08 388.5,815.5C 384.773,810.77 380.44,806.77 375.5,803.5C 374.5,802.833 373.5,802.167 372.5,801.5C 366.833,795.167 360.833,789.167 354.5,783.5C 352.906,780.236 350.573,777.569 347.5,775.5C 346.243,772.573 344.243,770.239 341.5,768.5C 341.573,766.973 340.906,765.973 339.5,765.5C 337.984,762.467 335.984,759.8 333.5,757.5C 330.845,751.54 327.178,746.207 322.5,741.5C 317.893,733.948 313.559,726.282 309.5,718.5C 308.515,714.191 306.681,710.191 304,706.5C 302.351,700.028 299.851,694.028 296.5,688.5C 295.833,687.833 295.167,687.167 294.5,686.5C 294.167,685.167 293.833,683.833 293.5,682.5C 292.253,678.285 291.42,673.952 291,669.5C 290.148,668.429 289.315,667.429 288.5,666.5C 285.315,659.934 283.315,652.934 282.5,645.5C 282.451,638.769 281.118,632.436 278.5,626.5C 278.562,621.924 277.895,617.591 276.5,613.5C 275.143,600.375 274.476,587.208 274.5,574C 275.003,558.821 275.669,543.654 276.5,528.5C 277.167,524.833 277.833,521.167 278.5,517.5C 281.885,501.019 286.218,484.685 291.5,468.5C 291.5,467.167 291.5,465.833 291.5,464.5C 296.6,456.952 300.1,448.618 302,439.5C 302.925,438.953 303.758,438.287 304.5,437.5C 307.635,431.701 310.302,425.701 312.5,419.5C 312.5,418.833 312.5,418.167 312.5,417.5C 314.451,416.284 315.951,414.618 317,412.5C 319.701,407 322.535,401.667 325.5,396.5C 328.933,393.399 331.6,389.732 333.5,385.5C 344.555,371.929 356.222,358.763 368.5,346C 378.833,337 389.167,328 399.5,319C 405.401,314.917 411.401,311.083 417.5,307.5C 421.192,305.656 424.525,303.323 427.5,300.5C 430.308,298.677 432.975,296.677 435.5,294.5C 436.833,294.167 438.167,293.833 439.5,293.5C 451.016,287.654 462.682,281.987 474.5,276.5C 475.167,276.5 475.833,276.5 476.5,276.5C 485.354,273.794 494.021,270.794 502.5,267.5C 505.986,265.894 509.653,264.894 513.5,264.5C 527.49,261.502 541.49,259.168 555.5,257.5C 575.479,254.874 595.479,254.874 615.5,257.5 Z"/></g>
<g><path class="icon" style="opacity:1" fill="currentColor" d="M 644.5,259.5 C 649.911,259.125 654.911,260.125 659.5,262.5C 654.273,262.022 649.273,261.022 644.5,259.5 Z"/></g>
<g><path class="icon" style="opacity:1" fill="currentColor" d="M 555.5,257.5 C 541.49,259.168 527.49,261.502 513.5,264.5C 522.073,261.12 531.073,259.12 540.5,258.5C 545.473,257.836 550.473,257.503 555.5,257.5 Z"/></g>
<g><path class="icon" style="opacity:1" fill="currentColor" d="M 631.5,258.5 C 635.824,258.927 640.158,259.261 644.5,259.5C 649.273,261.022 654.273,262.022 659.5,262.5C 660.833,263.167 662.167,263.833 663.5,264.5C 653.948,263.588 644.448,262.254 635,260.5C 633.319,260.392 632.152,259.725 631.5,258.5 Z"/></g>
<g><path class="icon" style="opacity:1" fill="currentColor" d="M 659.5,262.5 C 663.658,262.12 667.325,263.12 670.5,265.5C 668.139,265.326 665.806,264.993 663.5,264.5C 662.167,263.833 660.833,263.167 659.5,262.5 Z"/></g>
<g><path class="icon" style="opacity:1" fill="currentColor" d="M 671.5,265.5 C 673.898,265.259 675.898,265.926 677.5,267.5C 675.102,267.741 673.102,267.074 671.5,265.5 Z"/></g>
<g><path class="icon" style="opacity:1" fill="currentColor" d="M 502.5,267.5 C 494.021,270.794 485.354,273.794 476.5,276.5C 484.136,271.273 492.802,268.273 502.5,267.5 Z"/></g>
<g><path class="icon" style="opacity:1" fill="currentColor" d="M 677.5,267.5 C 684.733,267.793 691.399,269.793 697.5,273.5C 690.673,271.666 684.007,269.666 677.5,267.5 Z"/></g>
<g><path class="icon" style="opacity:1" fill="currentColor" d="M 474.5,276.5 C 462.682,281.987 451.016,287.654 439.5,293.5C 450.052,285.634 461.718,279.968 474.5,276.5 Z"/></g>
<g><path class="icon" style="opacity:1" fill="currentColor" d="M 706.5,277.5 C 713.933,279.416 720.933,282.083 727.5,285.5C 719.951,283.988 712.951,281.322 706.5,277.5 Z"/></g>
<g><path class="icon" style="opacity:1" fill="currentColor" d="M 728.5,287.5 C 732.183,288.675 735.516,290.341 738.5,292.5C 735.444,291.704 732.444,290.704 729.5,289.5C 729.137,288.817 728.804,288.15 728.5,287.5 Z"/></g>
<g><path class="icon" style="opacity:1" fill="currentColor" d="M 435.5,294.5 C 432.975,296.677 430.308,298.677 427.5,300.5C 426.833,300.5 426.167,300.5 425.5,300.5C 428.242,297.579 431.575,295.579 435.5,294.5 Z"/></g>
<g><path class="icon" style="opacity:1" fill="currentColor" d="M 739.5,292.5 C 743.15,294.325 746.816,296.158 750.5,298C 751.381,298.708 752.047,299.542 752.5,300.5C 748.005,299.079 743.671,297.412 739.5,295.5C 739.5,294.5 739.5,293.5 739.5,292.5 Z"/></g>
<g><path class="icon" style="opacity:1" fill="currentColor" d="M 425.5,300.5 C 426.167,300.5 426.833,300.5 427.5,300.5C 424.525,303.323 421.192,305.656 417.5,307.5C 418.167,306.5 418.833,305.5 419.5,304.5C 421.147,302.674 423.147,301.34 425.5,300.5 Z"/></g>
<g><path class="icon" style="opacity:1" fill="currentColor" d="M 761.5,305.5 C 765.691,305.759 768.691,307.759 770.5,311.5C 766.975,310.241 763.975,308.241 761.5,305.5 Z"/></g>
<g><path class="icon" style="opacity:1" fill="currentColor" d="M 776.5,315.5 C 778.749,316.08 780.415,317.413 781.5,319.5C 779.251,318.92 777.585,317.587 776.5,315.5 Z"/></g>
<g><path class="icon" style="opacity:1" fill="currentColor" d="M 784.5,321.5 C 786.749,322.08 788.415,323.413 789.5,325.5C 787.251,324.92 785.585,323.587 784.5,321.5 Z"/></g>
<g><path class="icon" style="opacity:1" fill="currentColor" d="M 789.5,325.5 C 791.749,326.08 793.415,327.413 794.5,329.5C 792.251,328.92 790.585,327.587 789.5,325.5 Z"/></g>
<g><path class="icon" style="opacity:1" fill="currentColor" d="M 794.5,329.5 C 797.764,331.094 800.431,333.427 802.5,336.5C 799.236,334.906 796.569,332.573 794.5,329.5 Z"/></g>
<g><path class="icon" style="opacity:1" fill="currentColor" d="M 802.5,336.5 C 809.167,341.167 814.833,346.833 819.5,353.5C 813.5,348.167 807.833,342.5 802.5,336.5 Z"/></g>
<g><path class="icon" style="opacity:1" fill="currentColor" d="M 419.5,304.5 C 418.833,305.5 418.167,306.5 417.5,307.5C 411.401,311.083 405.401,314.917 399.5,319C 389.167,328 378.833,337 368.5,346C 356.222,358.763 344.555,371.929 333.5,385.5C 337.367,378.786 341.867,372.453 347,366.5C 363.156,349.347 380.322,333.18 398.5,318C 405.132,312.856 412.132,308.356 419.5,304.5 Z"/></g>
<g><path class="icon" style="opacity:1" fill="currentColor" d="M 828.5,363.5 C 833.789,368.091 838.123,373.424 841.5,379.5C 835.691,375.359 831.358,370.025 828.5,363.5 Z"/></g>
<g><path class="icon-back" style="opacity:1" fill="#fefefe" d="M 661.5,373.5 C 644.83,373.333 628.163,373.5 611.5,374C 611,374.5 610.5,375 610,375.5C 609.667,472.167 609.333,568.833 609,665.5C 608.122,671.012 606.622,676.345 604.5,681.5C 604.833,681.833 605.167,682.167 605.5,682.5C 608.404,677.23 610.237,671.563 611,665.5C 611.333,569.167 611.667,472.833 612,376.5C 628.423,375.508 644.923,375.175 661.5,375.5C 662.341,377.379 662.675,379.379 662.5,381.5C 665.255,391.67 669.588,401.003 675.5,409.5C 675.427,411.027 676.094,412.027 677.5,412.5C 683.053,422.056 690.386,430.056 699.5,436.5C 703.858,439.013 707.858,442.013 711.5,445.5C 714.579,450.106 718.579,453.272 723.5,455C 720.203,452.705 717.203,450.038 714.5,447C 714.728,446.601 715.062,446.435 715.5,446.5C 728.948,453.332 743.282,456.665 758.5,456.5C 758.5,460.833 758.5,465.167 758.5,469.5C 756.5,469.5 754.5,469.5 752.5,469.5C 753.878,470.234 755.378,470.901 757,471.5C 757.5,489.164 757.667,506.83 757.5,524.5C 752.833,524.5 748.167,524.5 743.5,524.5C 714.525,522.011 688.192,512.511 664.5,496C 662.934,495.235 661.601,495.402 660.5,496.5C 660.794,550.512 660.461,604.512 659.5,658.5C 654.511,684.145 643.345,706.812 626,726.5C 618.603,733.403 611.103,740.07 603.5,746.5C 598.553,748.973 593.553,751.473 588.5,754C 587.619,754.708 586.953,755.542 586.5,756.5C 562.943,765.486 538.609,768.986 513.5,767C 497.693,764.469 482.693,759.636 468.5,752.5C 424.913,727.595 402.246,689.429 400.5,638C 403.754,576.835 434.088,535.502 491.5,514C 510.146,508.616 528.979,507.449 548,510.5C 548.816,515.684 548.65,520.684 547.5,525.5C 524.836,527.166 524.836,527.499 547.5,526.5C 547.5,542.5 547.5,558.5 547.5,574.5C 547.5,576.167 547.5,577.833 547.5,579.5C 535.007,576.421 522.674,576.921 510.5,581C 509.058,581.377 508.058,582.21 507.5,583.5C 503.58,584.127 500.247,585.793 497.5,588.5C 487.664,594.004 480.664,602.004 476.5,612.5C 471.421,621.023 469.087,630.356 469.5,640.5C 469.503,643.025 469.837,645.359 470.5,647.5C 473.571,665.208 482.571,678.875 497.5,688.5C 500.128,690.488 502.795,692.488 505.5,694.5C 517.072,708.864 532.239,715.864 551,715.5C 562.243,715.686 572.743,713.019 582.5,707.5C 583.833,706.833 583.833,706.167 582.5,705.5C 557.634,718.914 533.967,717.081 511.5,700C 510.035,698.226 508.702,696.392 507.5,694.5C 541.514,704.233 567.348,693.899 585,663.5C 587.936,656.826 589.602,649.826 590,642.5C 590.5,547.501 590.667,452.501 590.5,357.5C 613.833,357.5 637.167,357.5 660.5,357.5C 660.392,362.87 660.725,368.203 661.5,373.5 Z"/></g>
<g><path class="icon-back" style="opacity:1" fill="#f6fafa" d="M 700.5,433.5 C 700.44,434.043 700.107,434.376 699.5,434.5C 691.118,428.118 683.785,420.785 677.5,412.5C 677.573,410.973 676.906,409.973 675.5,409.5C 670.605,399.399 666.605,389.065 663.5,378.5C 663.5,377.167 663.5,375.833 663.5,374.5C 669.425,374.192 675.259,374.525 681,375.5C 681.824,396.806 688.324,416.139 700.5,433.5 Z"/></g>
<g><path class="icon" style="opacity:1" fill="currentColor" d="M 661.5,373.5 C 661.5,374.167 661.5,374.833 661.5,375.5C 644.923,375.175 628.423,375.508 612,376.5C 611.667,472.833 611.333,569.167 611,665.5C 610.237,671.563 608.404,677.23 605.5,682.5C 605.167,682.167 604.833,681.833 604.5,681.5C 606.622,676.345 608.122,671.012 609,665.5C 609.333,568.833 609.667,472.167 610,375.5C 610.5,375 611,374.5 611.5,374C 628.163,373.5 644.83,373.333 661.5,373.5 Z"/></g>
<g><path class="icon" style="opacity:1" fill="currentColor" d="M 841.5,379.5 C 844.647,381.313 846.647,383.98 847.5,387.5C 846.504,387.586 845.671,387.252 845,386.5C 844.011,384.03 842.845,381.697 841.5,379.5 Z"/></g>
<g><path class="icon" style="opacity:1" fill="currentColor" d="M 847.5,387.5 C 852.163,392.164 855.83,397.497 858.5,403.5C 855.135,399.396 851.635,395.396 848,391.5C 847.51,390.207 847.343,388.873 847.5,387.5 Z"/></g>
<g><path class="icon" style="opacity:1" fill="currentColor" d="M 333.5,385.5 C 331.6,389.732 328.933,393.399 325.5,396.5C 327.435,392.293 330.102,388.627 333.5,385.5 Z"/></g>
<g><path class="icon" style="opacity:1" fill="currentColor" d="M 663.5,378.5 C 666.605,389.065 670.605,399.399 675.5,409.5C 669.588,401.003 665.255,391.67 662.5,381.5C 663.404,380.791 663.737,379.791 663.5,378.5 Z"/></g>
<g><path class="icon" style="opacity:1" fill="currentColor" d="M 325.5,396.5 C 322.535,401.667 319.701,407 317,412.5C 315.951,414.618 314.451,416.284 312.5,417.5C 316.072,410.022 320.405,403.022 325.5,396.5 Z"/></g>
<g><path class="icon" style="opacity:1" fill="currentColor" d="M 675.5,409.5 C 676.906,409.973 677.573,410.973 677.5,412.5C 676.094,412.027 675.427,411.027 675.5,409.5 Z"/></g>
<g><path class="icon" style="opacity:1" fill="currentColor" d="M 862.5,409.5 C 866.128,413.13 868.461,417.463 869.5,422.5C 868.207,421.158 867.374,419.491 867,417.5C 863.695,415.894 862.195,413.227 862.5,409.5 Z"/></g>
<g><path class="icon" style="opacity:1" fill="currentColor" d="M 677.5,412.5 C 683.785,420.785 691.118,428.118 699.5,434.5C 700.107,434.376 700.44,434.043 700.5,433.5C 701.043,433.56 701.376,433.893 701.5,434.5C 700.757,435.182 700.091,435.849 699.5,436.5C 690.386,430.056 683.053,422.056 677.5,412.5 Z"/></g>
<g><path class="icon" style="opacity:1" fill="currentColor" d="M 869.5,422.5 C 871.975,423.687 872.975,425.687 872.5,428.5C 870.025,427.313 869.025,425.313 869.5,422.5 Z"/></g>
<g><path class="icon" style="opacity:1" fill="currentColor" d="M 872.5,428.5 C 875.535,431.902 877.535,435.902 878.5,440.5C 874.967,437.351 872.967,433.351 872.5,428.5 Z"/></g>
<g><path class="icon" style="opacity:1" fill="currentColor" d="M 312.5,419.5 C 310.302,425.701 307.635,431.701 304.5,437.5C 303.758,438.287 302.925,438.953 302,439.5C 300.1,448.618 296.6,456.952 291.5,464.5C 295.36,451.446 300.86,439.112 308,427.5C 307.758,423.696 309.258,421.03 312.5,419.5 Z"/></g>
<g><path class="icon" style="opacity:1" fill="currentColor" d="M 879.5,442.5 C 881.245,444.033 882.245,446.033 882.5,448.5C 880.755,446.967 879.755,444.967 879.5,442.5 Z"/></g>
<g><path class="icon" style="opacity:1" fill="currentColor" d="M 711.5,445.5 C 713.099,445.232 714.432,445.566 715.5,446.5C 715.062,446.435 714.728,446.601 714.5,447C 717.203,450.038 720.203,452.705 723.5,455C 718.579,453.272 714.579,450.106 711.5,445.5 Z"/></g>
<g><path class="icon" style="opacity:1" fill="currentColor" d="M 882.5,449.5 C 885.446,453.644 887.446,458.311 888.5,463.5C 886.649,460.628 884.983,457.628 883.5,454.5C 883.371,452.784 883.038,451.117 882.5,449.5 Z"/></g>
<g><path class="icon" style="opacity:1" fill="currentColor" d="M 883.5,454.5 C 884.983,457.628 886.649,460.628 888.5,463.5C 892.295,471.797 894.962,480.463 896.5,489.5C 896.5,490.833 896.5,492.167 896.5,493.5C 892.317,480.43 887.984,467.43 883.5,454.5 Z"/></g>
<g><path class="icon" style="opacity:1" fill="currentColor" d="M 752.5,469.5 C 742.976,467.496 734.309,463.663 726.5,458C 734.262,461.367 742.262,464.534 750.5,467.5C 751.713,467.747 752.38,468.414 752.5,469.5 Z"/></g>
<g><path class="icon" style="opacity:1" fill="currentColor" d="M 291.5,464.5 C 291.5,465.833 291.5,467.167 291.5,468.5C 289.975,471.079 288.641,473.746 287.5,476.5C 287.732,472.058 289.065,468.058 291.5,464.5 Z"/></g>
<g><path class="icon-back" style="opacity:1" fill="#fcfdfd" d="M 765.5,472.5 C 767.415,472.216 769.081,472.549 770.5,473.5C 772.948,474.473 775.615,474.806 778.5,474.5C 778.5,497.167 778.5,519.833 778.5,542.5C 743.972,543.037 712.639,533.37 684.5,513.5C 683.791,512.596 682.791,512.263 681.5,512.5C 681.5,563.167 681.5,613.833 681.5,664.5C 675.117,717.849 647.45,755.182 598.5,776.5C 595.603,777.129 592.936,778.129 590.5,779.5C 571.223,785.316 551.556,786.983 531.5,784.5C 529.485,783.076 527.152,782.41 524.5,782.5C 503.708,778.1 485.041,769.433 468.5,756.5C 468.369,755.624 468.702,754.957 469.5,754.5C 499.019,770.057 530.019,773.891 562.5,766C 570.934,763.694 578.934,760.527 586.5,756.5C 592.998,754.423 598.665,751.09 603.5,746.5C 627.433,731.36 644.266,710.36 654,683.5C 656.486,675.235 658.652,666.902 660.5,658.5C 660.927,654.176 661.261,649.842 661.5,645.5C 662.167,596.167 662.833,546.833 663.5,497.5C 692,517.234 723.666,526.901 758.5,526.5C 759.117,526.389 759.617,526.056 760,525.5C 760.5,507.836 760.667,490.17 760.5,472.5C 762.167,472.5 763.833,472.5 765.5,472.5 Z"/></g>
<g><path class="icon" style="opacity:1" fill="currentColor" d="M 291.5,468.5 C 286.218,484.685 281.885,501.019 278.5,517.5C 278.505,513.466 278.838,509.466 279.5,505.5C 281.098,495.431 283.765,485.764 287.5,476.5C 288.641,473.746 289.975,471.079 291.5,468.5 Z"/></g>
<g><path class="icon" style="opacity:1" fill="currentColor" d="M 758.5,456.5 C 759.487,461.305 759.821,466.305 759.5,471.5C 761.735,471.205 763.735,471.539 765.5,472.5C 763.833,472.5 762.167,472.5 760.5,472.5C 760.667,490.17 760.5,507.836 760,525.5C 759.617,526.056 759.117,526.389 758.5,526.5C 758.5,526.167 758.5,525.833 758.5,525.5C 758.5,506.833 758.5,488.167 758.5,469.5C 758.5,465.167 758.5,460.833 758.5,456.5 Z"/></g>
<g><path class="icon" style="opacity:1" fill="currentColor" d="M 752.5,469.5 C 754.5,469.5 756.5,469.5 758.5,469.5C 758.5,488.167 758.5,506.833 758.5,525.5C 753.305,525.821 748.305,525.487 743.5,524.5C 748.167,524.5 752.833,524.5 757.5,524.5C 757.667,506.83 757.5,489.164 757,471.5C 755.378,470.901 753.878,470.234 752.5,469.5 Z"/></g>
<g><path class="icon" style="opacity:1" fill="currentColor" d="M 770.5,473.5 C 773.5,473.5 776.5,473.5 779.5,473.5C 779.831,496.673 779.498,519.673 778.5,542.5C 778.5,519.833 778.5,497.167 778.5,474.5C 775.615,474.806 772.948,474.473 770.5,473.5 Z"/></g>
<g><path class="icon" style="opacity:1" fill="currentColor" d="M 896.5,489.5 C 898.592,493.582 900.092,497.915 901,502.5C 901.498,505.482 901.665,508.482 901.5,511.5C 899.833,505.492 898.166,499.492 896.5,493.5C 896.5,492.167 896.5,490.833 896.5,489.5 Z"/></g>
<g><path class="icon" style="opacity:1" fill="currentColor" d="M 661.5,496.5 C 662.492,496.328 663.158,496.662 663.5,497.5C 662.833,546.833 662.167,596.167 661.5,645.5C 661.5,595.833 661.5,546.167 661.5,496.5 Z"/></g>
<g><path class="icon" style="opacity:1" fill="currentColor" d="M 660.5,496.5 C 660.833,496.5 661.167,496.5 661.5,496.5C 661.5,546.167 661.5,595.833 661.5,645.5C 661.261,649.842 660.927,654.176 660.5,658.5C 660.167,658.5 659.833,658.5 659.5,658.5C 660.461,604.512 660.794,550.512 660.5,496.5 Z"/></g>
<g><path class="icon" style="opacity:1" fill="currentColor" d="M 660.5,496.5 C 661.601,495.402 662.934,495.235 664.5,496C 688.192,512.511 714.525,522.011 743.5,524.5C 748.305,525.487 753.305,525.821 758.5,525.5C 758.5,525.833 758.5,526.167 758.5,526.5C 723.666,526.901 692,517.234 663.5,497.5C 663.158,496.662 662.492,496.328 661.5,496.5C 661.167,496.5 660.833,496.5 660.5,496.5 Z"/></g>
<g><path class="icon" style="opacity:1" fill="currentColor" d="M 684.5,513.5 C 682.835,563.658 681.835,613.992 681.5,664.5C 681.5,613.833 681.5,563.167 681.5,512.5C 682.791,512.263 683.791,512.596 684.5,513.5 Z"/></g>
<g><path class="icon" style="opacity:1" fill="currentColor" d="M 279.5,505.5 C 278.838,509.466 278.505,513.466 278.5,517.5C 277.833,521.167 277.167,524.833 276.5,528.5C 275.833,531.5 275.167,534.5 274.5,537.5C 275.554,527.177 276.721,516.843 278,506.5C 278.383,505.944 278.883,505.611 279.5,505.5 Z"/></g>
<g><path class="icon" style="opacity:1" fill="currentColor" d="M 901.5,511.5 C 903.082,514.876 903.749,518.542 903.5,522.5C 902.833,521.5 902.167,520.5 901.5,519.5C 901.5,516.833 901.5,514.167 901.5,511.5 Z"/></g>
<g><path class="icon" style="opacity:1" fill="currentColor" d="M 547.5,525.5 C 547.5,525.833 547.5,526.167 547.5,526.5C 524.836,527.499 524.836,527.166 547.5,525.5 Z"/></g>
<g><path class="icon-back" style="opacity:1" fill="#fcfdfd" d="M 549.5,526.5 C 555.69,526.177 561.69,526.51 567.5,527.5C 567.5,550.5 567.5,573.5 567.5,596.5C 566.5,596.5 565.5,596.5 564.5,596.5C 528.37,592.312 504.203,607.312 492,641.5C 489.431,657.281 491.931,672.114 499.5,686C 499.164,687.03 498.497,687.53 497.5,687.5C 483.231,676.962 474.565,662.962 471.5,645.5C 471.334,639.824 471.501,634.157 472,628.5C 473.226,623.001 474.726,617.668 476.5,612.5C 478.074,612.063 479.241,611.063 480,609.5C 480.806,606.554 482.139,603.888 484,601.5C 488.395,596.936 492.895,592.602 497.5,588.5C 501.151,587.341 504.485,585.674 507.5,583.5C 519.973,579.14 532.64,578.474 545.5,581.5C 546.772,581.43 547.938,581.097 549,580.5C 549.5,562.503 549.667,544.503 549.5,526.5 Z"/></g>
<g><path class="icon" style="opacity:1" fill="currentColor" d="M 567.5,527.5 C 568.498,550.661 568.831,573.994 568.5,597.5C 566.901,597.768 565.568,597.434 564.5,596.5C 565.5,596.5 566.5,596.5 567.5,596.5C 567.5,573.5 567.5,550.5 567.5,527.5 Z"/></g>
<g><path class="icon" style="opacity:1" fill="currentColor" d="M 485.5,543.5 C 498.667,534.276 513.334,529.11 529.5,528C 514.266,531.467 499.599,536.634 485.5,543.5 Z"/></g>
<g><path class="icon" style="opacity:1" fill="currentColor" d="M 903.5,522.5 C 906.112,530.487 907.112,538.82 906.5,547.5C 904.856,539.382 903.856,531.049 903.5,522.5 Z"/></g>
<g><path class="icon" style="opacity:1" fill="currentColor" d="M 276.5,528.5 C 275.669,543.654 275.003,558.821 274.5,574C 274.476,587.208 275.143,600.375 276.5,613.5C 275.834,610.972 275.168,608.306 274.5,605.5C 273.171,582.67 273.171,560.004 274.5,537.5C 275.167,534.5 275.833,531.5 276.5,528.5 Z"/></g>
<g><path class="icon" style="opacity:1" fill="currentColor" d="M 485.5,543.5 C 470.984,553.343 457.984,565.01 446.5,578.5C 456.688,563.642 469.688,551.975 485.5,543.5 Z"/></g>
<g><path class="icon" style="opacity:1" fill="currentColor" d="M 901.5,519.5 C 902.167,520.5 902.833,521.5 903.5,522.5C 903.856,531.049 904.856,539.382 906.5,547.5C 906.5,563.5 906.5,579.5 906.5,595.5C 904.979,605.522 903.312,615.522 901.5,625.5C 903.062,607.707 904.395,589.874 905.5,572C 904.537,554.465 903.204,536.965 901.5,519.5 Z"/></g>
<g><path class="icon" style="opacity:1" fill="currentColor" d="M 549.5,526.5 C 549.667,544.503 549.5,562.503 549,580.5C 547.938,581.097 546.772,581.43 545.5,581.5C 532.64,578.474 519.973,579.14 507.5,583.5C 508.058,582.21 509.058,581.377 510.5,581C 522.674,576.921 535.007,576.421 547.5,579.5C 547.5,577.833 547.5,576.167 547.5,574.5C 548.167,558.5 548.833,542.5 549.5,526.5 Z"/></g>
<g><path class="icon" style="opacity:1" fill="currentColor" d="M 507.5,583.5 C 504.485,585.674 501.151,587.341 497.5,588.5C 500.247,585.793 503.58,584.127 507.5,583.5 Z"/></g>
<g><path class="icon" style="opacity:1" fill="currentColor" d="M 446.5,578.5 C 443.191,585.433 439.191,591.767 434.5,597.5C 437.254,590.314 441.254,583.981 446.5,578.5 Z"/></g>
<g><path class="icon" style="opacity:1" fill="currentColor" d="M 497.5,588.5 C 492.895,592.602 488.395,596.936 484,601.5C 482.139,603.888 480.806,606.554 480,609.5C 479.241,611.063 478.074,612.063 476.5,612.5C 480.664,602.004 487.664,594.004 497.5,588.5 Z"/></g>
<g><path class="icon" style="opacity:1" fill="currentColor" d="M 434.5,597.5 C 433.737,601.137 432.403,604.47 430.5,607.5C 430.872,603.703 432.206,600.37 434.5,597.5 Z"/></g>
<g><path class="icon" style="opacity:1" fill="currentColor" d="M 476.5,612.5 C 474.726,617.668 473.226,623.001 472,628.5C 471.501,634.157 471.334,639.824 471.5,645.5C 471.672,646.492 471.338,647.158 470.5,647.5C 469.837,645.359 469.503,643.025 469.5,640.5C 469.087,630.356 471.421,621.023 476.5,612.5 Z"/></g>
<g><path class="icon" style="opacity:1" fill="currentColor" d="M 906.5,595.5 C 906.666,602.508 906.5,609.508 906,616.5C 903.407,623.588 901.907,630.921 901.5,638.5C 900.818,639.243 900.151,639.909 899.5,640.5C 900.275,635.516 900.942,630.516 901.5,625.5C 903.312,615.522 904.979,605.522 906.5,595.5 Z"/></g>
<g><path class="icon" style="opacity:1" fill="currentColor" d="M 276.5,613.5 C 277.895,617.591 278.562,621.924 278.5,626.5C 277.833,625.167 277.167,623.833 276.5,622.5C 276.5,619.5 276.5,616.5 276.5,613.5 Z"/></g>
<g><path class="icon" style="opacity:1" fill="currentColor" d="M 278.5,626.5 C 281.118,632.436 282.451,638.769 282.5,645.5C 280.431,639.449 279.097,633.116 278.5,626.5 Z"/></g>
<g><path class="icon" style="opacity:1" fill="currentColor" d="M 276.5,622.5 C 277.167,623.833 277.833,625.167 278.5,626.5C 279.097,633.116 280.431,639.449 282.5,645.5C 283.315,652.934 285.315,659.934 288.5,666.5C 288.5,667.833 288.5,669.167 288.5,670.5C 284.516,661.512 281.349,652.178 279,642.5C 277.518,635.908 276.684,629.241 276.5,622.5 Z"/></g>
<g><path class="icon" style="opacity:1" fill="currentColor" d="M 899.5,641.5 C 899.575,645.897 899.075,650.23 898,654.5C 897.878,656.437 897.045,657.77 895.5,658.5C 895.833,655.833 896.167,653.167 896.5,650.5C 896.69,647.145 897.69,644.145 899.5,641.5 Z"/></g>
<g><path class="icon" style="opacity:1" fill="currentColor" d="M 896.5,650.5 C 896.167,653.167 895.833,655.833 895.5,658.5C 894.5,659.833 893.5,661.167 892.5,662.5C 892.47,657.899 893.803,653.899 896.5,650.5 Z"/></g>
<g><path class="icon" style="opacity:1" fill="currentColor" d="M 895.5,658.5 C 895.014,666.772 892.348,674.105 887.5,680.5C 889.793,674.661 891.459,668.661 892.5,662.5C 893.5,661.167 894.5,659.833 895.5,658.5 Z"/></g>
<g><path class="icon" style="opacity:1" fill="currentColor" d="M 288.5,666.5 C 289.315,667.429 290.148,668.429 291,669.5C 291.42,673.952 292.253,678.285 293.5,682.5C 291.44,678.651 289.773,674.651 288.5,670.5C 288.5,669.167 288.5,667.833 288.5,666.5 Z"/></g>
<g><path class="icon" style="opacity:1" fill="currentColor" d="M 471.5,645.5 C 474.565,662.962 483.231,676.962 497.5,687.5C 497.5,687.833 497.5,688.167 497.5,688.5C 482.571,678.875 473.571,665.208 470.5,647.5C 471.338,647.158 471.672,646.492 471.5,645.5 Z"/></g>
<g><path class="icon" style="opacity:1" fill="currentColor" d="M 430.5,607.5 C 420.262,638.203 419.929,669.036 429.5,700C 429.167,700.5 428.833,701 428.5,701.5C 422.553,686.595 419.886,671.095 420.5,655C 420.151,640.443 422.318,626.276 427,612.5C 428.03,610.654 429.196,608.987 430.5,607.5 Z"/></g>
<g><path class="icon" style="opacity:1" fill="currentColor" d="M 601.5,686.5 C 602.043,686.56 602.376,686.893 602.5,687.5C 600.185,691.641 597.185,694.808 593.5,697C 596.383,693.624 599.049,690.124 601.5,686.5 Z"/></g>
<g><path class="icon" style="opacity:1" fill="currentColor" d="M 294.5,686.5 C 295.167,687.167 295.833,687.833 296.5,688.5C 297.91,692.397 298.91,696.397 299.5,700.5C 296.932,696.274 295.266,691.607 294.5,686.5 Z"/></g>
<g><path class="icon" style="opacity:1" fill="currentColor" d="M 887.5,680.5 C 885.415,686.359 883.582,692.359 882,698.5C 878.998,705.176 875.498,711.51 871.5,717.5C 876.981,705.088 882.314,692.754 887.5,680.5 Z"/></g>
<g><path class="icon" style="opacity:1" fill="currentColor" d="M 296.5,688.5 C 299.851,694.028 302.351,700.028 304,706.5C 306.681,710.191 308.515,714.191 309.5,718.5C 305.972,712.555 302.639,706.555 299.5,700.5C 298.91,696.397 297.91,692.397 296.5,688.5 Z"/></g>
<g><path class="icon" style="opacity:1" fill="currentColor" d="M 505.5,694.5 C 506.167,694.5 506.833,694.5 507.5,694.5C 508.702,696.392 510.035,698.226 511.5,700C 533.967,717.081 557.634,718.914 582.5,705.5C 583.833,706.167 583.833,706.833 582.5,707.5C 572.743,713.019 562.243,715.686 551,715.5C 532.239,715.864 517.072,708.864 505.5,694.5 Z"/></g>
<g><path class="icon" style="opacity:1" fill="currentColor" d="M 659.5,658.5 C 659.833,658.5 660.167,658.5 660.5,658.5C 658.652,666.902 656.486,675.235 654,683.5C 644.266,710.36 627.433,731.36 603.5,746.5C 611.103,740.07 618.603,733.403 626,726.5C 643.345,706.812 654.511,684.145 659.5,658.5 Z"/></g>
<g><path class="icon" style="opacity:1" fill="currentColor" d="M 431.5,706.5 C 436.548,714.601 441.048,722.934 445,731.5C 438.915,723.995 434.415,715.661 431.5,706.5 Z"/></g>
<g><path class="icon" style="opacity:1" fill="currentColor" d="M 871.5,719.5 C 869.741,725.369 866.741,730.369 862.5,734.5C 864.315,728.708 867.315,723.708 871.5,719.5 Z"/></g>
<g><path class="icon" style="opacity:1" fill="currentColor" d="M 860.5,736.5 C 859.246,739.75 857.246,742.417 854.5,744.5C 855.551,741.039 857.551,738.373 860.5,736.5 Z"/></g>
<g><path class="icon" style="opacity:1" fill="currentColor" d="M 322.5,741.5 C 327.178,746.207 330.845,751.54 333.5,757.5C 328.282,753.274 324.616,747.941 322.5,741.5 Z"/></g>
<g><path class="icon" style="opacity:1" fill="currentColor" d="M 603.5,746.5 C 598.665,751.09 592.998,754.423 586.5,756.5C 586.953,755.542 587.619,754.708 588.5,754C 593.553,751.473 598.553,748.973 603.5,746.5 Z"/></g>
<g><path class="icon" style="opacity:1" fill="currentColor" d="M 333.5,757.5 C 335.984,759.8 337.984,762.467 339.5,765.5C 335.562,764.235 333.562,761.568 333.5,757.5 Z"/></g>
<g><path class="icon" style="opacity:1" fill="currentColor" d="M 468.5,752.5 C 482.693,759.636 497.693,764.469 513.5,767C 538.609,768.986 562.943,765.486 586.5,756.5C 578.934,760.527 570.934,763.694 562.5,766C 530.019,773.891 499.019,770.057 469.5,754.5C 468.702,754.957 468.369,755.624 468.5,756.5C 467.314,755.295 467.314,753.961 468.5,752.5 Z"/></g>
<g><path class="icon" style="opacity:1" fill="currentColor" d="M 854.5,744.5 C 853.648,747.223 852.481,749.89 851,752.5C 844.333,761.167 837.667,769.833 831,778.5C 828.297,781.371 825.464,784.038 822.5,786.5C 833.654,772.851 844.321,758.851 854.5,744.5 Z"/></g>
<g><path class="icon" style="opacity:1" fill="currentColor" d="M 341.5,768.5 C 344.243,770.239 346.243,772.573 347.5,775.5C 344.757,773.761 342.757,771.427 341.5,768.5 Z"/></g>
<g><path class="icon" style="opacity:1" fill="currentColor" d="M 347.5,775.5 C 350.573,777.569 352.906,780.236 354.5,783.5C 351.427,781.431 349.094,778.764 347.5,775.5 Z"/></g>
<g><path class="icon" style="opacity:1" fill="currentColor" d="M 598.5,776.5 C 596.383,778.655 593.716,779.655 590.5,779.5C 592.936,778.129 595.603,777.129 598.5,776.5 Z"/></g>
<g><path class="icon" style="opacity:1" fill="currentColor" d="M 524.5,782.5 C 527.152,782.41 529.485,783.076 531.5,784.5C 528.848,784.59 526.515,783.924 524.5,782.5 Z"/></g>
<g><path class="icon" style="opacity:1" fill="currentColor" d="M 354.5,783.5 C 360.833,789.167 366.833,795.167 372.5,801.5C 365.5,796.5 359.5,790.5 354.5,783.5 Z"/></g>
<g><path class="icon" style="opacity:1" fill="currentColor" d="M 820.5,788.5 C 816.167,794.833 810.833,800.167 804.5,804.5C 809.25,799.574 813.917,794.408 818.5,789C 819.094,788.536 819.761,788.369 820.5,788.5 Z"/></g>
<g><path class="icon" style="opacity:1" fill="currentColor" d="M 375.5,803.5 C 380.44,806.77 384.773,810.77 388.5,815.5C 383.56,812.23 379.227,808.23 375.5,803.5 Z"/></g>
<g><path class="icon" style="opacity:1" fill="currentColor" d="M 803.5,805.5 C 793.929,815.28 783.263,823.613 771.5,830.5C 782.158,822.169 792.825,813.836 803.5,805.5 Z"/></g>
<g><path class="icon" style="opacity:1" fill="currentColor" d="M 388.5,815.5 C 390.749,816.08 392.415,817.413 393.5,819.5C 391.251,818.92 389.585,817.587 388.5,815.5 Z"/></g>
<g><path class="icon" style="opacity:1" fill="currentColor" d="M 397.5,822.5 C 399.749,823.08 401.415,824.413 402.5,826.5C 400.251,825.92 398.585,824.587 397.5,822.5 Z"/></g>
<g><path class="icon" style="opacity:1" fill="currentColor" d="M 408.5,830.5 C 414.57,833.193 419.903,836.86 424.5,841.5C 418.115,839.312 412.782,835.645 408.5,830.5 Z"/></g>
<g><path class="icon" style="opacity:1" fill="currentColor" d="M 771.5,830.5 C 769.47,833.182 766.803,834.849 763.5,835.5C 765.822,833.336 768.489,831.669 771.5,830.5 Z"/></g>
<g><path class="icon" style="opacity:1" fill="currentColor" d="M 763.5,835.5 C 762.198,837.822 760.198,839.155 757.5,839.5C 759.147,837.674 761.147,836.34 763.5,835.5 Z"/></g>
<g><path class="icon" style="opacity:1" fill="currentColor" d="M 424.5,841.5 C 426.989,841.241 428.656,842.241 429.5,844.5C 427.566,843.89 425.899,842.89 424.5,841.5 Z"/></g>
<g><path class="icon" style="opacity:1" fill="currentColor" d="M 754.5,841.5 C 754.167,842.167 753.833,842.833 753.5,843.5C 750.167,844.833 746.833,846.167 743.5,847.5C 746.678,844.742 750.345,842.742 754.5,841.5 Z"/></g>
<g><path class="icon" style="opacity:1" fill="currentColor" d="M 753.5,843.5 C 750.004,847.086 745.671,849.42 740.5,850.5C 741.306,849.272 742.306,848.272 743.5,847.5C 746.833,846.167 750.167,844.833 753.5,843.5 Z"/></g>
<g><path class="icon" style="opacity:1" fill="currentColor" d="M 440.5,850.5 C 443.721,850.896 446.388,852.229 448.5,854.5C 444.981,854.741 442.315,853.407 440.5,850.5 Z"/></g>
<g><path class="icon" style="opacity:1" fill="currentColor" d="M 740.5,850.5 C 740.631,851.376 740.298,852.043 739.5,852.5C 736.812,853.513 734.146,854.513 731.5,855.5C 732.827,853.818 734.494,852.485 736.5,851.5C 737.833,851.167 739.167,850.833 740.5,850.5 Z"/></g>
<g><path class="icon" style="opacity:1" fill="currentColor" d="M 448.5,854.5 C 452.431,855.132 455.765,856.799 458.5,859.5C 454.569,858.868 451.235,857.201 448.5,854.5 Z"/></g>
<g><path class="icon" style="opacity:1" fill="currentColor" d="M 736.5,851.5 C 734.494,852.485 732.827,853.818 731.5,855.5C 729.5,856.167 727.5,856.833 725.5,857.5C 725.414,856.504 725.748,855.671 726.5,855C 729.572,853.142 732.905,851.976 736.5,851.5 Z"/></g>
<g><path class="icon" style="opacity:1" fill="currentColor" d="M 723.5,858.5 C 721.544,859.492 719.544,860.492 717.5,861.5C 718.687,859.025 720.687,858.025 723.5,858.5 Z"/></g>
<g><path class="icon" style="opacity:1" fill="currentColor" d="M 463.5,861.5 C 465.544,862.508 467.544,863.508 469.5,864.5C 466.687,864.975 464.687,863.975 463.5,861.5 Z"/></g>
<g><path class="icon" style="opacity:1" fill="currentColor" d="M 458.5,859.5 C 464.509,859.932 470.176,861.432 475.5,864C 478.239,865.026 480.572,866.526 482.5,868.5C 480.167,867.833 477.833,867.167 475.5,866.5C 473.102,866.741 471.102,866.074 469.5,864.5C 467.544,863.508 465.544,862.508 463.5,861.5C 461.302,861.88 459.635,861.213 458.5,859.5 Z"/></g>
<g><path class="icon" style="opacity:1" fill="currentColor" d="M 717.5,861.5 C 712.915,863.695 708.249,865.695 703.5,867.5C 699.607,869.02 695.607,870.353 691.5,871.5C 693.674,869.919 696.007,868.419 698.5,867C 704.839,865.052 711.173,863.219 717.5,861.5 Z"/></g>
<g><path class="icon" style="opacity:1" fill="currentColor" d="M 475.5,866.5 C 477.833,867.167 480.167,867.833 482.5,868.5C 496.861,872.341 511.195,876.341 525.5,880.5C 526.833,881.167 528.167,881.833 529.5,882.5C 514.905,880.068 500.572,876.568 486.5,872C 482.598,870.435 478.931,868.602 475.5,866.5 Z"/></g>
<g><path class="icon" style="opacity:1" fill="currentColor" d="M 703.5,867.5 C 703.53,868.497 703.03,869.164 702,869.5C 692.73,873.025 683.23,875.692 673.5,877.5C 678.598,875.786 683.598,873.786 688.5,871.5C 689.5,871.5 690.5,871.5 691.5,871.5C 695.607,870.353 699.607,869.02 703.5,867.5 Z"/></g>
<g><path class="icon" style="opacity:1" fill="currentColor" d="M 688.5,871.5 C 683.598,873.786 678.598,875.786 673.5,877.5C 672.833,877.5 672.167,877.5 671.5,877.5C 670.167,877.5 668.833,877.5 667.5,877.5C 674.349,875.037 681.349,873.037 688.5,871.5 Z"/></g>
<g><path class="icon" style="opacity:1" fill="currentColor" d="M 525.5,880.5 C 533.42,881.072 541.086,882.405 548.5,884.5C 542.767,884.353 537.1,883.686 531.5,882.5C 530.833,882.5 530.167,882.5 529.5,882.5C 528.167,881.833 526.833,881.167 525.5,880.5 Z"/></g>
<g><path class="icon" style="opacity:1" fill="currentColor" d="M 531.5,882.5 C 537.1,883.686 542.767,884.353 548.5,884.5C 552.4,885.43 556.4,885.763 560.5,885.5C 562.531,885.972 564.198,886.972 565.5,888.5C 555.312,888.875 545.312,887.708 535.5,885C 534.142,884.066 532.808,883.232 531.5,882.5 Z"/></g>
<g><path class="icon" style="opacity:1" fill="currentColor" d="M 637.5,884.5 C 633.028,885.644 628.362,886.477 623.5,887C 622.944,887.383 622.611,887.883 622.5,888.5C 619.833,888.5 617.167,888.5 614.5,888.5C 616.629,887.797 618.629,886.797 620.5,885.5C 626.172,885.24 631.839,884.907 637.5,884.5 Z"/></g>
<g><path class="icon" style="opacity:1" fill="currentColor" d="M 560.5,885.5 C 569.316,887.051 578.316,887.718 587.5,887.5C 598.668,887.617 609.668,886.95 620.5,885.5C 618.629,886.797 616.629,887.797 614.5,888.5C 598.167,888.5 581.833,888.5 565.5,888.5C 564.198,886.972 562.531,885.972 560.5,885.5 Z"/></g>
<g><path class="icon" style="opacity:1" fill="currentColor" d="M 667.5,877.5 C 668.833,877.5 670.167,877.5 671.5,877.5C 663.291,879.91 654.958,882.41 646.5,885C 638.391,886.178 630.391,887.345 622.5,888.5C 622.611,887.883 622.944,887.383 623.5,887C 628.362,886.477 633.028,885.644 637.5,884.5C 646.688,882.576 656.021,880.743 665.5,879C 666.416,878.722 667.082,878.222 667.5,877.5 Z"/></g>
<g><path class="icon" style="opacity:1" fill="currentColor" d="M 661.5,942.5 C 668.769,941.945 673.935,944.945 677,951.5C 677.635,953.635 677.301,955.635 676,957.5C 671.351,961.314 666.851,965.314 662.5,969.5C 678.604,977.362 685.604,990.362 683.5,1008.5C 688.07,1008.24 690.07,1010.4 689.5,1015C 689.612,1020.62 687.112,1024.46 682,1026.5C 677.068,1024.19 671.901,1022.69 666.5,1022C 651.45,1021.49 636.45,1021.82 621.5,1023C 616.257,1018.26 616.257,1013.59 621.5,1009C 636.439,1007.09 651.439,1006.25 666.5,1006.5C 667.799,989.631 660.132,982.131 643.5,984C 639.377,987.072 635.877,986.239 633,981.5C 631.578,978.97 631.245,976.303 632,973.5C 643.19,964.451 653.023,954.117 661.5,942.5 Z"/></g>
<g><path class="icon" style="opacity:1" fill="currentColor" d="M 928.5,975.5 C 930.888,978.301 932.388,981.634 933,985.5C 934.669,995.823 933.002,1005.49 928,1014.5C 920.288,1022.85 910.788,1026.02 899.5,1024C 896.565,1022.29 893.732,1020.45 891,1018.5C 887.38,1020.73 883.547,1022.56 879.5,1024C 865.272,1024.26 851.105,1023.43 837,1021.5C 828.102,1021.18 819.602,1022.85 811.5,1026.5C 805.153,1024 802.653,1019.33 804,1012.5C 804.465,1011.07 805.299,1009.9 806.5,1009C 810.029,1007.53 813.695,1006.53 817.5,1006C 828.179,1005.43 838.845,1005.59 849.5,1006.5C 850.951,998.578 848.951,991.745 843.5,986C 840.448,983.971 837.114,982.804 833.5,982.5C 829.109,983.475 824.776,984.308 820.5,985C 816.073,982.315 814.24,978.482 815,973.5C 826.686,964.647 836.853,954.314 845.5,942.5C 849.659,940.973 853.326,941.806 856.5,945C 860.422,948.607 861.255,952.774 859,957.5C 854.695,961.394 850.529,965.394 846.5,969.5C 862.388,977.607 869.055,990.607 866.5,1008.5C 870.182,1008.67 873.848,1008.5 877.5,1008C 881.689,1005.79 883.356,1002.29 882.5,997.5C 881.597,991.995 880.43,986.662 879,981.5C 883.086,975.882 888.586,974.049 895.5,976C 897.235,978.192 898.402,980.692 899,983.5C 899.333,990.833 899.667,998.167 900,1005.5C 904.031,1008.98 908.531,1009.48 913.5,1007C 917.807,998.871 917.141,991.038 911.5,983.5C 915.177,976.83 920.844,974.163 928.5,975.5 Z"/></g>
<g><path class="icon" style="opacity:1" fill="currentColor" d="M 282.5,956.5 C 294.834,956.014 298.167,961.18 292.5,972C 282.561,975.383 277.727,971.883 278,961.5C 279.366,959.638 280.866,957.972 282.5,956.5 Z"/></g>
<g><path class="icon" style="opacity:1" fill="currentColor" d="M 339.5,978.5 C 345.69,978.177 351.69,978.51 357.5,979.5C 351.005,986.163 344.671,992.996 338.5,1000C 345.5,1010.33 352.5,1020.67 359.5,1031C 353.5,1031.67 347.5,1031.67 341.5,1031C 337.123,1024.41 332.623,1017.91 328,1011.5C 326.667,1012.83 325.333,1014.17 324,1015.5C 323.501,1020.82 323.334,1026.16 323.5,1031.5C 318.5,1031.5 313.5,1031.5 308.5,1031.5C 308.5,1006.83 308.5,982.167 308.5,957.5C 313.5,957.5 318.5,957.5 323.5,957.5C 323.333,969.838 323.5,982.171 324,994.5C 329.397,989.271 334.564,983.938 339.5,978.5 Z"/></g>
<g><path class="icon" style="opacity:1" fill="currentColor" d="M 517.5,957.5 C 517.333,970.171 517.5,982.838 518,995.5C 518.717,994.956 519.217,994.289 519.5,993.5C 524.167,988.5 528.833,983.5 533.5,978.5C 539.69,978.177 545.69,978.51 551.5,979.5C 545.695,986.473 539.695,993.307 533.5,1000C 539.757,1010.59 546.424,1020.93 553.5,1031C 547.5,1031.67 541.5,1031.67 535.5,1031C 531.329,1024.67 526.995,1018.5 522.5,1012.5C 521.167,1013.5 519.833,1014.5 518.5,1015.5C 517.505,1020.79 517.172,1026.13 517.5,1031.5C 512.5,1031.5 507.5,1031.5 502.5,1031.5C 502.5,1006.83 502.5,982.167 502.5,957.5C 507.5,957.5 512.5,957.5 517.5,957.5 Z"/></g>
<g><path class="icon" style="opacity:1" fill="currentColor" d="M 517.5,957.5 C 518.167,969.5 518.833,981.5 519.5,993.5C 519.217,994.289 518.717,994.956 518,995.5C 517.5,982.838 517.333,970.171 517.5,957.5 Z"/></g>
<g><path class="icon" style="opacity:1" fill="currentColor" d="M 928.5,975.5 C 925.603,974.442 923.436,972.442 922,969.5C 916.667,977.5 911.333,977.5 906,969.5C 905.873,960.624 910.039,957.457 918.5,960C 919.667,961.167 920.833,962.333 922,963.5C 927.841,956.606 933.175,956.939 938,964.5C 938.632,971.372 935.465,975.039 928.5,975.5 Z"/></g>
<g><path class="icon" style="opacity:1" fill="currentColor" d="M 253.5,1014.5 C 256.382,1020.41 260.382,1021.07 265.5,1016.5C 267.698,1019.53 269.698,1022.7 271.5,1026C 263.239,1033.36 254.239,1034.36 244.5,1029C 240.951,1025.96 238.951,1022.12 238.5,1017.5C 238.5,1007.83 238.5,998.167 238.5,988.5C 236.167,988.5 233.833,988.5 231.5,988.5C 231.5,985.167 231.5,981.833 231.5,978.5C 233.833,978.5 236.167,978.5 238.5,978.5C 238.5,973.167 238.5,967.833 238.5,962.5C 243.167,962.5 247.833,962.5 252.5,962.5C 252.5,967.833 252.5,973.167 252.5,978.5C 256.833,978.5 261.167,978.5 265.5,978.5C 265.5,981.833 265.5,985.167 265.5,988.5C 261.167,988.5 256.833,988.5 252.5,988.5C 252.174,997.349 252.507,1006.02 253.5,1014.5 Z"/></g>
<g><path class="icon" style="opacity:1" fill="currentColor" d="M 397.5,962.5 C 402.167,962.5 406.833,962.5 411.5,962.5C 411.5,967.833 411.5,973.167 411.5,978.5C 415.833,978.5 420.167,978.5 424.5,978.5C 424.5,981.833 424.5,985.167 424.5,988.5C 420.167,988.5 415.833,988.5 411.5,988.5C 411.174,997.349 411.507,1006.02 412.5,1014.5C 413.212,1017.38 415.046,1019.04 418,1019.5C 420.679,1018.72 423.179,1017.89 425.5,1017C 427.167,1020 428.833,1023 430.5,1026C 422.268,1033.39 413.268,1034.39 403.5,1029C 399.49,1025.8 397.49,1021.64 397.5,1016.5C 397.5,1007.17 397.5,997.833 397.5,988.5C 395.5,988.5 393.5,988.5 391.5,988.5C 391.5,985.167 391.5,981.833 391.5,978.5C 393.5,978.5 395.5,978.5 397.5,978.5C 397.5,973.167 397.5,967.833 397.5,962.5 Z"/></g>
<g><path class="icon" style="opacity:1" fill="currentColor" d="M 748.5,958.5 C 753.55,958.274 757.383,960.274 760,964.5C 764.442,956.846 769.442,956.513 775,963.5C 776.757,970.825 773.924,974.992 766.5,976C 767.701,976.903 768.535,978.069 769,979.5C 771.469,990.726 770.802,1001.73 767,1012.5C 761.482,1020.84 753.649,1024.84 743.5,1024.5C 739.772,1024.7 736.439,1023.7 733.5,1021.5C 725.797,1035.85 713.797,1042.69 697.5,1042C 693.212,1036.36 693.545,1031.03 698.5,1026C 702.5,1025.67 706.5,1025.33 710.5,1025C 712.623,1024.19 714.623,1023.19 716.5,1022C 696.79,1016.08 690.29,1003.58 697,984.5C 703.925,974.861 713.091,972.027 724.5,976C 734.879,982.071 739.379,991.237 738,1003.5C 738.601,1007.27 740.768,1008.94 744.5,1008.5C 751.071,1008.1 754.405,1004.6 754.5,998C 753.376,992.295 751.876,986.795 750,981.5C 753.793,976.28 758.96,974.113 765.5,975C 763.051,974.045 761.051,972.545 759.5,970.5C 756.071,975.68 751.738,976.68 746.5,973.5C 742.07,967.755 742.737,962.755 748.5,958.5 Z"/></g>
<g><path class="icon" style="opacity:1" fill="currentColor" d="M 339.5,978.5 C 345.678,977.183 352.012,977.183 358.5,978.5C 358.376,979.107 358.043,979.44 357.5,979.5C 351.69,978.51 345.69,978.177 339.5,978.5 Z"/></g>
<g><path class="icon" style="opacity:1" fill="currentColor" d="M 454.5,977.5 C 483.495,975.985 494.995,989.318 489,1017.5C 478.135,1033.47 463.968,1036.97 446.5,1028C 434.715,1018.57 431.549,1006.73 437,992.5C 440.889,985.103 446.722,980.103 454.5,977.5 Z"/></g>
<g><path class="icon" style="opacity:1" fill="currentColor" d="M 533.5,978.5 C 539.987,977.346 546.654,977.179 553.5,978C 552.956,978.717 552.289,979.217 551.5,979.5C 545.69,978.51 539.69,978.177 533.5,978.5 Z"/></g>
<g><path class="icon" style="opacity:1" fill="currentColor" d="M 253.5,1014.5 C 252.507,1006.02 252.174,997.349 252.5,988.5C 256.833,988.5 261.167,988.5 265.5,988.5C 265.5,985.167 265.5,981.833 265.5,978.5C 261.167,978.5 256.833,978.5 252.5,978.5C 252.5,973.167 252.5,967.833 252.5,962.5C 247.833,962.5 243.167,962.5 238.5,962.5C 238.5,967.833 238.5,973.167 238.5,978.5C 236.167,978.5 233.833,978.5 231.5,978.5C 233.265,977.539 235.265,977.205 237.5,977.5C 237.5,972.167 237.5,966.833 237.5,961.5C 242.833,961.5 248.167,961.5 253.5,961.5C 253.5,966.833 253.5,972.167 253.5,977.5C 257.833,977.5 262.167,977.5 266.5,977.5C 266.5,981.5 266.5,985.5 266.5,989.5C 262.167,989.5 257.833,989.5 253.5,989.5C 253.5,997.833 253.5,1006.17 253.5,1014.5 Z"/></g>
<g><path class="icon" style="opacity:1" fill="currentColor" d="M 279.5,978.5 C 284.167,978.5 288.833,978.5 293.5,978.5C 293.5,996.167 293.5,1013.83 293.5,1031.5C 288.833,1031.5 284.167,1031.5 279.5,1031.5C 279.5,1013.83 279.5,996.167 279.5,978.5 Z"/></g>
<g><path class="icon" style="opacity:1" fill="currentColor" d="M 279.5,978.5 C 284.305,977.513 289.305,977.179 294.5,977.5C 294.5,995.833 294.5,1014.17 294.5,1032.5C 289.305,1032.82 284.305,1032.49 279.5,1031.5C 284.167,1031.5 288.833,1031.5 293.5,1031.5C 293.5,1013.83 293.5,996.167 293.5,978.5C 288.833,978.5 284.167,978.5 279.5,978.5 Z"/></g>
<g><path class="icon" style="opacity:1" fill="currentColor" d="M 397.5,962.5 C 397.5,962.167 397.5,961.833 397.5,961.5C 402.5,961.5 407.5,961.5 412.5,961.5C 412.5,966.833 412.5,972.167 412.5,977.5C 416.833,977.5 421.167,977.5 425.5,977.5C 425.5,981.5 425.5,985.5 425.5,989.5C 421.167,989.5 416.833,989.5 412.5,989.5C 412.5,997.833 412.5,1006.17 412.5,1014.5C 411.507,1006.02 411.174,997.349 411.5,988.5C 415.833,988.5 420.167,988.5 424.5,988.5C 424.5,985.167 424.5,981.833 424.5,978.5C 420.167,978.5 415.833,978.5 411.5,978.5C 411.5,973.167 411.5,967.833 411.5,962.5C 406.833,962.5 402.167,962.5 397.5,962.5 Z"/></g>
<g><path class="icon" style="opacity:1" fill="currentColor" d="M 231.5,988.5 C 233.833,988.5 236.167,988.5 238.5,988.5C 238.5,998.167 238.5,1007.83 238.5,1017.5C 237.506,1008.35 237.173,999.015 237.5,989.5C 235.265,989.795 233.265,989.461 231.5,988.5 Z"/></g>
<g><path class="icon" style="opacity:1" fill="currentColor" d="M 397.5,961.5 C 397.5,961.833 397.5,962.167 397.5,962.5C 397.5,967.833 397.5,973.167 397.5,978.5C 395.5,978.5 393.5,978.5 391.5,978.5C 391.5,981.833 391.5,985.167 391.5,988.5C 393.5,988.5 395.5,988.5 397.5,988.5C 397.5,997.833 397.5,1007.17 397.5,1016.5C 396.507,1007.68 396.173,998.682 396.5,989.5C 394.5,989.5 392.5,989.5 390.5,989.5C 390.5,985.5 390.5,981.5 390.5,977.5C 392.5,977.5 394.5,977.5 396.5,977.5C 396.179,971.974 396.512,966.64 397.5,961.5 Z"/></g>
<g><path class="icon-back" style="opacity:1" fill="#fafcfc" d="M 457.5,990.5 C 471.578,989.078 477.745,995.412 476,1009.5C 472.34,1018.75 465.84,1021.58 456.5,1018C 449.559,1012.61 447.726,1005.78 451,997.5C 452.694,994.642 454.861,992.309 457.5,990.5 Z"/></g>
<g><path class="icon-back" style="opacity:1" fill="#f7f9fa" d="M 712.5,990.5 C 718.302,989.006 722.136,991.006 724,996.5C 724.825,1000.21 724.659,1003.88 723.5,1007.5C 716.64,1005.97 711.973,1001.97 709.5,995.5C 710.092,993.577 711.092,991.911 712.5,990.5 Z"/></g>
<g><path class="icon" style="opacity:1" fill="currentColor" d="M 561.5,995.5 C 573.5,995.5 585.5,995.5 597.5,995.5C 597.5,999.833 597.5,1004.17 597.5,1008.5C 585.5,1008.5 573.5,1008.5 561.5,1008.5C 561.5,1004.17 561.5,999.833 561.5,995.5 Z"/></g>
<g><path class="icon" style="opacity:1" fill="currentColor" d="M 876.5,1026.5 C 881.635,1025.43 885.468,1027.09 888,1031.5C 893.43,1024.85 898.764,1024.85 904,1031.5C 904.983,1040.18 901.15,1043.68 892.5,1042C 890.667,1040.83 889.167,1039.33 888,1037.5C 885.459,1042.07 881.625,1043.57 876.5,1042C 869.876,1036.88 869.876,1031.72 876.5,1026.5 Z"/></g>
</svg>
