<svg version="1.0" xmlns="http://www.w3.org/2000/svg" viewBox="0 0 1181.000000 1181.000000"
 preserveAspectRatio="xMidYMid meet"><g><path style="opacity:0.998" fill="currentColor" d="M 100.5,12.5 C 427.834,12.3333 755.167,12.5 1082.5,13C 1130.33,22.1667 1158.83,50.6667 1168,98.5C 1168.67,425.833 1168.67,753.167 1168,1080.5C 1158.83,1128.33 1130.33,1156.83 1082.5,1166C 755.167,1166.67 427.833,1166.67 100.5,1166C 52.6667,1156.83 24.1667,1128.33 15,1080.5C 14.3333,753.167 14.3333,425.833 15,98.5C 24.3464,50.6539 52.8464,21.9873 100.5,12.5 Z"/></g>
<g><path class="icon-back" style="opacity:1" fill="#fefefe" d="M 137.5,65.5 C 439.834,65.3333 742.167,65.5 1044.5,66C 1084.25,72.7465 1107.75,95.9131 1115,135.5C 1115.67,437.833 1115.67,740.167 1115,1042.5C 1108.17,1082.67 1084.67,1106.17 1044.5,1113C 742.167,1113.67 439.833,1113.67 137.5,1113C 96.9929,1105.49 73.8262,1081.33 68,1040.5C 67.3333,738.833 67.3333,437.167 68,135.5C 75.3462,96.3208 98.5129,72.9875 137.5,65.5 Z"/></g>
<g><path class="icon" style="opacity:1" fill="currentColor" d="M 595.5,262.5 C 584.167,262.5 572.833,262.5 561.5,262.5C 561.611,261.883 561.944,261.383 562.5,261C 573.167,260.333 583.833,260.333 594.5,261C 595.056,261.383 595.389,261.883 595.5,262.5 Z"/></g>
<g><path class="icon" style="opacity:1" fill="currentColor" d="M 561.5,262.5 C 572.833,262.5 584.167,262.5 595.5,262.5C 598.713,262.19 601.713,262.523 604.5,263.5C 586.83,263.333 569.164,263.5 551.5,264C 542.038,264.966 532.705,266.466 523.5,268.5C 526.927,266.433 530.594,265.1 534.5,264.5C 543.418,262.897 552.418,262.23 561.5,262.5 Z"/></g>
<g><path class="icon" style="opacity:1" fill="currentColor" d="M 604.5,263.5 C 610.764,266.121 617.431,267.121 624.5,266.5C 631.59,267.514 638.59,268.848 645.5,270.5C 648.969,270.547 652.302,271.213 655.5,272.5C 664.336,275.401 673.336,278.067 682.5,280.5C 687.931,285.2 694.264,287.866 701.5,288.5C 705.787,289.977 709.787,291.977 713.5,294.5C 715.033,296.245 717.033,297.245 719.5,297.5C 727.141,302.127 734.808,306.794 742.5,311.5C 744.662,313.897 747.329,315.564 750.5,316.5C 750.973,317.906 751.973,318.573 753.5,318.5C 756.271,320.767 758.938,323.267 761.5,326C 764.646,327.657 767.646,329.491 770.5,331.5C 771.833,333.5 773.5,335.167 775.5,336.5C 784.398,346.065 793.731,355.398 803.5,364.5C 804.419,367.089 806.086,369.089 808.5,370.5C 809.906,370.973 810.573,371.973 810.5,373.5C 811.419,376.089 813.086,378.089 815.5,379.5C 818.203,383.193 820.869,386.86 823.5,390.5C 823.213,394.215 824.88,396.548 828.5,397.5C 832.753,407.284 837.753,416.618 843.5,425.5C 846.167,430.167 848.833,434.833 851.5,439.5C 852.06,441.801 852.56,444.134 853,446.5C 854.65,449.989 856.483,453.322 858.5,456.5C 860.013,461.048 861.346,465.715 862.5,470.5C 864.838,478.671 866.671,487.004 868,495.5C 868.934,496.858 869.768,498.192 870.5,499.5C 870.572,503.626 871.239,507.626 872.5,511.5C 875.224,535.4 876.224,559.4 875.5,583.5C 875.5,588.167 875.5,592.833 875.5,597.5C 871.928,613.17 868.428,629.17 865,645.5C 861.989,651.864 859.822,658.531 858.5,665.5C 858.167,666.833 857.833,668.167 857.5,669.5C 855.103,672.309 853.77,675.642 853.5,679.5C 850.192,682.45 848.192,686.116 847.5,690.5C 847.167,691.833 846.833,693.167 846.5,694.5C 845.5,694.833 844.833,695.5 844.5,696.5C 839.121,704.241 834.454,712.574 830.5,721.5C 830.5,721.833 830.5,722.167 830.5,722.5C 828.003,723.129 826.67,724.796 826.5,727.5C 819.174,737.161 811.84,746.828 804.5,756.5C 797.112,764.391 789.445,772.224 781.5,780C 774.299,785.377 767.632,791.211 761.5,797.5C 760.564,798.974 759.23,799.974 757.5,800.5C 752.909,803.085 748.576,806.085 744.5,809.5C 737.675,813.414 730.675,817.08 723.5,820.5C 721.214,821.819 719.214,823.485 717.5,825.5C 712.864,827.268 708.531,829.601 704.5,832.5C 699.316,834.255 694.316,836.255 689.5,838.5C 686.017,839.752 682.351,840.586 678.5,841C 675.197,842.059 672.197,843.559 669.5,845.5C 665.686,846.884 661.686,848.05 657.5,849C 656.944,849.383 656.611,849.883 656.5,850.5C 648.554,851.986 640.554,853.152 632.5,854C 631.956,854.717 631.289,855.217 630.5,855.5C 624.824,855.334 619.157,855.501 613.5,856C 611.563,856.122 610.23,856.955 609.5,858.5C 604.848,858.998 600.181,859.331 595.5,859.5C 568.835,860.356 542.502,858.356 516.5,853.5C 515.192,852.768 513.858,851.934 512.5,851C 498.609,847.4 484.609,843.9 470.5,840.5C 466.965,837.506 462.965,835.006 458.5,833C 456.527,832.505 454.527,832.338 452.5,832.5C 450.898,830.926 448.898,830.259 446.5,830.5C 443.142,827.151 439.142,824.818 434.5,823.5C 434.167,823.5 433.833,823.5 433.5,823.5C 428.788,820.09 424.121,816.59 419.5,813C 418.207,812.51 416.873,812.343 415.5,812.5C 413.874,809.378 411.208,807.712 407.5,807.5C 406.415,805.413 404.749,804.08 402.5,803.5C 401.415,801.413 399.749,800.08 397.5,799.5C 395.596,799.262 394.262,798.262 393.5,796.5C 392.089,794.086 390.089,792.419 387.5,791.5C 386.089,789.086 384.089,787.419 381.5,786.5C 378.769,782.766 375.436,779.766 371.5,777.5C 367.5,774.167 363.833,770.5 360.5,766.5C 357.57,761.234 353.57,756.901 348.5,753.5C 347.581,750.911 345.914,748.911 343.5,747.5C 338.881,740.216 333.881,733.216 328.5,726.5C 328.759,724.011 327.759,722.344 325.5,721.5C 323.787,718.14 322.12,714.807 320.5,711.5C 318.472,708.102 316.972,704.436 316,700.5C 315.329,699.748 314.496,699.414 313.5,699.5C 312.974,697.77 311.974,696.436 310.5,695.5C 310.657,694.127 310.49,692.793 310,691.5C 305.353,683.874 301.52,675.874 298.5,667.5C 297.266,662.943 296.099,658.276 295,653.5C 294.617,652.944 294.117,652.611 293.5,652.5C 292.833,651.167 292.167,649.833 291.5,648.5C 289.786,637.914 287.452,627.581 284.5,617.5C 284.261,607.873 282.928,598.54 280.5,589.5C 280.5,570.5 280.5,551.5 280.5,532.5C 280.5,532.167 280.5,531.833 280.5,531.5C 282.508,524.776 283.508,517.776 283.5,510.5C 284.344,506.901 284.677,503.234 284.5,499.5C 285.871,497.064 286.871,494.397 287.5,491.5C 290.133,486.968 291.133,481.968 290.5,476.5C 292.143,473.686 293.643,470.686 295,467.5C 295.526,463.338 296.526,459.338 298,455.5C 298.383,454.944 298.883,454.611 299.5,454.5C 302.492,449.249 304.492,443.582 305.5,437.5C 308.272,435.168 309.939,432.168 310.5,428.5C 311.167,426.167 311.833,423.833 312.5,421.5C 313.833,420.833 314.833,419.833 315.5,418.5C 317.512,416.861 319.179,414.861 320.5,412.5C 324.258,406.741 327.591,400.741 330.5,394.5C 330.557,393.391 330.89,392.391 331.5,391.5C 336.469,384.857 341.469,378.19 346.5,371.5C 350.86,367.806 354.86,363.806 358.5,359.5C 364.833,353.833 370.833,347.833 376.5,341.5C 383.201,334.797 390.201,328.464 397.5,322.5C 401.238,320.303 404.571,317.636 407.5,314.5C 407.833,314.5 408.167,314.5 408.5,314.5C 409.766,313.91 411.099,313.41 412.5,313C 414.621,311.251 416.621,309.418 418.5,307.5C 422.509,306.41 425.842,304.41 428.5,301.5C 431.975,299.95 435.309,298.117 438.5,296C 439.793,295.51 441.127,295.343 442.5,295.5C 447.576,293.381 452.243,290.714 456.5,287.5C 458.558,286.067 460.892,285.4 463.5,285.5C 470.727,283.137 478.061,280.971 485.5,279C 488.673,276.634 492.006,274.801 495.5,273.5C 498.85,273.665 502.183,273.498 505.5,273C 509.441,272.046 513.107,270.546 516.5,268.5C 518.833,268.5 521.167,268.5 523.5,268.5C 532.705,266.466 542.038,264.966 551.5,264C 569.164,263.5 586.83,263.333 604.5,263.5 Z"/></g>
<g><path class="icon" style="opacity:1" fill="currentColor" d="M 604.5,263.5 C 611.22,263.732 617.887,264.398 624.5,265.5C 624.5,265.833 624.5,266.167 624.5,266.5C 617.431,267.121 610.764,266.121 604.5,263.5 Z"/></g>
<g><path class="icon" style="opacity:1" fill="currentColor" d="M 624.5,266.5 C 624.5,266.167 624.5,265.833 624.5,265.5C 628.534,265.505 632.534,265.838 636.5,266.5C 639.788,267.099 642.788,268.432 645.5,270.5C 638.59,268.848 631.59,267.514 624.5,266.5 Z"/></g>
<g><path class="icon" style="opacity:1" fill="currentColor" d="M 534.5,264.5 C 530.594,265.1 526.927,266.433 523.5,268.5C 521.167,268.5 518.833,268.5 516.5,268.5C 521.824,264.963 527.824,263.63 534.5,264.5 Z"/></g>
<g><path class="icon" style="opacity:1" fill="currentColor" d="M 512.5,268.5 C 506.991,270.782 501.324,272.448 495.5,273.5C 494.167,273.833 492.833,274.167 491.5,274.5C 491.47,273.503 491.97,272.836 493,272.5C 499.227,270.154 505.727,268.821 512.5,268.5 Z"/></g>
<g><path class="icon" style="opacity:1" fill="currentColor" d="M 636.5,266.5 C 642.827,267.661 649.16,268.828 655.5,270C 656.858,270.934 658.192,271.768 659.5,272.5C 658.167,272.5 656.833,272.5 655.5,272.5C 652.302,271.213 648.969,270.547 645.5,270.5C 642.788,268.432 639.788,267.099 636.5,266.5 Z"/></g>
<g><path class="icon" style="opacity:1" fill="currentColor" d="M 512.5,268.5 C 513.833,268.5 515.167,268.5 516.5,268.5C 513.107,270.546 509.441,272.046 505.5,273C 502.183,273.498 498.85,273.665 495.5,273.5C 501.324,272.448 506.991,270.782 512.5,268.5 Z"/></g>
<g><path class="icon" style="opacity:1" fill="currentColor" d="M 655.5,272.5 C 656.833,272.5 658.167,272.5 659.5,272.5C 667.545,274.402 675.212,277.069 682.5,280.5C 673.336,278.067 664.336,275.401 655.5,272.5 Z"/></g>
<g><path class="icon" style="opacity:1" fill="currentColor" d="M 495.5,273.5 C 492.006,274.801 488.673,276.634 485.5,279C 478.061,280.971 470.727,283.137 463.5,285.5C 466.24,283.947 468.907,282.114 471.5,280C 478.234,278.354 484.9,276.521 491.5,274.5C 492.833,274.167 494.167,273.833 495.5,273.5 Z"/></g>
<g><path class="icon" style="opacity:1" fill="currentColor" d="M 682.5,280.5 C 687.129,281.993 691.796,283.493 696.5,285C 698.183,286.286 699.849,287.453 701.5,288.5C 694.264,287.866 687.931,285.2 682.5,280.5 Z"/></g>
<g><path class="icon" style="opacity:1" fill="currentColor" d="M 456.5,287.5 C 452.243,290.714 447.576,293.381 442.5,295.5C 442.833,294.833 443.167,294.167 443.5,293.5C 447.104,290.164 451.437,288.164 456.5,287.5 Z"/></g>
<g><path class="icon" style="opacity:1" fill="currentColor" d="M 443.5,293.5 C 443.167,294.167 442.833,294.833 442.5,295.5C 441.127,295.343 439.793,295.51 438.5,296C 435.309,298.117 431.975,299.95 428.5,301.5C 431.045,298.895 434.045,296.728 437.5,295C 439.518,294.495 441.518,293.995 443.5,293.5 Z"/></g>
<g><path class="icon" style="opacity:1" fill="currentColor" d="M 713.5,294.5 C 715.967,294.755 717.967,295.755 719.5,297.5C 717.033,297.245 715.033,296.245 713.5,294.5 Z"/></g>
<g><path class="icon" style="opacity:1" fill="currentColor" d="M 428.5,301.5 C 425.842,304.41 422.509,306.41 418.5,307.5C 418.953,306.542 419.619,305.708 420.5,305C 423.064,303.604 425.731,302.437 428.5,301.5 Z"/></g>
<g><path class="icon" style="opacity:1" fill="currentColor" d="M 719.5,297.5 C 724.874,299.692 730.207,302.192 735.5,305C 738.438,306.564 740.772,308.73 742.5,311.5C 734.808,306.794 727.141,302.127 719.5,297.5 Z"/></g>
<g><path class="icon" style="opacity:1" fill="currentColor" d="M 418.5,307.5 C 416.621,309.418 414.621,311.251 412.5,313C 411.099,313.41 409.766,313.91 408.5,314.5C 410.987,311.172 414.321,308.838 418.5,307.5 Z"/></g>
<g><path class="icon" style="opacity:1" fill="currentColor" d="M 742.5,311.5 C 745.671,312.436 748.338,314.103 750.5,316.5C 747.329,315.564 744.662,313.897 742.5,311.5 Z"/></g>
<g><path class="icon" style="opacity:1" fill="currentColor" d="M 407.5,314.5 C 404.571,317.636 401.238,320.303 397.5,322.5C 400.024,318.894 403.357,316.228 407.5,314.5 Z"/></g>
<g><path class="icon" style="opacity:1" fill="currentColor" d="M 397.5,322.5 C 390.201,328.464 383.201,334.797 376.5,341.5C 375.391,341.557 374.391,341.89 373.5,342.5C 377.966,337.238 382.966,332.405 388.5,328C 391.222,325.642 394.222,323.809 397.5,322.5 Z"/></g>
<g><path class="icon" style="opacity:1" fill="currentColor" d="M 753.5,318.5 C 760.541,320.854 766.207,325.188 770.5,331.5C 767.646,329.491 764.646,327.657 761.5,326C 758.938,323.267 756.271,320.767 753.5,318.5 Z"/></g>
<g><path class="icon" style="opacity:1" fill="currentColor" d="M 775.5,336.5 C 785.82,344.82 795.154,354.154 803.5,364.5C 793.731,355.398 784.398,346.065 775.5,336.5 Z"/></g>
<g><path class="icon" style="opacity:1" fill="currentColor" d="M 376.5,341.5 C 370.833,347.833 364.833,353.833 358.5,359.5C 362.103,354.558 366.103,349.892 370.5,345.5C 370.5,343.5 371.5,342.5 373.5,342.5C 374.391,341.89 375.391,341.557 376.5,341.5 Z"/></g>
<g><path class="icon" style="opacity:1" fill="currentColor" d="M 803.5,364.5 C 805.914,365.911 807.581,367.911 808.5,370.5C 806.086,369.089 804.419,367.089 803.5,364.5 Z"/></g>
<g><path class="icon" style="opacity:1" fill="currentColor" d="M 370.5,345.5 C 366.103,349.892 362.103,354.558 358.5,359.5C 354.86,363.806 350.86,367.806 346.5,371.5C 350.316,366.56 354.149,361.56 358,356.5C 361.761,352.23 365.928,348.563 370.5,345.5 Z"/></g>
<g><path class="icon" style="opacity:1" fill="currentColor" d="M 810.5,373.5 C 812.914,374.911 814.581,376.911 815.5,379.5C 813.086,378.089 811.419,376.089 810.5,373.5 Z"/></g>
<g><path class="icon" style="opacity:1" fill="currentColor" d="M 346.5,371.5 C 341.469,378.19 336.469,384.857 331.5,391.5C 335.024,383.654 340.024,376.987 346.5,371.5 Z"/></g>
<g><path class="icon" style="opacity:1" fill="currentColor" d="M 815.5,379.5 C 819.737,382.064 822.403,385.73 823.5,390.5C 820.869,386.86 818.203,383.193 815.5,379.5 Z"/></g>
<g><path class="icon" style="opacity:1" fill="currentColor" d="M 823.5,390.5 C 825.9,392.296 827.567,394.63 828.5,397.5C 824.88,396.548 823.213,394.215 823.5,390.5 Z"/></g>
<g><path class="icon" style="opacity:1" fill="currentColor" d="M 330.5,394.5 C 327.591,400.741 324.258,406.741 320.5,412.5C 319.179,414.861 317.512,416.861 315.5,418.5C 316.833,415.5 318.167,412.5 319.5,409.5C 322.929,405.715 325.596,401.382 327.5,396.5C 328.357,395.575 329.357,394.908 330.5,394.5 Z"/></g>
<g><path class="icon" style="opacity:1" fill="currentColor" d="M 828.5,397.5 C 830.897,399.662 832.564,402.329 833.5,405.5C 834.08,407.749 835.413,409.415 837.5,410.5C 838.684,413.861 840.517,416.861 843,419.5C 843.49,420.793 843.657,422.127 843.5,423.5C 843.5,424.167 843.5,424.833 843.5,425.5C 837.753,416.618 832.753,407.284 828.5,397.5 Z"/></g>
<g><path class="icon" style="opacity:1" fill="currentColor" d="M 833.5,405.5 C 835.587,406.585 836.92,408.251 837.5,410.5C 835.413,409.415 834.08,407.749 833.5,405.5 Z"/></g>
<g><path class="icon" style="opacity:1" fill="currentColor" d="M 319.5,409.5 C 318.167,412.5 316.833,415.5 315.5,418.5C 314.833,419.833 313.833,420.833 312.5,421.5C 314.043,416.976 316.377,412.976 319.5,409.5 Z"/></g>
<g><path class="icon-back" style="opacity:1" fill="#fefefe" d="M 731.5,530.5 C 729.946,534.567 729.28,538.9 729.5,543.5C 712.884,613.592 672.217,664.092 607.5,695C 550.569,716.269 493.902,715.602 437.5,693C 428.82,689.333 420.82,684.666 413.5,679C 450.96,681.206 484.96,671.373 515.5,649.5C 516.404,648.791 516.737,647.791 516.5,646.5C 513.214,645.793 509.881,645.46 506.5,645.5C 479.166,639.511 460.833,623.178 451.5,596.5C 460.965,598.229 470.298,597.729 479.5,595C 479.957,594.586 480.291,594.086 480.5,593.5C 452.288,585.766 434.288,567.766 426.5,539.5C 425.968,533.848 425.635,528.181 425.5,522.5C 425.735,521.903 426.235,521.57 427,521.5C 430.316,523.592 433.816,525.259 437.5,526.5C 439.905,527.768 442.572,528.435 445.5,528.5C 448.355,529.803 451.355,529.803 454.5,528.5C 431.049,508.552 421.882,483.219 427,452.5C 428.268,447.363 429.934,442.363 432,437.5C 432.691,434.409 434.524,433.243 437.5,434C 476.756,479.628 526.422,504.461 586.5,508.5C 582.199,479.469 590.533,454.969 611.5,435C 630.719,419.82 652.385,414.82 676.5,420C 691.415,423.288 704.082,430.455 714.5,441.5C 729.331,437.914 743.331,432.414 756.5,425C 757.793,424.51 759.127,424.343 760.5,424.5C 754.556,439.969 744.889,452.803 731.5,463C 736.518,462.835 741.518,462.168 746.5,461C 753.976,458.008 761.643,455.508 769.5,453.5C 760.321,468.183 748.488,480.516 734,490.5C 733.971,503.947 733.138,517.28 731.5,530.5 Z"/></g>
<g><path class="icon" style="opacity:1" fill="currentColor" d="M 843.5,423.5 C 848.437,427.611 851.103,432.944 851.5,439.5C 848.833,434.833 846.167,430.167 843.5,425.5C 843.5,424.833 843.5,424.167 843.5,423.5 Z"/></g>
<g><path class="icon" style="opacity:1" fill="currentColor" d="M 310.5,428.5 C 309.939,432.168 308.272,435.168 305.5,437.5C 305.94,433.748 307.607,430.748 310.5,428.5 Z"/></g>
<g><path class="icon" style="opacity:1" fill="currentColor" d="M 305.5,437.5 C 304.492,443.582 302.492,449.249 299.5,454.5C 299.5,453.833 299.5,453.167 299.5,452.5C 301.256,447.307 303.256,442.307 305.5,437.5 Z"/></g>
<g><path class="icon" style="opacity:1" fill="currentColor" d="M 851.5,439.5 C 855.677,444.246 858.01,449.913 858.5,456.5C 856.483,453.322 854.65,449.989 853,446.5C 852.56,444.134 852.06,441.801 851.5,439.5 Z"/></g>
<g><path class="icon" style="opacity:1" fill="currentColor" d="M 858.5,456.5 C 859.794,457.29 860.961,458.29 862,459.5C 863.894,463.568 864.727,467.902 864.5,472.5C 863.833,471.833 863.167,471.167 862.5,470.5C 861.346,465.715 860.013,461.048 858.5,456.5 Z"/></g>
<g><path class="icon" style="opacity:1" fill="currentColor" d="M 862.5,470.5 C 863.167,471.167 863.833,471.833 864.5,472.5C 865.742,477.878 867.076,483.211 868.5,488.5C 869.167,492.167 869.833,495.833 870.5,499.5C 869.768,498.192 868.934,496.858 868,495.5C 866.671,487.004 864.838,478.671 862.5,470.5 Z"/></g>
<g><path class="icon" style="opacity:1" fill="currentColor" d="M 299.5,452.5 C 299.5,453.167 299.5,453.833 299.5,454.5C 298.883,454.611 298.383,454.944 298,455.5C 296.526,459.338 295.526,463.338 295,467.5C 293.643,470.686 292.143,473.686 290.5,476.5C 289.588,481.397 288.588,486.397 287.5,491.5C 286.871,494.397 285.871,497.064 284.5,499.5C 285.836,491.486 287.336,483.486 289,475.5C 290.521,472.388 292.187,469.388 294,466.5C 293.95,460.956 295.784,456.289 299.5,452.5 Z"/></g>
<g><path class="icon" style="opacity:1" fill="currentColor" d="M 290.5,476.5 C 291.133,481.968 290.133,486.968 287.5,491.5C 288.588,486.397 289.588,481.397 290.5,476.5 Z"/></g>
<g><path class="icon" style="opacity:1" fill="currentColor" d="M 868.5,488.5 C 870.877,492.379 872.043,496.713 872,501.5C 872.667,502.167 873.333,502.833 874,503.5C 875.795,512.73 876.628,522.064 876.5,531.5C 875.296,524.811 873.962,518.144 872.5,511.5C 871.239,507.626 870.572,503.626 870.5,499.5C 869.833,495.833 869.167,492.167 868.5,488.5 Z"/></g>
<g><path class="icon" style="opacity:1" fill="currentColor" d="M 283.5,510.5 C 283.508,517.776 282.508,524.776 280.5,531.5C 280.503,526.473 280.836,521.473 281.5,516.5C 282.048,514.374 282.715,512.374 283.5,510.5 Z"/></g>
<g><path class="icon" style="opacity:1" fill="currentColor" d="M 437.5,526.5 C 440.495,526.294 443.162,526.96 445.5,528.5C 442.572,528.435 439.905,527.768 437.5,526.5 Z"/></g>
<g><path class="icon" style="opacity:1" fill="currentColor" d="M 281.5,516.5 C 280.836,521.473 280.503,526.473 280.5,531.5C 280.5,531.833 280.5,532.167 280.5,532.5C 280.152,540.057 279.152,547.39 277.5,554.5C 277.168,545.143 277.502,535.81 278.5,526.5C 279.293,522.984 280.293,519.65 281.5,516.5 Z"/></g>
<g><path class="icon" style="opacity:1" fill="currentColor" d="M 425.5,522.5 C 425.635,528.181 425.968,533.848 426.5,539.5C 424.981,536.474 424.315,533.141 424.5,529.5C 424.503,526.975 424.837,524.641 425.5,522.5 Z"/></g>
<g><path class="icon" style="opacity:1" fill="currentColor" d="M 731.5,530.5 C 731.844,535.122 731.177,539.455 729.5,543.5C 729.28,538.9 729.946,534.567 731.5,530.5 Z"/></g>
<g><path class="icon" style="opacity:1" fill="currentColor" d="M 872.5,511.5 C 873.962,518.144 875.296,524.811 876.5,531.5C 876.5,533.5 876.5,535.5 876.5,537.5C 876.83,553.009 876.496,568.342 875.5,583.5C 876.224,559.4 875.224,535.4 872.5,511.5 Z"/></g>
<g><path class="icon" style="opacity:1" fill="currentColor" d="M 876.5,537.5 C 877.117,537.611 877.617,537.944 878,538.5C 878.667,553.833 878.667,569.167 878,584.5C 876.894,588.838 876.061,593.171 875.5,597.5C 875.5,592.833 875.5,588.167 875.5,583.5C 876.496,568.342 876.83,553.009 876.5,537.5 Z"/></g>
<g><path class="icon" style="opacity:1" fill="currentColor" d="M 280.5,532.5 C 280.5,551.5 280.5,570.5 280.5,589.5C 280.152,581.943 279.152,574.61 277.5,567.5C 277.5,563.167 277.5,558.833 277.5,554.5C 279.152,547.39 280.152,540.057 280.5,532.5 Z"/></g>
<g><path class="icon" style="opacity:1" fill="currentColor" d="M 277.5,567.5 C 279.152,574.61 280.152,581.943 280.5,589.5C 280.503,594.527 280.836,599.527 281.5,604.5C 280.414,604.38 279.747,603.713 279.5,602.5C 279,600.5 278.5,598.5 278,596.5C 277.5,586.839 277.334,577.172 277.5,567.5 Z"/></g>
<g><path class="icon" style="opacity:1" fill="currentColor" d="M 280.5,589.5 C 282.928,598.54 284.261,607.873 284.5,617.5C 283.139,613.241 282.139,608.907 281.5,604.5C 280.836,599.527 280.503,594.527 280.5,589.5 Z"/></g>
<g><path class="icon" style="opacity:1" fill="currentColor" d="M 284.5,617.5 C 287.452,627.581 289.786,637.914 291.5,648.5C 290.017,646.076 288.85,643.409 288,640.5C 286.824,632.783 285.657,625.116 284.5,617.5 Z"/></g>
<g><path class="icon" style="opacity:1" fill="currentColor" d="M 875.5,597.5 C 874.924,603.485 874.424,609.485 874,615.5C 870.093,625.882 867.426,636.548 866,647.5C 863.756,653.649 861.256,659.649 858.5,665.5C 859.822,658.531 861.989,651.864 865,645.5C 868.428,629.17 871.928,613.17 875.5,597.5 Z"/></g>
<g><path class="icon" style="opacity:1" fill="currentColor" d="M 506.5,645.5 C 509.881,645.46 513.214,645.793 516.5,646.5C 516.737,647.791 516.404,648.791 515.5,649.5C 512.744,647.85 509.744,646.517 506.5,645.5 Z"/></g>
<g><path class="icon" style="opacity:1" fill="currentColor" d="M 293.5,652.5 C 294.117,652.611 294.617,652.944 295,653.5C 296.099,658.276 297.266,662.943 298.5,667.5C 298.167,667.5 297.833,667.5 297.5,667.5C 295.171,662.896 293.838,657.896 293.5,652.5 Z"/></g>
<g><path class="icon" style="opacity:1" fill="currentColor" d="M 297.5,667.5 C 297.833,667.5 298.167,667.5 298.5,667.5C 301.52,675.874 305.353,683.874 310,691.5C 310.49,692.793 310.657,694.127 310.5,695.5C 304.604,686.991 300.271,677.657 297.5,667.5 Z"/></g>
<g><path class="icon" style="opacity:1" fill="currentColor" d="M 857.5,669.5 C 857.274,673.397 855.941,676.73 853.5,679.5C 853.77,675.642 855.103,672.309 857.5,669.5 Z"/></g>
<g><path class="icon" style="opacity:1" fill="currentColor" d="M 853.5,679.5 C 852.37,681.315 851.704,683.315 851.5,685.5C 849.461,686.672 848.128,688.338 847.5,690.5C 848.192,686.116 850.192,682.45 853.5,679.5 Z"/></g>
<g><path class="icon" style="opacity:1" fill="currentColor" d="M 851.5,685.5 C 850.109,687.921 849.275,690.588 849,693.5C 848.329,694.252 847.496,694.586 846.5,694.5C 846.833,693.167 847.167,691.833 847.5,690.5C 848.128,688.338 849.461,686.672 851.5,685.5 Z"/></g>
<g><path class="icon" style="opacity:1" fill="currentColor" d="M 313.5,699.5 C 314.496,699.414 315.329,699.748 316,700.5C 316.972,704.436 318.472,708.102 320.5,711.5C 319.833,711.167 319.167,710.833 318.5,710.5C 316.089,707.23 314.423,703.563 313.5,699.5 Z"/></g>
<g><path class="icon" style="opacity:1" fill="currentColor" d="M 844.5,696.5 C 840.948,705.52 836.282,713.854 830.5,721.5C 834.454,712.574 839.121,704.241 844.5,696.5 Z"/></g>
<g><path class="icon" style="opacity:1" fill="currentColor" d="M 318.5,710.5 C 319.167,710.833 319.833,711.167 320.5,711.5C 322.12,714.807 323.787,718.14 325.5,721.5C 324.279,720.972 323.113,720.305 322,719.5C 320.346,716.707 319.179,713.707 318.5,710.5 Z"/></g>
<g><path class="icon" style="opacity:1" fill="currentColor" d="M 830.5,722.5 C 829.4,723.605 828.733,724.938 828.5,726.5C 827.833,726.833 827.167,727.167 826.5,727.5C 826.67,724.796 828.003,723.129 830.5,722.5 Z"/></g>
<g><path class="icon" style="opacity:1" fill="currentColor" d="M 325.5,721.5 C 327.759,722.344 328.759,724.011 328.5,726.5C 326.75,725.341 325.75,723.674 325.5,721.5 Z"/></g>
<g><path class="icon" style="opacity:1" fill="currentColor" d="M 828.5,726.5 C 826.853,729.64 825.019,732.64 823,735.5C 816.826,742.532 810.659,749.532 804.5,756.5C 811.84,746.828 819.174,737.161 826.5,727.5C 827.167,727.167 827.833,726.833 828.5,726.5 Z"/></g>
<g><path class="icon" style="opacity:1" fill="currentColor" d="M 328.5,726.5 C 333.881,733.216 338.881,740.216 343.5,747.5C 338.933,741.754 334.1,736.087 329,730.5C 328.51,729.207 328.343,727.873 328.5,726.5 Z"/></g>
<g><path class="icon" style="opacity:1" fill="currentColor" d="M 343.5,747.5 C 345.914,748.911 347.581,750.911 348.5,753.5C 346.086,752.089 344.419,750.089 343.5,747.5 Z"/></g>
<g><path class="icon" style="opacity:1" fill="currentColor" d="M 348.5,753.5 C 353.57,756.901 357.57,761.234 360.5,766.5C 359.5,765.833 358.5,765.167 357.5,764.5C 354.098,761.105 351.098,757.438 348.5,753.5 Z"/></g>
<g><path class="icon" style="opacity:1" fill="currentColor" d="M 357.5,764.5 C 358.5,765.167 359.5,765.833 360.5,766.5C 363.833,770.5 367.5,774.167 371.5,777.5C 371.833,778.167 372.167,778.833 372.5,779.5C 366.5,775.5 361.5,770.5 357.5,764.5 Z"/></g>
<g><path class="icon" style="opacity:1" fill="currentColor" d="M 371.5,777.5 C 375.436,779.766 378.769,782.766 381.5,786.5C 378.233,784.573 375.233,782.239 372.5,779.5C 372.167,778.833 371.833,778.167 371.5,777.5 Z"/></g>
<g><path class="icon" style="opacity:1" fill="currentColor" d="M 381.5,786.5 C 384.089,787.419 386.089,789.086 387.5,791.5C 384.911,790.581 382.911,788.914 381.5,786.5 Z"/></g>
<g><path class="icon" style="opacity:1" fill="currentColor" d="M 804.5,756.5 C 792.419,772.583 778.085,786.249 761.5,797.5C 767.632,791.211 774.299,785.377 781.5,780C 789.445,772.224 797.112,764.391 804.5,756.5 Z"/></g>
<g><path class="icon" style="opacity:1" fill="currentColor" d="M 387.5,791.5 C 390.089,792.419 392.089,794.086 393.5,796.5C 390.911,795.581 388.911,793.914 387.5,791.5 Z"/></g>
<g><path class="icon" style="opacity:1" fill="currentColor" d="M 397.5,799.5 C 399.749,800.08 401.415,801.413 402.5,803.5C 400.251,802.92 398.585,801.587 397.5,799.5 Z"/></g>
<g><path class="icon" style="opacity:1" fill="currentColor" d="M 402.5,803.5 C 404.749,804.08 406.415,805.413 407.5,807.5C 405.251,806.92 403.585,805.587 402.5,803.5 Z"/></g>
<g><path class="icon" style="opacity:1" fill="currentColor" d="M 407.5,807.5 C 411.208,807.712 413.874,809.378 415.5,812.5C 412.151,811.831 409.484,810.164 407.5,807.5 Z"/></g>
<g><path class="icon" style="opacity:1" fill="currentColor" d="M 757.5,800.5 C 753.413,804.922 748.746,808.589 743.5,811.5C 743.833,810.833 744.167,810.167 744.5,809.5C 748.576,806.085 752.909,803.085 757.5,800.5 Z"/></g>
<g><path class="icon" style="opacity:1" fill="currentColor" d="M 415.5,812.5 C 416.873,812.343 418.207,812.51 419.5,813C 424.121,816.59 428.788,820.09 433.5,823.5C 426.967,820.619 420.967,816.953 415.5,812.5 Z"/></g>
<g><path class="icon" style="opacity:1" fill="currentColor" d="M 744.5,809.5 C 744.167,810.167 743.833,810.833 743.5,811.5C 737.696,814.57 732.03,817.903 726.5,821.5C 723.5,822.833 720.5,824.167 717.5,825.5C 719.214,823.485 721.214,821.819 723.5,820.5C 730.675,817.08 737.675,813.414 744.5,809.5 Z"/></g>
<g><path class="icon" style="opacity:1" fill="currentColor" d="M 434.5,823.5 C 439.142,824.818 443.142,827.151 446.5,830.5C 441.868,829.186 437.868,826.853 434.5,823.5 Z"/></g>
<g><path class="icon" style="opacity:1" fill="currentColor" d="M 446.5,830.5 C 448.898,830.259 450.898,830.926 452.5,832.5C 453.5,833.167 454.5,833.833 455.5,834.5C 452.082,834.076 449.082,832.742 446.5,830.5 Z"/></g>
<g><path class="icon" style="opacity:1" fill="currentColor" d="M 726.5,821.5 C 724.441,823.594 722.107,825.428 719.5,827C 714.512,828.992 709.512,830.826 704.5,832.5C 708.531,829.601 712.864,827.268 717.5,825.5C 720.5,824.167 723.5,822.833 726.5,821.5 Z"/></g>
<g><path class="icon" style="opacity:1" fill="currentColor" d="M 452.5,832.5 C 454.527,832.338 456.527,832.505 458.5,833C 462.965,835.006 466.965,837.506 470.5,840.5C 467.574,839.302 464.574,838.302 461.5,837.5C 459.967,835.755 457.967,834.755 455.5,834.5C 454.5,833.833 453.5,833.167 452.5,832.5 Z"/></g>
<g><path class="icon" style="opacity:1" fill="currentColor" d="M 455.5,834.5 C 457.967,834.755 459.967,835.755 461.5,837.5C 458.911,837.539 456.911,836.539 455.5,834.5 Z"/></g>
<g><path class="icon" style="opacity:1" fill="currentColor" d="M 704.5,832.5 C 701.155,835.102 697.488,837.269 693.5,839C 692.207,839.49 690.873,839.657 689.5,839.5C 689.5,839.167 689.5,838.833 689.5,838.5C 694.316,836.255 699.316,834.255 704.5,832.5 Z"/></g>
<g><path class="icon" style="opacity:1" fill="currentColor" d="M 689.5,838.5 C 689.5,838.833 689.5,839.167 689.5,839.5C 684.606,841.143 679.606,842.643 674.5,844C 673.944,844.383 673.611,844.883 673.5,845.5C 672.167,845.5 670.833,845.5 669.5,845.5C 672.197,843.559 675.197,842.059 678.5,841C 682.351,840.586 686.017,839.752 689.5,838.5 Z"/></g>
<g><path class="icon" style="opacity:1" fill="currentColor" d="M 479.5,844.5 C 483.715,845.747 488.048,846.58 492.5,847C 493.571,847.852 494.571,848.685 495.5,849.5C 489.676,849.05 484.342,847.384 479.5,844.5 Z"/></g>
<g><path class="icon" style="opacity:1" fill="currentColor" d="M 470.5,840.5 C 484.609,843.9 498.609,847.4 512.5,851C 513.858,851.934 515.192,852.768 516.5,853.5C 512.833,852.833 509.167,852.167 505.5,851.5C 502.123,851.041 498.789,850.374 495.5,849.5C 494.571,848.685 493.571,847.852 492.5,847C 488.048,846.58 483.715,845.747 479.5,844.5C 476.318,843.406 473.318,842.072 470.5,840.5 Z"/></g>
<g><path class="icon" style="opacity:1" fill="currentColor" d="M 669.5,845.5 C 670.833,845.5 672.167,845.5 673.5,845.5C 673.389,846.117 673.056,846.617 672.5,847C 667.13,848.069 661.797,849.236 656.5,850.5C 656.611,849.883 656.944,849.383 657.5,849C 661.686,848.05 665.686,846.884 669.5,845.5 Z"/></g>
<g><path class="icon" style="opacity:1" fill="currentColor" d="M 656.5,850.5 C 656.082,851.222 655.416,851.722 654.5,852C 646.488,853.548 638.488,855.048 630.5,856.5C 630.5,856.167 630.5,855.833 630.5,855.5C 631.289,855.217 631.956,854.717 632.5,854C 640.554,853.152 648.554,851.986 656.5,850.5 Z"/></g>
<g><path class="icon" style="opacity:1" fill="currentColor" d="M 516.5,854.5 C 521.283,855.509 525.95,856.509 530.5,857.5C 525.36,858.09 520.693,857.09 516.5,854.5 Z"/></g>
<g><path class="icon" style="opacity:1" fill="currentColor" d="M 630.5,855.5 C 630.5,855.833 630.5,856.167 630.5,856.5C 625.114,856.777 619.781,857.444 614.5,858.5C 612.833,858.5 611.167,858.5 609.5,858.5C 610.23,856.955 611.563,856.122 613.5,856C 619.157,855.501 624.824,855.334 630.5,855.5 Z"/></g>
<g><path class="icon" style="opacity:1" fill="currentColor" d="M 505.5,851.5 C 509.167,852.167 512.833,852.833 516.5,853.5C 542.502,858.356 568.835,860.356 595.5,859.5C 595.167,860.167 594.833,860.833 594.5,861.5C 573.027,862.079 551.693,860.745 530.5,857.5C 525.95,856.509 521.283,855.509 516.5,854.5C 512.466,854.483 508.799,853.483 505.5,851.5 Z"/></g>
<g><path class="icon" style="opacity:1" fill="currentColor" d="M 609.5,858.5 C 611.167,858.5 612.833,858.5 614.5,858.5C 608.127,860.411 601.46,861.411 594.5,861.5C 594.833,860.833 595.167,860.167 595.5,859.5C 600.181,859.331 604.848,858.998 609.5,858.5 Z"/></g>
<g><path class="icon" style="opacity:1" fill="currentColor" d="M 409.5,955.5 C 418.658,953.835 422.825,957.501 422,966.5C 420.839,970.833 418.005,972.833 413.5,972.5C 406.54,971.616 403.707,967.616 405,960.5C 406.059,958.341 407.559,956.674 409.5,955.5 Z"/></g>
<g><path class="icon" style="opacity:1" fill="currentColor" d="M 289.5,960.5 C 289.5,966.167 289.5,971.833 289.5,977.5C 293.833,977.5 298.167,977.5 302.5,977.5C 302.5,980.833 302.5,984.167 302.5,987.5C 298.167,987.5 293.833,987.5 289.5,987.5C 289.173,996.682 289.507,1005.68 290.5,1014.5C 290.884,1017.05 292.384,1018.38 295,1018.5C 297.923,1018.2 300.257,1016.87 302,1014.5C 304.087,1017.67 305.921,1021.01 307.5,1024.5C 301.872,1030.76 294.872,1032.93 286.5,1031C 280.508,1028.34 276.675,1023.84 275,1017.5C 274.5,1007.51 274.334,997.506 274.5,987.5C 272.5,987.5 270.5,987.5 268.5,987.5C 268.5,984.167 268.5,980.833 268.5,977.5C 270.5,977.5 272.5,977.5 274.5,977.5C 274.5,971.833 274.5,966.167 274.5,960.5C 279.5,960.5 284.5,960.5 289.5,960.5 Z"/></g>
<g><path class="icon" style="opacity:1" fill="currentColor" d="M 289.5,960.5 C 290.488,965.64 290.821,970.974 290.5,976.5C 294.702,976.183 298.702,976.517 302.5,977.5C 298.167,977.5 293.833,977.5 289.5,977.5C 289.5,971.833 289.5,966.167 289.5,960.5 Z"/></g>
<g><path class="icon" style="opacity:1" fill="currentColor" d="M 453.5,1013.5 C 456.333,1019.52 460.333,1020.19 465.5,1015.5C 467.698,1018.53 469.698,1021.7 471.5,1025C 463.239,1032.36 454.239,1033.36 444.5,1028C 440.951,1024.96 438.951,1021.12 438.5,1016.5C 438.5,1006.83 438.5,997.167 438.5,987.5C 436.167,987.5 433.833,987.5 431.5,987.5C 431.5,984.167 431.5,980.833 431.5,977.5C 433.833,977.5 436.167,977.5 438.5,977.5C 438.5,972.167 438.5,966.833 438.5,961.5C 443.167,961.5 447.833,961.5 452.5,961.5C 452.5,966.833 452.5,972.167 452.5,977.5C 456.833,977.5 461.167,977.5 465.5,977.5C 465.5,980.833 465.5,984.167 465.5,987.5C 461.167,987.5 456.833,987.5 452.5,987.5C 452.174,996.349 452.507,1005.02 453.5,1013.5 Z"/></g>
<g><path class="icon" style="opacity:1" fill="currentColor" d="M 497.5,1013.5 C 500.333,1019.52 504.333,1020.19 509.5,1015.5C 511.698,1018.53 513.698,1021.7 515.5,1025C 507.239,1032.36 498.239,1033.36 488.5,1028C 484.951,1024.96 482.951,1021.12 482.5,1016.5C 482.5,1006.83 482.5,997.167 482.5,987.5C 480.167,987.5 477.833,987.5 475.5,987.5C 475.5,984.167 475.5,980.833 475.5,977.5C 477.833,977.5 480.167,977.5 482.5,977.5C 482.5,972.167 482.5,966.833 482.5,961.5C 487.167,961.5 491.833,961.5 496.5,961.5C 496.5,966.833 496.5,972.167 496.5,977.5C 500.833,977.5 505.167,977.5 509.5,977.5C 509.5,980.833 509.5,984.167 509.5,987.5C 505.167,987.5 500.833,987.5 496.5,987.5C 496.174,996.349 496.507,1005.02 497.5,1013.5 Z"/></g>
<g><path class="icon" style="opacity:1" fill="currentColor" d="M 842.5,958.5 C 847.06,958.281 850.727,959.948 853.5,963.5C 858.673,956.902 863.84,956.902 869,963.5C 870.779,970.771 867.945,974.938 860.5,976C 861.701,976.903 862.535,978.069 863,979.5C 865.555,990.751 864.888,1001.75 861,1012.5C 853.603,1022.16 843.77,1025.99 831.5,1024C 830.034,1023.36 828.7,1022.53 827.5,1021.5C 819.797,1035.85 807.797,1042.69 791.5,1042C 787.968,1037.38 787.635,1032.55 790.5,1027.5C 791.025,1026.81 791.692,1026.31 792.5,1026C 796.5,1025.67 800.5,1025.33 804.5,1025C 806.623,1024.19 808.623,1023.19 810.5,1022C 791.502,1016.49 784.668,1004.33 790,985.5C 797.811,974.67 807.978,971.836 820.5,977C 824.958,979.74 828.125,983.573 830,988.5C 831,994.5 832,1000.5 833,1006.5C 842.202,1010.65 847.369,1007.65 848.5,997.5C 847.229,991.999 845.729,986.666 844,981.5C 847.748,976.275 852.914,974.109 859.5,975C 856.924,974.218 854.924,972.718 853.5,970.5C 848.16,977.021 842.994,977.021 838,970.5C 836.474,965.239 837.974,961.239 842.5,958.5 Z"/></g>
<g><path class="icon" style="opacity:1" fill="currentColor" d="M 724.5,958.5 C 729.06,958.281 732.727,959.948 735.5,963.5C 739.579,957.719 744.413,957.053 750,961.5C 753.43,969.474 750.93,974.308 742.5,976C 744.317,977.8 745.484,979.966 746,982.5C 746.333,989.833 746.667,997.167 747,1004.5C 747.785,1006.29 748.951,1007.79 750.5,1009C 762.278,1009.01 766.445,1003.17 763,991.5C 761.753,988.671 760.253,986.005 758.5,983.5C 762.833,975.673 769.166,973.507 777.5,977C 781.325,987.721 781.492,998.555 778,1009.5C 771.355,1021.4 761.188,1026.23 747.5,1024C 744.166,1022.67 741.166,1020.84 738.5,1018.5C 729.269,1024.96 719.603,1025.96 709.5,1021.5C 706.082,1029.09 700.748,1034.92 693.5,1039C 688.273,1041.31 684.44,1039.81 682,1034.5C 680.543,1031.63 680.21,1028.63 681,1025.5C 694.399,1022.39 699.399,1014.05 696,1000.5C 694.573,994.219 692.74,988.052 690.5,982C 693.028,977.65 696.861,975.483 702,975.5C 704.352,975.305 706.352,975.972 708,977.5C 710.754,985.943 712.421,994.61 713,1003.5C 715.435,1008.22 719.269,1009.72 724.5,1008C 729.85,1004.63 731.683,999.796 730,993.5C 728.033,989.599 726.7,985.599 726,981.5C 729.92,976.63 735.086,974.464 741.5,975C 739.051,974.045 737.051,972.545 735.5,970.5C 730.16,977.021 724.994,977.021 720,970.5C 718.474,965.239 719.974,961.239 724.5,958.5 Z"/></g>
<g><path class="icon" style="opacity:1" fill="currentColor" d="M 325.5,977.5 C 320.305,977.179 315.305,977.513 310.5,978.5C 309.957,978.44 309.624,978.107 309.5,977.5C 314.986,976.185 320.32,976.185 325.5,977.5 Z"/></g>
<g><path class="icon" style="opacity:1" fill="currentColor" d="M 573.5,994.5 C 573.5,999.167 573.5,1003.83 573.5,1008.5C 560.656,1008.17 547.989,1008.5 535.5,1009.5C 538.148,1017 543.481,1020.16 551.5,1019C 555.161,1018.17 558.495,1016.67 561.5,1014.5C 564.5,1016.83 567.167,1019.5 569.5,1022.5C 564.122,1028.69 557.289,1031.69 549,1031.5C 535.015,1031.82 525.682,1025.49 521,1012.5C 518.513,984.665 531.013,973.165 558.5,978C 566.172,981.167 571.172,986.667 573.5,994.5 Z"/></g>
<g><path class="icon" style="opacity:1" fill="currentColor" d="M 615.5,976.5 C 616.015,981.48 615.348,986.146 613.5,990.5C 607.283,990.538 603.116,993.538 601,999.5C 599.601,1009.77 599.101,1020.1 599.5,1030.5C 594.833,1030.5 590.167,1030.5 585.5,1030.5C 585.5,1012.83 585.5,995.167 585.5,977.5C 590.167,977.5 594.833,977.5 599.5,977.5C 599.201,979.604 599.534,981.604 600.5,983.5C 604.633,979.266 609.633,976.933 615.5,976.5 Z"/></g>
<g><path class="icon" style="opacity:1" fill="currentColor" d="M 615.5,976.5 C 616.486,980.97 616.819,985.637 616.5,990.5C 615.5,990.5 614.5,990.5 613.5,990.5C 615.348,986.146 616.015,981.48 615.5,976.5 Z"/></g>
<g><path class="icon" style="opacity:1" fill="currentColor" d="M 325.5,977.5 C 328.97,987.788 332.47,998.122 336,1008.5C 339.312,998.231 342.812,988.064 346.5,978C 351.533,977.171 356.533,977.338 361.5,978.5C 364.442,988.326 367.775,997.992 371.5,1007.5C 374.984,997.904 378.317,988.237 381.5,978.5C 386.802,977.337 392.136,977.171 397.5,978C 391.604,995.188 385.604,1012.35 379.5,1029.5C 374.167,1030.83 368.833,1030.83 363.5,1029.5C 360.432,1020.46 357.265,1011.46 354,1002.5C 350.141,1011.58 346.975,1020.91 344.5,1030.5C 338.833,1030.5 333.167,1030.5 327.5,1030.5C 322.237,1013.04 316.57,995.711 310.5,978.5C 315.305,977.513 320.305,977.179 325.5,977.5 Z"/></g>
<g><path class="icon" style="opacity:1" fill="currentColor" d="M 420.5,977.5 C 415.833,977.5 411.167,977.5 406.5,977.5C 406.5,995.167 406.5,1012.83 406.5,1030.5C 411.167,1030.5 415.833,1030.5 420.5,1030.5C 415.695,1031.49 410.695,1031.82 405.5,1031.5C 405.5,1013.17 405.5,994.833 405.5,976.5C 410.695,976.179 415.695,976.513 420.5,977.5 Z"/></g>
<g><path class="icon" style="opacity:1" fill="currentColor" d="M 420.5,977.5 C 420.5,995.167 420.5,1012.83 420.5,1030.5C 415.833,1030.5 411.167,1030.5 406.5,1030.5C 406.5,1012.83 406.5,995.167 406.5,977.5C 411.167,977.5 415.833,977.5 420.5,977.5 Z"/></g>
<g><path class="icon" style="opacity:1" fill="currentColor" d="M 453.5,1013.5 C 452.507,1005.02 452.174,996.349 452.5,987.5C 456.833,987.5 461.167,987.5 465.5,987.5C 465.5,984.167 465.5,980.833 465.5,977.5C 461.167,977.5 456.833,977.5 452.5,977.5C 452.5,972.167 452.5,966.833 452.5,961.5C 447.833,961.5 443.167,961.5 438.5,961.5C 438.5,966.833 438.5,972.167 438.5,977.5C 436.167,977.5 433.833,977.5 431.5,977.5C 433.265,976.539 435.265,976.205 437.5,976.5C 437.5,971.167 437.5,965.833 437.5,960.5C 442.833,960.5 448.167,960.5 453.5,960.5C 453.5,965.833 453.5,971.167 453.5,976.5C 457.833,976.5 462.167,976.5 466.5,976.5C 466.5,980.5 466.5,984.5 466.5,988.5C 462.167,988.5 457.833,988.5 453.5,988.5C 453.5,996.833 453.5,1005.17 453.5,1013.5 Z"/></g>
<g><path class="icon" style="opacity:1" fill="currentColor" d="M 497.5,1013.5 C 496.507,1005.02 496.174,996.349 496.5,987.5C 500.833,987.5 505.167,987.5 509.5,987.5C 509.5,984.167 509.5,980.833 509.5,977.5C 505.167,977.5 500.833,977.5 496.5,977.5C 496.5,972.167 496.5,966.833 496.5,961.5C 491.833,961.5 487.167,961.5 482.5,961.5C 482.5,966.833 482.5,972.167 482.5,977.5C 480.167,977.5 477.833,977.5 475.5,977.5C 477.265,976.539 479.265,976.205 481.5,976.5C 481.5,971.167 481.5,965.833 481.5,960.5C 486.833,960.5 492.167,960.5 497.5,960.5C 497.5,965.833 497.5,971.167 497.5,976.5C 501.833,976.5 506.167,976.5 510.5,976.5C 510.5,980.5 510.5,984.5 510.5,988.5C 506.167,988.5 501.833,988.5 497.5,988.5C 497.5,996.833 497.5,1005.17 497.5,1013.5 Z"/></g>
<g><path class="icon" style="opacity:1" fill="currentColor" d="M 599.5,977.5 C 594.833,977.5 590.167,977.5 585.5,977.5C 585.5,995.167 585.5,1012.83 585.5,1030.5C 590.167,1030.5 594.833,1030.5 599.5,1030.5C 594.695,1031.49 589.695,1031.82 584.5,1031.5C 584.5,1013.17 584.5,994.833 584.5,976.5C 589.695,976.179 594.695,976.513 599.5,977.5 Z"/></g>
<g><path class="icon" style="opacity:1" fill="currentColor" d="M 302.5,987.5 C 298.702,988.483 294.702,988.817 290.5,988.5C 290.5,997.167 290.5,1005.83 290.5,1014.5C 289.507,1005.68 289.173,996.682 289.5,987.5C 293.833,987.5 298.167,987.5 302.5,987.5 Z"/></g>
<g><path class="icon" style="opacity:1" fill="currentColor" d="M 431.5,987.5 C 433.833,987.5 436.167,987.5 438.5,987.5C 438.5,997.167 438.5,1006.83 438.5,1016.5C 437.506,1007.35 437.173,998.015 437.5,988.5C 435.265,988.795 433.265,988.461 431.5,987.5 Z"/></g>
<g><path class="icon" style="opacity:1" fill="currentColor" d="M 475.5,987.5 C 477.833,987.5 480.167,987.5 482.5,987.5C 482.5,997.167 482.5,1006.83 482.5,1016.5C 481.506,1007.35 481.173,998.015 481.5,988.5C 479.265,988.795 477.265,988.461 475.5,987.5 Z"/></g>
<g><path class="icon-back" style="opacity:1" fill="#f8fafa" d="M 543.5,988.5 C 551.839,987.212 556.839,990.546 558.5,998.5C 550.833,998.5 543.167,998.5 535.5,998.5C 535.608,996.217 536.441,994.217 538,992.5C 540.015,991.303 541.849,989.97 543.5,988.5 Z"/></g>
<g><path class="icon-back" style="opacity:1" fill="#f7fafa" d="M 806.5,990.5 C 815.123,989.287 819.123,993.12 818.5,1002C 818.456,1003.76 818.122,1005.43 817.5,1007C 811.927,1006.12 807.427,1003.28 804,998.5C 803.018,995.225 803.851,992.559 806.5,990.5 Z"/></g>
<g><path class="icon" style="opacity:1" fill="currentColor" d="M 625.5,994.5 C 637.5,994.5 649.5,994.5 661.5,994.5C 661.5,998.833 661.5,1003.17 661.5,1007.5C 649.5,1007.5 637.5,1007.5 625.5,1007.5C 625.5,1003.17 625.5,998.833 625.5,994.5 Z"/></g>
<g><path class="icon" style="opacity:1" fill="currentColor" d="M 573.5,994.5 C 574.487,999.305 574.821,1004.31 574.5,1009.5C 561.5,1009.5 548.5,1009.5 535.5,1009.5C 547.989,1008.5 560.656,1008.17 573.5,1008.5C 573.5,1003.83 573.5,999.167 573.5,994.5 Z"/></g>
<g><path class="icon" style="opacity:1" fill="currentColor" d="M 757.5,1026.5 C 761.634,1025.94 765.301,1026.94 768.5,1029.5C 778.208,1023.47 783.042,1026.14 783,1037.5C 780.565,1042.22 776.731,1043.72 771.5,1042C 769.282,1038.91 766.949,1038.91 764.5,1042C 757.462,1043.82 753.462,1041.15 752.5,1034C 753.313,1030.86 754.98,1028.36 757.5,1026.5 Z"/></g>
</svg>
