<svg version="1.1" id="Layer_1" xmlns="http://www.w3.org/2000/svg" xmlns:xlink="http://www.w3.org/1999/xlink" x="0px" y="0px"
	 width="100%" viewBox="0 0 591 591" enable-background="new 0 0 591 591" xml:space="preserve">
<g transform="translate(3.000000,590.000000) scale(0.0990000,-0.099000)"
fill="#000000" stroke="none">
<path fill="currentcolor" d="M457 5885 c-110 -28 -137 -40 -224 -102 -59 -42 -128 -125 -167 -200
-9 -18 -27 -79 -41 -135 l-25 -103 0 -2395 0 -2395 25 -103 c14 -56 32 -117
41 -135 39 -75 108 -158 167 -200 84 -60 110 -72 204 -96 81 -21 88 -21 2523
-21 2435 0 2442 0 2523 21 93 24 120 36 202 95 57 40 133 131 168 200 9 17 25
67 36 111 21 81 21 88 21 2523 0 2435 0 2442 -21 2523 -24 94 -36 120 -96 204
-42 59 -125 128 -200 167 -18 9 -79 27 -135 41 l-103 25 -2400 -1 -2400 0 -98
-24z m4973 -281 c41 -12 67 -29 110 -72 100 -100 90 177 90 -2582 0 -2758 10
-2482 -89 -2581 -99 -99 177 -89 -2581 -89 -2758 0 -2482 -10 -2581 89 -99 99
-89 -177 -89 2581 0 2758 -10 2482 89 2581 97 97 -175 87 2572 88 2189 1 2431
-1 2479 -15z"/>
</g>
<path fill="#FFFFFF" opacity="1.000000" stroke="none" 
	d="
M592.000000,47.531342 
	C591.539673,46.723629 590.846008,45.480751 590.657288,44.165405 
	C589.518616,36.231167 585.667542,29.466341 580.682800,23.580467 
	C577.581604,19.918652 576.771606,16.274769 576.970398,11.884459 
	C577.120178,8.574668 577.000000,5.252654 577.000000,1.468040 
	C581.964417,1.000000 586.928894,1.000000 592.000000,1.000000 
	C592.000000,16.354086 592.000000,31.708385 592.000000,47.531342 
z"/>
<path fill="#FFFFFF" opacity="1.000000" stroke="none" 
	d="
M577.472656,592.000000 
	C577.000000,591.168640 577.099487,590.323242 576.984802,589.507996 
	C575.598022,579.649658 578.847473,571.711914 585.077942,563.861816 
	C588.726013,559.265442 589.302856,552.231567 591.630615,546.147095 
	C592.000000,561.220459 592.000000,576.440979 592.000000,592.000000 
	C587.320557,592.000000 582.632935,592.000000 577.472656,592.000000 
z"/>
<path class="icon-back" fill="#01A651" opacity="1.000000" stroke="none" 
	d="
M564.000916,345.000000 
	C564.000916,407.321320 564.004395,469.142609 563.998840,530.963928 
	C563.997009,551.683655 551.774963,563.997803 531.198486,563.998352 
	C375.062225,564.002808 218.925949,564.002869 62.789677,563.998352 
	C42.388630,563.997803 30.001745,551.700073 30.001207,531.449341 
	C29.997059,375.146454 29.997072,218.843536 30.001221,62.540638 
	C30.001751,42.523838 42.426800,30.002781 62.304340,30.002066 
	C218.773880,29.996450 375.243408,29.996408 531.712952,30.002119 
	C551.584412,30.002844 563.997192,42.523987 563.998413,62.554821 
	C564.003967,156.536545 564.000916,250.518280 564.000916,345.000000 
M231.262085,515.773254 
	C229.381607,515.638184 227.501129,515.503113 225.620636,515.368042 
	C225.577087,516.445496 225.533539,517.522888 225.490005,518.600342 
	C227.362152,518.614746 229.234299,518.631348 231.106476,518.641541 
	C231.430603,518.643311 231.754883,518.617493 232.530396,519.174683 
	C234.067795,518.900208 235.605209,518.625732 237.142624,518.351257 
	C236.907700,517.166077 236.672791,515.980835 236.437866,514.795654 
	C234.941452,515.153259 233.445023,515.510864 231.262085,515.773254 
M253.068726,494.855530 
	C252.690521,493.755890 252.180969,492.682037 251.958984,491.551727 
	C251.320709,488.301971 249.655792,486.890259 246.322433,488.086853 
	C242.493469,489.461334 244.020035,491.750977 245.325485,493.971680 
	C247.557816,497.769043 249.820984,501.548248 252.770157,506.511383 
	C249.340881,505.740936 247.152161,504.928223 244.943848,504.870880 
	C243.571121,504.835266 241.500137,505.561249 240.901337,506.608185 
	C238.869217,510.161285 241.388382,511.436523 244.367722,511.745453 
	C251.252197,512.459351 258.021149,510.697205 265.111389,511.482849 
	C271.664185,512.208923 276.474731,498.529541 272.204926,493.094879 
	C271.767792,492.538483 270.886200,492.141602 270.157867,492.035950 
	C266.639709,491.525513 265.319031,493.723938 266.056000,497.429291 
	C266.567871,500.002960 266.349854,502.860199 265.744202,505.422028 
	C265.589447,506.076660 262.725555,506.090851 261.050201,506.409973 
	C261.050201,497.675049 261.064423,489.723785 261.041992,481.772583 
	C261.034790,479.211151 260.574097,476.938446 257.140472,477.544922 
	C254.265884,478.052643 252.799133,479.464142 253.312195,482.731720 
	C253.927902,486.653107 254.104218,490.643524 253.949844,495.033875 
	C253.779617,495.181244 253.609390,495.328583 253.068726,494.855530 
M272.275482,383.749512 
	C277.783478,372.910370 276.975769,362.021088 271.843323,351.141357 
	C292.360229,351.141357 312.181396,351.141357 332.150665,351.141357 
	C325.728668,371.878021 328.908600,385.805511 342.038300,395.644775 
	C354.046600,404.643677 370.120117,405.154694 382.309845,396.925018 
	C396.790802,387.148560 400.182159,374.051270 394.013458,350.954254 
	C395.521240,350.822601 396.970154,350.750763 398.403503,350.561005 
	C403.248688,349.919708 406.479858,346.456757 406.503632,341.936798 
	C406.528564,337.198029 403.122131,333.658844 397.987610,333.227020 
	C396.166443,333.073883 394.323578,333.168579 392.490601,333.168518 
	C333.663757,333.166565 274.836945,333.167511 216.010101,333.164185 
	C214.010651,333.164062 212.000809,333.247589 210.013611,333.080505 
	C203.202774,332.507751 198.151245,327.271729 197.933914,320.677460 
	C197.709854,313.879120 202.632355,308.125366 209.533310,307.307251 
	C211.673187,307.053558 213.859879,307.160217 216.025131,307.159943 
	C274.518677,307.152191 333.012207,307.171143 391.505737,307.136475 
	C405.324341,307.128296 415.126556,299.486908 418.400024,286.336395 
	C419.567017,281.648163 420.578156,276.921356 421.704987,272.222870 
	C428.306976,244.694443 435.052734,217.199127 441.375977,189.606934 
	C442.214417,185.948425 441.724548,181.526031 440.479767,177.931915 
	C435.928345,164.790421 426.202606,159.225143 412.406647,159.252243 
	C340.748169,159.392960 269.089203,159.269913 197.430786,159.428299 
	C192.823059,159.438477 191.147156,157.997726 190.208038,153.607285 
	C187.107529,139.111954 183.649765,124.690140 180.142609,110.285522 
	C177.121719,97.878113 167.106552,90.029877 154.428497,89.945961 
	C143.430176,89.873154 132.430939,89.900894 121.432274,89.936066 
	C114.918442,89.956894 110.794174,93.337273 110.753387,98.561272 
	C110.712051,103.854744 114.750061,107.274368 121.286263,107.309944 
	C131.284866,107.364365 141.283981,107.315575 151.282867,107.330956 
	C159.856155,107.344147 161.967834,109.099983 163.936722,117.531242 
	C172.877106,155.816208 181.848038,194.094040 190.792618,232.378021 
	C195.257996,251.490540 199.690384,270.610779 204.114243,289.626740 
	C185.047852,300.509521 178.472641,309.576569 180.567795,323.521576 
	C183.092300,340.324188 193.880692,348.876862 210.149124,350.985931 
	C208.946045,355.707123 207.277664,360.110779 206.766769,364.644897 
	C204.940369,380.853912 214.883026,395.824097 230.488754,400.998291 
	C246.356567,406.259369 262.582947,399.771179 272.275482,383.749512 
M327.298218,493.963562 
	C322.219269,490.519958 320.285645,491.291382 319.381195,497.122101 
	C318.474487,502.967285 320.895966,507.521851 326.396973,510.104614 
	C333.329010,513.359314 339.996521,512.222107 346.292267,508.595245 
	C352.296417,513.008789 352.904633,513.037781 359.647949,510.089020 
	C360.551544,509.693909 361.717987,509.621063 362.712189,509.760071 
	C367.066650,510.368896 371.380341,511.424683 375.750153,511.733368 
	C382.978729,512.243958 390.238037,512.367981 397.487152,512.485840 
	C398.595245,512.503906 400.148132,511.907806 400.718170,511.068146 
	C401.339752,510.152527 401.418243,507.620880 401.113647,507.510956 
	C396.531860,505.857147 398.851105,501.465851 397.375031,498.744873 
	C395.633850,495.535400 393.598877,491.385529 390.661041,490.203186 
	C386.983734,488.723267 382.258453,489.847260 377.427795,489.847260 
	C377.255554,487.055389 377.248138,483.416351 376.693665,479.862701 
	C376.500122,478.622253 374.957336,477.592316 374.030731,476.466187 
	C372.695465,477.674805 370.687042,478.662994 370.200287,480.149475 
	C369.628906,481.894196 370.393005,484.070892 370.555054,486.062103 
	C371.102020,492.782990 371.638916,499.504669 372.186615,506.312958 
	C366.692047,506.770081 364.684631,504.664795 364.718811,499.995636 
	C364.763855,493.841431 364.563446,487.682648 364.335754,481.530731 
	C364.255066,479.350494 364.001190,476.895416 360.781555,477.367401 
	C357.742462,477.812897 356.005646,479.185638 356.689301,482.791321 
	C357.462708,486.870605 357.848480,491.037598 358.162842,495.184601 
	C358.361481,497.804840 358.709686,500.669067 357.867371,503.021637 
	C357.320160,504.549927 354.750610,505.354126 353.087158,506.482727 
	C352.090698,504.841064 350.813873,503.298126 350.189819,501.525360 
	C349.722351,500.197479 350.420105,498.477356 350.013123,497.105743 
	C349.489136,495.339752 348.725433,492.793640 347.433624,492.325378 
	C345.871368,491.759125 343.648499,493.015320 343.113678,493.144409 
	C342.902985,497.509064 343.712494,501.069885 342.391968,503.447845 
	C340.279938,507.251129 332.449860,507.541901 328.240082,504.753082 
	C323.631744,501.700195 326.091675,498.137421 327.298218,493.963562 
M233.939072,507.232208 
	C234.406754,503.043488 235.135986,498.854523 235.131622,494.666321 
	C235.130707,493.779816 232.382538,492.060608 231.013687,492.168274 
	C226.964478,492.486786 227.740723,494.952484 228.861450,497.848694 
	C230.113647,501.084595 230.370468,504.653290 226.091766,506.101501 
	C221.826828,507.545074 220.957901,504.342285 220.402252,501.261047 
	C219.842194,498.155396 218.055710,497.515259 215.357681,498.370575 
	C212.679382,499.219635 212.234268,500.710022 213.499634,503.301941 
	C214.250763,504.840515 214.804291,507.235321 214.114456,508.541656 
	C213.048431,510.560364 211.095505,512.849487 209.058655,513.441711 
	C206.083313,514.306824 203.951523,512.002808 203.797150,508.958344 
	C203.685226,506.751312 204.766998,504.495056 204.738586,502.268097 
	C204.722534,501.009460 203.771057,498.982056 202.825302,498.701324 
	C201.452194,498.293823 198.954742,498.604584 198.249680,499.568909 
	C195.731216,503.013611 197.393829,512.109924 200.706848,515.423340 
	C204.514435,519.231384 210.730515,519.914856 215.398346,516.921204 
	C217.483383,515.583984 219.427124,514.026367 222.372543,511.888123 
	C226.205276,512.597839 229.207626,511.757751 233.939072,507.232208 
M246.999649,433.532410 
	C246.809128,430.051514 246.857193,426.531403 246.295593,423.111450 
	C246.105103,421.951385 244.137695,420.047211 243.397308,420.223724 
	C241.729080,420.621521 239.853424,421.812439 238.952621,423.241791 
	C238.226593,424.393829 238.805588,426.368317 238.805588,426.848297 
	C234.812897,429.009552 230.990692,430.171631 228.458099,432.650970 
	C224.096573,436.920837 224.120346,445.451782 227.650482,450.258698 
	C230.689636,454.397125 240.131805,456.840576 245.037018,454.465607 
	C245.991257,454.003571 246.748718,452.192566 246.800018,450.970337 
	C247.029907,445.494080 246.971741,440.005768 246.999649,433.532410 
M341.455566,432.984802 
	C341.000854,430.282349 340.142334,428.136810 336.661713,429.063538 
	C333.547699,429.892639 333.152161,431.892548 333.547058,434.778900 
	C334.333527,440.527527 334.616364,446.347778 335.493408,452.079315 
	C335.688629,453.355042 337.480988,454.386414 338.537964,455.530304 
	C339.568237,454.327911 341.182770,453.259369 341.495850,451.892670 
	C342.002625,449.680725 341.124512,447.105255 341.794281,444.987946 
	C342.747955,441.973267 344.044800,438.732880 346.159821,436.504639 
	C348.788727,433.734985 350.875702,434.827393 351.074799,438.679871 
	C351.306030,443.153687 351.059387,447.664337 351.525055,452.106049 
	C351.655090,453.346313 353.568573,454.399567 354.663910,455.538605 
	C355.559143,454.459534 357.115417,453.447266 357.232452,452.289520 
	C357.681854,447.843689 358.014740,443.330994 357.753418,438.880676 
	C357.300598,431.168274 352.403076,428.444855 345.355957,431.629822 
	C344.302094,432.106140 343.284027,432.661682 341.455566,432.984802 
M399.232330,441.434296 
	C400.140778,440.059509 400.802979,438.379974 402.024689,437.393005 
	C403.327301,436.340698 405.158875,435.943207 406.759552,435.259888 
	C407.214478,436.755524 407.972595,438.232513 408.066040,439.750427 
	C408.320770,443.887665 408.048523,448.071136 408.530243,452.172241 
	C408.674530,453.400482 410.613556,454.417938 411.730316,455.531982 
	C412.604034,454.433380 414.054810,453.423645 414.240356,452.219055 
	C414.742767,448.957123 414.851654,445.612762 414.860168,442.300446 
	C414.890594,430.444855 410.290802,427.673553 399.663727,433.031281 
	C399.408447,433.159973 399.031525,433.047455 398.711365,433.047455 
	C398.899750,432.635559 399.088135,432.223663 399.276489,431.811768 
	C397.329498,430.918213 395.327271,429.191803 393.447815,429.316406 
	C390.218628,429.530579 390.222504,432.245544 390.585846,435.009277 
	C391.342072,440.760773 391.656342,446.572296 392.488983,452.310303 
	C392.660187,453.490356 394.303436,454.456848 395.268188,455.521759 
	C396.385559,454.413239 398.250275,453.436737 398.473999,452.170288 
	C399.045532,448.935242 398.885742,445.570923 399.232330,441.434296 
M194.881805,452.532867 
	C195.886642,451.440308 197.076172,450.465912 197.864243,449.234619 
	C201.212631,444.002777 200.598740,436.822083 196.566498,432.579498 
	C192.921143,428.743988 185.338409,427.745392 180.324234,430.440521 
	C175.526321,433.019409 173.135208,439.170288 174.613846,445.129913 
	C176.858383,454.176422 185.108246,457.468781 194.881805,452.532867 
M330.831512,435.988953 
	C326.595734,428.965759 318.127838,426.726166 311.595215,430.901337 
	C305.748108,434.638458 304.352997,443.910889 308.721924,449.998535 
	C312.777618,455.649719 321.322388,456.929474 326.918640,452.440186 
	C332.051575,448.322632 333.053955,442.854553 330.831512,435.988953 
M263.822144,429.476929 
	C260.246826,427.800720 256.767731,427.515656 253.572235,430.307983 
	C249.563187,433.811157 248.079773,441.775879 250.325089,447.517212 
	C252.241806,452.418304 256.545563,454.942841 262.681488,455.062225 
	C265.404114,455.115173 267.321869,454.622864 267.227722,451.385834 
	C267.135315,448.207275 265.412781,447.774506 262.558472,447.961426 
	C260.420135,448.101410 258.207367,447.104370 256.027740,446.613586 
	C256.127014,446.097504 256.226288,445.581421 256.325562,445.065338 
	C261.318695,444.829681 266.263031,444.376373 268.124573,438.701935 
	C269.393738,434.833313 267.905914,431.888855 263.822144,429.476929 
M436.407288,434.996307 
	C433.534393,428.366699 426.300293,426.092926 421.544434,430.324677 
	C417.560913,433.869202 416.080536,441.821991 418.338043,447.550415 
	C420.264496,452.438904 424.587189,454.953003 430.720245,455.064301 
	C433.470642,455.114197 435.332581,454.564270 435.225525,451.345856 
	C435.118530,448.128448 433.332458,447.789825 430.517609,447.968231 
	C428.430267,448.100555 426.271667,447.108643 424.144836,446.617554 
	C424.251740,446.154480 424.358673,445.691376 424.465607,445.228302 
	C433.603790,444.182739 435.610016,442.604492 436.407288,434.996307 
M280.741730,515.024963 
	C290.218475,513.111816 296.117737,503.726532 293.632996,494.430939 
	C292.411865,489.862610 289.273682,487.288818 284.639160,487.278625 
	C280.319550,487.269135 276.962189,489.395630 275.625031,493.753906 
	C274.281097,498.134247 275.984985,501.600708 279.558044,504.100220 
	C281.402618,505.390503 283.569580,506.220062 287.022644,507.992859 
	C283.499573,508.652557 281.218170,508.703247 279.296814,509.560760 
	C277.807678,510.225403 275.804352,511.837708 275.722412,513.135620 
	C275.528473,516.208252 277.999390,515.567688 280.741730,515.024963 
M368.630463,437.480774 
	C368.456421,433.002075 368.282318,428.523346 368.108337,424.044647 
	C368.016937,421.691406 367.473267,419.176727 364.528748,420.212036 
	C362.829376,420.809540 360.505402,423.111847 360.546326,424.589081 
	C360.748322,431.877319 361.450134,439.171173 362.368927,446.413177 
	C362.975830,451.196808 366.023773,454.278564 370.894012,454.790375 
	C372.337158,454.942047 373.934387,453.628143 375.460999,452.985809 
	C374.414307,451.791199 373.317108,450.636536 372.333527,449.392090 
	C371.058105,447.778351 369.416229,446.249603 368.780365,444.393677 
	C368.168213,442.607056 368.636536,440.450226 368.630463,437.480774 
M209.598114,452.711212 
	C209.798843,449.396942 209.617905,446.001953 210.297684,442.789032 
	C211.132492,438.843292 212.724670,435.300781 218.179688,437.246735 
	C219.064575,437.562408 220.556854,436.175476 221.768372,435.575500 
	C221.072388,434.409058 220.528198,432.383972 219.653351,432.229340 
	C216.396225,431.653534 213.030487,431.692200 210.737701,431.559784 
	C208.139709,430.570435 206.209457,429.156952 204.406357,429.303894 
	C201.528076,429.538391 201.160004,431.892395 201.530670,434.586060 
	C202.301163,440.185272 202.692841,445.835907 203.409271,451.443817 
	C203.576736,452.754791 204.421448,455.043854 204.949554,455.042389 
	C206.469406,455.038269 207.986694,454.092865 209.598114,452.711212 
M271.348938,432.844086 
	C272.015350,438.961792 272.774689,445.071503 273.300629,451.201233 
	C273.500458,453.530182 273.615417,456.098419 276.601807,455.298981 
	C277.919617,454.946198 279.031128,452.468506 279.523132,450.751190 
	C280.056030,448.891174 279.594513,446.771637 279.852173,444.802643 
	C280.678467,438.488068 282.106476,437.426117 288.548553,437.391144 
	C289.617767,437.385376 291.287628,436.452789 291.573730,435.584137 
	C291.852112,434.738892 290.869263,432.593933 290.165192,432.459442 
	C286.772186,431.811462 283.286255,431.650024 279.095276,431.244507 
	C277.416412,427.645050 274.903503,427.489258 271.348938,432.844086 
M412.885223,503.366394 
	C412.679108,495.915558 412.633667,488.453583 412.120422,481.023956 
	C412.026794,479.668152 410.025787,478.444092 408.905304,477.159210 
	C407.409363,478.586151 404.591431,480.050537 404.630646,481.433929 
	C404.897797,490.862091 405.685638,500.280762 406.564331,509.678314 
	C406.652557,510.621918 408.458740,512.063293 409.482635,512.076111 
	C410.509644,512.088989 412.100433,510.790649 412.467194,509.729401 
	C413.039459,508.073395 412.787384,506.132538 412.885223,503.366394 
M299.499512,510.310364 
	C301.024475,510.856903 302.569611,511.818512 304.064453,511.745819 
	C304.662445,511.716766 305.607758,509.410522 305.613251,508.137543 
	C305.650269,499.512360 305.549469,490.884460 305.326660,482.261719 
	C305.266144,479.919678 305.606903,476.748505 301.655670,477.203888 
	C298.159760,477.606812 297.190399,479.711090 297.522430,483.197479 
	C298.355865,491.949097 298.816589,500.736206 299.499512,510.310364 
M383.565247,428.979797 
	C379.571655,429.241241 378.750610,431.490997 379.285614,435.117645 
	C380.082611,440.519928 380.329437,446.005981 381.203796,451.392517 
	C381.445221,452.879730 383.082977,454.140228 384.080048,455.504761 
	C385.149017,454.178528 387.086182,452.884979 387.137573,451.520416 
	C387.367889,445.404968 387.214752,439.259857 386.836121,433.147980 
	C386.746399,431.700073 385.249573,430.339355 383.565247,428.979797 
M298.105194,475.075378 
	C300.266052,474.891327 302.426910,474.707275 304.587799,474.523224 
	C304.583313,474.046051 304.578827,473.568878 304.574341,473.091705 
	C302.786224,472.403046 300.998108,471.714417 298.253387,470.657379 
	C300.876343,470.026825 302.416748,469.656525 304.353943,469.190826 
	C303.595093,468.294983 303.363525,467.751984 302.986237,467.617279 
	C298.458527,466.000580 297.105164,467.758820 298.105194,475.075378 
M408.532227,472.035065 
	C407.753235,471.661743 406.974274,471.288422 405.513916,470.588562 
	C407.887268,470.009277 409.434143,469.631714 410.981018,469.254181 
	C410.938660,468.745209 410.896301,468.236267 410.853943,467.727325 
	C409.147186,467.727325 406.277954,467.158356 405.948120,467.832275 
	C404.890045,469.994110 404.771118,472.615631 404.174438,475.645935 
	C407.416687,475.135498 409.409821,474.821716 412.834930,474.282501 
	C410.878845,473.068726 410.074921,472.569916 408.532227,472.035065 
M378.252899,423.708710 
	C379.778870,424.786285 381.209991,426.097107 382.895447,426.782257 
	C383.332947,426.960114 385.135620,425.262207 385.274414,424.279480 
	C385.415894,423.277802 384.128632,421.101959 383.729828,421.162842 
	C381.898438,421.442352 380.159058,422.324829 378.252899,423.708710 
M332.291077,515.434326 
	C332.643829,516.846130 332.694275,518.482361 333.495453,519.561157 
	C333.824097,520.003601 336.026337,519.576599 336.897339,518.914734 
	C337.499878,518.456909 337.606995,516.089661 337.378204,516.000122 
	C335.940735,515.437805 334.346954,515.274963 332.291077,515.434326 
M266.654816,490.269409 
	C267.834473,489.424194 269.243622,488.745270 270.051331,487.630524 
	C270.288055,487.303833 268.988037,485.176605 268.078979,484.898346 
	C267.151764,484.614502 264.912140,485.522766 264.875427,486.027527 
	C264.779907,487.341675 265.576721,488.720734 266.654816,490.269409 
M210.848877,490.484070 
	C208.451172,489.368805 206.418976,489.787201 206.191833,492.594879 
	C206.115509,493.538147 208.102142,495.544708 209.080963,495.504028 
	C211.716721,495.394470 212.745636,493.658752 210.848877,490.484070 
z"/>
<path class="icon" fill="#C2201C" opacity="1.000000" stroke="none" 
	d="
M272.113220,384.084473 
	C262.582947,399.771179 246.356567,406.259369 230.488754,400.998291 
	C214.883026,395.824097 204.940369,380.853912 206.766769,364.644897 
	C207.277664,360.110779 208.946045,355.707123 210.149124,350.985931 
	C193.880692,348.876862 183.092300,340.324188 180.567795,323.521576 
	C178.472641,309.576569 185.047852,300.509521 204.114243,289.626740 
	C199.690384,270.610779 195.257996,251.490540 190.792618,232.378021 
	C181.848038,194.094040 172.877106,155.816208 163.936722,117.531242 
	C161.967834,109.099983 159.856155,107.344147 151.282867,107.330956 
	C141.283981,107.315575 131.284866,107.364365 121.286263,107.309944 
	C114.750061,107.274368 110.712051,103.854744 110.753387,98.561272 
	C110.794174,93.337273 114.918442,89.956894 121.432274,89.936066 
	C132.430939,89.900894 143.430176,89.873154 154.428497,89.945961 
	C167.106552,90.029877 177.121719,97.878113 180.142609,110.285522 
	C183.649765,124.690140 187.107529,139.111954 190.208038,153.607285 
	C191.147156,157.997726 192.823059,159.438477 197.430786,159.428299 
	C269.089203,159.269913 340.748169,159.392960 412.406647,159.252243 
	C426.202606,159.225143 435.928345,164.790421 440.479767,177.931915 
	C441.724548,181.526031 442.214417,185.948425 441.375977,189.606934 
	C435.052734,217.199127 428.306976,244.694443 421.704987,272.222870 
	C420.578156,276.921356 419.567017,281.648163 418.400024,286.336395 
	C415.126556,299.486908 405.324341,307.128296 391.505737,307.136475 
	C333.012207,307.171143 274.518677,307.152191 216.025131,307.159943 
	C213.859879,307.160217 211.673187,307.053558 209.533310,307.307251 
	C202.632355,308.125366 197.709854,313.879120 197.933914,320.677460 
	C198.151245,327.271729 203.202774,332.507751 210.013611,333.080505 
	C212.000809,333.247589 214.010651,333.164062 216.010101,333.164185 
	C274.836945,333.167511 333.663757,333.166565 392.490601,333.168518 
	C394.323578,333.168579 396.166443,333.073883 397.987610,333.227020 
	C403.122131,333.658844 406.528564,337.198029 406.503632,341.936798 
	C406.479858,346.456757 403.248688,349.919708 398.403503,350.561005 
	C396.970154,350.750763 395.521240,350.822601 394.013458,350.954254 
	C400.182159,374.051270 396.790802,387.148560 382.309845,396.925018 
	C370.120117,405.154694 354.046600,404.643677 342.038300,395.644775 
	C328.908600,385.805511 325.728668,371.878021 332.150665,351.141357 
	C312.181396,351.141357 292.360229,351.141357 271.843323,351.141357 
	C276.975769,362.021088 277.783478,372.910370 272.113220,384.084473 
M208.925522,233.449753 
	C212.918411,250.481537 217.067490,267.479279 220.791092,284.569733 
	C221.689072,288.691254 223.321228,289.868683 227.430695,289.858734 
	C281.596985,289.727753 335.763641,289.777679 389.930237,289.762146 
	C397.737396,289.759918 400.068634,287.968628 401.819183,280.499969 
	C408.891632,250.326187 415.942474,220.147278 422.942596,189.956650 
	C425.162537,180.382278 422.347412,176.894562 412.608765,176.893768 
	C342.275543,176.888000 271.942291,176.890427 201.609070,176.890274 
	C199.854691,176.890259 198.100296,176.890274 196.450638,176.890274 
	C196.300598,177.946304 196.154510,178.292755 196.223068,178.589630 
	C200.383469,196.609039 204.561493,214.624359 208.925522,233.449753 
M375.552094,355.979767 
	C367.764709,349.263031 358.624878,348.875580 351.671936,354.967438 
	C345.234009,360.608063 343.834625,369.996155 348.368805,377.127014 
	C353.699921,385.511261 364.717590,387.832520 372.805634,382.275543 
	C381.436401,376.345703 382.768036,365.823151 375.552094,355.979767 
M251.973251,381.608551 
	C258.167633,376.254425 260.269348,369.608795 257.447052,361.907227 
	C254.930588,355.040253 249.613556,351.313171 242.339050,350.705231 
	C234.922424,350.085510 227.925781,354.686859 225.086884,361.764862 
	C222.372025,368.533661 224.378723,376.277344 230.115829,381.170746 
	C236.082993,386.260498 243.692535,386.573181 251.973251,381.608551 
z"/>
<path class="icon" fill="#C0261E" opacity="1.000000" stroke="none" 
	d="
M327.438477,494.311707 
	C326.091675,498.137421 323.631744,501.700195 328.240082,504.753082 
	C332.449860,507.541901 340.279938,507.251129 342.391968,503.447845 
	C343.712494,501.069885 342.902985,497.509064 343.113678,493.144409 
	C343.648499,493.015320 345.871368,491.759125 347.433624,492.325378 
	C348.725433,492.793640 349.489136,495.339752 350.013123,497.105743 
	C350.420105,498.477356 349.722351,500.197479 350.189819,501.525360 
	C350.813873,503.298126 352.090698,504.841064 353.087158,506.482727 
	C354.750610,505.354126 357.320160,504.549927 357.867371,503.021637 
	C358.709686,500.669067 358.361481,497.804840 358.162842,495.184601 
	C357.848480,491.037598 357.462708,486.870605 356.689301,482.791321 
	C356.005646,479.185638 357.742462,477.812897 360.781555,477.367401 
	C364.001190,476.895416 364.255066,479.350494 364.335754,481.530731 
	C364.563446,487.682648 364.763855,493.841431 364.718811,499.995636 
	C364.684631,504.664795 366.692047,506.770081 372.186615,506.312958 
	C371.638916,499.504669 371.102020,492.782990 370.555054,486.062103 
	C370.393005,484.070892 369.628906,481.894196 370.200287,480.149475 
	C370.687042,478.662994 372.695465,477.674805 374.030701,476.466187 
	C374.957336,477.592316 376.500122,478.622253 376.693665,479.862701 
	C377.248138,483.416351 377.255554,487.055389 377.427795,489.847260 
	C382.258453,489.847260 386.983734,488.723267 390.661041,490.203186 
	C393.598877,491.385529 395.633850,495.535400 397.375031,498.744873 
	C398.851105,501.465851 396.531860,505.857147 401.113647,507.510956 
	C401.418243,507.620880 401.339752,510.152527 400.718170,511.068146 
	C400.148132,511.907806 398.595245,512.503906 397.487152,512.485840 
	C390.238037,512.367981 382.978729,512.243958 375.750153,511.733368 
	C371.380341,511.424683 367.066650,510.368896 362.712189,509.760071 
	C361.717987,509.621063 360.551544,509.693909 359.647949,510.089020 
	C352.904633,513.037781 352.296417,513.008789 346.292267,508.595245 
	C339.996521,512.222107 333.329010,513.359314 326.396973,510.104614 
	C320.895966,507.521851 318.474487,502.967285 319.381195,497.122101 
	C320.285645,491.291382 322.219269,490.519958 327.438477,494.311707 
M386.986389,493.746735 
	C379.927612,493.869049 376.579285,498.209534 377.927673,505.991760 
	C382.256653,505.583435 386.616333,505.172211 392.615479,504.606354 
	C390.700256,500.462555 389.198486,497.213287 386.986389,493.746735 
z"/>
<path class="icon" fill="#C0261E" opacity="1.000000" stroke="none" 
	d="
M254.470795,494.604034 
	C254.104218,490.643524 253.927902,486.653107 253.312195,482.731720 
	C252.799133,479.464142 254.265884,478.052643 257.140472,477.544922 
	C260.574097,476.938446 261.034790,479.211151 261.041992,481.772583 
	C261.064423,489.723785 261.050201,497.675049 261.050201,506.409973 
	C262.725555,506.090851 265.589447,506.076660 265.744202,505.422028 
	C266.349854,502.860199 266.567871,500.002960 266.056000,497.429291 
	C265.319031,493.723938 266.639709,491.525513 270.157867,492.035950 
	C270.886200,492.141602 271.767792,492.538483 272.204926,493.094879 
	C276.474731,498.529541 271.664185,512.208923 265.111389,511.482849 
	C258.021149,510.697205 251.252197,512.459351 244.367722,511.745453 
	C241.388382,511.436523 238.869217,510.161285 240.901337,506.608185 
	C241.500137,505.561249 243.571121,504.835266 244.943848,504.870880 
	C247.152161,504.928223 249.340881,505.740936 252.770157,506.511383 
	C249.820984,501.548248 247.557816,497.769043 245.325485,493.971680 
	C244.020035,491.750977 242.493469,489.461334 246.322433,488.086853 
	C249.655792,486.890259 251.320709,488.301971 251.958984,491.551727 
	C252.180969,492.682037 252.690521,493.755890 253.322662,495.456604 
	C253.863251,496.531158 254.149918,497.004608 255.200928,498.740417 
	C254.787079,496.395905 254.628937,495.499969 254.470795,494.604034 
z"/>
<path class="icon" fill="#BE281E" opacity="1.000000" stroke="none" 
	d="
M233.719177,507.543152 
	C229.207626,511.757751 226.205276,512.597839 222.372543,511.888123 
	C219.427124,514.026367 217.483383,515.583984 215.398346,516.921204 
	C210.730515,519.914856 204.514435,519.231384 200.706848,515.423340 
	C197.393829,512.109924 195.731216,503.013611 198.249680,499.568909 
	C198.954742,498.604584 201.452194,498.293823 202.825302,498.701324 
	C203.771057,498.982056 204.722534,501.009460 204.738586,502.268097 
	C204.766998,504.495056 203.685226,506.751312 203.797150,508.958344 
	C203.951523,512.002808 206.083313,514.306824 209.058655,513.441711 
	C211.095505,512.849487 213.048431,510.560364 214.114456,508.541656 
	C214.804291,507.235321 214.250763,504.840515 213.499634,503.301941 
	C212.234268,500.710022 212.679382,499.219635 215.357681,498.370575 
	C218.055710,497.515259 219.842194,498.155396 220.402252,501.261047 
	C220.957901,504.342285 221.826828,507.545074 226.091766,506.101501 
	C230.370468,504.653290 230.113647,501.084595 228.861450,497.848694 
	C227.740723,494.952484 226.964478,492.486786 231.013687,492.168274 
	C232.382538,492.060608 235.130707,493.779816 235.131622,494.666321 
	C235.135986,498.854523 234.406754,503.043488 233.719177,507.543152 
z"/>
<path class="icon" fill="#C1251D" opacity="1.000000" stroke="none" 
	d="
M247.008591,434.027100 
	C246.971741,440.005768 247.029907,445.494080 246.800018,450.970337 
	C246.748718,452.192566 245.991257,454.003571 245.037018,454.465607 
	C240.131805,456.840576 230.689636,454.397125 227.650482,450.258698 
	C224.120346,445.451782 224.096573,436.920837 228.458099,432.650970 
	C230.990692,430.171631 234.812897,429.009552 238.805588,426.848297 
	C238.805588,426.368317 238.226593,424.393829 238.952621,423.241791 
	C239.853424,421.812439 241.729080,420.621521 243.397308,420.223724 
	C244.137695,420.047211 246.105103,421.951385 246.295593,423.111450 
	C246.857193,426.531403 246.809128,430.051514 247.008591,434.027100 
M240.420746,444.769623 
	C240.279221,442.613037 240.011948,440.455872 240.022644,438.300018 
	C240.044067,433.980743 237.549179,433.593140 234.416565,434.830536 
	C230.560349,436.353760 229.440033,439.645416 230.279556,443.411011 
	C231.157913,447.350891 233.957642,449.391846 237.977310,448.826233 
	C238.929871,448.692261 239.624527,446.725372 240.420746,444.769623 
z"/>
<path class="icon" fill="#BC2A1F" opacity="1.000000" stroke="none" 
	d="
M341.852478,433.082703 
	C343.284027,432.661682 344.302094,432.106140 345.355957,431.629822 
	C352.403076,428.444855 357.300598,431.168274 357.753418,438.880676 
	C358.014740,443.330994 357.681854,447.843689 357.232452,452.289520 
	C357.115417,453.447266 355.559143,454.459534 354.663910,455.538605 
	C353.568573,454.399567 351.655090,453.346313 351.525055,452.106049 
	C351.059387,447.664337 351.306030,443.153687 351.074799,438.679871 
	C350.875702,434.827393 348.788727,433.734985 346.159821,436.504639 
	C344.044800,438.732880 342.747955,441.973267 341.794281,444.987946 
	C341.124512,447.105255 342.002625,449.680725 341.495850,451.892670 
	C341.182770,453.259369 339.568237,454.327911 338.537964,455.530304 
	C337.480988,454.386414 335.688629,453.355042 335.493408,452.079315 
	C334.616364,446.347778 334.333527,440.527527 333.547058,434.778900 
	C333.152161,431.892548 333.547699,429.892639 336.661713,429.063538 
	C340.142334,428.136810 341.000854,430.282349 341.852478,433.082703 
z"/>
<path class="icon" fill="#BC2A1F" opacity="1.000000" stroke="none" 
	d="
M399.125397,441.846313 
	C398.885742,445.570923 399.045532,448.935242 398.473999,452.170288 
	C398.250275,453.436737 396.385559,454.413239 395.268188,455.521759 
	C394.303436,454.456848 392.660187,453.490356 392.488983,452.310303 
	C391.656342,446.572296 391.342072,440.760773 390.585846,435.009277 
	C390.222504,432.245544 390.218628,429.530579 393.447815,429.316406 
	C395.327271,429.191803 397.329498,430.918213 399.276489,431.811768 
	C399.088135,432.223663 398.899750,432.635559 398.711365,433.047455 
	C399.031525,433.047455 399.408447,433.159973 399.663727,433.031281 
	C410.290802,427.673553 414.890594,430.444855 414.860168,442.300446 
	C414.851654,445.612762 414.742767,448.957123 414.240356,452.219055 
	C414.054810,453.423645 412.604034,454.433380 411.730316,455.531982 
	C410.613556,454.417938 408.674530,453.400482 408.530243,452.172241 
	C408.048523,448.071136 408.320770,443.887665 408.066040,439.750427 
	C407.972595,438.232513 407.214478,436.755524 406.759552,435.259888 
	C405.158875,435.943207 403.327301,436.340698 402.024689,437.393005 
	C400.802979,438.379974 400.140778,440.059509 399.125397,441.846313 
z"/>
<path class="icon" fill="#C1261D" opacity="1.000000" stroke="none" 
	d="
M194.569794,452.751160 
	C185.108246,457.468781 176.858383,454.176422 174.613846,445.129913 
	C173.135208,439.170288 175.526321,433.019409 180.324234,430.440521 
	C185.338409,427.745392 192.921143,428.743988 196.566498,432.579498 
	C200.598740,436.822083 201.212631,444.002777 197.864243,449.234619 
	C197.076172,450.465912 195.886642,451.440308 194.569794,452.751160 
M188.231384,449.121948 
	C192.650085,448.370392 195.104538,445.709778 194.874069,441.275970 
	C194.677002,437.484344 192.195206,435.370819 188.422409,434.902313 
	C183.422455,434.281403 179.690536,436.708252 179.105438,440.923401 
	C178.474136,445.471344 181.602692,448.569458 188.231384,449.121948 
z"/>
<path class="icon" fill="#C1261D" opacity="1.000000" stroke="none" 
	d="
M330.978180,436.355713 
	C333.053955,442.854553 332.051575,448.322632 326.918640,452.440186 
	C321.322388,456.929474 312.777618,455.649719 308.721924,449.998535 
	C304.352997,443.910889 305.748108,434.638458 311.595215,430.901337 
	C318.127838,426.726166 326.595734,428.965759 330.978180,436.355713 
M325.743561,437.847382 
	C324.556976,436.977448 323.289917,435.285217 322.198914,435.391998 
	C318.949524,435.709991 315.213165,435.980927 312.778870,437.777069 
	C311.405609,438.790375 311.428864,443.046143 312.233002,445.349030 
	C313.485626,448.936432 317.089325,449.551514 320.606476,449.052063 
	C325.595917,448.343536 327.716431,444.201111 325.743561,437.847382 
z"/>
<path class="icon" fill="#C0261E" opacity="1.000000" stroke="none" 
	d="
M264.153992,429.658569 
	C267.905914,431.888855 269.393738,434.833313 268.124573,438.701935 
	C266.263031,444.376373 261.318695,444.829681 256.325562,445.065338 
	C256.226288,445.581421 256.127014,446.097504 256.027740,446.613586 
	C258.207367,447.104370 260.420135,448.101410 262.558472,447.961426 
	C265.412781,447.774506 267.135315,448.207275 267.227722,451.385834 
	C267.321869,454.622864 265.404114,455.115173 262.681488,455.062225 
	C256.545563,454.942841 252.241806,452.418304 250.325089,447.517212 
	C248.079773,441.775879 249.563187,433.811157 253.572235,430.307983 
	C256.767731,427.515656 260.246826,427.800720 264.153992,429.658569 
M262.894073,435.870087 
	C261.285522,433.076904 259.037262,432.597198 256.987762,434.992889 
	C256.303467,435.792725 256.659149,438.884735 257.334137,439.193878 
	C259.806122,440.326019 262.262512,440.002655 262.894073,435.870087 
z"/>
<path class="icon" fill="#C0261E" opacity="1.000000" stroke="none" 
	d="
M436.479980,435.358032 
	C435.610016,442.604492 433.603790,444.182739 424.465607,445.228302 
	C424.358673,445.691376 424.251740,446.154480 424.144836,446.617554 
	C426.271667,447.108643 428.430267,448.100555 430.517609,447.968231 
	C433.332458,447.789825 435.118530,448.128448 435.225525,451.345856 
	C435.332581,454.564270 433.470642,455.114197 430.720245,455.064301 
	C424.587189,454.953003 420.264496,452.438904 418.338043,447.550415 
	C416.080536,441.821991 417.560913,433.869202 421.544434,430.324677 
	C426.300293,426.092926 433.534393,428.366699 436.479980,435.358032 
M426.807404,433.699860 
	C425.997864,435.250549 425.188354,436.801208 424.378815,438.351868 
	C425.517426,438.797272 426.803558,439.800049 427.757446,439.547577 
	C428.959808,439.229309 429.890930,437.886230 430.939087,436.985291 
	C429.800446,435.853180 428.661804,434.721100 426.807404,433.699860 
z"/>
<path class="icon" fill="#BE281E" opacity="1.000000" stroke="none" 
	d="
M280.363464,515.051758 
	C277.999390,515.567688 275.528473,516.208252 275.722412,513.135620 
	C275.804352,511.837708 277.807678,510.225403 279.296814,509.560760 
	C281.218170,508.703247 283.499573,508.652557 287.022644,507.992859 
	C283.569580,506.220062 281.402618,505.390503 279.558044,504.100220 
	C275.984985,501.600708 274.281097,498.134247 275.625031,493.753906 
	C276.962189,489.395630 280.319550,487.269135 284.639160,487.278625 
	C289.273682,487.288818 292.411865,489.862610 293.632996,494.430939 
	C296.117737,503.726532 290.218475,513.111816 280.363464,515.051758 
M281.718872,497.679077 
	C283.853912,499.181915 285.988922,500.684784 288.787170,502.654449 
	C289.124756,497.940491 290.219879,494.036377 285.375427,493.068420 
	C282.947479,492.583282 280.781281,493.767456 281.718872,497.679077 
z"/>
<path class="icon" fill="#BD291F" opacity="1.000000" stroke="none" 
	d="
M368.630310,437.968414 
	C368.636536,440.450226 368.168213,442.607056 368.780365,444.393677 
	C369.416229,446.249603 371.058105,447.778351 372.333527,449.392090 
	C373.317108,450.636536 374.414307,451.791199 375.460999,452.985809 
	C373.934387,453.628143 372.337158,454.942047 370.894012,454.790375 
	C366.023773,454.278564 362.975830,451.196808 362.368927,446.413177 
	C361.450134,439.171173 360.748322,431.877319 360.546326,424.589081 
	C360.505402,423.111847 362.829376,420.809540 364.528748,420.212036 
	C367.473267,419.176727 368.016937,421.691406 368.108337,424.044647 
	C368.282318,428.523346 368.456421,433.002075 368.630310,437.968414 
z"/>
<path class="icon" fill="#BD291F" opacity="1.000000" stroke="none" 
	d="
M209.551544,453.114258 
	C207.986694,454.092865 206.469406,455.038269 204.949554,455.042389 
	C204.421448,455.043854 203.576736,452.754791 203.409271,451.443817 
	C202.692841,445.835907 202.301163,440.185272 201.530670,434.586060 
	C201.160004,431.892395 201.528076,429.538391 204.406357,429.303894 
	C206.209457,429.156952 208.139709,430.570435 210.737701,431.559784 
	C213.030487,431.692200 216.396225,431.653534 219.653351,432.229340 
	C220.528198,432.383972 221.072388,434.409058 221.768372,435.575500 
	C220.556854,436.175476 219.064575,437.562408 218.179688,437.246735 
	C212.724670,435.300781 211.132492,438.843292 210.297684,442.789032 
	C209.617905,446.001953 209.798843,449.396942 209.551544,453.114258 
z"/>
<path class="icon" fill="#BD291F" opacity="1.000000" stroke="none" 
	d="
M271.350250,432.435303 
	C274.903503,427.489258 277.416412,427.645050 279.095276,431.244507 
	C283.286255,431.650024 286.772186,431.811462 290.165192,432.459442 
	C290.869263,432.593933 291.852112,434.738892 291.573730,435.584137 
	C291.287628,436.452789 289.617767,437.385376 288.548553,437.391144 
	C282.106476,437.426117 280.678467,438.488068 279.852173,444.802643 
	C279.594513,446.771637 280.056030,448.891174 279.523132,450.751190 
	C279.031128,452.468506 277.919617,454.946198 276.601807,455.298981 
	C273.615417,456.098419 273.500458,453.530182 273.300629,451.201233 
	C272.774689,445.071503 272.015350,438.961792 271.350250,432.435303 
z"/>
<path class="icon" fill="#BC2A1F" opacity="1.000000" stroke="none" 
	d="
M412.884888,503.839386 
	C412.787384,506.132538 413.039459,508.073395 412.467194,509.729401 
	C412.100433,510.790649 410.509644,512.088989 409.482635,512.076111 
	C408.458740,512.063293 406.652557,510.621918 406.564331,509.678314 
	C405.685638,500.280762 404.897797,490.862091 404.630646,481.433929 
	C404.591431,480.050537 407.409363,478.586151 408.905273,477.159180 
	C410.025787,478.444092 412.026794,479.668152 412.120422,481.023956 
	C412.633667,488.453583 412.679108,495.915558 412.884888,503.839386 
z"/>
<path class="icon" fill="#BC2A1F" opacity="1.000000" stroke="none" 
	d="
M299.463135,509.909729 
	C298.816589,500.736206 298.355865,491.949097 297.522430,483.197479 
	C297.190399,479.711090 298.159760,477.606812 301.655670,477.203888 
	C305.606903,476.748505 305.266144,479.919678 305.326660,482.261719 
	C305.549469,490.884460 305.650269,499.512360 305.613251,508.137543 
	C305.607758,509.410522 304.662445,511.716766 304.064453,511.745819 
	C302.569611,511.818512 301.024475,510.856903 299.463135,509.909729 
z"/>
<path class="icon" fill="#C2231D" opacity="1.000000" stroke="none" 
	d="
M383.982605,428.959167 
	C385.249573,430.339355 386.746399,431.700073 386.836121,433.147980 
	C387.214752,439.259857 387.367889,445.404968 387.137573,451.520416 
	C387.086182,452.884979 385.149017,454.178528 384.080048,455.504761 
	C383.082977,454.140228 381.445221,452.879730 381.203796,451.392517 
	C380.329437,446.005981 380.082611,440.519928 379.285614,435.117645 
	C378.750610,431.490997 379.571655,429.241241 383.982605,428.959167 
z"/>
<path class="icon" fill="#AD3E26" opacity="1.000000" stroke="none" 
	d="
M297.894623,474.766144 
	C297.105164,467.758820 298.458527,466.000580 302.986237,467.617279 
	C303.363525,467.751984 303.595093,468.294983 304.353943,469.190826 
	C302.416748,469.656525 300.876343,470.026825 298.253387,470.657379 
	C300.998108,471.714417 302.786224,472.403046 304.574341,473.091705 
	C304.578827,473.568878 304.583313,474.046051 304.587799,474.523224 
	C302.426910,474.707275 300.266052,474.891327 297.894623,474.766144 
z"/>
<path class="icon" fill="#AD3E26" opacity="1.000000" stroke="none" 
	d="
M408.901611,472.053070 
	C410.074921,472.569916 410.878845,473.068726 412.834930,474.282501 
	C409.409821,474.821716 407.416687,475.135498 404.174438,475.645935 
	C404.771118,472.615631 404.890045,469.994110 405.948120,467.832275 
	C406.277954,467.158356 409.147186,467.727325 410.853943,467.727325 
	C410.896301,468.236267 410.938660,468.745209 410.981018,469.254181 
	C409.434143,469.631714 407.887268,470.009277 405.513916,470.588562 
	C406.974274,471.288422 407.753235,471.661743 408.901611,472.053070 
z"/>
<path class="icon" fill="#BD291F" opacity="1.000000" stroke="none" 
	d="
M378.319763,423.349823 
	C380.159058,422.324829 381.898438,421.442352 383.729828,421.162842 
	C384.128632,421.101959 385.415894,423.277802 385.274414,424.279480 
	C385.135620,425.262207 383.332947,426.960114 382.895447,426.782257 
	C381.209991,426.097107 379.778870,424.786285 378.319763,423.349823 
z"/>
<path class="icon" fill="#AD3E26" opacity="1.000000" stroke="none" 
	d="
M232.079102,518.604492 
	C231.754883,518.617493 231.430603,518.643311 231.106476,518.641541 
	C229.234299,518.631348 227.362152,518.614746 225.489990,518.600342 
	C225.533539,517.522888 225.577087,516.445496 225.620636,515.368042 
	C227.501129,515.503113 229.381607,515.638184 231.631073,516.162354 
	C232.026398,517.235840 232.052750,517.920105 232.079102,518.604492 
z"/>
<path class="icon" fill="#B73122" opacity="1.000000" stroke="none" 
	d="
M332.547974,515.207153 
	C334.346954,515.274963 335.940735,515.437805 337.378204,516.000122 
	C337.606995,516.089661 337.499878,518.456909 336.897339,518.914734 
	C336.026337,519.576599 333.824097,520.003601 333.495453,519.561157 
	C332.694275,518.482361 332.643829,516.846130 332.547974,515.207153 
z"/>
<path class="icon" fill="#BD291F" opacity="1.000000" stroke="none" 
	d="
M266.336182,490.171631 
	C265.576721,488.720734 264.779907,487.341675 264.875427,486.027527 
	C264.912140,485.522766 267.151764,484.614502 268.078979,484.898346 
	C268.988037,485.176605 270.288055,487.303833 270.051331,487.630524 
	C269.243622,488.745270 267.834473,489.424194 266.336182,490.171631 
z"/>
<path class="icon" fill="#B73122" opacity="1.000000" stroke="none" 
	d="
M211.120697,490.772583 
	C212.745636,493.658752 211.716721,495.394470 209.080963,495.504028 
	C208.102142,495.544708 206.115509,493.538147 206.191833,492.594879 
	C206.418976,489.787201 208.451172,489.368805 211.120697,490.772583 
z"/>
<path class="icon" fill="#B73122" opacity="1.000000" stroke="none" 
	d="
M232.304749,518.889526 
	C232.052750,517.920105 232.026398,517.235840 231.974319,516.209961 
	C233.445023,515.510864 234.941452,515.153259 236.437866,514.795654 
	C236.672791,515.980835 236.907700,517.166077 237.142609,518.351257 
	C235.605209,518.625732 234.067795,518.900208 232.304749,518.889526 
z"/>
<path class="icon-back" fill="#03A450" opacity="1.000000" stroke="none" 
	d="
M208.831696,233.044922 
	C204.561493,214.624359 200.383469,196.609039 196.223068,178.589630 
	C196.154510,178.292755 196.300598,177.946304 196.450638,176.890274 
	C198.100296,176.890274 199.854691,176.890259 201.609070,176.890274 
	C271.942291,176.890427 342.275543,176.888000 412.608765,176.893768 
	C422.347412,176.894562 425.162537,180.382278 422.942596,189.956650 
	C415.942474,220.147278 408.891632,250.326187 401.819183,280.499969 
	C400.068634,287.968628 397.737396,289.759918 389.930237,289.762146 
	C335.763641,289.777679 281.596985,289.727753 227.430695,289.858734 
	C223.321228,289.868683 221.689072,288.691254 220.791092,284.569733 
	C217.067490,267.479279 212.918411,250.481537 208.831696,233.044922 
M302.121277,222.500061 
	C302.125153,235.968826 302.057404,249.438156 302.167206,262.906067 
	C302.212830,268.496704 306.048309,272.484253 310.910248,272.464996 
	C315.815338,272.445587 319.556396,268.493835 319.579956,262.830292 
	C319.661499,243.209442 319.657715,223.587891 319.586182,203.966995 
	C319.564972,198.149185 316.081421,194.336014 311.086731,194.207886 
	C305.902252,194.074890 302.257812,197.986526 302.148132,204.041077 
	C302.042725,209.859024 302.122833,215.680344 302.121277,222.500061 
M371.829041,241.500015 
	C371.828888,229.193848 371.866333,216.887512 371.813110,204.581573 
	C371.785522,198.204117 368.168121,194.095078 362.883087,194.211533 
	C357.798218,194.323578 354.282104,198.339203 354.263489,204.427261 
	C354.204559,223.717819 354.202637,243.008835 354.266968,262.299347 
	C354.286835,268.258423 357.990295,272.412933 362.982971,272.459747 
	C368.041901,272.507172 371.733704,268.411438 371.807678,262.455719 
	C371.890289,255.804764 371.828125,249.151993 371.829041,241.500015 
M250.008270,230.500000 
	C250.010284,241.158310 249.964386,251.816910 250.032990,262.474792 
	C250.071671,268.484833 253.739822,272.510651 258.857178,272.411560 
	C263.788055,272.316040 267.241730,268.408234 267.256683,262.596710 
	C267.306915,243.112106 267.308777,223.627228 267.260986,204.142609 
	C267.245911,197.999649 263.701324,194.119995 258.481049,194.238007 
	C253.466110,194.351379 250.091858,198.147324 250.034332,204.020172 
	C249.951141,212.512726 250.010010,221.006653 250.008270,230.500000 
z"/>
<path class="icon-back" fill="#05A350" opacity="1.000000" stroke="none" 
	d="
M375.809448,356.243103 
	C382.768036,365.823151 381.436401,376.345703 372.805634,382.275543 
	C364.717590,387.832520 353.699921,385.511261 348.368805,377.127014 
	C343.834625,369.996155 345.234009,360.608063 351.671936,354.967438 
	C358.624878,348.875580 367.764709,349.263031 375.809448,356.243103 
z"/>
<path class="icon-back" fill="#05A350" opacity="1.000000" stroke="none" 
	d="
M251.670029,381.826294 
	C243.692535,386.573181 236.082993,386.260498 230.115829,381.170746 
	C224.378723,376.277344 222.372025,368.533661 225.086884,361.764862 
	C227.925781,354.686859 234.922424,350.085510 242.339050,350.705231 
	C249.613556,351.313171 254.930588,355.040253 257.447052,361.907227 
	C260.269348,369.608795 258.167633,376.254425 251.670029,381.826294 
z"/>
<path class="icon-back" fill="#09A350" opacity="1.000000" stroke="none" 
	d="
M387.341553,493.855408 
	C389.198486,497.213287 390.700256,500.462555 392.615479,504.606354 
	C386.616333,505.172211 382.256653,505.583435 377.927673,505.991760 
	C376.579285,498.209534 379.927612,493.869049 387.341553,493.855408 
z"/>
<path class="icon-back" fill="#01A651" opacity="1.000000" stroke="none" 
	d="
M254.210327,494.818970 
	C254.628937,495.499969 254.787079,496.395905 255.200928,498.740417 
	C254.149918,497.004608 253.863251,496.531158 253.507874,495.766846 
	C253.609390,495.328583 253.779617,495.181244 254.210327,494.818970 
z"/>
<path class="icon-back" fill="#09A350" opacity="1.000000" stroke="none" 
	d="
M240.429276,445.185608 
	C239.624527,446.725372 238.929871,448.692261 237.977310,448.826233 
	C233.957642,449.391846 231.157913,447.350891 230.279556,443.411011 
	C229.440033,439.645416 230.560349,436.353760 234.416565,434.830536 
	C237.549179,433.593140 240.044067,433.980743 240.022644,438.300018 
	C240.011948,440.455872 240.279221,442.613037 240.429276,445.185608 
z"/>
<path class="icon-back" fill="#07A350" opacity="1.000000" stroke="none" 
	d="
M187.818542,449.132446 
	C181.602692,448.569458 178.474136,445.471344 179.105438,440.923401 
	C179.690536,436.708252 183.422455,434.281403 188.422409,434.902313 
	C192.195206,435.370819 194.677002,437.484344 194.874069,441.275970 
	C195.104538,445.709778 192.650085,448.370392 187.818542,449.132446 
z"/>
<path class="icon-back" fill="#07A350" opacity="1.000000" stroke="none" 
	d="
M325.936127,438.191467 
	C327.716431,444.201111 325.595917,448.343536 320.606476,449.052063 
	C317.089325,449.551514 313.485626,448.936432 312.233002,445.349030 
	C311.428864,443.046143 311.405609,438.790375 312.778870,437.777069 
	C315.213165,435.980927 318.949524,435.709991 322.198914,435.391998 
	C323.289917,435.285217 324.556976,436.977448 325.936127,438.191467 
z"/>
<path class="icon-back" fill="#1B9C4D" opacity="1.000000" stroke="none" 
	d="
M262.935150,436.239197 
	C262.262512,440.002655 259.806122,440.326019 257.334137,439.193878 
	C256.659149,438.884735 256.303467,435.792725 256.987762,434.992889 
	C259.037262,432.597198 261.285522,433.076904 262.935150,436.239197 
z"/>
<path class="icon-back" fill="#1B9C4D" opacity="1.000000" stroke="none" 
	d="
M427.165283,433.644440 
	C428.661804,434.721100 429.800446,435.853180 430.939087,436.985291 
	C429.890930,437.886230 428.959808,439.229309 427.757446,439.547577 
	C426.803558,439.800049 425.517426,438.797272 424.378845,438.351868 
	C425.188354,436.801208 425.997864,435.250549 427.165283,433.644440 
z"/>
<path class="icon-back" fill="#09A350" opacity="1.000000" stroke="none" 
	d="
M281.531891,497.354614 
	C280.781281,493.767456 282.947479,492.583282 285.375427,493.068420 
	C290.219879,494.036377 289.124756,497.940491 288.787170,502.654449 
	C285.988922,500.684784 283.853912,499.181915 281.531891,497.354614 
z"/>
<path class="icon" fill="#BF231D" opacity="1.000000" stroke="none" 
	d="
M302.121338,222.000122 
	C302.122833,215.680344 302.042725,209.859024 302.148132,204.041077 
	C302.257812,197.986526 305.902252,194.074890 311.086731,194.207886 
	C316.081421,194.336014 319.564972,198.149185 319.586182,203.966995 
	C319.657715,223.587891 319.661499,243.209442 319.579956,262.830292 
	C319.556396,268.493835 315.815338,272.445587 310.910248,272.464996 
	C306.048309,272.484253 302.212830,268.496704 302.167206,262.906067 
	C302.057404,249.438156 302.125153,235.968826 302.121338,222.000122 
z"/>
<path class="icon" fill="#BF221C" opacity="1.000000" stroke="none" 
	d="
M371.828979,242.000015 
	C371.828125,249.151993 371.890289,255.804764 371.807678,262.455719 
	C371.733704,268.411438 368.041901,272.507172 362.982971,272.459747 
	C357.990295,272.412933 354.286835,268.258423 354.266968,262.299347 
	C354.202637,243.008835 354.204559,223.717819 354.263489,204.427261 
	C354.282104,198.339203 357.798218,194.323578 362.883087,194.211533 
	C368.168121,194.095078 371.785522,198.204117 371.813110,204.581573 
	C371.866333,216.887512 371.828888,229.193848 371.828979,242.000015 
z"/>
<path class="icon" fill="#C3201B" opacity="1.000000" stroke="none" 
	d="
M250.008270,230.000000 
	C250.010010,221.006653 249.951141,212.512726 250.034332,204.020172 
	C250.091858,198.147324 253.466110,194.351379 258.481049,194.238007 
	C263.701324,194.119995 267.245911,197.999649 267.260986,204.142609 
	C267.308777,223.627228 267.306915,243.112106 267.256683,262.596710 
	C267.241730,268.408234 263.788055,272.316040 258.857178,272.411560 
	C253.739822,272.510651 250.071671,268.484833 250.032990,262.474792 
	C249.964386,251.816910 250.010284,241.158310 250.008270,230.000000 
z"/>
</svg>