<svg version="1.0" xmlns="http://www.w3.org/2000/svg" viewBox="0 0 1181.000000 1181.000000"
 preserveAspectRatio="xMidYMid meet"><g><path style="opacity:0.998" fill="currentColor" d="M 100.5,12.5 C 427.834,12.3333 755.167,12.5 1082.5,13C 1130.33,22.1667 1158.83,50.6667 1168,98.5C 1168.67,425.833 1168.67,753.167 1168,1080.5C 1158.83,1128.33 1130.33,1156.83 1082.5,1166C 755.167,1166.67 427.833,1166.67 100.5,1166C 52.6667,1156.83 24.1667,1128.33 15,1080.5C 14.3333,753.167 14.3333,425.833 15,98.5C 24.3464,50.6539 52.8464,21.9873 100.5,12.5 Z"/></g>
<g><path class="icon-back" style="opacity:1" fill="#fefefe" d="M 137.5,65.5 C 439.834,65.3333 742.167,65.5 1044.5,66C 1084.25,72.7465 1107.75,95.9131 1115,135.5C 1115.67,437.833 1115.67,740.167 1115,1042.5C 1108.17,1082.67 1084.67,1106.17 1044.5,1113C 742.167,1113.67 439.833,1113.67 137.5,1113C 96.9929,1105.49 73.8262,1081.33 68,1040.5C 67.3333,738.833 67.3333,437.167 68,135.5C 75.3462,96.3208 98.5129,72.9875 137.5,65.5 Z"/></g>
<g><path class="icon" style="opacity:1" fill="currentColor" d="M 568.5,221.5 C 674.053,216.046 762.219,252.046 833,329.5C 897.424,407.437 921.091,496.437 904,596.5C 884.793,689.147 834.96,759.98 754.5,809C 663.877,858.777 570.211,865.111 473.5,828C 462.931,822.881 452.265,818.048 441.5,813.5C 385.688,830.87 330.021,848.703 274.5,867C 272.866,867.494 271.199,867.66 269.5,867.5C 286.219,813.177 304.052,759.177 323,705.5C 323.667,702.167 323.667,698.833 323,695.5C 284.953,629.198 271.953,558.198 284,482.5C 303.267,385.722 355.1,312.222 439.5,262C 479.884,239.703 522.884,226.203 568.5,221.5 Z"/></g>
<g><path class="icon-back" style="opacity:1" fill="#fefefe" d="M 578.5,273.5 C 687.967,272.129 770.467,318.129 826,411.5C 852.46,461.7 862.127,515.033 855,571.5C 841.24,657.227 797.073,722.061 722.5,766C 651.52,803.489 578.187,808.822 502.5,782C 485.167,775.501 468.834,767.167 453.5,757C 452,756.833 450.5,756.667 449,756.5C 416.374,766.394 383.874,776.727 351.5,787.5C 351.167,787 350.833,786.5 350.5,786C 361.141,754.578 371.474,723.078 381.5,691.5C 381.333,690.167 381.167,688.833 381,687.5C 335.574,620.894 322.241,548.227 341,469.5C 371.494,370.005 436.994,306.839 537.5,280C 551.2,277.117 564.867,274.95 578.5,273.5 Z"/></g>
<g><path class="icon" style="opacity:1" fill="currentColor" d="M 481.5,382.5 C 492.916,382.573 504.249,383.406 515.5,385C 518.531,387.559 520.698,390.726 522,394.5C 530.53,416.422 538.863,438.422 547,460.5C 548.445,468.498 546.445,475.498 541,481.5C 534.333,488.833 527.667,496.167 521,503.5C 519.517,506.702 519.183,510.036 520,513.5C 544.977,561.144 582.143,595.644 631.5,617C 634.964,617.817 638.298,617.483 641.5,616C 653.575,603.929 664.908,591.263 675.5,578C 678.5,577.333 681.5,577.333 684.5,578C 708.397,588.948 731.73,600.948 754.5,614C 756.378,615.543 757.878,617.376 759,619.5C 759.629,656.379 742.129,679.879 706.5,690C 688.057,694.942 669.724,694.609 651.5,689C 621.723,679.078 593.389,666.078 566.5,650C 533.625,626.791 505.791,598.625 483,565.5C 473.167,551.172 463.834,536.505 455,521.5C 447.138,505.58 441.471,488.913 438,471.5C 435.374,438.601 446.208,411.101 470.5,389C 474.096,386.539 477.763,384.373 481.5,382.5 Z"/></g>
<g><path class="icon" style="opacity:1" fill="currentColor" d="M 821.5,948.5 C 824.85,948.335 828.183,948.502 831.5,949C 832.701,949.903 833.535,951.069 834,952.5C 835.267,971.123 835.934,989.79 836,1008.5C 837.122,1010.62 838.622,1012.46 840.5,1014C 853.59,1016.73 858.09,1011.56 854,998.5C 847.302,988.036 850.136,982.369 862.5,981.5C 868.001,981.164 870.834,983.831 871,989.5C 871.333,996.833 871.667,1004.17 872,1011.5C 875.667,1015.5 879.333,1015.5 883,1011.5C 884.658,1003.46 883.158,996.128 878.5,989.5C 883.179,981.454 889.679,979.454 898,983.5C 900.521,992.041 901.188,1000.71 900,1009.5C 903.804,1015.38 908.471,1016.04 914,1011.5C 917.655,1004.41 916.988,997.747 912,991.5C 911.247,987.507 912.747,984.674 916.5,983C 920.375,981.48 924.375,981.146 928.5,982C 929.701,982.903 930.535,984.069 931,985.5C 931.969,994.527 932.969,1003.53 934,1012.5C 937.958,1014.92 942.125,1015.09 946.5,1013C 950.889,1004.84 950.223,997.005 944.5,989.5C 947.932,983.282 953.266,980.448 960.5,981C 958,979.833 956.167,978 955,975.5C 950.751,982.317 945.751,982.984 940,977.5C 937.389,971.884 938.889,967.718 944.5,965C 949.423,964.045 952.923,965.879 955,970.5C 957.735,964.878 961.901,963.378 967.5,966C 971.774,969.033 972.607,972.867 970,977.5C 967.97,979.737 965.47,981.237 962.5,982C 965.785,987.313 967.119,993.146 966.5,999.5C 966.471,1021.52 955.471,1031.68 933.5,1030C 930.072,1028.54 926.905,1026.71 924,1024.5C 916.981,1029.76 909.147,1031.59 900.5,1030C 897.659,1028.41 894.993,1026.58 892.5,1024.5C 886.456,1029.85 879.456,1031.68 871.5,1030C 868.438,1028.94 865.938,1027.11 864,1024.5C 856.787,1030.11 848.62,1031.95 839.5,1030C 833.695,1028.87 828.862,1026.04 825,1021.5C 821.802,1015.91 819.802,1009.91 819,1003.5C 816.822,986.875 815.488,970.208 815,953.5C 816.965,951.45 819.132,949.783 821.5,948.5 Z"/></g>
<g><path class="icon" style="opacity:1" fill="currentColor" d="M 981.5,947.5 C 985.516,946.9 989.016,947.9 992,950.5C 992.886,955.47 993.552,960.47 994,965.5C 994.667,986.167 994.667,1006.83 994,1027.5C 990.239,1030.09 986.073,1030.92 981.5,1030C 980,1029.17 978.833,1028 978,1026.5C 977.571,1004.59 976.071,982.759 973.5,961C 973.667,958.5 973.833,956 974,953.5C 976.114,950.879 978.614,948.879 981.5,947.5 Z"/></g>
<g><path class="icon" style="opacity:1" fill="currentColor" d="M 300.5,995.5 C 300.5,1007.17 300.5,1018.83 300.5,1030.5C 295.5,1030.5 290.5,1030.5 285.5,1030.5C 285.667,1018.83 285.5,1007.16 285,995.5C 283.7,991.013 280.7,989.013 276,989.5C 271.351,989.797 268.018,992.13 266,996.5C 265.5,1007.83 265.333,1019.16 265.5,1030.5C 260.5,1030.5 255.5,1030.5 250.5,1030.5C 250.5,1005.83 250.5,981.167 250.5,956.5C 255.5,956.5 260.5,956.5 265.5,956.5C 265.334,965.173 265.5,973.84 266,982.5C 272.826,976.378 280.66,974.878 289.5,978C 296.344,981.859 300.011,987.692 300.5,995.5 Z"/></g>
<g><path class="icon" style="opacity:1" fill="currentColor" d="M 226.5,961.5 C 232.013,960.184 237.68,960.184 243.5,961.5C 243.376,962.107 243.043,962.44 242.5,962.5C 237.36,961.512 232.026,961.179 226.5,961.5 Z"/></g>
<g><path class="icon" style="opacity:1" fill="currentColor" d="M 226.5,961.5 C 232.026,961.179 237.36,961.512 242.5,962.5C 235.038,984.885 227.372,1007.22 219.5,1029.5C 215.285,1030.8 211.118,1030.8 207,1029.5C 202.586,1013.93 197.586,998.592 192,983.5C 186.7,999.035 181.867,1014.7 177.5,1030.5C 173.069,1030.77 168.735,1030.44 164.5,1029.5C 156.636,1006.57 148.969,983.574 141.5,960.5C 147.167,960.5 152.833,960.5 158.5,960.5C 162.312,974.102 166.812,987.435 172,1000.5C 176.144,987.236 179.978,973.903 183.5,960.5C 189.206,960.171 194.872,960.505 200.5,961.5C 204.178,974.367 208.345,987.034 213,999.5C 217.41,986.767 221.91,974.1 226.5,961.5 Z"/></g>
<g><path class="icon" style="opacity:1" fill="currentColor" d="M 403.5,977.5 C 399.167,977.5 394.833,977.5 390.5,977.5C 390.5,972.167 390.5,966.833 390.5,961.5C 385.833,961.5 381.167,961.5 376.5,961.5C 376.5,966.833 376.5,972.167 376.5,977.5C 374.167,977.5 371.833,977.5 369.5,977.5C 371.265,976.539 373.265,976.205 375.5,976.5C 375.5,971.167 375.5,965.833 375.5,960.5C 380.833,960.5 386.167,960.5 391.5,960.5C 391.5,965.833 391.5,971.167 391.5,976.5C 395.702,976.183 399.702,976.517 403.5,977.5 Z"/></g>
<g><path class="icon" style="opacity:1" fill="currentColor" d="M 403.5,977.5 C 403.5,980.833 403.5,984.167 403.5,987.5C 399.167,987.5 394.833,987.5 390.5,987.5C 390.173,996.682 390.507,1005.68 391.5,1014.5C 392.242,1017.14 394.075,1018.47 397,1018.5C 399.248,1017.77 401.415,1016.77 403.5,1015.5C 406.507,1018.96 407.84,1022.79 407.5,1027C 397.263,1033.64 387.763,1032.81 379,1024.5C 377.659,1021.98 376.826,1019.31 376.5,1016.5C 376.5,1006.83 376.5,997.167 376.5,987.5C 374.167,987.5 371.833,987.5 369.5,987.5C 369.5,984.167 369.5,980.833 369.5,977.5C 371.833,977.5 374.167,977.5 376.5,977.5C 376.5,972.167 376.5,966.833 376.5,961.5C 381.167,961.5 385.833,961.5 390.5,961.5C 390.5,966.833 390.5,972.167 390.5,977.5C 394.833,977.5 399.167,977.5 403.5,977.5 Z"/></g>
<g><path class="icon" style="opacity:1" fill="currentColor" d="M 535.5,1029.5 C 530.36,1030.49 525.026,1030.82 519.5,1030.5C 517.515,1025.86 515.515,1021.19 513.5,1016.5C 503.522,1015.5 493.522,1015.17 483.5,1015.5C 481.893,1020.65 479.893,1025.65 477.5,1030.5C 471.974,1030.82 466.64,1030.49 461.5,1029.5C 471.154,1006.85 480.821,984.188 490.5,961.5C 495.833,960.167 501.167,960.167 506.5,961.5C 516.562,984.027 526.229,1006.69 535.5,1029.5 Z"/></g>
<g><path class="icon" style="opacity:1" fill="currentColor" d="M 1015.5,970.5 C 1029.34,969.182 1038.18,975.182 1042,988.5C 1044.13,1005.11 1039.3,1019.28 1027.5,1031C 1020.21,1035.43 1012.37,1038.26 1004,1039.5C 999.679,1035.82 998.346,1031.15 1000,1025.5C 1001.17,1024.33 1002.33,1023.17 1003.5,1022C 1007.5,1021.67 1011.5,1021.33 1015.5,1021C 1017.78,1020.53 1019.78,1019.53 1021.5,1018C 1003.18,1013.36 996.013,1001.86 1000,983.5C 1003.54,977.157 1008.71,972.824 1015.5,970.5 Z"/></g>
<g><path class="icon" style="opacity:1" fill="currentColor" d="M 327.5,976.5 C 334.574,976.161 341.574,976.661 348.5,978C 353.667,979.833 357.167,983.333 359,988.5C 359.5,1002.5 359.667,1016.5 359.5,1030.5C 354.833,1030.5 350.167,1030.5 345.5,1030.5C 345.66,1028.8 345.494,1027.13 345,1025.5C 338.174,1031.62 330.34,1033.12 321.5,1030C 310.702,1022.53 308.702,1013.2 315.5,1002C 317.167,1001 318.833,1000 320.5,999C 328.415,997.599 336.415,997.099 344.5,997.5C 345.155,993.645 343.821,990.812 340.5,989C 333.112,987.441 326.445,988.941 320.5,993.5C 317.801,990.6 315.467,987.433 313.5,984C 317.815,980.678 322.482,978.178 327.5,976.5 Z"/></g>
<g><path class="icon" style="opacity:1" fill="currentColor" d="M 430.5,976.5 C 440.034,975.037 448.701,977.037 456.5,982.5C 454.898,986.095 452.898,989.429 450.5,992.5C 444.453,987.743 437.953,986.743 431,989.5C 430.175,991.701 430.675,993.534 432.5,995C 439.326,997.275 445.993,999.942 452.5,1003C 458.181,1009.12 459.014,1015.96 455,1023.5C 452.072,1027.38 448.239,1029.88 443.5,1031C 431.919,1032.86 421.586,1030.19 412.5,1023C 414.671,1019.78 417.171,1016.95 420,1014.5C 424.794,1017.9 430.127,1019.9 436,1020.5C 438.814,1020.59 441.147,1019.59 443,1017.5C 443.711,1015.63 443.211,1014.13 441.5,1013C 435.995,1010.28 430.328,1007.94 424.5,1006C 414.932,1000.33 413.099,992.833 419,983.5C 422.263,980.037 426.097,977.704 430.5,976.5 Z"/></g>
<g><path class="icon" style="opacity:1" fill="currentColor" d="M 558.5,1025.5 C 557.501,1032.75 557.168,1040.75 557.5,1049.5C 552.833,1049.5 548.167,1049.5 543.5,1049.5C 543.5,1025.5 543.5,1001.5 543.5,977.5C 548.167,977.5 552.833,977.5 557.5,977.5C 557.215,979.288 557.548,980.955 558.5,982.5C 560.865,979.65 563.865,977.816 567.5,977C 586.585,975.077 596.919,983.744 598.5,1003C 598.003,1019.82 589.503,1029.32 573,1031.5C 567.405,1031.28 562.572,1029.28 558.5,1025.5 Z"/></g>
<g><path class="icon" style="opacity:1" fill="currentColor" d="M 633.5,976.5 C 649.58,974.283 659.747,980.95 664,996.5C 666.902,1011.16 662.069,1022.32 649.5,1030C 640.03,1033.4 631.863,1031.56 625,1024.5C 624.5,1033.16 624.334,1041.83 624.5,1050.5C 619.5,1050.5 614.5,1050.5 609.5,1050.5C 609.5,1026.17 609.5,1001.83 609.5,977.5C 614.5,977.5 619.5,977.5 624.5,977.5C 624.34,979.199 624.506,980.866 625,982.5C 627.736,980.248 630.569,978.248 633.5,976.5 Z"/></g>
<g><path class="icon" style="opacity:1" fill="currentColor" d="M 557.5,977.5 C 552.833,977.5 548.167,977.5 543.5,977.5C 543.5,1001.5 543.5,1025.5 543.5,1049.5C 548.167,1049.5 552.833,1049.5 557.5,1049.5C 557.168,1040.75 557.501,1032.75 558.5,1025.5C 558.5,1033.83 558.5,1042.17 558.5,1050.5C 553.167,1050.5 547.833,1050.5 542.5,1050.5C 542.5,1025.83 542.5,1001.17 542.5,976.5C 547.695,976.179 552.695,976.513 557.5,977.5 Z"/></g>
<g><path class="icon" style="opacity:1" fill="currentColor" d="M 744.5,981.5 C 751.092,980.64 756.592,982.64 761,987.5C 760.306,990.917 758.973,994.251 757,997.5C 755.282,1003.16 756.782,1007.66 761.5,1011C 772.546,1017.52 782.713,1016.35 792,1007.5C 793.483,1004.3 793.817,1000.96 793,997.5C 791.483,994.657 789.983,991.823 788.5,989C 792.243,982.41 797.909,980.076 805.5,982C 807.317,983.8 808.484,985.966 809,988.5C 813.732,1011.53 804.566,1025.37 781.5,1030C 766.455,1032.43 753.955,1027.93 744,1016.5C 737.909,1004.62 738.076,992.952 744.5,981.5 Z"/></g>
<g><path class="icon-back" style="opacity:1" fill="#f1f6f6" d="M 497.5,982.5 C 499.446,984.353 500.946,986.686 502,989.5C 504.079,993.653 505.579,997.986 506.5,1002.5C 501.167,1002.5 495.833,1002.5 490.5,1002.5C 492.833,995.833 495.167,989.167 497.5,982.5 Z"/></g>
<g><path class="icon-back" style="opacity:1" fill="#f7fafa" d="M 1018.5,986.5 C 1026.23,986.569 1029.9,990.569 1029.5,998.5C 1029.69,1000.72 1028.86,1002.39 1027,1003.5C 1022.67,1002.17 1019.01,999.838 1016,996.5C 1013.49,992.2 1014.32,988.867 1018.5,986.5 Z"/></g>
<g><path class="icon" style="opacity:1" fill="currentColor" d="M 369.5,987.5 C 371.833,987.5 374.167,987.5 376.5,987.5C 376.5,997.167 376.5,1006.83 376.5,1016.5C 375.506,1007.35 375.173,998.015 375.5,988.5C 373.265,988.795 371.265,988.461 369.5,987.5 Z"/></g>
<g><path class="icon" style="opacity:1" fill="currentColor" d="M 403.5,987.5 C 399.702,988.483 395.702,988.817 391.5,988.5C 391.5,997.167 391.5,1005.83 391.5,1014.5C 390.507,1005.68 390.173,996.682 390.5,987.5C 394.833,987.5 399.167,987.5 403.5,987.5 Z"/></g>
<g><path class="icon-back" style="opacity:1" fill="#fafbfb" d="M 567.5,988.5 C 576.289,988.482 581.456,992.815 583,1001.5C 583.262,1013.57 577.429,1019.07 565.5,1018C 558.11,1012.49 555.943,1005.32 559,996.5C 561.074,992.923 563.907,990.256 567.5,988.5 Z"/></g>
<g><path class="icon-back" style="opacity:1" fill="#fbfcfc" d="M 633.5,988.5 C 647.385,990.247 652.219,997.913 648,1011.5C 643.775,1018.34 637.942,1020.18 630.5,1017C 623.957,1010.4 622.791,1002.9 627,994.5C 629.063,992.266 631.229,990.266 633.5,988.5 Z"/></g>
<g><path class="icon" style="opacity:1" fill="currentColor" d="M 675.5,994.5 C 687.5,994.5 699.5,994.5 711.5,994.5C 711.5,998.833 711.5,1003.17 711.5,1007.5C 699.5,1007.5 687.5,1007.5 675.5,1007.5C 675.5,1003.17 675.5,998.833 675.5,994.5 Z"/></g>
<g><path class="icon" style="opacity:1" fill="currentColor" d="M 300.5,995.5 C 301.495,1007.32 301.828,1019.32 301.5,1031.5C 295.974,1031.82 290.64,1031.49 285.5,1030.5C 290.5,1030.5 295.5,1030.5 300.5,1030.5C 300.5,1018.83 300.5,1007.17 300.5,995.5 Z"/></g>
<g><path class="icon-back" style="opacity:1" fill="#f5f9f9" d="M 331.5,1007.5 C 335.833,1007.5 340.167,1007.5 344.5,1007.5C 344.426,1016.72 339.759,1020.56 330.5,1019C 324.919,1014.45 325.252,1010.62 331.5,1007.5 Z"/></g>
<g><path class="icon" style="opacity:1" fill="currentColor" d="M 164.5,1029.5 C 168.735,1030.44 173.069,1030.77 177.5,1030.5C 175.527,1031.16 173.361,1031.5 171,1031.5C 168.39,1031.47 166.223,1030.8 164.5,1029.5 Z"/></g>
<g><path class="icon" style="opacity:1" fill="currentColor" d="M 461.5,1029.5 C 466.64,1030.49 471.974,1030.82 477.5,1030.5C 471.987,1031.82 466.32,1031.82 460.5,1030.5C 460.624,1029.89 460.957,1029.56 461.5,1029.5 Z"/></g>
<g><path class="icon" style="opacity:1" fill="currentColor" d="M 535.5,1029.5 C 536.043,1029.56 536.376,1029.89 536.5,1030.5C 530.68,1031.82 525.013,1031.82 519.5,1030.5C 525.026,1030.82 530.36,1030.49 535.5,1029.5 Z"/></g>
<g><path class="icon" style="opacity:1" fill="currentColor" d="M 771.5,1032.5 C 779.665,1031.18 783.498,1034.51 783,1042.5C 780.983,1047.92 777.15,1049.76 771.5,1048C 764.888,1042.84 764.888,1037.67 771.5,1032.5 Z"/></g>
</svg>
